<svg width="720" height="223" viewBox="0 0 720 223" fill="none" xmlns="http://www.w3.org/2000/svg">
<path d="M583.968 7.53326C535.722 6.81317 487.531 10.5798 439.728 16.4513C435.74 16.9498 431.696 17.5591 427.708 18.0577L417.239 0L416.076 19.664C392.534 22.9875 369.104 26.8649 345.729 31.2409C313.768 36.78 281.917 43.3163 250.344 50.7387C218.383 58.3828 186.699 67.1347 155.458 77.4929C155.071 75.7204 154.572 74.0586 153.797 72.6184C152.744 70.7351 151.359 68.9626 149.587 67.467C147.814 65.916 145.599 64.642 142.829 63.5896C140.059 62.5371 136.957 61.8171 133.468 61.4293C128.815 60.9308 123.442 60.6538 117.349 60.6538C112.197 60.6538 106.88 60.7646 101.341 60.9862C95.8569 61.2078 91.204 61.3185 87.4374 61.3185C83.7815 61.3185 79.0178 61.2631 73.0909 61.097C72.1493 67.0239 70.8199 75.0557 69.0474 85.0815C67.2748 95.1628 65.5023 104.69 63.7298 113.774C63.6744 114.051 63.619 114.328 63.5636 114.605C-42.179 169.498 -14.594 220.625 135.905 222.508C184.151 223.228 232.342 219.462 280.145 213.59C311.552 209.547 342.904 204.672 374.089 198.856C406.105 193.317 437.9 186.781 469.473 179.358C516.279 168.114 562.753 154.764 607.62 137.15C767.48 74.8341 754.297 9.58275 583.968 7.53326ZM225.03 81.2595C230.182 81.2595 234.668 82.4781 238.38 84.9154C242.146 87.3526 244.694 90.7315 246.19 95.1628C247.685 99.5942 247.962 104.358 247.187 109.565C246.356 114.938 244.417 120.034 241.371 124.964C238.324 129.838 234.391 133.66 229.572 136.319C224.753 139.033 219.768 140.362 214.506 140.362C209.576 140.362 205.089 139.144 201.046 136.707C197.057 134.325 194.288 130.946 192.792 126.681C191.352 122.416 190.964 117.707 191.795 112.556C192.681 106.961 194.62 101.754 197.777 96.8246C200.879 91.9501 204.868 88.1281 209.742 85.3585C214.45 82.6443 219.602 81.2595 225.03 81.2595ZM594.271 134.325C591.169 131.832 589.95 128.065 590.781 122.914C590.892 122.305 591.058 121.585 591.169 120.809L626.952 120.754C615.597 125.85 604.407 130.392 594.271 134.325ZM593.495 109.675C594.105 107.737 594.714 106.241 595.268 105.133C595.766 104.025 596.486 102.862 597.373 101.754C598.259 100.591 599.311 99.5388 600.53 98.6525C601.749 97.7662 603.023 97.0461 604.407 96.603C605.792 96.1045 607.232 95.8829 608.617 95.8829C610.611 95.8829 612.439 96.2707 613.935 97.1015C615.43 97.9324 616.483 99.2064 617.092 101.034C617.701 102.862 617.812 105.023 617.369 107.571C617.258 108.18 617.148 108.9 616.981 109.731H593.495V109.675ZM643.015 113.331C643.126 112.722 643.292 112.057 643.403 111.503C644.179 106.85 644.123 102.475 643.292 98.4309C642.517 94.3873 640.634 90.7315 637.698 87.5188C634.762 84.3615 630.995 82.035 626.287 80.761C621.579 79.4316 616.538 78.8223 611.11 78.8223C605.903 78.8223 600.696 79.5424 595.489 80.9826C590.283 82.4227 585.519 84.7492 581.198 88.1281C576.878 91.507 573 96.1599 569.677 102.087C566.353 108.014 564.193 114.162 563.196 120.366C562.531 124.797 562.421 129.062 563.03 133.272C563.584 137.427 564.802 141.082 566.63 144.074C566.686 144.184 566.741 144.295 566.797 144.406C564.304 145.292 562.033 146.068 560.039 146.732C554.998 148.45 549.902 150.056 544.861 151.662C545.748 146.289 547.077 138.091 548.96 127.068C550.29 119.258 551.619 111.891 553.059 104.967C554.5 97.9878 556.328 89.9006 558.599 80.7056C552.284 80.8164 547.465 80.8718 544.086 80.8718C540.375 80.8718 535.445 80.8164 529.296 80.7056C527.69 90.2884 526.194 98.7079 524.81 105.964C523.48 113.22 522.151 119.867 520.932 125.85C519.714 131.832 518.606 136.762 517.664 140.584C516.722 144.461 515.448 149.28 513.898 155.263C520.434 155.207 525.751 155.152 529.795 155.097C531.069 155.097 532.565 155.097 534.06 155.097C481.438 171.492 427.708 184.565 373.48 194.757C310.832 205.669 247.464 212.704 183.985 214.809C148.645 215.917 18.9733 217.855 8.33813 178.583C6.62099 159.971 31.2703 140.806 61.7357 124.354C60.7386 129.118 59.7416 133.605 58.7999 137.593C57.1935 144.461 55.2548 152.161 53.0392 160.747C60.2401 160.691 65.2253 160.636 67.8841 160.636C70.266 160.636 75.4174 160.691 83.283 160.802C85.6095 147.009 88.1021 132.885 90.8163 118.538C93.5304 104.192 95.9677 92.0055 98.128 82.035C100.51 81.9796 102.559 81.9242 104.387 81.8688C106.16 81.8134 107.932 81.758 109.539 81.758C114.468 81.758 118.014 82.1458 120.229 82.9213C122.445 83.6968 123.996 84.9154 124.827 86.4663C125.713 88.0173 125.935 89.8452 125.602 91.9501C125.214 94.4427 124.162 96.7692 122.334 99.0402C120.562 101.311 118.124 102.918 115.133 104.025C112.197 105.133 108.929 105.632 105.495 105.632C103.002 105.632 100.565 105.355 98.0726 104.856L102.172 125.517C103.39 131.721 104.332 136.596 104.941 140.03C105.218 141.581 105.55 143.797 105.938 146.677C106.88 153.546 107.489 158.199 107.877 160.747C115.687 160.636 121.282 160.58 124.661 160.58C127.375 160.58 132.637 160.636 140.447 160.747C139.782 158.032 139.339 156.204 139.007 155.263L132.803 133.882C132.028 131.167 131.363 128.564 130.698 125.961L128.427 116.655C133.468 114.771 137.456 112.888 140.392 111.06C143.328 109.232 145.82 107.072 147.98 104.524C150.141 102.031 151.802 99.3172 153.021 96.4922C154.24 93.6673 155.126 90.5653 155.624 87.2972C155.791 86.3002 155.846 85.3031 155.901 84.3615C157.231 83.9183 158.616 83.4198 159.779 83.0321C166.592 80.761 173.461 78.5453 180.329 76.3297C177.393 78.8777 174.679 81.6473 172.353 84.7492C166.315 92.781 162.382 102.142 160.721 112.833C159.613 120.089 159.723 126.681 161.053 132.663C162.382 138.59 165.373 144.018 170.082 148.837C174.735 153.712 180.606 157.201 187.585 159.362C194.565 161.522 202.098 162.63 210.13 162.63C218.272 162.63 226.249 161.522 234.059 159.306C241.869 157.091 248.904 153.601 255.052 148.837C261.201 144.074 266.242 138.258 270.174 131.444C274.107 124.576 276.711 117.043 277.985 108.9C279.203 101.09 278.982 94.2212 277.264 88.2389C275.603 82.2566 272.445 76.9944 267.959 72.3415C263.472 67.6886 257.822 64.4205 251.12 62.3156C246.854 60.9862 242.479 60.1553 237.881 59.6568C273.719 50.074 309.946 41.8761 346.449 35.0629C369.492 31.1855 392.59 27.6958 415.799 24.7601L413.694 60.7092L420.729 24.3723L444.215 71.1229L489.027 65.4729L452.801 96.88L478.89 137.981L435.795 119.258L402.893 156.98L437.9 127.955L504.481 162.685L473.295 98.8741L526.527 47.0829L450.806 57.7735L430.644 22.9875C465.651 18.9439 500.825 16.2297 536.054 15.0111C571.394 13.9033 701.066 11.9646 711.646 51.2373C713.64 72.9508 679.962 95.3844 643.015 113.331Z" fill="#F5F5F5"/>
<path d="M403.505 88.3496C401.843 82.3674 398.686 77.1051 394.199 72.4523C389.657 67.8547 384.063 64.5313 377.36 62.4264C370.658 60.3215 363.568 59.269 355.924 59.269C344.07 59.269 333.102 61.5401 322.855 66.0268C312.718 70.5689 304.576 76.8282 298.538 84.9154C292.5 92.9472 288.567 102.308 286.906 112.999C285.798 120.255 285.909 126.847 287.238 132.829C288.567 138.756 291.559 144.184 296.267 149.003C300.92 153.878 306.791 157.368 313.771 159.528C320.75 161.688 328.283 162.796 336.315 162.796C344.458 162.796 352.434 161.688 360.244 159.473C368.054 157.257 375.089 153.767 381.182 149.003C387.331 144.24 392.371 138.424 396.304 131.611C400.237 124.742 402.84 117.209 404.114 109.066C405.388 101.256 405.167 94.3319 403.505 88.3496ZM373.261 109.565C372.43 114.938 370.492 120.034 367.445 124.964C364.399 129.838 360.466 133.66 355.647 136.319C350.828 139.033 345.842 140.362 340.58 140.362C335.65 140.362 331.164 139.144 327.12 136.707C323.132 134.325 320.362 130.946 318.867 126.681C317.427 122.416 317.039 117.707 317.87 112.556C318.756 106.961 320.695 101.754 323.852 96.8246C326.954 91.9501 330.942 88.1281 335.817 85.3585C340.636 82.6443 345.787 81.2595 351.215 81.2595C356.367 81.2595 360.854 82.4781 364.565 84.9154C368.331 87.3526 370.879 90.7315 372.375 95.1628C373.76 99.5942 374.092 104.358 373.261 109.565Z" fill="#F5F5F5"/>
<path d="M554.106 46.4181C554.051 47.8581 554.272 49.2981 554.715 50.6274L555.214 50.4058C555.657 50.2397 556.1 50.4612 556.266 50.8489C556.432 51.292 556.211 51.735 555.823 51.9012L555.269 52.1227C555.657 53.0089 556.155 53.7843 556.765 54.5597L557.152 54.172C557.484 53.895 557.983 53.895 558.315 54.2274C558.592 54.5597 558.592 55.0581 558.26 55.3904L557.817 55.7781C558.592 56.5535 559.478 57.2181 560.42 57.772L560.697 57.2735C560.918 56.8858 561.417 56.7197 561.804 56.9412C562.192 57.1627 562.358 57.6612 562.137 58.0489L561.86 58.5473C563.134 59.1012 564.574 59.4335 566.014 59.5443C565.903 56.3874 564.74 53.2858 562.469 50.7381C560.254 48.3012 557.263 46.8058 554.106 46.4181Z" fill="#F5F5F5"/>
<path d="M560.865 60.5413C560.699 60.8183 560.422 60.9844 560.145 60.9844C560.034 60.9844 559.868 60.929 559.757 60.8736C559.37 60.6521 559.203 60.1536 559.425 59.766L559.702 59.2675C558.594 58.6029 557.597 57.8275 556.656 56.886L556.213 57.2736C556.046 57.4398 555.88 57.4952 555.659 57.4952C555.437 57.4952 555.216 57.3844 555.05 57.2183C554.773 56.886 554.773 56.3875 555.105 56.0552L555.548 55.6675C554.828 54.7813 554.219 53.7844 553.776 52.7321L553.222 52.9536C553.111 53.009 553 53.009 552.89 53.009C552.557 53.009 552.28 52.8429 552.114 52.5106C551.948 52.0675 552.17 51.6244 552.557 51.4583L553.111 51.2367C552.613 49.686 552.336 48.0244 552.391 46.3075C549.068 46.2521 545.69 47.4152 543.031 49.8521C540.373 52.2336 538.877 55.446 538.545 58.769C540.262 58.8798 541.868 59.3229 543.419 59.9875L543.696 59.489C543.917 59.1013 544.416 58.9352 544.803 59.1567C545.191 59.3783 545.357 59.8767 545.136 60.2644L544.859 60.7629C545.856 61.3167 546.742 62.0367 547.573 62.8121L548.016 62.4244C548.348 62.1475 548.846 62.1475 549.179 62.4798C549.456 62.8121 549.456 63.3106 549.123 63.6429L548.68 64.0306C549.511 65.0275 550.231 66.1352 550.73 67.2983L551.228 67.0767C551.671 66.9106 552.114 67.1321 552.28 67.5198C552.446 67.9629 552.225 68.406 551.837 68.5721L551.283 68.7936C551.782 70.3444 552.059 72.006 552.003 73.7229C555.326 73.7783 558.705 72.6152 561.363 70.1783C564.022 67.7967 565.517 64.5844 565.794 61.2613C564.077 61.1506 562.471 60.7075 560.92 60.0429L560.865 60.5413Z" fill="#F5F5F5"/>
<path d="M549.399 69.5707C549.288 69.6261 549.178 69.6261 549.067 69.6261C548.734 69.6261 548.458 69.46 548.291 69.1277C548.125 68.6846 548.347 68.2415 548.734 68.0754L549.288 67.8538C548.845 66.8569 548.236 65.9154 547.516 65.0846L547.073 65.4723C546.907 65.583 546.741 65.6938 546.519 65.6938C546.298 65.6938 546.076 65.5831 545.91 65.4169C545.633 65.0846 545.633 64.5861 545.965 64.2538L546.353 63.8661C545.633 63.2015 544.858 62.6477 544.082 62.1492L543.805 62.6477C543.639 62.9246 543.362 63.0907 543.085 63.0907C542.974 63.0907 542.808 63.0354 542.698 62.98C542.31 62.7584 542.144 62.26 542.365 61.8723L542.642 61.3738C541.313 60.82 539.928 60.4877 538.488 60.3769C538.599 63.5338 539.762 66.6354 542.033 69.183C544.304 71.6754 547.294 73.1707 550.451 73.5584C550.507 72.1184 550.285 70.6784 549.842 69.3492L549.399 69.5707Z" fill="#F5F5F5"/>
</svg>
