<svg width="18" height="18" viewBox="0 0 18 18" fill="none" xmlns="http://www.w3.org/2000/svg">
<path d="M9.00025 0L11.0883 1.20564H13.5001L14.7058 3.29424L16.7944 4.49987V6.91165L18 9.00025L16.7944 11.0883V13.5001L14.7058 14.7058L13.5001 16.7944H11.0883L9.00025 18L6.91165 16.7944H4.49987L3.29424 14.7058L1.20564 13.5001V11.0883L0 9.00025L1.20564 6.91165V4.49987L3.29424 3.29424L4.49987 1.20564H6.91165L9.00025 0Z" fill="#111111"/>
<path d="M13.042 6.39067C13.0121 6.25927 12.9735 6.13611 12.9139 6.0294C12.8328 5.88978 12.726 5.75864 12.5893 5.64782C12.4525 5.53288 12.2818 5.43851 12.0682 5.3606C11.8547 5.28269 11.6155 5.22921 11.3465 5.20041C10.9877 5.16338 10.5734 5.14307 10.1035 5.14307C9.70637 5.14307 9.29613 5.15129 8.86904 5.16775C8.44622 5.18421 8.08737 5.19244 7.79702 5.19244C7.50667 5.19244 7.14781 5.18832 6.69074 5.17598C6.61822 5.61516 6.51573 6.21016 6.37899 6.95301C6.24224 7.69998 6.1055 8.40581 5.96902 9.07898C5.96474 9.09955 5.96045 9.12012 5.95617 9.14043L5.81515 9.86271C5.73834 10.2158 5.66127 10.5482 5.58875 10.8437C5.46485 11.3525 5.31553 11.9231 5.14453 12.5593C5.69981 12.5551 6.08409 12.551 6.28934 12.551C6.47292 12.551 6.87031 12.5551 7.4767 12.5634C7.65599 11.5415 7.8484 10.495 8.05766 9.43202C8.26693 8.36904 8.45479 7.46625 8.6215 6.72751C8.80508 6.7234 8.96323 6.71928 9.10426 6.71517C9.24101 6.71105 9.37775 6.70694 9.50139 6.70694C9.88165 6.70694 10.1549 6.73574 10.3259 6.79308C10.4966 6.85042 10.6162 6.94093 10.6804 7.05587C10.7487 7.17081 10.7658 7.30631 10.7401 7.46214C10.7102 7.64676 10.6291 7.81929 10.488 7.98745C10.3513 8.15562 10.1634 8.27467 9.93276 8.3567C9.70637 8.43872 9.45429 8.47575 9.18963 8.47575C8.99749 8.47575 8.80936 8.45518 8.61722 8.41841L8.93326 9.94911C9.02719 10.4089 9.09998 10.7699 9.14681 11.0244C9.16822 11.1394 9.19391 11.3034 9.22361 11.5168C9.29613 12.0257 9.34323 12.3705 9.3732 12.5593C9.97558 12.551 10.407 12.5469 10.6673 12.5469C10.8766 12.5469 11.2823 12.551 11.8847 12.5593C11.8333 12.3582 11.7993 12.2227 11.7736 12.153L11.2951 10.5688C11.2355 10.3677 11.1841 10.1749 11.133 9.98202L10.958 9.29265C11.3468 9.15303 11.6543 9.01367 11.8806 8.87816C12.107 8.74265 12.2992 8.58271 12.4659 8.39398C12.6323 8.20936 12.7605 8.00828 12.8545 7.79898C12.9484 7.58967 13.0169 7.3598 13.0552 7.11784C13.068 7.04404 13.0723 6.96999 13.0766 6.9003L13.0423 6.39144L13.042 6.39067Z" fill="#FFEC00"/>
</svg>
