<svg width="320" height="100" viewBox="0 0 320 100" fill="none" xmlns="http://www.w3.org/2000/svg">
<path d="M259.541 3.88321C238.099 3.56317 216.68 5.23723 195.435 7.84679C193.662 8.06836 191.865 8.33916 190.093 8.56073L185.44 0.535095L184.923 9.27466C174.46 10.7518 164.046 12.4751 153.657 14.4199C139.452 16.8818 125.297 19.7868 111.264 23.0856C97.0592 26.483 82.9774 30.3727 69.0926 34.9764C68.9202 34.1886 68.6987 33.45 68.354 32.81C67.8863 31.9729 67.2708 31.1851 66.483 30.5204C65.6952 29.8311 64.7105 29.2649 63.4796 28.7971C62.2486 28.3294 60.87 28.0093 59.319 27.837C57.2511 27.6155 54.8631 27.4924 52.155 27.4924C49.8655 27.4924 47.5022 27.5416 45.0403 27.6401C42.6031 27.7385 40.5351 27.7878 38.8611 27.7878C37.2362 27.7878 35.119 27.7632 32.4849 27.6893C32.0663 30.3235 31.4755 33.8932 30.6877 38.3491C29.8999 42.8297 29.1121 47.0641 28.3243 51.1015C28.2997 51.2246 28.2751 51.3477 28.2505 51.4708C-18.7462 75.8677 -6.48622 98.5906 60.4022 99.4276C81.845 99.7477 103.263 98.0736 124.509 95.4641C138.468 93.6669 152.402 91.5005 166.262 88.9155C180.491 86.4537 194.622 83.5487 208.655 80.2498C229.457 75.2523 250.112 69.3192 270.053 61.4905C341.102 33.7947 335.243 4.7941 259.541 3.88321ZM100.013 36.6504C102.303 36.6504 104.297 37.192 105.946 38.2753C107.621 39.3585 108.753 40.8602 109.418 42.8297C110.082 44.7992 110.205 46.9164 109.861 49.2305C109.492 51.6185 108.63 53.8834 107.276 56.0744C105.922 58.2409 104.174 59.9395 102.032 61.1212C99.8903 62.3275 97.6747 62.9184 95.3359 62.9184C93.1448 62.9184 91.1507 62.3768 89.3536 61.2936C87.5811 60.235 86.3501 58.7332 85.6854 56.8376C85.0454 54.942 84.873 52.8494 85.2423 50.5599C85.6362 48.0734 86.4979 45.7593 87.9011 43.5682C89.2797 41.4018 91.0523 39.7031 93.2187 38.4722C95.3113 37.2659 97.6008 36.6504 100.013 36.6504ZM264.12 60.235C262.742 59.1271 262.2 57.4531 262.569 55.1636C262.619 54.8928 262.692 54.5727 262.742 54.2281L278.645 54.2034C273.598 56.4683 268.626 58.4871 264.12 60.235ZM263.776 49.2797C264.046 48.4181 264.317 47.7534 264.563 47.261C264.785 46.7686 265.105 46.2517 265.499 45.7593C265.893 45.2423 266.361 44.7745 266.902 44.3806C267.444 43.9868 268.01 43.6667 268.626 43.4698C269.241 43.2482 269.881 43.1497 270.497 43.1497C271.383 43.1497 272.195 43.3221 272.86 43.6913C273.525 44.0606 273.992 44.6268 274.263 45.4392C274.534 46.2517 274.583 47.2118 274.386 48.3442C274.337 48.615 274.288 48.9351 274.214 49.3044H263.776V49.2797ZM285.785 50.9046C285.834 50.6337 285.908 50.3383 285.957 50.0921C286.302 48.0242 286.277 46.0793 285.908 44.2822C285.563 42.485 284.726 40.8602 283.421 39.4323C282.116 38.0291 280.442 36.9951 278.35 36.4289C276.257 35.838 274.017 35.5672 271.604 35.5672C269.29 35.5672 266.976 35.8873 264.662 36.5273C262.348 37.1674 260.231 38.2014 258.31 39.7031C256.39 41.2049 254.667 43.2728 253.19 45.907C251.713 48.5412 250.752 51.2738 250.309 54.0311C250.014 56.0006 249.965 57.8962 250.236 59.7672C250.482 61.6136 251.023 63.2384 251.836 64.5678C251.86 64.6171 251.885 64.6663 251.91 64.7155C250.802 65.1094 249.792 65.4541 248.906 65.7495C246.666 66.5127 244.401 67.2266 242.161 67.9406C242.555 65.5526 243.145 61.909 243.982 57.0099C244.573 53.5387 245.164 50.2645 245.804 47.1872C246.444 44.0852 247.257 40.4909 248.266 36.4043C245.46 36.4535 243.318 36.4781 241.816 36.4781C240.167 36.4781 237.975 36.4535 235.243 36.4043C234.529 40.6633 233.864 44.4053 233.249 47.6303C232.658 50.8553 232.067 53.8095 231.525 56.4683C230.984 59.1271 230.491 61.3182 230.073 63.0169C229.654 64.7402 229.088 66.882 228.399 69.5408C231.304 69.5161 233.667 69.4915 235.464 69.4669C236.031 69.4669 236.695 69.4669 237.36 69.4669C213.972 76.754 190.093 82.564 165.991 87.0938C138.147 91.9436 109.984 95.0701 81.7711 96.0057C66.0645 96.498 8.43259 97.3597 3.70583 79.9052C2.94266 71.6333 13.8979 63.1153 27.4381 55.8036C26.9949 57.9208 26.5518 59.9149 26.1333 61.6875C25.4194 64.7402 24.5577 68.1621 23.573 71.978C26.7734 71.9534 28.989 71.9288 30.1707 71.9288C31.2293 71.9288 33.5188 71.9534 37.0147 72.0026C38.0486 65.8726 39.1565 59.5949 40.3628 53.2187C41.5691 46.8425 42.6523 41.4264 43.6124 36.9951C44.671 36.9705 45.5819 36.9459 46.3943 36.9212C47.1821 36.8966 47.9699 36.872 48.6838 36.872C50.8749 36.872 52.4505 37.0443 53.4352 37.389C54.4199 37.7337 55.1093 38.2753 55.4785 38.9646C55.8724 39.6539 55.9709 40.4663 55.8232 41.4018C55.6509 42.5096 55.1831 43.5436 54.3707 44.553C53.5829 45.5623 52.4997 46.2763 51.1703 46.7686C49.8655 47.261 48.413 47.4826 46.8867 47.4826C45.7789 47.4826 44.6956 47.3595 43.5878 47.1379L45.4096 56.3206C45.9512 59.0779 46.3697 61.2443 46.6405 62.7707C46.7636 63.46 46.9113 64.4447 47.0836 65.7249C47.5022 68.7776 47.773 70.8455 47.9453 71.978C51.4165 71.9288 53.903 71.9041 55.4047 71.9041C56.611 71.9041 58.9498 71.9288 62.421 71.978C62.1255 70.7717 61.9286 69.9593 61.7809 69.5408L59.0236 60.038C58.6789 58.8317 58.3835 57.6746 58.0881 56.5176L57.0787 52.3817C59.319 51.5446 61.0916 50.7076 62.3963 49.8952C63.7011 49.0828 64.809 48.1227 65.7691 46.9902C66.7292 45.8824 67.4678 44.6761 68.0094 43.4205C68.551 42.165 68.9449 40.7863 69.1664 39.3339C69.2403 38.8907 69.2649 38.4476 69.2895 38.0291C69.8804 37.8321 70.4958 37.6106 71.0128 37.4382C74.0409 36.4289 77.0936 35.4441 80.1463 34.4594C78.8415 35.5918 77.6352 36.8228 76.6012 38.2014C73.9178 41.7711 72.1699 45.9316 71.4313 50.683C70.939 53.908 70.9882 56.8376 71.579 59.4964C72.1699 62.1306 73.4993 64.5432 75.5919 66.685C77.6598 68.8514 80.2694 70.4024 83.3713 71.3625C86.4732 72.3227 89.8213 72.815 93.391 72.815C97.01 72.815 100.555 72.3227 104.026 71.3379C107.497 70.3532 110.624 68.8022 113.357 66.685C116.089 64.5678 118.33 61.9829 120.077 58.9548C121.825 55.9021 122.982 52.554 123.549 48.9351C124.09 45.4639 123.992 42.4112 123.229 39.7524C122.49 37.0936 121.087 34.7548 119.093 32.6869C117.099 30.6189 114.588 29.1664 111.609 28.2309C109.713 27.6401 107.768 27.2708 105.725 27.0492C121.653 22.7902 137.754 19.1467 153.977 16.1186C164.218 14.3953 174.484 12.8443 184.8 11.5396L183.864 27.517L186.991 11.3672L197.429 32.1453L217.345 29.6342L201.245 43.5929L212.84 61.8598L193.687 53.5387L179.063 70.3039L194.622 57.4038L224.214 72.8396L210.354 44.4791L234.012 21.4608L200.358 26.2122L191.397 10.7518C206.956 8.95462 222.589 7.74832 238.246 7.20671C253.953 6.71434 311.585 5.85269 316.287 23.3072C317.173 32.9577 302.205 42.9282 285.785 50.9046Z" fill="#111111"/>
<path d="M179.335 39.8016C178.597 37.1428 177.194 34.8041 175.199 32.7361C173.181 30.6928 170.694 29.2157 167.715 28.2801C164.737 27.3446 161.585 26.8769 158.188 26.8769C152.92 26.8769 148.045 27.8863 143.491 29.8804C138.986 31.8991 135.367 34.681 132.683 38.2753C130 41.8449 128.252 46.0055 127.513 50.7568C127.021 53.9819 127.07 56.9115 127.661 59.5703C128.252 62.2044 129.581 64.6171 131.674 66.7589C133.742 68.9253 136.351 70.4763 139.453 71.4364C142.555 72.3965 145.903 72.8889 149.473 72.8889C153.092 72.8889 156.637 72.3965 160.108 71.4118C163.58 70.427 166.706 68.8761 169.414 66.7589C172.147 64.6417 174.387 62.0567 176.135 59.0287C177.883 55.976 179.04 52.6278 179.606 49.0089C180.172 45.5377 180.074 42.4604 179.335 39.8016ZM165.894 49.2305C165.524 51.6185 164.663 53.8834 163.309 56.0744C161.955 58.2409 160.207 59.9395 158.065 61.1212C155.923 62.3275 153.708 62.9184 151.369 62.9184C149.178 62.9184 147.184 62.3768 145.386 61.2936C143.614 60.235 142.383 58.7332 141.718 56.8376C141.078 54.942 140.906 52.8494 141.275 50.5599C141.669 48.0734 142.531 45.7593 143.934 43.5682C145.313 41.4018 147.085 39.7031 149.252 38.4722C151.393 37.2659 153.683 36.6504 156.096 36.6504C158.385 36.6504 160.379 37.192 162.029 38.2753C163.703 39.3585 164.835 40.8602 165.5 42.8297C166.115 44.7992 166.263 46.9164 165.894 49.2305Z" fill="#111111"/>
<path d="M246.27 21.1654C246.246 21.8054 246.344 22.4454 246.541 23.0361L246.763 22.9377C246.96 22.8638 247.156 22.9623 247.23 23.1346C247.304 23.3315 247.206 23.5284 247.033 23.6023L246.787 23.7007C246.96 24.0946 247.181 24.4392 247.452 24.7838L247.624 24.6115C247.772 24.4884 247.993 24.4884 248.141 24.6361C248.264 24.7838 248.264 25.0054 248.116 25.1531L247.92 25.3254C248.264 25.67 248.658 25.9654 249.076 26.2115L249.2 25.99C249.298 25.8177 249.52 25.7438 249.692 25.8423C249.864 25.9407 249.938 26.1623 249.84 26.3346L249.716 26.5561C250.283 26.8023 250.923 26.95 251.563 26.9992C251.513 25.5961 250.996 24.2177 249.987 23.0854C249.003 22.0023 247.673 21.3377 246.27 21.1654Z" fill="#111111"/>
<path d="M249.274 27.4423C249.2 27.5654 249.077 27.6392 248.954 27.6392C248.904 27.6392 248.83 27.6146 248.781 27.59C248.609 27.4915 248.535 27.27 248.634 27.0977L248.757 26.8762C248.264 26.5808 247.821 26.2362 247.403 25.8177L247.206 25.99C247.132 26.0639 247.058 26.0885 246.96 26.0885C246.861 26.0885 246.763 26.0392 246.689 25.9654C246.566 25.8177 246.566 25.5962 246.714 25.4485L246.91 25.2762C246.59 24.8823 246.32 24.4392 246.123 23.9716L245.877 24.07C245.827 24.0946 245.778 24.0946 245.729 24.0946C245.581 24.0946 245.458 24.0208 245.384 23.8731C245.31 23.6762 245.409 23.4792 245.581 23.4054L245.827 23.3069C245.606 22.6177 245.483 21.8792 245.507 21.1162C244.03 21.0915 242.529 21.6085 241.347 22.6916C240.166 23.75 239.501 25.1777 239.354 26.6546C240.117 26.7039 240.83 26.9008 241.52 27.1962L241.643 26.9746C241.741 26.8023 241.963 26.7285 242.135 26.8269C242.307 26.9254 242.381 27.1469 242.283 27.3192L242.16 27.5408C242.603 27.7869 242.997 28.1069 243.366 28.4516L243.563 28.2792C243.71 28.1562 243.932 28.1562 244.08 28.3039C244.203 28.4515 244.203 28.6731 244.055 28.8208L243.858 28.9931C244.227 29.4362 244.547 29.9285 244.769 30.4454L244.99 30.3469C245.187 30.2731 245.384 30.3715 245.458 30.5439C245.532 30.7408 245.434 30.9377 245.261 31.0116L245.015 31.11C245.237 31.7992 245.36 32.5377 245.335 33.3008C246.812 33.3254 248.314 32.8085 249.495 31.7254C250.677 30.6669 251.341 29.2392 251.464 27.7623C250.701 27.7131 249.987 27.5162 249.298 27.2208L249.274 27.4423Z" fill="#111111"/>
<path d="M244.178 31.4554C244.129 31.48 244.08 31.48 244.031 31.48C243.883 31.48 243.76 31.4062 243.686 31.2585C243.612 31.0615 243.711 30.8646 243.883 30.7908L244.129 30.6923C243.932 30.2492 243.661 29.8308 243.341 29.4615L243.144 29.6338C243.071 29.6831 242.997 29.7323 242.898 29.7323C242.8 29.7323 242.701 29.6831 242.628 29.6092C242.504 29.4615 242.504 29.24 242.652 29.0923L242.824 28.92C242.504 28.6246 242.16 28.3785 241.815 28.1569L241.692 28.3785C241.618 28.5015 241.495 28.5754 241.372 28.5754C241.323 28.5754 241.249 28.5508 241.2 28.5262C241.028 28.4277 240.954 28.2062 241.052 28.0338L241.175 27.8123C240.584 27.5662 239.969 27.4185 239.329 27.3692C239.378 28.7723 239.895 30.1508 240.904 31.2831C241.914 32.3908 243.243 33.0554 244.646 33.2277C244.671 32.5877 244.572 31.9477 244.375 31.3569L244.178 31.4554Z" fill="#111111"/>
</svg>
