<svg width="60" height="60" viewBox="0 0 60 60" fill="none" xmlns="http://www.w3.org/2000/svg">
<rect width="60" height="60" rx="6" fill="#0066B3"/>
<path d="M30.8925 50.3678C22.3891 50.4791 15.0166 45.333 11.874 37.9498C12.0114 37.8942 12.1429 37.8221 12.2689 37.7383C15.3273 44.9835 22.5419 50.0271 30.8865 49.9172C39.9212 49.7949 47.4694 43.6813 49.7999 35.4076C49.9399 35.4604 50.0854 35.4974 50.2336 35.5177C47.8479 43.9747 40.1184 50.2429 30.8925 50.3678ZM10.2574 30.2698C10.1123 19.0454 19.1297 9.78722 30.3587 9.63213C41.3822 9.49487 50.5032 18.1791 50.9746 29.1121C50.8276 29.0752 50.6759 29.0551 50.5212 29.053C50.0203 18.3781 41.1366 9.94865 30.3643 10.0827C19.3621 10.2346 10.5661 19.2661 10.7085 30.2642C10.7147 30.7299 10.7381 31.1915 10.7759 31.649C10.6242 31.6753 10.4759 31.7188 10.3339 31.7785C10.2898 31.2767 10.2643 30.7735 10.2574 30.2698ZM53.0064 32.2926C53.0064 30.8688 52.293 29.6622 51.3026 29.2266C50.8899 18.0602 41.5959 9.16989 30.3544 9.30997C18.9478 9.46753 9.78789 18.8719 9.93504 30.274C9.94262 30.8354 9.9735 31.3916 10.0254 31.9411C9.1845 32.466 8.60352 33.5728 8.60352 34.8573C8.60352 36.6477 9.72967 38.0992 11.1189 38.0992C11.2711 38.0992 11.4195 38.0789 11.5646 38.0452C14.7493 45.5617 22.2469 50.8038 30.8969 50.69C40.2961 50.5629 48.1667 44.1587 50.5653 35.5297C51.9197 35.4787 53.0064 34.0507 53.0064 32.2926Z" fill="#BEC0C2"/>
<path d="M17.2745 26.1203C19.4201 18.7759 27.1167 14.5585 34.4661 16.7059C41.8129 18.8511 46.028 26.5464 43.8826 33.8933C41.7359 41.2382 34.039 45.453 26.6906 43.3081C19.3451 41.1613 15.1279 33.4677 17.2745 26.1203Z" fill="white"/>
<path d="M37.9994 20.6324L38.4081 19.2276L38.7876 19.0623L37.3839 18.3259C37.2556 18.2568 37.1542 18.3 37.1194 18.3676L37.0776 18.4565C37.0405 18.5286 37.0824 18.6412 37.1965 18.7006L38.2872 19.276L37.9148 19.4404L37.6102 20.5136C37.5723 20.638 37.6226 20.7446 37.7011 20.7709L37.7907 20.7982C37.8618 20.8194 37.9613 20.773 37.9994 20.6324Z" fill="#BEC0C2"/>
<path d="M36.5665 21.1258L37.0681 19.7565L37.4562 19.6198L36.1072 18.7824C35.9832 18.705 35.8798 18.7404 35.8401 18.8054L35.7925 18.8878C35.7514 18.9603 35.784 19.0739 35.8943 19.1416L36.9434 19.7937L36.5621 19.9308L36.1817 20.9781C36.1372 21.1016 36.1796 21.2119 36.2544 21.2424L36.3437 21.2759C36.4141 21.3027 36.5164 21.2627 36.5665 21.1258Z" fill="#BEC0C2"/>
<path d="M35.099 21.5133L35.6918 20.1853L36.0909 20.0754L34.8003 19.1436C34.6828 19.0584 34.5766 19.0842 34.533 19.1468L34.478 19.2285C34.4337 19.2954 34.4585 19.4111 34.5635 19.4868L35.5653 20.2132L35.1764 20.3227L34.7257 21.3398C34.6729 21.4595 34.7085 21.572 34.7804 21.6087L34.8672 21.6482C34.9363 21.6803 35.0415 21.6477 35.099 21.5133Z" fill="#BEC0C2"/>
<path d="M33.6078 21.7968L34.2904 20.513L34.6946 20.4321L33.4707 19.4108C33.3613 19.3148 33.253 19.336 33.2043 19.3965L33.1445 19.4713C33.0937 19.5343 33.1124 19.6532 33.2122 19.7351L34.1634 20.5317L33.7661 20.614L33.2474 21.5966C33.1867 21.7091 33.2138 21.8258 33.2848 21.8644L33.3684 21.9142C33.4342 21.9491 33.5408 21.9267 33.6078 21.7968Z" fill="#BEC0C2"/>
<path d="M32.1024 21.9693L32.8722 20.7385L33.281 20.6887L32.1268 19.5797C32.0237 19.4772 31.9163 19.4892 31.8635 19.5455L31.7988 19.6166C31.7443 19.6776 31.7554 19.7953 31.8473 19.8849L32.7427 20.7484L32.3411 20.8017L31.7584 21.7417C31.6892 21.8541 31.7086 21.9716 31.7735 22.0158L31.8559 22.0679C31.9186 22.1099 32.0262 22.0928 32.1024 21.9693Z" fill="#BEC0C2"/>
<path d="M30.5902 22.0312L31.4387 20.8602L31.8531 20.8415L30.7771 19.6522C30.6811 19.5433 30.5689 19.546 30.5154 19.598L30.4445 19.6645C30.3879 19.721 30.3893 19.8406 30.4759 19.935L31.3102 20.863L30.9073 20.8859L30.2596 21.7826C30.1837 21.8865 30.1955 22.0045 30.2596 22.0548L30.3355 22.1139C30.3953 22.1585 30.5048 22.1513 30.5902 22.0312Z" fill="#BEC0C2"/>
<path d="M29.0725 21.9864L30.0003 20.8797L30.4139 20.8883L29.4222 19.6254C29.3329 19.509 29.2221 19.5056 29.1644 19.5531L29.0908 19.6148C29.0287 19.6665 29.0224 19.786 29.1028 19.8867L29.8705 20.8721L29.4656 20.8654L28.762 21.7131C28.6782 21.8109 28.681 21.9299 28.7405 21.9852L28.8133 22.049C28.8685 22.0993 28.9786 22.0986 29.0725 21.9864Z" fill="#BEC0C2"/>
<path d="M27.5643 21.8305L28.5655 20.7941L28.9777 20.8321L28.0733 19.5013C27.9933 19.3797 27.8845 19.3677 27.824 19.4102L27.7448 19.4665C27.6781 19.5125 27.6634 19.6329 27.7386 19.7389L28.4365 20.7754L28.0352 20.741L27.2726 21.5339C27.1823 21.6267 27.1779 21.7472 27.2343 21.8072L27.3016 21.8726C27.3555 21.9277 27.4639 21.9363 27.5643 21.8305Z" fill="#BEC0C2"/>
<path d="M26.0679 21.5659L27.1374 20.6063L27.5462 20.6737L26.7357 19.2802C26.6634 19.1527 26.555 19.1326 26.491 19.1719L26.4077 19.2201C26.3403 19.2642 26.3193 19.3811 26.3848 19.4926L27.0115 20.5779L26.6113 20.5133L25.7971 21.2515C25.702 21.3355 25.6891 21.454 25.7413 21.5156L25.8041 21.5906C25.8532 21.6481 25.9624 21.6643 26.0679 21.5659Z" fill="#BEC0C2"/>
<path d="M24.5955 21.1938L25.728 20.3131L26.1296 20.4101L25.4152 18.9632C25.3543 18.8286 25.246 18.8021 25.1795 18.8358L25.0946 18.8797C25.0242 18.9179 24.9948 19.0317 25.0523 19.149L25.6045 20.2774L25.2091 20.1823L24.3467 20.8593C24.2447 20.9378 24.2253 21.0557 24.2723 21.1206L24.33 21.1989C24.3748 21.2615 24.484 21.2848 24.5955 21.1938Z" fill="#BEC0C2"/>
<path d="M23.1489 20.7174L24.3384 19.9199L24.7336 20.0475L24.1195 18.5496C24.0651 18.4142 23.9607 18.3788 23.8915 18.4079L23.8039 18.4446C23.7315 18.4771 23.6916 18.5893 23.7435 18.7107L24.2163 19.8737L23.8317 19.7532L22.9231 20.3656C22.816 20.4354 22.7857 20.551 22.8307 20.6217L22.8829 20.7017C22.9231 20.7661 23.0302 20.798 23.1489 20.7174Z" fill="#BEC0C2"/>
<path d="M21.7388 20.1358L22.9811 19.4256L23.3653 19.5825L22.8548 18.0465C22.8106 17.9052 22.7096 17.8614 22.6365 17.8861L22.5478 17.9173C22.4728 17.9452 22.4259 18.0544 22.4686 18.1769L22.8618 19.3734L22.4835 19.2231L21.5389 19.769C21.4274 19.8309 21.3913 19.9443 21.4278 20.0149L21.4745 20.1005C21.5114 20.1702 21.6152 20.2079 21.7388 20.1358ZM22.348 39.6833L22.1374 41.0256L21.7972 41.2304L23.2177 41.7203C23.3468 41.7669 23.438 41.7145 23.4615 41.6466L23.4918 41.5612C23.5165 41.4901 23.465 41.3941 23.3489 41.3523L22.2447 40.9672L22.5753 40.7662L22.7337 39.7417C22.7524 39.6214 22.6916 39.5294 22.6159 39.5173L22.5264 39.5028C22.4553 39.4927 22.3662 39.5494 22.348 39.6833Z" fill="#BEC0C2"/>
<path d="M23.6465 39.0407L23.3397 40.3666L22.9883 40.5444L24.3699 41.1341C24.4962 41.19 24.5904 41.1439 24.6197 41.0781L24.6547 40.994C24.6857 40.9245 24.6393 40.8237 24.5271 40.7755L23.4521 40.3137L23.7983 40.1374L24.025 39.1256C24.0543 39.0081 24.0001 38.9121 23.9228 38.8929L23.836 38.874C23.7672 38.8581 23.6751 38.9082 23.6465 39.0407Z" fill="#BEC0C2"/>
<path d="M24.987 38.4912L24.589 39.7908L24.2266 39.9422L25.5639 40.6292C25.686 40.6936 25.7823 40.6539 25.8167 40.5913L25.857 40.5119C25.8922 40.4422 25.8543 40.339 25.7456 40.2839L24.7059 39.7481L25.062 39.5965L25.3621 38.6031C25.3977 38.4859 25.3504 38.3868 25.2776 38.3638L25.1908 38.3386C25.1216 38.3176 25.0253 38.3614 24.987 38.4912Z" fill="#BEC0C2"/>
<path d="M26.3628 38.038L25.8767 39.3051L25.502 39.4332L26.7887 40.2111C26.9051 40.2822 27.0044 40.2515 27.042 40.1915L27.09 40.1119C27.1288 40.047 27.0976 39.9418 26.9935 39.8782L25.9951 39.2711L26.3592 39.1442L26.7283 38.1746C26.7723 38.0604 26.7317 37.9584 26.6615 37.929L26.5755 37.8986C26.5087 37.8732 26.4097 37.9099 26.3628 38.038Z" fill="#BEC0C2"/>
<path d="M27.7657 37.6798L27.1915 38.9111L26.8105 39.0122L28.0374 39.8773C28.1482 39.9597 28.2504 39.9337 28.2927 39.8743L28.3451 39.8014C28.3896 39.74 28.3651 39.631 28.265 39.5616L27.3104 38.8861L27.6844 38.7848L28.1211 37.8411C28.1717 37.7338 28.1399 37.6271 28.0703 37.5959L27.9872 37.5558C27.9226 37.527 27.8218 37.5555 27.7657 37.6798Z" fill="#BEC0C2"/>
<path d="M29.1938 37.4222L28.533 38.6104L28.1465 38.6835L29.3113 39.6344C29.4164 39.7226 29.5184 39.7057 29.565 39.6485L29.6223 39.579C29.671 39.5194 29.6537 39.4116 29.56 39.3334L28.6558 38.5921L29.0355 38.5185L29.5357 37.6106C29.5946 37.5028 29.5692 37.3952 29.5046 37.3583L29.4235 37.3158C29.3607 37.2805 29.2592 37.3029 29.1938 37.4222Z" fill="#BEC0C2"/>
<path d="M30.6327 37.2663L29.8924 38.4052L29.498 38.45L30.5946 39.48C30.6925 39.5751 30.799 39.565 30.8477 39.5137L30.9107 39.4479C30.9615 39.3921 30.9534 39.2803 30.865 39.1991L30.015 38.3946L30.3968 38.3471L30.9617 37.4768C31.0279 37.3753 31.0099 37.2658 30.946 37.2245L30.8703 37.174C30.8096 37.1365 30.7066 37.1513 30.6327 37.2663Z" fill="#BEC0C2"/>
<path d="M32.0803 37.2105L31.2613 38.2947L30.8652 38.3144L31.8869 39.4169C31.9789 39.5194 32.0838 39.5159 32.1364 39.4679L32.2033 39.4056C32.259 39.3545 32.2574 39.2435 32.1752 39.1551L31.385 38.2938L31.7716 38.273L32.3933 37.4439C32.4667 37.3487 32.4565 37.2377 32.3975 37.1902L32.3238 37.1366C32.2679 37.0928 32.1634 37.1008 32.0803 37.2105Z" fill="#BEC0C2"/>
<path d="M33.5296 37.2575L32.6363 38.2809L32.2402 38.273L33.1818 39.4463C33.2655 39.5527 33.3704 39.5572 33.4251 39.5138L33.4982 39.4561C33.5585 39.4099 33.5651 39.2972 33.4874 39.2039L32.7598 38.2892L33.1451 38.2963L33.8255 37.5131C33.9057 37.4219 33.9029 37.3093 33.8459 37.2578L33.7775 37.2014C33.723 37.1543 33.6187 37.1532 33.5296 37.2575Z" fill="#BEC0C2"/>
<path d="M34.9724 37.4047L34.0105 38.3622L33.6172 38.3265L34.4711 39.5635C34.548 39.6766 34.652 39.688 34.7116 39.6471L34.788 39.5974C34.8501 39.5527 34.8628 39.4439 34.7938 39.3444L34.1313 38.3802L34.5166 38.4144L35.2499 37.6794C35.3351 37.5949 35.3406 37.4848 35.2878 37.4308L35.2227 37.3662C35.1731 37.3149 35.0682 37.3075 34.9724 37.4047Z" fill="#BEC0C2"/>
<path d="M36.3992 37.6551L35.3711 38.5434L34.9824 38.4781L35.7492 39.7719C35.8155 39.8917 35.9205 39.9095 35.9823 39.8735L36.0601 39.8278C36.1253 39.7883 36.1469 39.681 36.0849 39.5762L35.4918 38.5685L35.8741 38.63L36.6564 37.9483C36.749 37.8698 36.7608 37.7594 36.7118 37.7013L36.6525 37.6327C36.6065 37.5778 36.5004 37.5637 36.3992 37.6551Z" fill="#BEC0C2"/>
<path d="M37.8042 38.0026L36.7159 38.8171L36.332 38.724L37.0072 40.0698C37.0667 40.1919 37.1694 40.2189 37.2327 40.1871L37.3142 40.1469C37.3813 40.1118 37.4123 40.0061 37.3567 39.8976L36.8359 38.8515L37.2099 38.9375L38.0397 38.3124C38.1385 38.2414 38.1597 38.1324 38.1133 38.0705L38.0588 37.999C38.0168 37.9417 37.9125 37.9196 37.8042 38.0026Z" fill="#BEC0C2"/>
<path d="M39.1821 38.4495L38.0404 39.1862L37.6641 39.0659L38.2424 40.4544C38.2932 40.5825 38.3917 40.6153 38.4601 40.5882L38.5422 40.5538C38.6127 40.5229 38.651 40.4198 38.6029 40.3087L38.1574 39.2272L38.527 39.3412L39.3956 38.7753C39.4975 38.7109 39.5261 38.6033 39.4864 38.5403L39.437 38.4643C39.3978 38.4024 39.2959 38.3747 39.1821 38.4495Z" fill="#BEC0C2"/>
<path d="M40.527 38.9924L39.3361 39.6441L38.9688 39.4999L39.4476 40.9253C39.4897 41.0559 39.5854 41.097 39.6533 41.0748L39.7406 41.0451C39.8124 41.0215 39.8567 40.9197 39.8179 40.8057L39.4495 39.6961L39.8084 39.8359L40.7174 39.3307C40.8234 39.2738 40.8596 39.1695 40.8229 39.103L40.7798 39.0231C40.744 38.9606 40.6448 38.9243 40.527 38.9924Z" fill="#BEC0C2"/>
<path d="M21.0861 20.7444C19.6648 20.9963 18.486 22.1856 18.4024 23.4522C18.3992 23.5008 18.3977 23.5495 18.3978 23.5981C18.3978 24.1641 18.6201 24.6726 19.033 25.0431C19.5481 25.5045 20.3026 25.6885 21.102 25.5466C22.5226 25.2965 23.702 24.1073 23.7865 22.8391C23.8271 22.2139 23.6041 21.6493 23.1562 21.2479C22.6404 20.7859 21.8864 20.6025 21.0861 20.7444ZM7.36208 24.3411L6.73099 26.7905C6.73099 26.7905 7.2137 26.661 7.55262 26.5696C7.13342 28.438 4.97603 38.0696 4.96192 38.1344C4.85023 38.4994 4.37193 38.7677 3.95785 38.8986L3.60605 39.0098L2.5 42.6707L3.86346 42.1044C8.32751 40.2513 15.0031 38.4627 15.0703 38.445L15.4228 38.3508L16.9703 34.0772L15.3013 34.4706C15.0747 34.5234 14.9332 34.6201 14.8413 34.7298C14.6323 34.986 13.9571 35.6875 13.3221 35.8956L10.3829 36.7051L10.3688 36.7085C10.3829 36.6455 13.7185 22.1001 13.7185 22.1001L7.36208 24.3411Z" fill="#A1A1A4"/>
<path d="M17.5492 26.6105L16.9416 28.9879C16.9416 28.9879 17.3079 28.8924 17.641 28.8046C17.2489 30.303 16.3904 33.5893 16.3904 33.5893C16.2932 33.9863 16.2461 34.3713 16.2461 34.7344C16.2461 35.535 16.4769 36.2298 16.9231 36.7241C17.343 37.1894 18.1535 37.7021 19.6311 37.4988C20.7772 37.3425 21.8416 36.788 22.7963 35.8494L23.4404 35.2162L21.4591 34.0269L21.0732 34.3947C21.0452 34.4221 21.0164 34.4452 20.9893 34.4681C21.0002 34.3826 21.0175 34.2816 21.0452 34.165C21.0432 34.1707 23.0905 25.7857 23.0905 25.7857L23.3977 24.5267L17.5492 26.6105Z" fill="#A1A1A4"/>
<path d="M30.0448 25.08C30.1274 25.0706 30.2161 25.0696 30.2994 25.0741L28.5076 32.3171C28.439 32.5823 28.0339 32.8116 27.5669 32.8446C27.5469 32.846 27.5266 32.8409 27.5055 32.8358C27.5991 32.4641 29.3587 25.4369 29.3679 25.3995C29.4338 25.2982 29.7687 25.111 30.0448 25.08ZM30.4794 22.3622C27.1021 22.7783 24.5566 24.794 23.8389 27.6216L22.8332 31.6906L22.8371 31.6735C22.4807 32.9727 22.619 33.9987 23.2492 34.7231C23.9772 35.5588 25.2486 35.8644 27.0289 35.632C30.4227 35.1885 32.9353 33.3408 33.5881 30.809C33.5884 30.8062 34.7252 26.3069 34.7252 26.3069C35.0443 24.9962 34.8834 23.9741 34.2506 23.2617C33.5226 22.446 32.2544 22.1426 30.4794 22.3622ZM44.3989 19.4649C43.6986 19.578 42.8835 19.8636 42.1466 20.2283C42.2103 19.9751 42.2791 19.7036 42.2791 19.7036L36.3755 21.8989L35.8101 24.2606L36.5114 24.0489L34.1544 33.7019L39.1395 32.4819L41.1571 24.1329C41.2713 23.6392 41.5174 23.33 41.9438 23.1435L40.7482 28.1756C40.7501 28.1689 40.6824 28.4328 40.6824 28.4328C40.4165 29.4519 40.0532 30.8483 40.8193 31.7104C41.2424 32.1869 41.8989 32.3684 42.7702 32.2492C44.3117 32.0375 45.6678 31.234 46.8022 29.8593L47.3068 29.2486C47.3068 29.2486 45.6092 28.1721 45.4488 28.0711C45.8267 26.4942 46.7588 22.6006 46.7588 22.6006C46.8534 22.2144 46.9017 21.8594 46.9017 21.5357C46.9017 20.9169 46.7265 20.4145 46.379 20.0365C45.9241 19.5432 45.2029 19.3358 44.3989 19.4649ZM6.33342 45.3223L6.02344 44.4308L7.07444 43.9537C12.6849 41.5587 20.4225 38.866 28.3033 36.5648C36.3875 34.2049 43.5693 32.5784 48.0083 32.1029L48.7973 32.0179L48.7527 34.2732L48.1974 34.381C44.3682 35.1197 30.8236 38.2383 17.3159 47.3547L16.9392 47.6086L16.5539 47.3673C13.6237 45.534 9.53141 45.2824 7.35302 45.2951C7.03033 45.2902 6.33342 45.3223 6.33342 45.3223Z" fill="#A1A1A4"/>
<path d="M51.7924 18.1542C48.9358 18.7538 47.332 20.8014 47.3938 23.7749C47.4303 25.5544 48.5356 27.0221 49.605 28.4415C50.5224 29.6587 51.3889 30.809 51.4176 31.9652C51.4704 34.1135 50.5231 34.4159 50.2089 34.487C49.6554 34.6113 49.2461 34.2762 49.1307 34.1356C50.0921 33.6871 51.0579 32.8334 51.0579 31.6084C51.0579 31.5285 51.0538 31.4473 51.0457 31.3644C50.9656 30.5742 50.5833 30.1416 50.277 29.9166C49.5953 29.4182 48.7874 29.5373 48.5563 29.5855C46.8744 29.9359 45.8052 31.597 46.1219 33.3674C46.6346 36.2341 49.3141 37.118 51.5872 36.7245C53.2322 36.4398 54.6068 35.6125 55.4568 34.3939C56.2977 33.1866 56.5821 31.677 56.2783 30.029C55.9643 28.3221 55.0514 26.9764 54.1689 25.6739C53.2532 24.3231 52.387 23.0463 52.3234 21.5136C52.3028 21.0248 52.4445 20.6592 52.5935 20.5142C52.6516 20.4579 52.689 20.4547 52.7245 20.457C52.7779 20.4607 52.9028 20.4697 53.0362 20.6721C53.3333 21.1244 53.3741 22.0608 53.1281 22.7598L53.0463 22.9928L53.4695 24.1892L57.4999 22.3046L57.4435 21.8067C57.3115 20.6084 56.7134 19.5703 55.7619 18.8799C54.6855 18.1011 53.2762 17.8436 51.7924 18.1542Z" fill="#A1A1A4"/>
<path d="M21.1726 21.2387C19.9893 21.448 18.9706 22.4563 18.903 23.4859C18.9003 23.5225 18.899 23.5592 18.8993 23.5958C18.8993 24.0182 19.063 24.3958 19.3672 24.6685C19.7668 25.0269 20.3667 25.1668 21.0136 25.0519C22.1973 24.8434 23.216 23.8356 23.2846 22.8053C23.3153 22.3384 23.1502 21.918 22.8198 21.6221C22.4205 21.2633 21.8203 21.1239 21.1726 21.2387ZM7.78098 24.7255L7.43147 26.0812C7.43147 26.0812 7.99887 25.9289 8.22329 25.8679C8.08832 26.4718 5.4498 38.2499 5.44521 38.2691C5.24567 38.9514 4.44361 39.272 4.10822 39.3775L4.00889 39.4091L3.28711 41.7993L3.67049 41.6404C8.16577 39.7746 14.8723 37.9775 14.9393 37.9599L15.039 37.9325L16.1807 34.7792L15.5831 34.9193C15.3262 34.9798 15.2311 35.0029 15.2011 35.0812C15.0455 35.2633 14.2899 36.1107 13.4703 36.3753L10.4989 37.1935C10.2025 37.2649 9.98513 37.254 9.89426 37.162C9.81258 37.0784 9.80375 36.8907 9.86956 36.6317C9.87115 36.6268 13.024 22.8776 13.024 22.8776L7.78098 24.7255ZM17.9676 26.993L17.6375 28.2859C17.6375 28.2859 18.153 28.1511 18.3423 28.1013C18.1902 28.6816 16.8776 33.7051 16.8776 33.7051C16.789 34.0662 16.7461 34.4131 16.7461 34.7376C16.7461 35.4117 16.9328 35.9867 17.295 36.3881C17.633 36.7626 18.3021 37.1739 19.5613 37.0015C20.5971 36.8596 21.5671 36.3515 22.4429 35.4911L22.6244 35.3134L21.5269 34.6545L21.4194 34.7582C21.1849 34.981 20.9508 35.1096 20.7222 35.1403C20.616 35.1555 20.5814 35.1176 20.566 35.1014C20.4708 34.9971 20.4113 34.6603 20.5549 34.0502L22.6871 25.3123L17.9676 26.993ZM28.8846 25.2569C28.9703 24.911 29.5942 24.6258 29.9869 24.5807C30.3175 24.5434 30.7713 24.5941 30.8812 24.7193C30.8922 24.7312 30.8982 24.7412 30.8913 24.7709L28.9941 32.4378C28.8687 32.9224 28.2962 33.2961 27.6012 33.3457C27.3913 33.3603 27.1622 33.2753 27.041 33.1389C26.9895 33.0802 26.965 33.02 26.965 32.9558C26.965 32.9394 26.9669 32.9223 26.9705 32.9044C26.9736 32.8902 28.8846 25.2569 28.8846 25.2569ZM30.5407 22.8603C27.3726 23.2511 24.9906 25.1223 24.3247 27.7456L23.3201 31.8111C23.0114 32.9337 23.1146 33.8032 23.6271 34.3928C24.2293 35.0842 25.3824 35.3402 26.9634 35.1342C30.1492 34.7173 32.501 33.0133 33.1005 30.6836L34.2382 26.1835C34.5139 25.047 34.3922 24.177 33.8742 23.5965C33.2636 22.9101 32.1411 22.6627 30.5407 22.8603ZM44.4789 19.9605C43.4909 20.1204 42.2181 20.6668 41.3633 21.2675L41.5562 20.5087L36.8008 22.2763L36.5011 23.5274C36.5011 23.5274 37.0187 23.3718 37.207 23.3146L34.8377 33.0174L38.7229 32.0673L40.6687 24.0142C40.8328 23.3012 41.2465 22.8418 41.932 22.6077C42.1978 22.5177 42.4027 22.5556 42.4879 22.6343C42.5071 22.6518 42.5659 22.7061 42.5287 22.8506L41.2359 28.2915C41.2372 28.2899 41.1673 28.5592 41.1673 28.5592C40.9307 29.4695 40.6068 30.7157 41.1932 31.3767C41.4988 31.7211 42.0057 31.8464 42.7014 31.7511C44.1137 31.5578 45.3632 30.8138 46.4144 29.5396L46.5562 29.3681L45.4313 28.6546L45.324 28.8069C45.0703 29.164 44.7849 29.324 44.6686 29.3081C44.6619 29.2878 44.6589 29.2665 44.6596 29.2451C44.6596 29.2123 44.6642 29.1707 44.6788 29.1244L44.6811 29.1177L46.269 22.4838C46.3553 22.1355 46.3976 21.8192 46.3976 21.5373C46.3976 21.0471 46.2686 20.6586 46.0091 20.3771C45.6709 20.0106 45.113 19.8584 44.4789 19.9605ZM48.0606 32.6024C43.6502 33.0745 36.5005 34.6949 28.4431 37.0472C20.5814 39.3424 12.8639 42.0285 7.27109 44.4154L7.06132 44.5063L7.14283 44.788L7.34908 44.7928C9.58234 44.7789 13.7816 45.0409 16.8197 46.9423L16.9286 47.0105L17.0337 46.9387C30.6206 37.7684 44.2478 34.6308 48.101 33.8879L48.2577 33.8575L48.2828 32.5784L48.0606 32.6024Z" fill="white"/>
<path d="M51.8952 18.6465C49.2593 19.1991 47.8389 21.0167 47.8953 23.7649C47.9285 25.3824 48.9848 26.784 50.006 28.1391C50.9735 29.4227 51.8869 30.636 51.9186 31.9537C51.9603 33.6437 51.4273 34.6441 50.3341 34.9267C49.9169 35.0338 49.3842 34.9267 48.9763 34.6512C48.6815 34.4525 48.4871 34.1824 48.4033 33.8809C49.3253 33.5963 50.555 32.7979 50.555 31.5982C50.555 31.5377 50.552 31.4775 50.5458 31.4158C50.4964 30.929 50.3055 30.561 49.9802 30.3221C49.5716 30.0236 49.0298 29.9998 48.6589 30.0774C47.2214 30.377 46.3429 31.7531 46.616 33.2782C47.0686 35.808 49.4654 36.5813 51.5009 36.23C53.0132 35.9687 54.2712 35.2149 55.0436 34.1067C55.8074 33.0116 56.0635 31.634 55.7839 30.1199C55.4887 28.5172 54.6064 27.2155 53.7525 25.9553C52.7952 24.5439 51.8899 23.2109 51.8207 21.5352C51.7966 20.9602 51.9585 20.4311 52.2422 20.1548C52.3913 20.01 52.5654 19.9436 52.759 19.9567C53.042 19.9768 53.2761 20.1241 53.4552 20.3963C53.8398 20.983 53.9031 22.0703 53.6011 22.9269L53.5785 22.9922L53.7578 23.4997L56.96 22.002L56.9443 21.8619C56.8275 20.8064 56.3024 19.8926 55.466 19.2873C54.5065 18.5924 53.2387 18.3646 51.8952 18.6465Z" fill="white"/>
<path d="M23.0892 22.7931C23.0257 23.739 22.0819 24.6649 20.9807 24.8581C19.8785 25.0539 19.0366 24.4443 19.0996 23.4987C19.162 22.5512 20.1064 21.6266 21.2083 21.4325C22.3097 21.2368 23.1515 21.8464 23.0892 22.7931ZM15.3857 35.1682L15.8733 35.0532L14.8897 37.7702C14.8897 37.7702 8.15626 39.5659 3.5957 41.4583L4.1684 39.5659C4.7912 39.369 5.44911 38.9632 5.63578 38.3221L8.48742 25.5934L7.70707 25.8044L7.94525 24.8757L12.7535 23.1807L9.68045 36.5832C9.50049 37.2872 9.80942 37.5608 10.5525 37.383L13.5321 36.5622C14.5152 36.2443 15.3857 35.1682 15.3857 35.1682ZM21.5553 34.8999C21.303 35.1413 21.0332 35.2972 20.7487 35.3355C20.2511 35.4057 20.1857 34.7678 20.3644 34.0052L22.411 25.6197L18.1332 27.1439L17.9122 28.0117L18.6188 27.8258L17.0687 33.7547C16.6528 35.4608 17.2155 37.1247 19.535 36.8066C20.5925 36.6614 21.5156 36.1266 22.306 35.3509L21.5553 34.8999ZM34.0484 26.1356C34.671 23.5722 33.1288 22.739 30.5653 23.0551C27.6095 23.4205 25.1921 25.1333 24.5162 27.7935L23.5121 31.8584C22.812 34.4048 24.378 35.273 26.9385 34.9392C29.8745 34.5555 32.2978 33.017 32.9113 30.6349L34.0484 26.1356ZM27.6162 33.5424C27.1891 33.5719 26.6947 33.2762 26.7784 32.8644L28.6949 25.2095C28.8064 24.7568 29.5236 24.4355 29.9657 24.3856C30.3516 24.3416 31.1833 24.3932 31.0831 24.8157L29.1861 32.4853C29.027 33.1005 28.3398 33.4908 27.6162 33.5424ZM36.969 22.4247L36.773 23.2398L37.4801 23.0271L35.1062 32.7498L38.5609 31.9048L40.4784 23.9681C40.6772 23.1107 41.1994 22.65 41.8694 22.4209C42.39 22.2439 42.8335 22.4535 42.7203 22.899L41.4279 28.3369C41.1338 29.5197 40.3468 31.8757 42.6756 31.5566C44.4138 31.3186 45.5695 30.2556 46.2635 29.4142L45.485 28.9209C45.2005 29.3215 44.8288 29.5654 44.5964 29.4936C44.4587 29.4498 44.4362 29.2451 44.4925 29.0657L46.0781 22.4376C46.5749 20.426 45.4685 19.9997 44.5107 20.1551C43.3226 20.3464 41.7637 21.1001 41.031 21.785L41.2751 20.8231L36.969 22.4247Z" fill="#0066B3"/>
<path d="M51.6258 21.5422C51.5856 20.572 52.0339 19.7095 52.7742 19.7606C53.9522 19.8427 54.2366 21.7186 53.7886 22.9921L53.8717 23.2296L56.7504 21.8845C56.5087 19.7103 54.4795 18.306 51.9359 18.8386C49.1967 19.4125 48.0435 21.3455 48.0928 23.7603C48.1561 26.806 52.0475 29.1285 52.1168 31.948C52.1687 34.0527 51.3283 34.8727 50.3844 35.1172C49.5377 35.3357 48.3047 34.7826 48.1681 33.7421C49.1499 33.5043 50.4767 32.6661 50.3509 31.4353C50.2276 30.2171 49.166 30.1721 48.7004 30.2691C47.5185 30.5152 46.6661 31.6176 46.7739 32.9592C36.9416 34.3247 18.3289 39.9101 7.34961 44.5968C10.432 44.5778 14.2041 45.0723 16.9252 46.7757C27.8353 39.4126 39.4821 35.5056 46.9934 33.9138C47.6732 35.7259 49.6104 36.357 51.4689 36.0364C54.2588 35.5544 56.1805 33.3526 55.5918 30.1564C54.9806 26.8339 51.7625 24.812 51.6258 21.5422ZM21.1405 18.1807C20.4411 18.7213 19.9921 18.4106 19.6609 17.9201L20.2257 17.4836C20.4252 17.7416 20.6041 17.9503 20.9148 17.7103C21.1054 17.5628 21.1036 17.367 20.9619 17.1839C20.5861 16.6975 19.4258 17.5457 18.8045 16.7416C18.4778 16.3187 18.4198 15.8259 19.108 15.2941C19.6583 14.8695 20.122 14.9055 20.5212 15.4991L19.9709 15.9242C19.8148 15.722 19.6225 15.5422 19.394 15.7186C19.2109 15.8599 19.1805 16.045 19.3247 16.232C19.7209 16.7446 20.8234 15.8215 21.4794 16.6706C22.0198 17.3705 21.5708 17.8487 21.1405 18.1807ZM22.4584 14.0394L22.45 14.0432L22.8138 15.5096L23.4233 15.2068L22.4584 14.0394ZM22.4523 17.1193L21.7806 13.6419L22.6234 13.2237L24.9713 15.8682L24.2981 16.2026L23.7926 15.6094L22.9203 16.0424L23.0835 16.806L22.4523 17.1193ZM25.4987 15.6468L24.749 12.3167L25.8701 12.0651L26.9008 14.2121L26.9098 14.21L26.9541 11.8209L28.0379 11.5771L28.7874 14.9072L28.1093 15.0597L27.5312 12.4905L27.5218 12.4926L27.4587 15.2059L26.7947 15.3552L25.6077 12.9235L25.5985 12.9252L26.1767 15.4942L25.4987 15.6468ZM30.5453 14.9557C29.661 14.9503 29.4991 14.4291 29.5402 13.8382L30.2542 13.8432C30.2523 14.1692 30.265 14.4432 30.657 14.4462C30.8982 14.4474 31.0171 14.2924 31.0189 14.0604C31.0224 13.4462 29.5857 13.3989 29.5921 12.3827C29.5952 11.8485 29.8533 11.4247 30.723 11.4301C31.4179 11.4344 31.7611 11.749 31.7096 12.4623L31.0148 12.4575C31.0164 12.2026 30.9753 11.942 30.687 11.9406C30.455 11.9391 30.3174 12.0656 30.3159 12.3021C30.3117 12.9497 31.7494 12.9021 31.7427 13.9751C31.7373 14.8594 31.0889 14.9593 30.5453 14.9557ZM35.4338 12.1025L34.9458 14.4732C34.8426 14.9732 34.4515 15.443 33.5997 15.2677C32.8308 15.1092 32.5425 14.6346 32.6722 14.0051L33.1602 11.6345L33.8592 11.7784L33.3809 14.1025C33.2957 14.5148 33.4384 14.7132 33.6932 14.7656C33.9988 14.8284 34.1796 14.6533 34.256 14.2828L34.7345 11.9586L35.4338 12.1025ZM35.5422 15.6888L36.9252 12.5685L37.8068 12.9591L37.6791 15.4875L37.6878 15.4916L38.6456 13.3308L39.2548 13.6009L37.8719 16.7213L37.0117 16.34L37.1719 13.6809L37.163 13.677L36.1517 15.9589L35.5422 15.6888ZM41.2453 16.1599C41.4353 15.9067 41.5578 15.6505 41.2518 15.4279C40.8924 15.1666 40.5392 15.6521 40.1495 16.187C39.5209 17.0507 39.4935 17.265 39.8227 17.5043C39.9182 17.5738 40.038 17.6258 40.1481 17.6595L40.5932 17.0478L40.2797 16.8197L40.5885 16.3952L41.4791 17.0436L40.4612 18.4427C40.282 18.3589 39.8439 18.1336 39.6144 17.9669C38.6435 17.2601 38.8245 16.7779 39.5872 15.7312C40.0936 15.0351 40.6424 14.3531 41.5865 15.0402C42.1523 15.452 42.273 16.0256 41.8184 16.5775L41.2453 16.1599ZM25.1975 45.884L25.5371 45.992C25.6483 46.0275 25.8263 46.0028 25.9011 45.7672C25.9579 45.589 25.8784 45.4191 25.7071 45.3648L25.3942 45.2655L25.1975 45.884ZM24.8597 46.9467L25.1421 47.0365C25.2497 47.0707 25.493 47.1445 25.6008 46.8048C25.6693 46.5896 25.6303 46.4326 25.3748 46.3514L25.0788 46.2572L24.8597 46.9467ZM24.233 47.1584L25.0052 44.7307L25.9064 45.0172C26.293 45.14 26.5772 45.3528 26.4126 45.8706C26.3239 46.1499 26.1218 46.3075 25.829 46.2738L25.8268 46.2805C26.1707 46.4454 26.191 46.7073 26.0851 47.0404C25.8895 47.6556 25.3462 47.5123 25.131 47.4439L24.233 47.1584ZM27.6178 45.943L27.6109 45.9416L27.1742 46.9813L27.6743 47.0721L27.6178 45.943ZM26.2393 47.7831L27.3897 45.4031L28.0804 45.5287L28.305 48.1589L27.7529 48.0584L27.7154 47.4777L27.0001 47.3475L26.7568 47.8772L26.2393 47.7831ZM29.3855 48.2697C28.7268 48.2318 28.6259 47.8371 28.6794 47.3983L29.2113 47.429C29.1974 47.6722 29.1961 47.877 29.4885 47.8941C29.6683 47.9043 29.763 47.793 29.7731 47.6205C29.7994 47.1626 28.7302 47.0725 28.7739 46.3152C28.7965 45.917 29.0052 45.6111 29.6535 45.6485C30.1713 45.6783 30.4151 45.9257 30.3491 46.4555L29.8313 46.4257C29.8422 46.2355 29.8218 46.0402 29.6069 46.0277C29.4343 46.0176 29.3265 46.1069 29.3165 46.2829C29.2886 46.7655 30.362 46.7851 30.3158 47.5848C30.2778 48.2434 29.7907 48.293 29.3855 48.2697ZM30.7997 48.2711L30.6649 45.7272L32.0533 45.6536L32.0743 46.0449L31.2179 46.0901L31.251 46.7175L32.0402 46.6757L32.061 47.0666L31.2717 47.1085L31.311 47.8519L32.1955 47.8052L32.2161 48.1963L30.7997 48.2711ZM33.168 47.6723L33.4603 47.6231C33.5716 47.6044 33.8216 47.5587 33.7623 47.2073C33.7248 46.9846 33.6186 46.863 33.3541 46.9075L33.0478 46.9592L33.168 47.6723ZM32.9827 46.5728L33.3341 46.5137C33.4492 46.4943 33.5963 46.3906 33.5552 46.1473C33.5242 45.9629 33.3761 45.8482 33.1987 45.8782L32.8749 45.9326L32.9827 46.5728ZM32.7075 48.1469L32.2844 45.6347L33.2168 45.4777C33.6171 45.4105 33.967 45.4696 34.0573 46.0056C34.1059 46.2942 33.9984 46.5271 33.7225 46.6307L33.7237 46.6377C34.1048 46.6273 34.2428 46.8509 34.3006 47.1956C34.4081 47.8323 33.8594 47.9534 33.6366 47.9906L32.7075 48.1469ZM35.1636 45.5201L35.1569 45.522L35.2422 46.6462L35.7287 46.4994L35.1636 45.5201ZM34.7756 47.7861L34.7144 45.1434L35.3867 44.9403L36.7855 47.179L36.2484 47.3413L35.9499 46.8419L35.2541 47.052L35.2789 47.6342L34.7756 47.7861ZM37.1482 47.0181L36.1456 44.6762L36.6353 44.4666L37.4715 46.4193L38.2049 46.1055L38.3712 46.4947L37.1482 47.0181ZM38.7058 46.3209L37.4856 44.0846L37.9533 43.8295L38.9708 45.6942L39.6708 45.3124L39.8737 45.6838L38.7058 46.3209ZM40.1687 43.9763C39.7571 43.4423 39.3654 42.9336 40.0613 42.3973C40.4919 42.0657 40.8482 42.1698 41.1652 42.616L40.7515 42.9347C40.5447 42.6663 40.4196 42.6024 40.294 42.6993C40.0563 42.8823 40.198 43.1296 40.5962 43.6466C40.9948 44.1638 41.1978 44.3637 41.4355 44.1808C41.6312 44.0299 41.4288 43.7849 41.3116 43.6213L41.7282 43.3002C42.1439 43.8396 42.0622 44.1788 41.6682 44.4827C40.972 45.019 40.5759 44.5045 40.1687 43.9763ZM42.6056 43.6545L40.848 41.8099L41.2338 41.4426L42.6993 42.9805L43.2767 42.4303L43.5687 42.7371L42.6056 43.6545ZM42.9893 39.5073L44.3718 40.6702C44.6635 40.9158 44.8328 41.3394 44.4147 41.8362C44.0377 42.2843 43.6238 42.305 43.2564 41.9961L41.8741 40.833L42.2171 40.4255L43.5724 41.5657C43.8129 41.7678 43.9936 41.7448 44.1187 41.5961C44.2686 41.4182 44.218 41.2369 44.0019 41.0553L42.6463 39.9149L42.9893 39.5073Z" fill="#0066B3"/>
<path d="M45.2428 40.0186L45.4035 39.7696C45.4648 39.6749 45.5999 39.4595 45.3003 39.2659C45.1105 39.1435 44.9491 39.1399 44.8035 39.3654L44.635 39.626L45.2428 40.0186ZM44.3061 39.4136L44.4995 39.1144C44.5627 39.0163 44.5854 38.8381 44.3779 38.704C44.2207 38.6025 44.0362 38.6343 43.9386 38.7857L43.7606 39.0613L44.3061 39.4136ZM45.2829 40.6786L43.1426 39.2961L43.6555 38.502C43.8758 38.1613 44.1553 37.9425 44.6119 38.2377C44.8578 38.3966 44.9573 38.6329 44.8478 38.9065L44.8536 38.9104C45.1029 38.6219 45.361 38.6712 45.6546 38.8605C46.1969 39.2109 45.9164 39.6976 45.7938 39.8873L45.2829 40.6786Z" fill="#0066B3"/>
</svg>
