<svg width="155" height="122" viewBox="0 0 155 122" fill="none" xmlns="http://www.w3.org/2000/svg">
<g clip-path="url(#clip0_243_1260)">
<path d="M113.808 65.2098V64.1721L117.178 59.6963L125.29 65.2098H113.808ZM136.5 45.8674H125.118L129.203 40.4442L126.825 37.4393C121.058 30.1157 113.691 24.1981 105.284 20.1366C96.8765 16.075 87.6502 13.9764 78.3063 14.0002C68.9624 13.9764 59.736 16.075 51.3286 20.1366C42.9212 24.1981 35.554 30.1157 29.7873 37.4393L27.4093 40.4442L31.4994 45.872H18.5V54.625H25.8965V74.0124H35.9563V55.0807L50.6089 74.5313H44.1002L54.4771 86.8577H62.3763L78.3063 108L94.2316 86.8577H102.135L112.961 74.0124H136.5V61.6274L126.042 54.5167H136.5V45.8674Z" fill="white"/>
<path d="M78.4454 72.2786H85.1671V47.603H78.4454V72.2786Z" fill="#C00C3F"/>
<path d="M105.543 60.9076L95.5283 47.6021H88.0321L90.0658 50.3047V72.282H96.5881V58.972L106.603 72.282H112.065V47.6021H105.543V60.9076Z" fill="#C00C3F"/>
<path d="M67.5543 47.6032V62.6954L64.9997 66.0838L62.4451 62.6954V47.6032H56.0496V62.6954L53.4996 66.0838L50.945 62.6954V47.6032H44.5449V63.5932L51.0899 72.2786H55.9047L59.2474 67.8389L62.5946 72.2786H67.4048L73.9543 63.5932V47.6032H67.5543Z" fill="#C00C3F"/>
<path d="M78.3058 94.3246V105.108L97.1164 80.1438H88.9907L78.3058 94.3246Z" fill="#231F20"/>
<path d="M78.3059 105.109V94.3258L67.621 80.1405H59.4952L78.3059 105.109Z" fill="#C00C3F"/>
<path d="M77.1484 39.7005H71.6044V30.4106H68.9275V41.9519H77.1484V39.7005Z" fill="#6D6E71"/>
<path d="M83.1742 42.1223C84.9769 42.1223 86.7298 41.6666 87.6855 40.9989V35.3951H83.0428V37.5518H85.2215V39.5731C84.5966 39.774 83.944 39.876 83.2874 39.8754C80.8823 39.8754 80.0761 38.6572 80.0761 36.1802C80.0761 33.816 80.837 32.4263 83.2512 32.4263C84.5874 32.4263 85.3528 32.8459 85.9824 33.6445L87.6492 32.1195C86.6392 30.6757 84.8591 30.2336 83.1923 30.2336C79.4465 30.2336 77.4762 32.2729 77.4762 36.1576C77.4762 40.0288 79.2517 42.1223 83.1742 42.1223Z" fill="#6D6E71"/>
<path d="M47.8334 76.2648L55.2888 85.1216H101.326L108.781 76.2648H47.8334Z" fill="#6D6E71"/>
<path d="M64.5131 81.9547C64.8678 82.152 65.2664 82.2575 65.6726 82.2615C66.266 82.2615 66.4879 82.0404 66.4879 81.7562C66.4879 81.49 66.2705 81.3546 66.1663 81.3005C65.8312 81.129 65.4371 81.0117 65.0747 80.8628C64.5403 80.5921 64.2685 80.3394 64.2685 79.6717C64.2685 78.8821 64.8347 78.4084 65.881 78.4084C66.3668 78.3955 66.8477 78.509 67.276 78.7377L66.9862 79.3965C66.6502 79.2038 66.2686 79.1041 65.881 79.1077C65.3375 79.1077 65.12 79.3062 65.12 79.5995C65.12 79.7439 65.1653 79.8567 65.2514 79.9334C65.3326 80.0041 65.4243 80.0619 65.5232 80.1048C65.804 80.2357 66.2207 80.3801 66.5649 80.5425C66.9816 80.75 67.3259 81.0072 67.3259 81.7065C67.3259 82.4916 66.7099 82.9834 65.6862 82.9834C65.1679 82.9816 64.6573 82.8579 64.196 82.6224L64.5131 81.9547Z" fill="white"/>
<path d="M70.5466 78.4733H73.2643V79.1771H71.3982V80.2825H73.2009V80.9683H71.3982V82.2136H73.3367V82.9084H70.5466V78.4733Z" fill="white"/>
<path d="M77.3981 80.7443C77.3981 81.5925 77.62 82.2919 78.3674 82.2919C79.2461 82.2919 79.5088 81.7008 79.5088 80.627C79.5088 79.7878 79.2959 79.0794 78.5395 79.0794C77.688 79.0794 77.3981 79.684 77.3981 80.7443ZM80.392 80.7127C80.392 82.2242 79.7352 82.9822 78.3855 82.9822C76.995 82.9822 76.533 82.0843 76.533 80.6676C76.533 79.1516 77.1761 78.4072 78.5304 78.4072C79.9028 78.4072 80.392 79.287 80.392 80.7127Z" fill="white"/>
<path d="M83.6428 78.4735H84.4898V81.2077C84.4898 81.889 84.7027 82.2995 85.2598 82.2995C85.9166 82.2995 86.1521 81.9747 86.1521 81.0904V78.4735H86.9991V81.149C86.9991 82.4304 86.3741 82.9854 85.2689 82.9854C84.1728 82.9854 83.6428 82.4394 83.6428 81.0994V78.4735Z" fill="white"/>
<path d="M90.4188 78.4733H91.2704V82.2136H92.9961V82.9084H90.4188V78.4733Z" fill="white"/>
<path d="M78.3059 22.205V15.7305C69.2249 15.7083 60.2584 17.7489 52.088 21.6971C43.9176 25.6453 36.7584 31.3971 31.1548 38.5154L29.6057 40.469L31.9746 43.6138H40.1003L37.8402 40.6179C42.853 34.8233 49.0649 30.1775 56.0497 26.9993C63.0345 23.821 70.6269 22.1855 78.3059 22.205Z" fill="#C00C3F"/>
<path d="M127.01 40.4707L125.461 38.5171C119.856 31.3993 112.696 25.6478 104.525 21.6997C96.3539 17.7515 87.3869 15.7107 78.3054 15.7322V22.2067C93.9636 22.2067 108.575 28.8843 118.771 40.6151L116.515 43.6155H124.641L127.01 40.4707Z" fill="#231F20"/>
<path d="M20.2389 52.8907H27.6399V72.2827H34.2166V52.8907H41.6132V47.6029H20.2389V52.8907Z" fill="#C00C3F"/>
<path d="M134.761 52.7812V47.6016H116.367V57.0495L128.189 65.0806V66.944H115.941V72.2815H134.761V62.5404L122.862 54.4551V52.7812H134.761Z" fill="#C00C3F"/>
</g>
<defs>
<clipPath id="clip0_243_1260">
<rect width="118" height="94" fill="white" transform="translate(18.5 14)"/>
</clipPath>
</defs>
</svg>
