<svg width="155" height="102" viewBox="0 0 155 102" fill="none" xmlns="http://www.w3.org/2000/svg">
<g clip-path="url(#clip0_243_1705)">
<path d="M133.113 55.1983C133.75 54.2976 134.213 53.2517 134.502 52.1767L135.139 49.7652C135.37 48.8936 135.486 47.9929 135.486 47.1213C135.486 46.5402 135.428 45.9592 135.312 45.4071L136.325 45.32L138.958 35.4417L134.213 29.7762L116.042 31.3742C115 30.0958 113.843 28.8465 112.598 27.6843C112.106 22.3094 107.593 18.0675 102.095 18.0675C100.793 18.0675 99.5775 18.3 98.4201 18.7358C91.2153 15.7142 82.8819 14 73.9699 14C58.4028 14 44.5139 19.2587 35.6597 27.4229L18.2118 28.9918L26.6609 36.662L15 80.3589L20.1505 85.9953L54.1782 79.8649C60.2257 81.8115 66.9097 82.8865 73.9699 82.8865C86.1806 82.8865 97.3495 79.6616 105.885 74.3157L108.287 88L117.749 66.6164L139.971 56.7672L133.113 55.1983Z" fill="#D5D5D6"/>
<path d="M137.251 35.8484L133.547 31.4032L115.347 33.0011C114.103 31.3741 112.656 29.8052 111.065 28.3525C110.92 23.5005 106.956 19.6073 102.066 19.6073C100.764 19.6073 99.5197 19.8979 98.3912 20.3918C91.2731 17.3411 82.9109 15.5688 73.9699 15.5688C58.5185 15.5688 44.8032 20.8276 36.2673 28.9336L21.8576 30.241L28.368 36.168L16.7072 79.923L20.7291 84.3101L54.294 78.2669C60.2835 80.2135 66.9676 81.3176 73.9988 81.3176C86.875 81.3176 98.5648 77.6568 107.043 71.7298L108.981 82.7122L116.62 65.4252L135.081 57.232L130.191 56.1279C131.522 55.0239 132.564 53.484 132.998 51.7699L133.634 49.3584C133.837 48.603 133.924 47.8476 133.924 47.1213C133.924 46.3368 133.779 45.5814 133.547 44.8841C133.461 44.5936 133.316 44.303 133.2 44.0416L135.11 43.8672L137.251 35.8484Z" fill="#CF0022"/>
<path d="M103.976 67.8948C98.1308 71.9043 90.8391 74.5772 82.8819 75.7394C86.9039 74.2576 90.6366 72.3691 93.9641 70.1029C94.1667 69.9577 94.3982 69.8124 94.6007 69.6671L87.8877 70.8583C80.4514 74.6934 71.2211 76.9596 61.1806 76.9596C60.2257 76.9596 59.2708 76.9306 58.3449 76.9015C63.206 78.1508 68.4722 78.8481 73.941 78.8481C86.8171 78.8481 98.3912 75.1002 106.493 69.1151L106.001 66.384C105.394 66.8779 104.699 67.4009 103.976 67.8948Z" fill="white"/>
<path d="M20.8449 78.848L22.0891 80.2426L108.142 64.8731L107.882 63.3333L20.8449 78.848ZM113.785 62.5779L109.473 72.3109L110.66 73.5021L114.971 63.7691L124.404 59.5854L123.218 58.3941L113.785 62.5779ZM131.927 35.2964L130.943 38.9281L124.664 39.4801C124.404 39.5092 124.144 39.7416 124.086 40.0031L123.391 42.5598C123.333 42.8213 123.478 43.0247 123.709 42.9956L124.896 42.8794L125.301 41.3686C125.359 41.1071 125.561 40.9909 125.764 40.9619L132.13 40.4099L133.113 36.7781L131.927 35.2964ZM92.7778 51.9733L93.9641 51.857L94.456 49.9686L102.876 49.2422L104.352 43.6929C104.468 43.2571 104.525 42.8504 104.525 42.4727C104.525 42.095 104.468 41.7173 104.352 41.3977C104.236 41.0781 104.091 40.7876 103.86 40.5261C103.657 40.2936 102.905 39.393 102.674 39.1315C103.252 39.8869 103.455 40.9909 103.108 42.2402L101.632 47.7895L93.2118 48.5159L92.4016 51.5375C92.3727 51.7989 92.5174 52.0023 92.7778 51.9733Z" fill="#970022"/>
<path d="M113.119 42.0659L118.646 41.572L119.485 38.376C119.514 38.2308 119.572 38.1146 119.63 37.9693L118.356 36.4585L117.402 40.0902L112.02 40.5551C111.759 40.5841 111.499 40.8166 111.441 41.078L107.94 54.1813L102.818 54.6462L103.281 52.932L101.806 54.7624L90.5787 55.7502C88.8715 55.8955 87.6562 55.0239 87.3379 53.6002L85.1967 56.2441L82.1007 56.5056C81.3194 56.5637 80.6829 56.3603 80.3067 55.9245C79.9595 56.3894 79.4097 56.738 78.8889 56.7671L73.9699 57.2029C72.2627 57.3482 71.0474 56.4766 70.7292 55.0529L68.5879 57.6968L65.7812 57.9583C64.6238 58.0455 63.6979 57.6968 63.1192 56.9995C63.3507 57.2901 64.103 58.1907 64.3055 58.4232C64.5081 58.6556 64.7396 58.859 65 59.0333C65.2604 59.1786 65.5787 59.3238 65.897 59.3819C66.2442 59.44 66.5914 59.4691 66.9965 59.44L69.3692 59.2367L71.5393 56.5637C71.8576 56.9414 72.3495 57.5225 72.4942 57.6968C72.6967 57.9292 72.9282 58.1326 73.1886 58.3069C73.4491 58.4522 73.7673 58.5975 74.0856 58.6556C74.4329 58.7137 74.7801 58.7428 75.1852 58.7137L80.1042 58.2779C80.625 58.2198 81.1748 57.9002 81.522 57.4353C81.8981 57.8421 82.5058 58.0745 83.316 58.0164L85.978 57.784L88.1481 55.111C88.4664 55.4887 88.9583 56.0698 89.103 56.2441C89.3055 56.4766 89.537 56.6799 89.7974 56.8543C90.0579 56.9995 90.3761 57.1448 90.6944 57.2029C91.0417 57.261 91.3889 57.2901 91.794 57.261L103.021 56.2732L103.513 55.663L104.034 56.186L109.155 55.7212L112.685 42.5017C112.743 42.2402 112.946 42.0949 113.119 42.0659ZM129.554 45.2327C129.352 45.0003 128.6 44.0996 128.368 43.8382C128.947 44.5936 129.149 45.6976 128.802 46.9469L127.876 50.4334C127.587 51.5665 126.487 52.5833 125.475 52.6705L114.161 53.6583L114.653 56.4766L116.302 56.8543L115.984 55.082L125.59 54.2394C127.269 54.0941 128.889 52.6124 129.352 50.8401L129.988 48.4287C130.104 47.9928 130.162 47.5861 130.162 47.2084C130.162 46.8307 130.104 46.453 129.988 46.1334C129.902 45.7848 129.757 45.4942 129.554 45.2327Z" fill="#970022"/>
<path d="M113.553 50.1429L115.116 50.0267L115 49.4166L113.09 47.499L113.553 50.1429ZM119.051 45.0585C119.253 45.32 120.064 46.2497 120.266 46.5112C120.469 46.7436 120.7 46.947 120.961 47.1213C121.221 47.2666 121.539 47.4118 121.858 47.47C122.205 47.5281 122.552 47.5571 122.957 47.5281L123.681 47.47L123.999 46.3369C124.057 46.0754 123.912 45.872 123.681 45.9011L121.771 46.0754C120.556 46.1335 119.63 45.7558 119.051 45.0585ZM84.5602 52.6996L85.7465 52.5834L91.9676 29.2532L90.7523 27.8005L84.2129 52.2638C84.1551 52.5253 84.2998 52.7287 84.5602 52.6996ZM96.0474 44.0126C96.1053 43.7511 96.3657 43.5186 96.6261 43.4896L97.7836 43.3734L98.1018 42.2403C98.1597 41.9788 98.015 41.7754 97.7836 41.8045L95.4109 42.0078C95.1504 42.0369 94.89 42.2693 94.8322 42.5308L94.022 45.5524L95.6713 45.4071L96.0474 44.0126ZM40.4051 33.9018L39.1898 32.4201L30.3646 65.4833L32.0139 65.338L40.4051 33.9018ZM47.0891 58.83C46.7419 59.2948 46.1921 59.6435 45.6713 59.6725L40.7523 60.1084C39.6528 60.1955 38.7268 59.8759 38.1481 59.2077L39.2766 60.5732C39.4791 60.8056 39.7106 61.009 39.971 61.1833C40.2315 61.3286 40.5498 61.4739 40.868 61.532C41.2153 61.5901 41.5625 61.6192 41.9676 61.5901L46.8866 61.1543C47.4074 61.0962 47.9572 60.7766 48.3044 60.3117C48.6805 60.7185 49.2882 60.9509 50.0984 60.8928L53.1944 60.6313L53.7442 59.9631L54.2072 60.5442L59.3287 60.0793L62.9456 46.5112L64.566 46.3659L64.8842 45.2328C64.9421 44.9713 64.7974 44.768 64.566 44.797L61.7592 45.0585L58.1134 58.5685L52.9919 59.0334L53.4548 57.3192L51.9791 59.1205L48.8831 59.382C48.0729 59.4692 47.4363 59.2367 47.0891 58.83ZM47.9861 47.7895L48.3044 46.6564C48.3622 46.395 48.2176 46.1916 47.9861 46.2206L40.0289 46.9179L41.2442 48.3706L47.9861 47.7895Z" fill="#970022"/>
<path d="M42.9514 56.3604L44.1377 56.2442L44.5717 54.6753C44.6296 54.4138 44.89 54.1813 45.1504 54.1523L46.3079 54.0361L46.7419 52.4381L43.9352 52.6996C43.6748 52.7287 43.4143 52.9611 43.3565 53.2226L42.6331 55.9536C42.5463 56.1861 42.691 56.3894 42.9514 56.3604ZM76.169 53.426L77.3553 53.3097L79.4386 45.4652C79.4965 45.2037 79.7569 44.9713 80.0173 44.9422L81.1748 44.826L81.6088 43.2281L78.8021 43.4896C78.5417 43.5186 78.2812 43.751 78.2234 44.0125L75.8217 52.9901C75.7639 53.2516 75.9085 53.455 76.169 53.426ZM51.3426 55.605L52.5289 55.4888L54.5254 48.051C54.6412 47.6152 54.6991 47.2084 54.6991 46.8307C54.6991 46.453 54.6412 46.0753 54.5254 45.7558C54.4097 45.4362 54.265 45.1456 54.0335 44.8841C53.831 44.6517 53.0787 43.751 52.8472 43.4896C53.4259 44.245 53.6285 45.349 53.2812 46.5983L50.9954 55.1692C50.9375 55.4307 51.0822 55.634 51.3426 55.605ZM67.9514 54.1523L69.1377 54.0361L71.1342 46.5983C71.25 46.1625 71.3079 45.7558 71.3079 45.3781C71.3079 45.0004 71.25 44.6227 71.1342 44.3031C71.0185 43.9835 70.8738 43.6929 70.6423 43.4314C70.4398 43.199 69.6875 42.2983 69.456 42.0369C70.0347 42.7923 70.2373 43.8963 69.89 45.1456L67.6042 53.7165C67.5463 53.978 67.691 54.1813 67.9514 54.1523Z" fill="#970022"/>
<path d="M124.086 40.0032C124.144 39.7417 124.404 39.5093 124.664 39.4802L130.943 38.9282L131.927 35.2965L121.916 36.1681C120.874 36.2553 119.803 37.2721 119.514 38.4052L118.588 41.8917C117.922 44.3903 119.34 46.2498 121.742 46.0173L123.652 45.843C123.912 45.814 124.057 46.0173 123.97 46.2788L123.275 48.8356C123.218 49.097 122.957 49.3295 122.697 49.3585L113.524 50.172L113.061 47.4991L108.75 57.2321L104.902 58.9463L30.3646 65.4834L39.1898 32.4202L29.8148 33.2627L32.39 35.6161L20.8449 78.8481L107.882 63.3334L109.473 72.311L113.785 62.578L123.247 58.3943L114.682 56.4767L114.19 53.6585L125.503 52.6707C126.545 52.5835 127.616 51.5666 127.905 50.4335L128.831 46.9471C129.497 44.4484 128.079 42.589 125.677 42.7924L123.767 42.9667C123.507 42.9957 123.362 42.7924 123.449 42.5309L124.086 40.0032Z" fill="white"/>
<path d="M102.066 36.1099C106.173 36.1099 109.502 32.7669 109.502 28.6431C109.502 24.5193 106.173 21.1763 102.066 21.1763C97.959 21.1763 94.6296 24.5193 94.6296 28.6431C94.6296 32.7669 97.959 36.1099 102.066 36.1099Z" fill="white"/>
<path d="M97.5521 22.6872C90.7234 19.7527 82.6504 18.0386 73.9699 18.0386C70.8449 18.0386 67.8067 18.271 64.8842 18.6778C76.6319 19.2007 87.1354 22.8615 94.6296 28.4689C94.6875 26.1155 95.8159 24.0237 97.5521 22.6872ZM117.402 40.1195L118.356 36.4877L109.271 37.3012C108.229 37.3884 107.159 38.4053 106.869 39.5384L103.802 51.0437L92.7777 52.0025C92.5173 52.0315 92.3727 51.8281 92.4595 51.5666L93.2696 48.5451L101.69 47.8187L103.165 42.2694C103.831 39.7708 102.413 37.9114 100.012 38.1147L92.6909 38.7539C91.6493 38.8411 90.5787 39.858 90.2893 40.9911L87.4537 51.6248C87.3669 51.9153 87.3379 52.2058 87.309 52.4964L84.618 52.7288C84.3576 52.7579 84.2129 52.5545 84.2997 52.293L90.8391 27.8297L82.419 28.5851L84.9942 30.9385L82.6794 39.6546L76.14 40.2357C75.0984 40.3228 74.0278 41.3397 73.7384 42.4728L70.9028 53.1065C70.8159 53.397 70.787 53.6876 70.7581 53.9781L68.0671 54.2105C67.8067 54.2396 67.662 54.0362 67.7488 53.7747L70.0347 45.2039C70.7002 42.7052 69.2824 40.8458 66.8808 41.0492L57.7083 41.8627L54.0914 55.4308L51.4583 55.6632C51.1979 55.6923 51.0532 55.4889 51.14 55.2274L53.4259 46.6566C54.0914 44.1579 52.6736 42.2985 50.272 42.5019L41.0995 43.3154L40.1157 46.9471L48.0729 46.2498C48.3333 46.2207 48.478 46.4241 48.3912 46.6856L47.6389 49.5329L41.1574 50.114C40.1157 50.2011 39.0162 51.1599 38.7268 52.2639L37.743 56.0119C37.0775 58.5105 38.4953 60.3699 40.897 60.1666L45.8159 59.7308C46.3368 59.6727 46.8866 59.3531 47.2338 58.8882C47.6099 59.295 48.2176 59.5274 49.0278 59.4693L52.1238 59.2078L53.5995 57.4065L53.1366 59.1206L58.2581 58.6558L61.875 45.0877L64.6817 44.8262C64.9421 44.7971 65.0868 45.0005 65 45.262L62.7141 53.8328C62.0486 56.3315 63.4664 58.1909 65.868 57.9875L68.6747 57.7261L70.8159 55.0822C71.1342 56.5058 72.3495 57.3774 74.0567 57.2321L78.9757 56.7963C79.4965 56.7382 80.0463 56.4186 80.3935 55.9538C80.7696 56.3605 81.3773 56.593 82.1875 56.5348L85.2835 56.2734L87.4247 53.6295C87.743 55.0531 88.9583 55.9247 90.6655 55.7794L101.892 54.7916L103.368 52.9612L102.905 54.6754L108.027 54.2105L111.528 41.1073C111.586 40.8458 111.846 40.6134 112.106 40.5843L117.402 40.1195ZM94.8321 42.56C94.89 42.2985 95.1504 42.0661 95.4109 42.037L97.7835 41.8336C98.044 41.8046 98.1886 42.008 98.1018 42.2694L97.2916 45.291L94.022 45.5816L94.8321 42.56ZM45.8738 55.6342C45.8159 55.8957 45.5555 56.1281 45.2951 56.1572L42.9224 56.3605C42.662 56.3896 42.5173 56.1862 42.6041 55.9247L43.3275 53.1937C43.3854 52.9322 43.6458 52.6997 43.9062 52.6707L46.7129 52.4092L45.8738 55.6342ZM79.0914 52.7288C79.0335 52.9903 78.7731 53.2227 78.5127 53.2518L76.14 53.4551C75.8796 53.4842 75.7349 53.2808 75.8217 53.0193L78.2234 44.0417C78.2812 43.7802 78.5416 43.5478 78.8021 43.5187L81.6088 43.2573L79.0914 52.7288Z" fill="white"/>
<path d="M41.8518 58.2198C40.5208 58.336 39.7396 57.3192 40.1157 55.9246L40.9838 52.6996C41.0706 52.351 41.3021 52.0314 41.5625 51.7989L39.537 50.753C39.103 51.1307 38.7558 51.6537 38.6111 52.2057L37.6273 55.9536C36.9618 58.4523 38.3796 60.3117 40.7812 60.1083L45.7002 59.6725C46.2211 59.6144 46.7708 59.2948 47.1181 58.83C47.4942 59.2367 48.1018 59.4691 48.912 59.411L51.9502 59.1495L51.2558 57.4354L41.8518 58.2198ZM59.6759 43.4024L57.5926 41.8044L52.9919 59.0333L58.1134 58.5685L56.0301 56.9705L59.6759 43.4024ZM82.3611 28.5559L84.9363 30.8802L82.5926 39.6254L84.6759 41.2234L87.6852 29.9505L82.3611 28.5559ZM99.4618 46.5402L91.0706 47.2665L93.2407 48.5159L101.661 47.7895L99.4618 46.5402ZM107.795 37.9984C107.361 38.4051 107.014 38.9281 106.869 39.5092L102.818 54.6462L107.94 54.1813L105.856 52.5834L109.126 40.2936C109.213 39.945 109.444 39.6254 109.705 39.3639L107.795 37.9984ZM110.66 38.9281C110.341 38.9572 110.023 39.1315 109.734 39.3639L111.672 40.7294C111.788 40.6423 111.904 40.5842 112.02 40.5551L117.402 40.0903L115.781 38.4632L110.66 38.9281ZM67.8646 55.9536L66.8518 56.0408C65.5208 56.157 64.7396 55.1401 65.1157 53.7455L67.4016 45.1747C67.7778 43.8091 66.9965 42.7632 65.6655 42.8794L59.6759 43.4024L61.7593 45.0004L64.566 44.7389C64.8264 44.7098 64.9711 44.9132 64.8843 45.1747L62.5984 53.7455C61.9329 56.2442 63.3507 58.1036 65.7523 57.9002L68.559 57.6387L67.8646 55.9536Z" fill="#D5D5D6"/>
<path d="M49.6933 50.7529L42.4595 51.3921C42.1412 51.4212 41.794 51.5955 41.5336 51.8279L43.559 52.8739C43.6748 52.7867 43.7905 52.7286 43.9063 52.6995L46.713 52.4381L45.8738 55.634C45.8449 55.7502 45.7581 55.8955 45.6424 55.9826L47.147 57.7549C47.5231 57.7258 47.8993 57.3772 47.9861 56.9995L49.6933 50.7529ZM49.0567 44.332L42.6042 44.8841L40.9838 43.2571L40 46.8888L47.9572 46.1915C48.2176 46.1624 48.3623 46.3658 48.2755 46.6273L47.5231 49.4746L49.6933 50.7239L50.7928 46.5982C51.169 45.2618 50.3877 44.2158 49.0567 44.332ZM98.8831 39.974L94.0509 40.4098C93.7327 40.4388 93.4144 40.6132 93.125 40.8456L95.0637 42.2111C95.1794 42.124 95.2951 42.0658 95.4109 42.0368L97.7836 41.8334C98.044 41.8044 98.1887 42.0077 98.1019 42.2692L97.2917 45.2908L99.4618 46.5401L100.619 42.2402C100.995 40.8746 100.214 39.8578 98.8831 39.974ZM129.323 37.301L123.275 37.824C122.957 37.853 122.639 38.0274 122.35 38.2598L124.288 39.6253C124.404 39.5382 124.52 39.4801 124.635 39.451L130.914 38.899L129.323 37.301Z" fill="#D5D5D6"/>
<path d="M120.44 36.8943L122.378 38.2598C122.118 38.5213 121.887 38.8409 121.8 39.1895L120.99 42.2111C120.613 43.5767 121.395 44.6226 122.726 44.5064L124.635 44.3321C125.966 44.2158 126.748 45.2327 126.372 46.6273L125.561 49.6489C125.475 49.9975 125.243 50.3171 124.983 50.5786L123.044 49.2131C123.16 49.1259 123.218 49.0097 123.275 48.8644L123.97 46.3077C124.028 46.0462 123.883 45.8429 123.652 45.8719L121.742 46.0462C119.34 46.2496 117.922 44.4192 118.588 41.9206L119.514 38.4051" fill="#D5D5D6"/>
<path d="M125.012 50.5497C124.751 50.8112 124.404 50.9565 124.086 50.9855L115.492 51.7409L113.524 50.143L114.132 53.6585L125.446 52.6706C125.966 52.6125 126.487 52.3511 126.921 51.9443L125.012 50.5497ZM84.4734 54.472L75.0694 55.2855C73.7384 55.4017 72.9572 54.3848 73.3333 52.9902L75.9375 43.1991C76.0243 42.8505 76.2558 42.5309 76.5162 42.2694L74.5775 40.9039C74.1435 41.3106 73.7963 41.8336 73.6516 42.4147L70.816 53.0483C70.1505 55.547 71.5683 57.4064 73.9699 57.203L78.8889 56.7672C79.4097 56.7091 79.9595 56.3895 80.3067 55.9247C80.6829 56.3314 81.2905 56.5639 82.1007 56.5057L85.1968 56.2443L84.4734 54.472ZM101.082 53.0193L91.6782 53.8328C90.3472 53.949 89.566 52.9321 89.9421 51.5375L92.5463 41.7464C92.6331 41.3978 92.8646 41.0782 93.125 40.8167L91.1863 39.4512C90.7523 39.8579 90.4051 40.3809 90.2604 40.962L87.4248 51.5957C86.7593 54.0943 88.1771 55.9537 90.5787 55.7503L101.806 54.7625L101.082 53.0193Z" fill="#D5D5D6"/>
<path d="M107.882 63.3334L103.744 62.4036L24.809 75.1873L35.5729 34.8025L29.8148 33.2627L32.39 35.6161L20.8449 78.8481L107.882 63.3334Z" fill="#D5D5D6"/>
<path d="M77.4422 41.8626C77.1239 41.8916 76.8056 42.066 76.5162 42.2984L78.4549 43.6639C78.5706 43.5767 78.6864 43.5186 78.8021 43.4896L81.6088 43.2281L79.0915 52.6706C79.0625 52.7868 78.9757 52.9321 78.86 53.0192L80.3646 54.7915C80.7408 54.7625 81.1169 54.4138 81.2037 54.0361L84.647 41.1653L77.4422 41.8626Z" fill="#D5D5D6"/>
<path d="M113.582 57.5808L112.512 51.4795L109.589 58.0747L105.075 60.0794L28.5417 68.7084L31.3773 71.2942L104.525 61.2416L108.981 62.2294L110.052 68.3307L112.975 61.7355L119.398 58.8882L113.582 57.5808Z" fill="#FAC109"/>
<path d="M111.846 55.9536L112.598 58.5685L115.087 59.411L112.251 60.9509L110.718 63.8562L109.965 61.2124L107.477 60.3698L110.313 58.859L111.846 55.9536Z" fill="#004537"/>
<path d="M96.1342 24.1107C92.5463 22.629 88.669 21.4959 84.5891 20.7986C88.3796 22.2803 91.8808 24.1398 94.9768 26.3479C95.2373 25.5344 95.6424 24.779 96.1342 24.1107Z" fill="#FAC109"/>
<path d="M103.686 33.8437C99.9248 33.8437 96.8866 30.7931 96.8866 27.0161C96.8866 24.808 97.9283 22.8323 99.5486 21.583C96.684 22.6289 94.6296 25.3891 94.6296 28.614C94.6296 32.7397 97.9572 36.0808 102.066 36.0808C105.278 36.0808 108.027 34.018 109.068 31.1417C107.824 32.7978 105.885 33.8437 103.686 33.8437Z" fill="#D5D5D6"/>
<path d="M103.947 31.1998L103.513 30.212L103.194 30.5897L103.571 31.4613L103.281 31.7809L104.381 32.2167L104.67 31.8681L103.715 31.4613L103.947 31.1998ZM104.988 30.1829L104.786 29.137L104.381 29.4566L104.583 30.3573L104.236 30.6478L105.22 31.287L105.596 30.9964L104.728 30.4154L104.988 30.1829ZM106.233 29.4275L106.204 28.3526L105.799 28.5559V29.5147L105.394 29.7181L106.233 30.5316L106.667 30.2992L105.914 29.5728L106.233 29.4275ZM107.593 28.9046L107.795 27.8586L107.332 27.9749L107.159 28.9046L106.725 29.0208L107.361 29.9796L107.824 29.8634L107.245 28.9917L107.593 28.9046ZM109.039 28.6721L109.416 27.6843L108.953 27.7134L108.605 28.585L108.142 28.614L108.605 29.689L109.068 29.66L108.692 28.7012L109.039 28.6721ZM103.108 32.391L102.5 31.5194L102.269 31.9552L102.789 32.7106L102.587 33.1174L103.715 33.3208L103.947 32.8849L102.934 32.7106L103.108 32.391ZM102.529 33.7275L101.748 33.0012L101.603 33.466L102.297 34.1052L102.153 34.541L103.31 34.512L103.455 34.0471L102.413 34.0762L102.529 33.7275ZM102.211 35.1511L101.314 34.5991L101.256 35.064L102.037 35.5579L102.008 36.0228L103.137 35.7613L103.194 35.2964L102.182 35.4998L102.211 35.1511ZM100.764 25.2438L99.6933 24.808L99.4039 25.1857L100.359 25.5924L100.127 25.8539L100.561 26.8127L100.88 26.4641L100.475 25.5924L100.764 25.2438ZM98.8542 25.7668L98.478 26.0573L99.3461 26.6384L99.0567 26.8418L99.2882 27.8877L99.6643 27.5972L99.4618 26.6674L99.838 26.406L98.8542 25.7668ZM97.8414 26.5222L97.4074 26.7255L98.1597 27.4809L97.8414 27.6262V28.7012L98.2755 28.4688V27.539L98.6806 27.3357L97.8414 26.5222ZM96.713 27.0451L96.2211 27.1904L96.7998 28.062L96.4815 28.1492L96.2789 29.1951L96.7419 29.0789L96.9155 28.1492L97.3495 28.033L96.713 27.0451ZM95.5555 27.3647L95.0637 27.3938L95.4687 28.3526L95.1215 28.3816L94.7164 29.3694L95.2083 29.3404L95.5555 28.4688L95.9896 28.4397L95.5555 27.3647ZM101.574 25.5343L101.806 25.0985L101.256 24.3431L101.487 23.9364L100.359 23.733L100.098 24.1398L101.14 24.3431L100.966 24.6627L101.574 25.5343ZM101.516 23.4134L102.297 24.1688L102.442 23.7039L101.748 23.0357L101.892 22.629H100.735L100.59 23.0938H101.632L101.516 23.4134ZM101.863 22.0769L102.76 22.629L102.818 22.1641L102.008 21.6702L102.066 21.2053L100.937 21.4668L100.88 21.9317L101.892 21.7283L101.863 22.0769Z" fill="#CF0022"/>
<path d="M43.8484 35.8194L45.0637 34.3376C45.9028 35.0349 46.7998 35.4998 47.8704 35.4998C48.7095 35.4998 49.2303 35.1512 49.2303 34.5991V34.5701C49.2303 34.0471 48.912 33.7856 47.3206 33.3789C45.4109 32.885 44.1956 32.362 44.1956 30.4735V30.4444C44.1956 28.7303 45.5556 27.5972 47.4942 27.5972C48.8542 27.5972 50.0405 28.033 50.9954 28.7884L49.9248 30.3573C49.0857 29.7762 48.2755 29.4276 47.4653 29.4276C46.684 29.4276 46.25 29.8053 46.25 30.2411V30.2701C46.25 30.8802 46.6551 31.0836 48.2755 31.5194C50.1852 32.0133 51.2558 32.7106 51.2558 34.3667V34.3958C51.2558 36.2843 49.838 37.3302 47.7836 37.3302C46.4236 37.3302 44.9769 36.8363 43.8484 35.8194ZM51.8924 35.8194L53.1076 34.3376C53.9468 35.0349 54.8438 35.4998 55.9144 35.4998C56.7535 35.4998 57.2743 35.1512 57.2743 34.5991V34.5701C57.2743 34.0471 56.956 33.7856 55.3646 33.3789C53.4549 32.885 52.2396 32.362 52.2396 30.4735V30.4444C52.2396 28.7303 53.5995 27.5972 55.5382 27.5972C56.8982 27.5972 58.0845 28.033 59.0394 28.7884L57.9688 30.3573C57.1296 29.7762 56.3195 29.4276 55.5093 29.4276C54.6991 29.4276 54.294 29.8053 54.294 30.2411V30.2701C54.294 30.8802 54.6991 31.0836 56.3195 31.5194C58.2292 32.0133 59.2998 32.7106 59.2998 34.3667V34.3958C59.2998 36.2843 57.882 37.3302 55.8276 37.3302C54.4676 37.3302 53.0208 36.8363 51.8924 35.8194ZM60.1678 32.4782C60.1678 29.7762 62.2512 27.5681 65.1158 27.5681C66.8229 27.5681 67.8357 28.033 68.8195 28.8755L67.5174 30.4444C66.794 29.8343 66.1574 29.4857 65.0579 29.4857C63.5533 29.4857 62.3669 30.8221 62.3669 32.4201V32.4492C62.3669 34.1924 63.5533 35.4417 65.2315 35.4417C65.9838 35.4417 66.6493 35.2383 67.1702 34.8606V33.4951H65.0579V31.6938H69.1377V35.7903C68.1829 36.6038 66.8229 37.3011 65.1158 37.3011C62.1933 37.3592 60.1678 35.2964 60.1678 32.4782Z" fill="white"/>
</g>
<defs>
<clipPath id="clip0_243_1705">
<rect width="125" height="74" fill="white" transform="translate(15 14)"/>
</clipPath>
</defs>
</svg>
