<svg width="155" height="126" viewBox="0 0 155 126" fill="none" xmlns="http://www.w3.org/2000/svg">
<path d="M41.6497 21V41.7956L13 41.7728L20.6618 51.9373L26.8076 51.6233L26.8016 73.4585L41.6497 69.9053V90.9395L76.9815 116L112.335 90.9286V69.9455L127.718 74.1062C132.383 74.2208 133.584 71.6278 133.892 69.8944C134.041 69.0364 134.133 68.1164 134.166 67.3699C134.199 66.8407 134.206 66.315 134.206 65.7977C134.207 65.089 134.205 64.156 134.203 63.2261C134.2 61.3662 134.193 59.5192 134.193 59.5182V59.5172C134.191 58.4672 134.088 57.2655 133.441 56.0811C132.99 55.2578 132.299 54.5654 131.481 54.0228L141 41.811L112.336 41.8095V21H41.6497Z" fill="white"/>
<path d="M76.9859 105.684L44.2302 87.1721V89.6222L76.9859 112.839L109.741 89.6222V87.1721L76.9859 105.684Z" fill="#06141F"/>
<path d="M71.2483 91.1349H82.73L85.4874 96.8704L109.741 84.4378V70.3502C88.1589 65.6546 65.8121 65.6554 44.2302 70.3527V84.4383L68.4829 96.8709L71.2483 91.1349Z" fill="#06141F"/>
<path d="M68.3429 44.4133H52.1801C52.4327 44.5254 54.489 45.2322 54.489 47.29L54.476 61.2645C54.4446 63.2598 55.9227 64.219 58.7778 63.9279C63.4063 63.4708 68.0509 63.1933 72.701 63.0961V53.0125C69.6501 53.0418 67.0277 53.1067 63.9792 53.2109V56.5984C64.9665 56.5527 65.4932 56.5151 66.483 56.4769V59.9834C64.7552 60.0608 63.2995 60.1619 61.5667 60.2805C61.1137 60.3102 60.9058 60.1614 60.9058 59.8043V48.2809C60.9058 47.9799 61.1231 47.8291 61.5687 47.8236C62.9895 47.8003 64.2728 47.7825 65.6931 47.7671C66.1366 47.7636 66.3175 47.9228 66.3175 48.2616V50.2792C68.457 50.241 70.6049 50.2132 72.7424 50.1988L72.7529 47.3718C72.7563 45.5228 71.1631 44.4133 68.3439 44.4133" fill="#EA0029"/>
<path d="M105.67 48.7729V53.7014C105.67 54.0664 105.464 54.2782 105.021 54.2445C103.407 54.1245 102.117 54.0139 100.497 53.9082V48.0076C102.115 48.0473 103.388 48.0929 105.002 48.1331C105.449 48.15 105.67 48.3459 105.67 48.7729ZM112.099 55.2721V47.9327C112.056 45.7282 110.232 44.4153 107.412 44.4133H91.7633C92.0369 44.5274 94.1529 45.2069 94.1529 47.2151L94.1594 63.9239C96.2351 64.1233 98.4304 64.3658 100.497 64.6371V57.3562C101.537 57.4425 102.638 57.5368 103.677 57.6374C104.78 60.2215 105.601 62.7782 106.702 65.5006C108.786 65.8527 111.057 66.3298 113.13 66.7564C112.005 63.8866 110.848 61.0293 109.658 58.185C111.241 57.8934 112.124 56.8439 112.099 55.2721Z" fill="#EA0029"/>
<path d="M22.0124 49.2505C24.5266 49.1127 26.9192 48.9802 29.4409 48.8622V69.3359C31.5106 68.7775 33.7786 68.2547 35.8648 67.7662V48.577C37.3733 48.514 39.1325 48.4545 40.6381 48.4014V44.4138H18.3051C19.5097 46.0493 20.7457 47.6622 22.0124 49.2505ZM129.265 55.7701C127.337 54.9096 122.911 52.9069 121.546 52.276C121.045 52.0419 120.86 51.6426 120.86 51.3693V49.3547C120.853 48.9272 121.075 48.7179 121.515 48.7397C124.798 48.8875 128.636 49.0522 131.906 49.2332L135.662 44.4138H112.161C112.485 44.5874 114.596 45.3091 114.596 47.6808C114.596 47.6808 114.613 50.2251 114.613 51.5816C114.613 52.9421 115.319 54.0357 117.026 54.8129C118.729 55.5896 124.27 57.9554 124.693 58.184C125.246 58.4756 125.339 58.7618 125.339 59.5722V64.5741C125.341 65.2536 124.849 65.144 124.688 65.1078C123.562 64.8538 122.627 64.6639 121.495 64.4258C121.335 64.3921 120.932 64.2835 120.924 63.6382V60.3291C118.871 59.9886 116.813 59.6733 114.752 59.3833V63.1943C114.792 65.6414 116.57 67.4592 119.384 68.157C122.028 68.8008 124.57 69.5021 127.184 70.2674C129.967 71.1056 131.587 69.9618 131.582 66.9939C131.602 66.9196 131.577 59.5256 131.577 59.5256C131.572 57.7996 131.194 56.6376 129.265 55.7701M43.9766 47.5246V66.058C46.1026 65.6707 48.264 65.3141 50.4044 64.9987V44.4133H41.6796C42.2587 44.582 43.9771 45.5372 43.9771 47.5251M73.4192 44.4133C73.7391 44.5591 75.8621 45.2297 75.8621 47.0926C75.8567 52.4168 75.8567 57.7381 75.8532 63.0589C80.8642 63.0341 85.79 63.2236 90.7855 63.6129V60.2076C87.8935 60.0174 84.9977 59.8881 82.1001 59.8197V55.5454C84.6816 55.5965 87.2547 55.6535 89.8322 55.7646V52.2611C87.2554 52.1814 84.6779 52.1266 82.1001 52.0969C82.1071 47.8479 82.1001 47.8479 82.1001 47.7408C84.9831 47.7611 87.6877 47.7874 90.5683 47.8271V44.4138L73.4192 44.4133Z" fill="#EA0029"/>
<path d="M55.4847 77.1024C55.6916 77.0756 55.8386 77.0062 55.9248 76.8941C56.0095 76.7849 56.0519 76.6426 56.0519 76.4715C56.0519 76.2761 56.0035 76.1372 55.8979 76.0648C55.7982 75.9944 55.6607 75.9681 55.4842 75.9889C55.1892 76.0301 54.8927 76.0703 54.5952 76.1104V77.2189C54.8927 77.1792 55.1892 77.1406 55.4847 77.1024ZM55.3701 75.3476C55.5759 75.3194 55.723 75.2514 55.8077 75.1443C55.8949 75.0386 55.9382 74.9027 55.9382 74.7356C55.9353 74.5397 55.8889 74.4068 55.7912 74.3373C55.693 74.2679 55.553 74.2461 55.3701 74.2704C55.1115 74.303 54.8532 74.3378 54.5952 74.3745V75.4523C54.8573 75.4176 55.111 75.3799 55.3701 75.3476ZM55.3866 73.6102C55.6308 73.5775 55.8326 73.5735 56.0035 73.5993C56.175 73.6256 56.3085 73.6802 56.4197 73.7635C56.5243 73.8508 56.6065 73.9634 56.6509 74.1062C56.6967 74.2485 56.7227 74.4236 56.7227 74.6319C56.7227 74.8145 56.6933 74.9776 56.6409 75.116C56.5861 75.2514 56.5014 75.3709 56.3908 75.48C56.5298 75.5361 56.6409 75.6323 56.7197 75.7692C56.7974 75.9061 56.8368 76.1075 56.8368 76.3738C56.8368 76.597 56.8079 76.7854 56.7421 76.9476C56.6839 77.1027 56.5906 77.2424 56.4695 77.3558C56.3419 77.4724 56.1925 77.5631 56.0299 77.6226C55.8429 77.6934 55.648 77.7416 55.4494 77.766C54.9121 77.8354 54.3749 77.9098 53.8372 77.9827V73.8215C54.3515 73.7496 54.8703 73.6787 55.3866 73.6102ZM58.7914 75.6998C59.1268 75.6626 59.4681 75.6244 59.804 75.5882C59.6371 75.0724 59.4716 74.556 59.3017 74.0402C59.1332 74.5918 58.9558 75.1448 58.7914 75.6998ZM60.0208 76.226C59.5394 76.2756 59.0565 76.3282 58.5786 76.3827C58.4714 76.7269 58.3668 77.0711 58.2631 77.4178C57.9925 77.4491 57.7259 77.4813 57.4582 77.512C57.9078 76.0703 58.3633 74.6319 58.8108 73.1926C59.1362 73.1569 59.4656 73.1227 59.7901 73.0875L61.1396 77.1148C60.872 77.1406 60.6054 77.1668 60.3388 77.1966C60.2281 76.8712 60.1265 76.5484 60.0208 76.226ZM64.4029 73.4426C64.1931 73.4043 63.9807 73.3826 63.7675 73.3776C63.5681 73.3692 63.3837 73.3776 63.2093 73.3875C63.1156 73.3962 63.0224 73.4101 62.9302 73.4292C62.8395 73.4441 62.7648 73.4743 62.6955 73.517C62.6297 73.5534 62.5747 73.6065 62.536 73.6707C62.4927 73.7362 62.4747 73.8195 62.4747 73.9232C62.4688 74.003 62.4842 74.0829 62.5196 74.1548C62.55 74.2161 62.5995 74.266 62.6606 74.2972C62.7284 74.3373 62.8126 74.3671 62.9208 74.3904C63.0244 74.4152 63.155 74.437 63.307 74.4628C63.5198 74.5005 63.7057 74.5432 63.8677 74.5908C64.0336 74.6364 64.1687 74.7034 64.2788 74.7867C64.3864 74.8705 64.4707 74.9727 64.529 75.0952C64.5838 75.2207 64.6172 75.3734 64.6172 75.5554C64.6172 75.9944 64.4811 76.3282 64.2105 76.5652C63.9434 76.8023 63.5676 76.9332 63.0947 76.9675C62.8879 76.9789 62.6686 76.9789 62.4359 76.963C62.2069 76.9493 61.9793 76.9195 61.7546 76.8737V76.2607C62.0108 76.289 62.2465 76.3053 62.4618 76.3123C62.6726 76.3252 62.8804 76.3207 63.0897 76.3044C63.3439 76.282 63.5333 76.2171 63.6469 76.1134C63.7675 76.0092 63.8228 75.8471 63.8228 75.6303C63.8246 75.5617 63.8064 75.494 63.7705 75.4353C63.7346 75.3766 63.6825 75.3295 63.6205 75.2995C63.5403 75.2602 63.4549 75.2328 63.3668 75.2182C63.2671 75.1973 63.1385 75.1755 63.0045 75.1547C62.8129 75.1265 62.6239 75.0831 62.4394 75.0247C62.2885 74.9786 62.147 74.906 62.0217 74.8105C61.9103 74.7235 61.8219 74.6108 61.7641 74.4821C61.7025 74.3287 61.672 74.1647 61.6744 73.9996C61.6744 73.6425 61.791 73.3518 62.0287 73.1291C62.2629 72.906 62.6337 72.776 63.155 72.7304C63.5733 72.6953 63.9946 72.7271 64.4029 72.8246V73.4426ZM65.4958 72.5905C66.4377 72.525 67.3826 72.4685 68.3265 72.4154C68.324 72.6376 68.324 72.8588 68.3265 73.0795C67.6492 73.1167 66.9684 73.1549 66.2917 73.2001V74.2644C66.946 74.2242 67.6004 74.1851 68.2557 74.1498C68.171 74.3755 68.0818 74.6027 67.9951 74.8278C67.4289 74.8606 66.8588 74.8913 66.2917 74.9305V76.034C66.9684 75.9894 67.6492 75.9512 68.3265 75.916C68.324 76.1357 68.324 76.3589 68.3265 76.5806C67.3826 76.6277 66.4377 76.6872 65.4958 76.7532V72.5905ZM70.9259 75.8049C71.1347 75.7999 71.2808 75.7419 71.3645 75.6412C71.4512 75.5361 71.496 75.4032 71.496 75.2291C71.496 75.0307 71.4472 74.8898 71.3416 74.807C71.2419 74.7277 71.0984 74.688 70.9259 74.6959C70.6259 74.7073 70.3299 74.7182 70.0294 74.7282V75.8391C70.3299 75.8282 70.6254 75.8158 70.9259 75.8049ZM70.8078 74.0407C71.0166 74.0328 71.1631 73.9787 71.2514 73.8776C71.3351 73.7823 71.3784 73.6464 71.3784 73.4818C71.3784 73.2883 71.3336 73.1495 71.2314 73.0721C71.1347 72.9918 70.9947 72.9565 70.8078 72.9625C70.5482 72.9724 70.291 72.9818 70.0294 72.9937V74.07C70.291 74.0596 70.5477 74.0482 70.8078 74.0407ZM70.8287 72.3019C71.069 72.2939 71.2743 72.3128 71.4472 72.3529C71.6162 72.3926 71.7597 72.464 71.8668 72.5578C71.9715 72.651 72.0522 72.771 72.0991 72.9188C72.1474 73.0676 72.1688 73.2432 72.1688 73.4495C72.1688 73.636 72.1439 73.7967 72.0886 73.9281C72.0338 74.0596 71.9481 74.1722 71.8379 74.2674C71.981 74.3373 72.0886 74.4484 72.1668 74.5908C72.2466 74.7331 72.2864 74.9379 72.2864 75.2033C72.2864 75.428 72.2546 75.612 72.1923 75.7687C72.1331 75.9167 72.0381 76.0479 71.9157 76.1506C71.785 76.2566 71.6339 76.3348 71.4716 76.3802C71.2829 76.4315 71.0886 76.4598 70.893 76.4646C70.3493 76.4854 69.8051 76.5087 69.2649 76.533V72.3698C69.7862 72.3425 70.3045 72.3232 70.8287 72.3019ZM74.2505 74.7148L75.2706 74.6979C75.0982 74.1662 74.9327 73.6345 74.7593 73.1009C74.5894 73.639 74.4169 74.1756 74.2505 74.7148ZM75.4814 75.3546C75.0005 75.36 74.5186 75.3689 74.0327 75.3734C73.928 75.7107 73.8219 76.0489 73.7167 76.3842C73.4466 76.3887 73.176 76.3951 72.9094 76.4006C73.3614 75.0039 73.8184 73.6082 74.2704 72.2091C74.5968 72.2051 74.9258 72.2017 75.2502 72.1972C75.7037 73.581 76.1522 74.9647 76.6082 76.353C76.3391 76.353 76.0685 76.353 75.7979 76.3559C75.6937 76.0212 75.5901 75.6889 75.4814 75.3546ZM77.2631 76.353V72.1853C77.5282 72.1853 77.7943 72.1913 78.0619 72.1913V75.6903C78.6969 75.6945 79.3318 75.7028 79.9667 75.7151C79.8775 75.9324 79.7913 76.1536 79.706 76.3738C78.8918 76.3605 78.0774 76.3536 77.2631 76.353ZM80.6704 76.3887V72.2255C80.9345 72.2344 81.1961 72.2404 81.4632 72.2493V75.7454C82.1002 75.7627 82.7341 75.7851 83.3665 75.8079C83.2818 76.0286 83.197 76.2443 83.1093 76.4626C82.296 76.4358 81.4797 76.409 80.6704 76.3887ZM88.7787 76.5861C88.566 76.6353 88.3504 76.6717 88.1333 76.6952C87.919 76.721 87.7107 76.7249 87.5123 76.7135C87.2098 76.6927 86.9567 76.6272 86.7439 76.5087C86.538 76.3935 86.3619 76.2322 86.2296 76.0375C86.093 75.8278 85.9955 75.5953 85.942 75.3511C85.8788 75.0705 85.848 74.7836 85.8503 74.496C85.8503 74.1722 85.8812 73.8776 85.942 73.6216C86.0018 73.3617 86.0965 73.1475 86.2296 72.9689C86.3626 72.7953 86.5316 72.6629 86.7439 72.5796C86.9567 72.4943 87.2163 72.4606 87.5123 72.4794C87.7341 72.4943 87.9459 72.5255 88.1453 72.5702C88.3401 72.6148 88.5559 72.6828 88.7782 72.771V73.3692C88.6551 73.3379 88.5454 73.3067 88.4448 73.2794C88.3426 73.2561 88.2464 73.2323 88.1547 73.2139C88.0655 73.1981 87.9753 73.1852 87.8866 73.1743C87.7979 73.1658 87.7022 73.1544 87.604 73.1495C87.2672 73.1296 87.021 73.2407 86.8784 73.4818C86.7314 73.7288 86.6591 74.0804 86.6591 74.5417C86.6591 74.7629 86.6731 74.9652 86.712 75.1448C86.7439 75.3263 86.7987 75.485 86.8784 75.612C86.9567 75.7454 87.0563 75.8476 87.1774 75.9249C87.2946 76.0008 87.4376 76.045 87.609 76.0539C87.7022 76.0608 87.7934 76.0608 87.8766 76.0608C87.9664 76.0608 88.0536 76.0608 88.1483 76.0539C88.238 76.045 88.3331 76.036 88.4378 76.0241C88.5385 76.0132 88.6551 75.9983 88.7787 75.9735V76.5861ZM89.6114 76.8316V72.6674C89.8716 72.6867 90.1337 72.7081 90.4048 72.7304V76.229C91.0353 76.282 91.6697 76.3366 92.3046 76.3926C92.2144 76.6059 92.1296 76.8216 92.0444 77.0334C91.234 76.9594 90.423 76.8924 89.6114 76.8316ZM93.8281 75.8446C93.8281 76.1075 93.8988 76.2994 94.0404 76.4189C94.1819 76.5444 94.3623 76.6168 94.5935 76.6371C94.8342 76.6649 95.0226 76.6332 95.1627 76.5414C95.3027 76.4497 95.3725 76.2721 95.3725 76.0083V73.2085C95.6391 73.2368 95.9047 73.2685 96.1773 73.3017V76.106C96.1773 76.3559 96.136 76.5672 96.0727 76.7358C96.0009 76.9035 95.8982 77.0339 95.7652 77.1301C95.6291 77.2269 95.4602 77.2859 95.2668 77.3137C95.0435 77.3447 94.817 77.3452 94.5935 77.3151C94.3651 77.2943 94.1399 77.2465 93.9228 77.1728C93.7426 77.1098 93.5773 77.0109 93.4368 76.8822C93.3018 76.7536 93.1994 76.595 93.1378 76.4194C93.0668 76.2101 93.0324 75.9901 93.0362 75.7692V72.9655C93.3003 72.9918 93.5669 73.0161 93.8281 73.0423V75.8446ZM98.866 77.1406C99.0703 77.1668 99.2183 77.1376 99.302 77.0498C99.3888 76.963 99.4336 76.8316 99.4336 76.6614C99.4336 76.4626 99.3823 76.3128 99.2801 76.2141C99.1745 76.1149 99.0379 76.0539 98.8665 76.0301C98.5695 75.9889 98.2699 75.9507 97.9729 75.913V77.0235C98.2699 77.0602 98.5695 77.1029 98.866 77.1406ZM98.7494 75.3551C98.9537 75.3833 99.1032 75.3551 99.1859 75.2693C99.2731 75.1879 99.3155 75.0634 99.3155 74.8913C99.319 74.6979 99.2697 74.5541 99.1725 74.4569C99.0738 74.3641 98.9348 74.3031 98.7494 74.2798C98.4908 74.2443 98.232 74.2109 97.9729 74.1796V75.2559C98.2321 75.2891 98.4892 75.3228 98.7494 75.3551ZM98.7673 73.6216C99.0095 73.6564 99.2109 73.7069 99.3843 73.7779C99.5532 73.8473 99.6943 73.9415 99.7979 74.0507C99.9016 74.1622 99.9828 74.2972 100.03 74.4524C100.078 74.6096 100.1 74.7916 100.103 74.9955C100.103 75.1835 100.071 75.3377 100.02 75.4602C99.9619 75.5822 99.8816 75.6829 99.7695 75.7548C99.912 75.855 100.02 75.9795 100.1 76.1357C100.175 76.2929 100.213 76.5027 100.213 76.7716C100.213 76.9923 100.183 77.1733 100.123 77.3181C100.065 77.4538 99.9693 77.5704 99.8478 77.6549C99.7257 77.7377 99.5786 77.7888 99.4062 77.8062C99.2146 77.8268 99.0211 77.8225 98.8306 77.7933C98.2924 77.7228 97.7536 77.6524 97.2109 77.5869V73.4242C97.7302 73.4877 98.25 73.5547 98.7673 73.6216Z" fill="white"/>
<path d="M48.1867 40.0687V27.5017H56.1675L61.8054 40.0687H91.9298L97.8204 27.5017H105.784V40.0687H109.741V23.5642H44.2297V40.0687H48.1867Z" fill="#06141F"/>
<path d="M79.2913 35.6282C79.2913 35.6778 79.3063 35.7061 79.3357 35.7061C79.3585 35.703 79.3801 35.6941 79.3985 35.6803L87.5432 30.418C87.6807 30.3223 87.8452 30.2732 88.0132 30.2777H89.8033C90.0774 30.2777 90.2632 30.4597 90.2632 30.733V34.1353C90.2632 34.546 90.1715 34.7851 89.8058 35.0038L87.6344 36.3042C87.6127 36.3193 87.5875 36.3284 87.5611 36.3305C87.5352 36.3305 87.5088 36.3097 87.5088 36.2343V32.265C87.5088 32.2179 87.4959 32.1867 87.4645 32.1867C87.4415 32.1894 87.4197 32.1985 87.4017 32.2129L81.4497 36.0627C81.315 36.1541 81.1553 36.2022 80.9923 36.2006H77.0467C76.7696 36.2006 76.5868 36.0185 76.5868 35.7428V30.8396C76.5868 30.8029 76.5713 30.7692 76.5399 30.7692C76.517 30.7719 76.4953 30.7808 76.4771 30.795L72.55 33.1414C72.5102 33.1672 72.5002 33.186 72.5002 33.2039C72.5002 33.2193 72.5082 33.2351 72.5341 33.2634L75.3404 36.0547C75.3772 36.091 75.4031 36.1197 75.4031 36.151C75.4031 36.1768 75.3613 36.1976 75.3119 36.1976H72.7773C72.5784 36.1976 72.4244 36.1693 72.3173 36.0627L70.6164 34.3714C70.6099 34.3638 70.6019 34.3575 70.5929 34.3531C70.5839 34.3487 70.5741 34.3461 70.5641 34.3456C70.5456 34.3467 70.5277 34.3521 70.5117 34.3615L67.6686 36.0627C67.4962 36.1668 67.3786 36.1951 67.2086 36.1951H64.5932C64.3141 36.1981 64.1307 36.0131 64.1307 35.7398V32.4029C64.1307 31.9893 64.2224 31.7522 64.5907 31.534L66.775 30.2281C66.7923 30.2168 66.8123 30.2105 66.8328 30.2097C66.8667 30.2097 66.8847 30.2439 66.8847 30.3188V34.7875C66.8847 34.8347 66.8951 34.8555 66.9295 34.8555C66.9528 34.8518 66.9749 34.843 66.9943 34.8297L74.3735 30.4106C74.5146 30.3139 74.6875 30.2668 74.8594 30.2752H78.8314C79.1055 30.2752 79.2913 30.4572 79.2913 30.73L79.2889 35.6282H79.2913Z" fill="white"/>
</svg>
