<svg width="155" height="114" viewBox="0 0 155 114" fill="none" xmlns="http://www.w3.org/2000/svg">
<ellipse cx="76.8995" cy="42.2965" rx="26.601" ry="26.466" fill="white"/>
<path d="M87.7523 20.6194C88.6474 20.6393 89.5486 20.76 90.2708 20.8811H90.2718L90.765 20.97C93.0858 21.4108 95.6847 22.2517 98.6078 23.5696L99.2386 23.8596L99.2396 23.8606L99.7113 24.0881C100.18 24.3214 100.641 24.5703 101.093 24.8352H101.092C103.688 26.3416 106.673 28.589 109.231 31.2737C111.624 33.7856 113.682 36.7202 114.667 39.8264L114.85 40.4495L115 41.0354C116.48 47.0646 115.683 52.4843 113.537 57.345L113.536 57.3459C111.835 61.1898 109.221 64.4172 107.05 66.6741C105.962 67.8052 104.978 68.6996 104.265 69.3118C103.909 69.6177 103.62 69.8535 103.418 70.0139C103.318 70.0942 103.238 70.1557 103.184 70.1975C103.157 70.2183 103.136 70.2343 103.121 70.2454C103.114 70.2509 103.109 70.256 103.105 70.259C103.103 70.2604 103.101 70.2611 103.1 70.262L103.098 70.2629V70.2639L101.743 71.2756L102.005 69.6057V69.6047L102.006 69.6038C102.006 69.602 102.007 69.5988 102.007 69.595C102.008 69.5873 102.01 69.5755 102.012 69.5598C102.017 69.528 102.024 69.4799 102.033 69.4182C102.05 69.2945 102.073 69.1144 102.099 68.8928C102.15 68.4488 102.209 67.8413 102.239 67.1848C102.255 66.814 102.261 66.4317 102.253 66.0579C99.8911 71.5007 95.3174 75.0912 89.9945 77.0647C84.1207 79.2424 77.2927 79.4731 71.3626 78.0647L70.7923 77.9241C65.4857 76.5567 61.3973 73.8171 58.641 71.429C57.2616 70.2338 56.2107 69.1228 55.5033 68.3079C55.1494 67.9002 54.881 67.5654 54.6996 67.3313C54.6091 67.2146 54.5405 67.1226 54.4935 67.0588C54.47 67.0269 54.4513 67.002 54.4388 66.9846C54.4326 66.9759 54.4277 66.969 54.4242 66.9641C54.4225 66.9618 54.4213 66.9597 54.4203 66.9583L54.4193 66.9563L54.4183 66.9553L53.0941 65.0667L55.2367 65.9202L55.2435 65.9231C55.2499 65.9256 55.2605 65.9294 55.2747 65.9348C55.3036 65.9458 55.3485 65.963 55.4085 65.9846C55.5288 66.028 55.7113 66.0914 55.9505 66.1682C56.429 66.3219 57.137 66.5291 58.0423 66.7405C59.854 67.1634 62.4527 67.5999 65.5853 67.6497C71.8455 67.749 80.2398 66.304 88.7669 60.1018L89.2757 59.7209C94.5384 55.6592 99.8918 47.8423 99.6771 39.009H99.6761C99.5638 34.3374 96.9375 27.9464 92.4603 24.2288C91.672 24.3975 91.2759 24.738 91.0697 25.1145C90.8188 25.5726 90.761 26.2376 90.9242 27.1018C91.2505 28.8305 92.3767 30.9326 93.4417 32.554L93.8353 33.136C94.6284 34.271 95.4619 35.236 96.4915 36.1536L97.0238 36.6096L97.138 36.7102C97.6997 37.2289 98.1165 38.041 98.2035 39.0042H98.2025C98.298 40.048 98.2341 41.0764 98.1488 41.8352C98.1059 42.2168 98.0573 42.5356 98.0189 42.76C97.9997 42.872 97.9831 42.9608 97.971 43.0227C97.9651 43.0535 97.9599 43.078 97.9564 43.095C97.9546 43.1035 97.9535 43.1107 97.9525 43.1155C97.952 43.1178 97.9518 43.1199 97.9515 43.1213L97.9505 43.1233V43.1243L97.8255 43.7053L97.2318 43.6663L97.2777 42.9797L97.2308 43.6663H97.2259C97.224 43.6661 97.2221 43.6655 97.2201 43.6653C97.2158 43.6649 97.2112 43.6648 97.2064 43.6643C97.1966 43.6633 97.1852 43.662 97.1732 43.6604C97.1488 43.6572 97.119 43.6523 97.0853 43.6458C97.018 43.6326 96.9315 43.6119 96.8246 43.5784C96.6101 43.5112 96.3112 43.3926 95.9154 43.1848C95.224 42.8219 94.2246 42.1794 92.848 41.0364L92.2347 40.5159C90.5384 39.0424 89.0352 37.2608 87.7513 35.3342L87.2142 34.5286L88.1507 34.2854L89.0326 34.0471C89.3291 33.963 89.632 33.871 89.9232 33.7786C87.4894 32.5766 85.9468 31.3119 85.2425 30.1262V30.1252C84.4867 28.8547 84.2208 28.1276 83.9544 27.1633V27.1624C83.7109 26.2896 83.3693 25.0693 83.3763 23.9485C83.3799 23.3789 83.4727 22.785 83.7494 22.2542C84.0343 21.7078 84.4938 21.2679 85.1517 20.9963V20.9973C85.9262 20.6761 86.8714 20.5999 87.7523 20.6194Z" fill="#002461" stroke="white" stroke-width="1.37692"/>
<path d="M67.3925 4.82153C72.6307 1.48887 78.452 1.04145 82.9686 1.427C85.3043 1.62639 87.3076 2.0504 88.7284 2.42407C89.4394 2.61105 90.0064 2.78529 90.3973 2.91431C90.5927 2.9788 90.7445 3.03219 90.8485 3.06958C90.9002 3.08817 90.94 3.1032 90.9677 3.11353C90.9812 3.11859 90.9923 3.12237 90.9999 3.12524C91.0037 3.12669 91.0074 3.1283 91.0096 3.12915L91.0116 3.13013H91.0126C91.0129 3.13025 91.0139 3.13084 90.7655 3.77271L91.0135 3.1311L92.5507 3.72583L91.0468 4.40063L91.0448 4.40161C91.0427 4.40257 91.0386 4.40446 91.0341 4.40649C91.0251 4.41056 91.0117 4.41695 90.994 4.42505C90.958 4.44153 90.9042 4.46638 90.8358 4.49829C90.699 4.56213 90.5025 4.65514 90.2665 4.77075C89.7932 5.00256 89.165 5.32293 88.538 5.68091C88.1992 5.87431 87.868 6.07645 87.5643 6.27661C88.9911 6.03744 90.7577 5.82085 92.3749 5.88403L92.7616 5.90356C100.874 6.41787 108.514 13.2199 112.106 21.2063L112.349 21.7698C113.513 24.581 113.894 27.2727 113.979 29.2981C114.025 30.3796 113.986 31.2756 113.935 31.9045C113.91 32.219 113.882 32.4672 113.859 32.6389C113.848 32.7246 113.839 32.7917 113.832 32.8381C113.828 32.8614 113.825 32.8799 113.823 32.8928C113.822 32.8992 113.821 32.9046 113.82 32.9084C113.82 32.9102 113.819 32.9122 113.819 32.9133V32.9153L113.528 34.5862L112.572 33.1858V33.1848C112.572 33.1844 112.571 33.1837 112.57 33.1829C112.569 33.1807 112.566 33.1775 112.563 33.1731C112.557 33.1637 112.547 33.1485 112.533 33.1292C112.506 33.0904 112.465 33.0321 112.411 32.9563C112.302 32.8043 112.14 32.5815 111.93 32.302C111.508 31.7428 110.891 30.9573 110.115 30.0579C108.657 28.3673 106.652 26.29 104.338 24.551L103.871 24.2083C96.7276 19.0812 87.8351 16.9133 79.0653 17.8225L78.2167 17.9192C71.3875 18.7853 64.4224 22.8684 60.62 28.6829H60.619C58.9441 31.2381 57.8366 34.4259 57.5262 37.0813L56.1718 37.1536C55.0228 32.0921 55.2067 28.2494 55.5673 25.2571V25.2551L55.6268 24.8303C55.6467 24.7032 55.668 24.5796 55.6903 24.4583C57.3334 13.1693 62.9486 7.82146 66.8876 5.15356L67.3925 4.82153Z" fill="#002461" stroke="white" stroke-width="1.37692"/>
<path d="M104.35 85.0415C108.415 85.0415 111.654 85.7067 113.642 87.8813C115.512 89.9281 116.108 93.1254 115.565 97.7505L115.441 98.6948C114.684 103.929 113.115 107.446 110.583 109.637C108.049 111.83 104.676 112.587 100.569 112.587C96.4717 112.587 93.2397 111.843 91.2726 109.567C89.3083 107.294 88.7857 103.704 89.5373 98.4985L89.5383 98.4976L89.6877 97.5503C90.4832 92.9112 91.991 89.7865 94.3566 87.8169C96.8767 85.7188 100.239 85.0415 104.35 85.0415ZM50.2678 85.5962L50.1535 86.3833L48.7014 96.4302C49.4039 95.7654 50.2893 94.8666 51.3176 93.7427C53.1405 91.7502 55.3884 89.088 57.8351 85.8687L58.0412 85.5962H82.6213C85.1896 85.5962 86.9723 86.1208 87.9758 87.3911C88.9039 88.5661 89.0082 90.1893 88.7814 92.02L88.7316 92.3892C88.473 94.1802 87.9952 95.7547 87.2541 96.9009C86.9269 97.4069 86.5392 97.8385 86.093 98.1655C86.5497 98.5452 86.8889 99.0527 87.1262 99.6411C87.643 100.923 87.7155 102.673 87.4269 104.681V104.682C87.0457 107.309 86.102 109.181 84.6203 110.382C83.1457 111.578 81.2405 112.028 79.1047 112.028H63.9025L64.0168 111.241L67.1799 89.4077C67.2246 89.0467 67.1848 88.8058 67.1193 88.6304C67.0519 88.45 66.9396 88.2903 66.7707 88.1147C66.5784 87.9148 66.3987 87.7736 66.1252 87.52C65.9659 87.3724 65.798 87.2013 65.6369 87.0015C61.199 92.5768 57.7566 96.2997 56.1135 97.8325C56.3124 98.071 56.5312 98.3593 56.7658 98.6909C57.2487 99.3735 57.8278 100.283 58.4767 101.42C59.7751 103.697 61.3639 106.906 63.0373 111.083L63.4162 112.028H54.9084L54.7346 111.597C53.0667 107.47 51.5037 104.34 50.2111 102.181C49.5643 101.101 48.9909 100.274 48.5129 99.6899C48.4277 99.5859 48.3462 99.4926 48.2707 99.4077L46.5334 111.437L46.4484 112.028H39.2346L39.3478 111.241L42.5002 89.4185L42.5207 89.1655C42.5263 88.9332 42.4912 88.7624 42.4416 88.6294C42.3742 88.449 42.2617 88.2894 42.093 88.1138C41.9003 87.9132 41.7228 87.7736 41.4494 87.519C41.203 87.2897 40.9294 87.0083 40.7072 86.6401L40.0773 85.5962H50.2678ZM103.583 91.7329C100.994 91.7329 99.7561 91.9594 98.9601 92.7769C98.554 93.194 98.2113 93.818 97.9103 94.7993C97.6844 95.5361 97.4905 96.4446 97.3039 97.5698L97.1193 98.769C96.8682 100.497 96.7353 101.816 96.7473 102.83C96.7594 103.85 96.9189 104.474 97.173 104.874C97.4089 105.244 97.7819 105.508 98.4445 105.681C99.1299 105.86 100.061 105.924 101.329 105.924C103.899 105.924 105.15 105.651 105.96 104.775C106.379 104.323 106.729 103.658 107.036 102.639C107.344 101.62 107.593 100.298 107.843 98.5718L108.005 97.3716C108.144 96.2469 108.212 95.3411 108.199 94.6089C108.182 93.6258 108.019 93.0473 107.771 92.6851C107.539 92.3476 107.168 92.1033 106.491 91.9458C105.795 91.784 104.856 91.7329 103.583 91.7329ZM72.0324 105.728H78.2971C78.7374 105.728 79.0251 105.593 79.2502 105.322C79.505 105.015 79.7318 104.47 79.8625 103.551L79.8635 103.549L79.9055 103.201C79.9815 102.432 79.8951 101.971 79.758 101.717C79.6428 101.504 79.4497 101.357 78.9855 101.357H72.6652L72.0324 105.728ZM73.5451 95.2661H79.6291C80.0427 95.266 80.2603 95.1562 80.4201 94.9692C80.6147 94.7415 80.8029 94.3064 80.9201 93.4888C81.0383 92.6495 80.9623 92.2542 80.8683 92.0864C80.8252 92.0093 80.7398 91.897 80.3176 91.897H74.0324L73.5451 95.2661ZM58.4113 12.022C48.241 31.7888 57.0903 46.423 59.7394 50.3296L60.1398 50.9048C61.2059 52.4071 63.178 54.9404 65.5676 56.7485L66.6379 57.5591L65.3547 57.9556C63.7857 58.4401 62.243 58.733 60.8127 58.9028C61.5318 58.9363 62.2774 58.9453 63.051 58.9233H63.0519L63.5178 58.897C65.8938 58.6958 68.9533 57.4837 70.8205 56.1372L71.1603 55.8843C78.0821 50.5607 78.6451 39.7456 71.2433 33.5024L70.8791 33.2036C69.8762 32.4061 68.3942 31.6745 66.8185 31.1968C65.2379 30.7175 63.6434 30.5186 62.4172 30.7114L60.965 30.9399L61.7199 29.6782C62.4476 28.461 63.2889 27.68 64.2141 27.1704C65.1277 26.6672 66.0847 26.45 66.9963 26.3013L67.4553 26.2368C72.1953 25.6849 77.0301 28.4632 80.2443 32.0854L80.9689 32.9009L79.9201 33.2036C79.357 33.366 78.6426 33.5849 77.9719 33.8218C77.9139 33.8423 77.8565 33.8638 77.8 33.8843C79.1293 34.4108 80.2669 34.9143 81.2072 35.5757C82.4625 36.4586 83.3534 37.6066 84.0012 39.3804L84.1271 39.7437L84.1301 39.7515L84.132 39.7593C85.8539 45.3921 85.8487 51.08 82.9933 56.1812L82.7082 56.6733C77.9193 64.6399 67.283 67.7539 58.092 65.3491L57.6555 65.23C47.7212 62.4259 43.1216 55.9679 41.0285 50.2183C39.9858 47.3539 39.5644 44.6683 39.4035 42.7007C39.323 41.7161 39.308 40.9079 39.3127 40.3433C39.315 40.0609 39.3223 39.839 39.3293 39.686C39.3328 39.6096 39.3365 39.5503 39.3391 39.5093L39.342 39.4614C39.3458 38.7443 39.4646 37.6459 39.5773 36.7534C39.6355 36.2929 39.693 35.8746 39.7365 35.5718C39.7583 35.4204 39.7765 35.2976 39.7892 35.2124C39.7956 35.1698 39.8004 35.1364 39.8039 35.1138C39.8056 35.1024 39.8079 35.0933 39.8088 35.0874C39.8092 35.0846 39.8095 35.082 39.8098 35.0806V35.0786L40.0949 33.2319L41.0764 34.8218V34.8228L41.0773 34.8237L41.1017 34.8628C41.1194 34.8909 41.1461 34.9329 41.1808 34.9868C41.2507 35.0951 41.3527 35.2518 41.4816 35.4409C41.7401 35.8201 42.1022 36.3268 42.5178 36.8423C42.7702 37.1554 43.04 37.4648 43.3127 37.7495C42.8629 36.5237 42.3719 34.8574 42.1242 32.8706L42.0422 32.0972C41.6931 28.1162 42.845 22.1246 47.0988 17.1978L47.4055 16.8511C50.5803 13.3329 54.0768 11.8401 57.6476 11.0347L59.0851 10.7104L58.4113 12.022Z" fill="#002461" stroke="white" stroke-width="1.37692"/>
</svg>
