<svg width="155" height="140" viewBox="0 0 155 140" fill="none" xmlns="http://www.w3.org/2000/svg">
<g clip-path="url(#clip0_243_1337)">
<path d="M120.973 63.8945C123.254 64.2431 125.21 65.1514 126.49 66.4943C127.049 67.0689 127.487 67.7504 127.777 68.4981C128.067 69.2458 128.203 70.0443 128.178 70.8458C128.164 71.5763 128.042 72.3007 127.816 72.9954L130.811 70.0012L127.988 67.178L120.088 59.277C120.716 61.1171 120.924 62.7337 120.973 63.8945Z" fill="#1A1B2E"/>
<path d="M67.4424 99.1338C66.2561 98.7253 65.0964 98.2432 63.9701 97.6903C63.708 98.3849 63.5211 99.1055 63.4126 99.8398C64.7626 99.6449 66.1065 99.4094 67.4424 99.1338Z" fill="#1A1B2E"/>
<path d="M28.4571 69.9944L27.2583 68.2203C27.0829 67.9614 26.9196 67.6945 26.769 67.4204L24.1893 70.0011L32.2579 78.0708L33.1606 65.2854L28.4571 69.9944Z" fill="#1A1B2E"/>
<path d="M105.498 82.8415C103.512 87.152 100.56 90.9479 96.8721 93.9355C100.397 94.2483 102.961 95.2783 104.612 96.2012L113.351 87.4623L122.09 78.7223C118.018 80.8517 112.133 81.9946 105.498 82.8415Z" fill="#1A1B2E"/>
<path d="M48.7502 81.1086C47.1012 81.8304 45.1483 82.3327 42.8915 82.6158L37.454 83.2671L49.9802 95.7922C50.569 93.3545 51.6516 91.0586 53.2023 88.9493C51.338 86.5707 49.8376 83.9283 48.7502 81.1086Z" fill="#1A1B2E"/>
<path d="M89.9822 110.831C86.4998 111.203 82.9426 112.272 79.1161 113.427C76.1521 114.322 73.1267 115.233 70.0085 115.821L77.5006 123.314L89.9822 110.831Z" fill="#1A1B2E"/>
<path d="M127.817 72.9965C128.042 72.3004 128.164 71.5751 128.179 70.8436C128.22 69.2024 127.636 67.6964 126.491 66.4943C125.21 65.1502 123.256 64.2386 120.974 63.8945C120.9 62.321 120.602 60.7661 120.088 59.277L130.812 69.999L127.817 72.9965ZM104.611 96.2011C102.961 95.276 100.397 94.2471 96.8721 93.9342C100.56 90.9469 103.511 87.1514 105.497 82.8414C112.133 81.9945 118.018 80.8494 122.091 78.7222L104.611 96.2011ZM86.5233 40.529C89.6325 39.814 91.9351 39.3939 93.6232 39.1537L93.6199 39.1582C97.6273 38.5884 98.9702 39.0554 98.9702 39.0554C98.9702 39.0554 98.6708 36.6646 93.8735 37.3338C92.3407 37.5483 90.2638 37.5907 77.9866 40.9346L77.5621 41.0385C77.4705 41.0608 77.3785 41.0832 77.2862 41.1055C76.6277 41.2671 75.9678 41.428 75.3064 41.5881C74.1391 41.871 72.9685 42.1407 71.795 42.397L71.2364 42.521C69.949 42.7976 68.6557 43.0461 67.3574 43.2662L66.8111 43.3533C64.6281 43.6941 62.5042 43.9064 60.481 43.9064L60.3961 43.9052C60.1942 43.9052 59.995 43.9019 59.7983 43.8952C59.7589 43.8937 59.7194 43.8915 59.6799 43.8885C59.4974 43.8833 59.3168 43.8762 59.1381 43.8673L59.1079 43.865C52.6426 43.4751 49.5546 40.4441 49.5535 40.4441L49.5568 40.4419C49.559 40.4396 49.5672 40.4355 49.5814 40.4296L49.6562 40.3793C49.6816 40.3622 49.7117 40.3424 49.7467 40.3201L49.8037 40.2821L49.9679 40.1704L50.0864 40.0911C50.1445 40.0523 50.2067 40.0099 50.273 39.9637C50.5333 39.7827 50.8472 39.5593 51.1935 39.3068L51.3812 39.166C52.399 38.4052 53.6246 37.403 54.4536 36.4333C53.7866 34.7139 53.4581 32.8817 53.3017 31.6505C53.2868 31.5388 53.2738 31.4315 53.2626 31.3287C53.2418 31.1425 53.2243 30.9764 53.2101 30.8304C53.1982 30.7016 53.1889 30.5917 53.1822 30.5009L53.1811 30.4841L53.1632 30.2137L53.0705 28.2843L54.8513 29.0295C55.0569 29.1151 55.2624 29.1963 55.468 29.273C55.5261 29.2954 55.5838 29.3174 55.6412 29.339C55.8036 29.3978 55.9655 29.4548 56.1272 29.5099L56.2702 29.5602C56.475 29.6279 56.6787 29.692 56.8813 29.7523C56.9226 29.7657 56.964 29.7736 57.0053 29.787C57.1721 29.8346 57.3386 29.8804 57.5047 29.9244C57.5628 29.9408 57.6205 29.9553 57.6779 29.9679C58.0822 30.0693 58.4894 30.1587 58.899 30.2361C58.9529 30.2434 59.0066 30.2527 59.0599 30.264C59.22 30.2916 59.3798 30.3169 59.5392 30.34L59.6922 30.3657C59.8944 30.3925 60.0944 30.4215 60.2977 30.4417C60.3283 30.4454 60.3588 30.4487 60.3894 30.4517C60.5636 30.4711 60.7364 30.4874 60.9077 30.5009L61.0809 30.5143C61.2507 30.5269 61.4205 30.5374 61.5904 30.5455L61.6931 30.5523C61.8935 30.5604 62.0935 30.566 62.2931 30.569L62.4484 30.5701L62.6998 30.5735L62.8282 30.5713L63.4058 30.5634L63.6192 30.5567C63.9274 30.5423 64.2354 30.5241 64.5432 30.502C64.7592 30.4863 64.974 30.4677 65.1878 30.4461L65.4403 30.4193C65.625 30.4007 65.8101 30.3791 65.9956 30.3545L66.2458 30.3232C66.4663 30.2919 66.6871 30.2595 66.9083 30.226C66.9493 30.2208 66.9895 30.2145 67.029 30.207C67.2912 30.1661 67.553 30.1214 67.8144 30.073C67.8851 30.0596 67.957 30.0462 68.03 30.0327C68.2237 29.997 68.4177 29.9586 68.6121 29.9177C68.697 29.9005 68.7823 29.8834 68.8679 29.8663L69.4455 29.74C69.5193 29.7251 69.5923 29.7088 69.6645 29.6909C69.9274 29.6335 70.1907 29.5717 70.4544 29.5054C70.4789 29.4995 70.5039 29.4939 70.5292 29.4887C70.7676 29.4283 71.0066 29.368 71.2465 29.3077C71.3284 29.2853 71.4111 29.2634 71.4945 29.2418L72.0609 29.0909C72.1451 29.0686 72.2293 29.0459 72.3134 29.0228C72.5242 28.9654 72.7354 28.9062 72.9469 28.8451C73.0005 28.8317 73.0541 28.8165 73.1078 28.7993C73.3729 28.7271 73.6381 28.6511 73.9032 28.5714C73.9747 28.5536 74.0462 28.529 74.1177 28.5111C74.3166 28.453 74.5162 28.3934 74.7166 28.3323C74.8104 28.3063 74.9035 28.2783 74.9959 28.2486L75.5679 28.0799C75.652 28.0545 75.7358 28.0296 75.8192 28.005L76.5309 27.7894C76.5495 27.7827 76.5693 27.7771 76.5901 27.7726C77.0407 27.6341 77.4928 27.4974 77.9464 27.3626L78.4 27.2274L79.6669 26.8576C79.8531 26.8032 80.0405 26.7507 80.2289 26.7001C80.3808 26.6554 80.5335 26.6118 80.687 26.5694C84.2107 25.5952 87.8215 24.8221 91.5273 24.8221C94.0925 24.8221 96.3425 25.5348 98.0139 26.7816C98.3812 27.0561 98.725 27.3607 99.0417 27.6922C99.8254 28.5145 100.408 29.5066 100.745 30.5914C101.046 30.8215 101.396 31.1086 101.745 31.4639C101.9 31.624 102.053 31.7976 102.202 31.9845C102.913 32.8783 103.512 34.1117 103.524 35.8222C103.524 36.7037 103.332 37.5907 102.968 38.4409C102.693 39.0764 102.348 39.6787 101.938 40.2363C101.813 40.4073 101.683 40.5739 101.547 40.7357L113.264 52.4508L108.566 53.0553L108.286 54.2462C108.281 54.2618 108.01 55.4137 107.568 57.0158L103.675 53.7345C102.278 51.4947 100.6 49.4435 98.6809 47.6312C95.234 44.3529 91.0718 41.9215 86.5233 40.529ZM77.5007 123.31L70.0086 115.819C73.1256 115.234 76.1499 114.319 79.1162 113.426C82.9426 112.271 86.4987 111.2 89.9822 110.829L77.5007 123.31ZM63.4114 99.8376C63.5217 99.1032 63.7075 98.3875 63.9689 97.6903C65.0959 98.2433 66.2564 98.7254 67.4435 99.1338C66.1071 99.4101 64.7624 99.6448 63.4114 99.8376ZM58.7269 45.5688C56.7988 47.0576 55.0512 48.7667 53.5196 50.661C53.1956 50.2019 52.8336 49.755 52.4336 49.3338C51.2114 48.0456 49.6931 47.0066 47.9391 46.2514L50.6874 43.503C52.5241 44.4862 55.1261 45.3543 58.7292 45.5688H58.7269ZM49.9814 95.7899L37.4551 83.2648L42.8915 82.6135C45.1498 82.3297 47.1027 81.8281 48.7502 81.1086C49.8381 83.9276 51.3389 86.5692 53.2034 88.947C51.6516 91.0585 50.569 93.3544 49.9814 95.7899ZM77.5007 16.6909L84.6542 23.8434H84.6564C81.7304 24.4265 78.886 25.2879 76.093 26.1292C72.4397 27.2297 68.9439 28.2832 65.5062 28.6854L77.5007 16.6909ZM32.2589 78.0698L24.1893 69.999L26.77 67.4204C26.9399 67.7243 27.1026 67.9913 27.2583 68.2215L28.4559 69.9934L33.1616 65.2854L32.2589 78.0698ZM133.5 69.999L132.156 68.6538L103.904 40.4016C104.537 39.3805 105.242 37.8008 105.242 35.8199V35.8099C105.228 34.0771 104.685 31.6058 102.202 29.5523C101.485 27.662 100.157 26.0655 98.3491 24.9315C96.4431 23.735 94.0858 23.106 91.5273 23.106C89.9948 23.1104 88.4644 23.2235 86.9479 23.4445L78.8458 15.3436L77.5007 13.9996L76.1555 15.3436L62.6439 28.8563C57.1695 28.8362 51.2248 25.6555 51.2237 25.6533C51.2237 25.6555 50.9243 31.2192 52.4839 36.0043C50.9924 37.3628 46.7727 40.0564 46.7705 40.0587C46.7705 40.0587 47.3771 41.2083 49.0496 42.4618L49.0429 42.4573L45.956 45.5442C45.1672 45.3162 44.364 45.1411 43.5518 45.0202C35.4028 43.7913 26.9868 49.4835 25.5355 57.2012C24.8551 60.8188 25.2696 63.585 25.9467 65.5547L22.8453 68.6538L21.5001 69.999L22.8453 71.3441L32.0802 80.5813L31.8444 83.9374L35.0542 83.5519L49.5792 98.0758C49.5226 98.5673 49.4857 99.0612 49.4686 99.5572C49.3244 103.74 50.4919 107.235 52.9409 109.955C54.4391 113.918 58.5973 116.452 63.6673 116.452C65.0258 116.452 66.3665 116.358 67.6881 116.187L76.1555 124.655L77.5007 126L78.8458 124.655L92.8077 110.693C95.1626 110.717 97.4902 111.199 99.6618 112.11L104.021 113.931L103.794 109.21C103.778 108.884 103.623 106.248 102.762 103.51C104.321 102.016 106.566 100.567 106.592 100.55L108.441 99.3673L106.889 97.8155C106.852 97.7808 106.638 97.5674 106.24 97.2636L132.156 71.3441L133.5 69.999Z" fill="white"/>
<path d="M35.6441 55.2026L33.7549 81.9309L42.6726 80.8651C49.7501 79.9791 52.6203 76.9302 53.3543 73.1943C54.6067 66.4686 48.1749 64.6598 48.1749 64.6598C48.1749 64.6598 53.6425 62.7237 53.704 56.6114C53.7118 52.509 50.3624 47.8323 43.2881 46.7665C35.8408 45.6426 28.5051 50.9538 27.2706 57.5286C26.3757 62.2846 27.5465 65.4944 28.7196 67.2339L33.1136 62.8332C30.5429 55.4886 36.4094 51.3102 42.1441 52.0956C46.1438 52.6632 47.5973 55.2529 47.671 57.5376C47.7481 59.9083 46.4231 62.2545 43.9037 62.8756C43.2569 63.0376 42.3988 63.0265 42.3988 63.0265L42.1531 66.7703C42.1531 66.7703 43.1842 66.7133 43.7786 66.8205C45.8812 67.1848 47.7481 69.1544 47.1951 72.0949C46.7448 74.4947 45.2008 76.0197 42.3977 76.2499C41.6351 76.3215 40.8738 76.4064 40.1141 76.5046L41.6794 54.1323L35.6441 55.2026Z" fill="#1A1B2E"/>
<path d="M119.168 65.5067C119.168 65.5067 120.02 59.667 114.949 54.0161L110.003 54.6507C110.003 54.6507 106.866 67.9612 104.373 68.1914C101.576 68.5422 102.621 62.0936 104.468 56.712L103.079 55.5411L96.7872 56.3511C96.7872 56.3511 96.4442 55.3355 97.1603 53.6329C97.1603 53.6329 91.9362 54.1993 91.8736 54.1904C91.2502 56.0718 91.1217 58.7531 92.9964 60.5764C92.3808 63.7057 90.7184 70.4828 88.3186 70.8235C85.4239 71.1866 87.55 63.4097 89.3755 57.2415L84.1146 57.9163L83.7347 59.7329C82.8722 58.552 81.4813 57.77 79.477 58.028C75.7656 58.5051 72.9077 62.2154 71.7492 66.4485C70.2678 69.9934 67.9294 73.2814 64.3018 73.687C57.8555 74.2344 58.7794 65.2039 62.8047 64.5794C65.2961 64.3448 65.1219 68.121 61.9601 68.0763L62.1489 70.952C66.7619 72.0324 68.9606 68.7422 69.2846 66.1066C69.6734 62.9416 67.1686 59.6569 62.0551 60.1899C50.9175 61.4601 51.3745 80.0518 64.6303 78.5357C67.8534 78.167 70.1828 76.1549 71.8307 73.8143C72.7234 75.9125 74.5992 77.2297 77.7196 76.8297C79.9585 76.5415 80.7886 74.9036 80.7886 74.9036L80.2009 71.2358C78.3441 72.3731 75.9343 71.3352 76.9621 66.8954C77.3118 65.2922 78.333 63.2119 80.0892 62.9941C82.8655 62.7684 81.7863 67.1434 81.7863 67.1434C80.8769 72.1296 82.5974 76.2644 88.1421 75.5516C94.651 74.7148 96.8028 61.3786 96.8028 61.3786L98.854 61.116C96.9391 68.4997 97.9323 74.2925 103.219 73.6132C109.431 72.8155 112.801 59.0805 112.801 59.0805C114.19 61.3149 114.603 63.9616 114.716 65.6374C113.092 65.9994 111.596 66.5725 110.445 67.33L110.457 67.978C110.524 72.0301 115.506 74.1998 118.233 69.1857L118.229 69.2036C120.451 68.5902 122.913 69.2851 122.589 71.1118C121.504 77.214 99.9723 75.2265 80.5763 77.6598C64.6336 79.6563 51.6538 87.317 51.2337 99.6165C51.0851 103.92 52.4828 106.922 54.4837 109.022C55.6166 112.483 59.1503 114.688 63.665 114.688C68.821 114.688 73.7948 113.19 78.6033 111.736C85.9937 109.508 92.9741 107.402 100.342 110.481L102.122 111.224L102.029 109.296C102.022 109.15 101.855 105.952 100.739 103.074C102.399 101.14 105.64 99.0635 105.64 99.0635C105.64 99.0635 102.115 95.6023 94.7125 95.6023C89.3174 95.6023 83.1996 97.105 77.2068 98.5763C69.2857 100.755 64.4493 101.581 61.5311 101.835C61.149 91.1357 73.7177 84.5385 88.9219 82.8459C102.051 81.3812 115.794 80.6975 122.348 76.5415C124.672 75.0667 126.345 73.4568 126.414 70.799C126.497 67.5311 123.17 65.5994 119.168 65.5067Z" fill="#1A1B2E"/>
<path d="M66.285 107.475V106.076C66.9687 106.036 67.3106 105.999 67.9932 105.902V106.457C68.3351 106.409 68.506 106.381 68.8467 106.32L68.8523 104.827H68.8479C68.5071 104.89 68.3362 104.917 67.9932 104.967V105.404L67.5385 105.029C66.9947 105.101 66.4477 105.146 65.8995 105.164C65.6537 105.417 65.5308 105.543 65.2862 105.791V107.823C65.5174 108.057 65.6336 108.174 65.8649 108.402C66.6637 108.374 67.0648 108.336 67.8658 108.227V109.66C67.29 109.746 66.7101 109.801 66.1285 109.826V109.265C65.8424 109.279 65.5559 109.286 65.2694 109.285L65.2806 110.78C65.6169 110.78 65.7856 110.775 66.1241 110.757V110.263C66.3174 110.452 66.4157 110.545 66.6123 110.728C67.267 110.678 67.5966 110.64 68.2513 110.538C68.4971 110.256 68.6188 110.111 68.8646 109.82V107.757C68.6334 107.559 68.5172 107.458 68.287 107.256C67.6243 107.367 66.9559 107.44 66.285 107.475Z" fill="white"/>
<path d="M78.6268 106.855L76.8035 107.395L76.8058 103.674C77.5353 103.461 77.8995 103.355 78.628 103.145L78.6268 106.855ZM76.4114 102.845C76.1623 103.169 76.0371 103.331 75.788 103.659L75.7869 108.008C76.0349 108.19 76.16 108.278 76.4103 108.457C77.4538 108.148 77.9755 107.989 79.0212 107.682L79.6435 106.869L79.6446 102.545C79.3955 102.363 79.2715 102.27 79.0223 102.089C77.9777 102.386 77.456 102.541 76.4114 102.845Z" fill="white"/>
<path d="M83.7079 101.794L84.1671 101.692C84.1671 103.162 84.1671 103.907 84.1648 105.373C83.5202 105.518 83.1973 105.597 82.5516 105.761L82.5527 102.067C82.7348 102.021 82.8264 101.999 83.0108 101.957V101.035C82.362 101.188 81.7158 101.351 81.0724 101.525V102.447C81.2578 102.397 81.3495 102.373 81.5349 102.325L81.5338 106.34L82.1572 106.801C83.118 106.549 83.5984 106.43 84.5592 106.221L85.1826 105.466L85.1837 101.486C85.3681 101.446 85.4608 101.431 85.6463 101.398V100.481C84.9967 100.596 84.3504 100.728 83.7079 100.877V101.794Z" fill="white"/>
<path d="M70.4554 104.494V105.437C70.7493 105.369 70.8956 105.333 71.1883 105.262L71.1872 108.991C70.8945 109.065 70.7482 109.099 70.4554 109.169V110.11C71.9693 109.764 72.7267 109.536 74.2406 109.09V107.59L73.4161 107.829V108.41C72.9312 108.548 72.6899 108.618 72.2061 108.75V107.257C72.834 107.085 73.1491 106.996 73.7769 106.813L73.7781 106.103C73.2558 106.257 72.7318 106.405 72.2061 106.546V104.971C72.691 104.839 72.9323 104.77 73.4161 104.633V105.207L74.2417 104.97L74.2428 103.473L74.2249 103.48C72.7178 103.915 71.9648 104.142 70.4554 104.494Z" fill="white"/>
<path d="M56.3093 107.447L56.4769 107.6L56.5316 107.82C56.8132 108.97 58.165 112.724 63.6662 112.724C68.5305 112.724 73.3636 111.265 78.0369 109.855C85.0799 107.73 92.3541 105.537 99.9568 108.226C99.8339 107.236 99.587 105.75 99.0987 104.313C98.9653 103.917 98.8116 103.528 98.6384 103.147L98.4373 102.71L98.7513 102.347C99.1356 101.902 99.568 101.444 100.039 100.981C100.165 100.86 100.285 100.744 100.4 100.634L100.422 100.614C100.74 100.314 101.078 100.01 101.428 99.708L101.482 99.6611C101.627 99.536 101.766 99.4183 101.9 99.3081L101.942 99.2746L102.153 99.098C95.7292 95.8916 84.9782 98.6757 75.4785 101.139C66.2168 103.538 58.2186 105.609 54.8882 102.213L54.8748 102.201C54.1218 101.391 53.6727 100.366 53.409 99.3427C53.1699 101.796 53.5945 104.972 56.3093 107.447Z" fill="#E22531"/>
<path d="M90.3096 104.522C89.8373 104.536 89.3656 104.565 88.8952 104.61L88.8963 100.973C89.1879 100.949 89.332 100.937 89.6225 100.92V99.9906C88.7935 100.035 87.967 100.118 87.1456 100.24V101.17C87.4395 101.13 87.5858 101.11 87.8797 101.075V104.706C87.5858 104.742 87.4395 104.762 87.1456 104.806L87.1445 105.745C88.741 105.509 89.5387 105.431 91.1352 105.431V103.952C90.8045 103.952 90.6403 103.956 90.3096 103.966V104.522Z" fill="white"/>
<path d="M84.6531 23.8433L77.5007 16.6909L65.504 28.6853C68.9428 28.2831 72.4386 27.2296 76.0919 26.1291C78.8838 25.2878 81.7271 24.4276 84.6531 23.8433Z" fill="#1A1B2E"/>
<path d="M47.9391 46.2515C49.692 47.0089 51.2114 48.0468 52.4337 49.3361C52.8336 49.7592 53.1956 50.2008 53.5196 50.6611C54.0298 50.0303 54.5668 49.4169 55.1306 48.8211C56.2431 47.646 57.4451 46.5591 58.7258 45.57C55.1261 45.3543 52.5241 44.4874 50.6863 43.5031L47.9391 46.2515Z" fill="#1A1B2E"/>
<path d="M101.547 40.7358C101.639 40.6252 101.777 40.4576 101.938 40.2364L102.054 40.0744C102.057 40.0692 102.06 40.0647 102.063 40.061C102.098 40.0103 102.135 39.9574 102.171 39.9023C102.179 39.8889 102.187 39.8774 102.196 39.8677L102.294 39.7124L102.329 39.6588L102.421 39.5079C102.435 39.4856 102.449 39.4633 102.463 39.4409L102.549 39.2901C102.564 39.261 102.579 39.2331 102.596 39.2063L102.678 39.051L102.726 38.9605L102.809 38.7907C102.822 38.7605 102.837 38.736 102.849 38.708C102.89 38.6186 102.929 38.5293 102.967 38.4399C103.332 37.5908 103.524 36.7048 103.524 35.8234C103.512 34.1118 102.913 32.8795 102.202 31.9846C102.059 31.8033 101.906 31.6295 101.744 31.464C101.433 31.1484 101.099 30.8563 100.744 30.5903C100.407 29.506 99.8241 28.5142 99.0406 27.6923C98.7257 27.3596 98.3821 27.0553 98.0139 26.7828C96.3415 25.5338 94.0925 24.8221 91.5274 24.8221C87.8215 24.8221 84.2107 25.5964 80.687 26.5694C80.5336 26.6112 80.3805 26.6547 80.2278 26.7002C80.0401 26.7507 79.8531 26.804 79.667 26.8599C79.2432 26.9806 78.8209 27.1031 78.4 27.2275L77.9465 27.3627C77.4921 27.4982 77.04 27.6345 76.5902 27.7716L76.5309 27.7894L75.8193 28.004C75.7355 28.0297 75.6517 28.052 75.5679 28.081C75.378 28.1369 75.1873 28.1928 74.9959 28.2486C74.9035 28.2784 74.8104 28.3067 74.7166 28.3335L74.1166 28.5101C74.0451 28.5309 73.974 28.5514 73.9032 28.5715C73.6381 28.6505 73.3729 28.7268 73.1078 28.8005C73.0542 28.8169 73.0002 28.8318 72.9458 28.8452C72.7343 28.9063 72.5235 28.9659 72.3134 29.024C72.2285 29.0441 72.1447 29.0698 72.0598 29.091L71.4945 29.243C71.4107 29.2619 71.3281 29.2865 71.2454 29.3077C71.007 29.3681 70.768 29.428 70.5281 29.4876L70.4533 29.5066C70.1912 29.5712 69.9282 29.6323 69.6645 29.6898C69.5921 29.709 69.5191 29.7258 69.4455 29.7401L68.8679 29.8664L68.6121 29.9189C68.4162 29.9591 68.2222 29.9971 68.03 30.0328C67.957 30.0455 67.8852 30.0589 67.8144 30.073C67.5522 30.1207 67.2904 30.1654 67.029 30.2071L66.9083 30.2272C66.6864 30.26 66.4656 30.292 66.2458 30.3233C66.1617 30.3322 66.0779 30.343 65.9945 30.3557C65.8105 30.378 65.6258 30.3996 65.4403 30.4205C65.1419 30.4537 64.8428 30.4805 64.5432 30.5009L64.3991 30.5143C64.1393 30.5319 63.8794 30.546 63.6193 30.5568L63.4059 30.5624C63.2137 30.5654 63.0212 30.568 62.8283 30.5702L62.6998 30.5736C62.6164 30.5721 62.5322 30.5709 62.4473 30.5702L62.2931 30.568C62.0928 30.5657 61.8928 30.5605 61.6932 30.5523C61.6582 30.5508 61.6239 30.5486 61.5904 30.5456L61.0809 30.5155L60.9078 30.5009C60.7357 30.486 60.5629 30.47 60.3894 30.4529C60.3581 30.4492 60.3276 30.4451 60.2978 30.4406C60.0952 30.419 59.8933 30.3937 59.6922 30.3646C59.6408 30.3572 59.5895 30.349 59.5381 30.3401C59.3794 30.317 59.22 30.292 59.0599 30.2652C58.8026 30.218 58.546 30.1673 58.2901 30.1133L58.2309 30.0987C58.0469 30.0585 57.8626 30.0149 57.6779 29.968C57.6198 29.9554 57.5621 29.9408 57.5047 29.9245C57.3386 29.8805 57.1718 29.8347 57.0042 29.787C56.964 29.7736 56.9227 29.7658 56.8813 29.7524C56.6787 29.6921 56.475 29.6284 56.2702 29.5614C56.2225 29.5442 56.1749 29.5275 56.1272 29.5111C55.9656 29.456 55.8036 29.3986 55.6412 29.339C55.5839 29.3174 55.5261 29.2951 55.468 29.272C55.2625 29.1968 55.0569 29.1156 54.8513 29.0284L53.0694 28.2844L53.1632 30.2127L53.1811 30.4853V30.4998L53.209 30.8305L53.2615 31.3299L53.3006 31.6506C53.4582 32.8817 53.7855 34.7128 54.4536 36.4345C53.6235 37.4031 52.3979 38.403 51.3813 39.1661L51.1936 39.3057C50.8282 39.5733 50.4588 39.8351 50.0853 40.0911C50.0436 40.1194 50.0045 40.1455 49.968 40.1693L49.8037 40.2822C49.7829 40.2941 49.7635 40.3064 49.7456 40.319L49.6552 40.3794L49.5803 40.4285C49.5669 40.436 49.5587 40.4401 49.5557 40.4408C49.5542 40.4438 49.5524 40.4453 49.5524 40.4453C49.5524 40.4453 52.6426 43.4763 59.1068 43.8651L59.1381 43.8673C59.3161 43.8763 59.4967 43.8837 59.6799 43.8897L59.7984 43.8953C59.995 43.9027 60.1942 43.9061 60.3961 43.9053L60.481 43.9076C62.5043 43.9053 64.6281 43.693 66.8111 43.3534L67.3575 43.2652C68.844 43.0151 70.3237 42.726 71.7951 42.3982C72.9626 42.1435 74.1334 41.8697 75.3065 41.5871C75.9679 41.427 76.6278 41.2664 77.2862 41.1056L77.561 41.0385L77.9867 40.9346C88.0226 38.2008 91.2425 37.6735 92.9216 37.4534C93.2948 37.4065 93.5942 37.3718 93.8735 37.3316C98.0452 36.7529 98.815 38.4823 98.9446 38.9438C98.9636 39.0141 98.9691 39.0544 98.9691 39.0544C98.9691 39.0544 97.6263 38.5874 93.6188 39.1583L93.6233 39.1549C91.9351 39.3929 89.6337 39.8141 86.5211 40.528C91.0696 41.922 95.2322 44.3532 98.6809 47.6301C100.599 49.4434 102.277 51.4945 103.674 53.7335L107.568 57.0159C108.009 55.4127 108.281 54.2619 108.285 54.2463L108.566 53.0542L113.263 52.4498L101.547 40.7358Z" fill="#1A1B2E"/>
<path d="M66.285 107.475V106.076C66.9687 106.036 67.3106 105.999 67.9932 105.902V106.457C68.3351 106.409 68.506 106.381 68.8467 106.32L68.8523 104.827H68.8479C68.5071 104.89 68.3362 104.917 67.9932 104.967V105.404L67.5385 105.029C66.9947 105.101 66.4477 105.146 65.8995 105.164C65.6537 105.417 65.5308 105.543 65.2862 105.791V107.823C65.5174 108.057 65.6336 108.174 65.8649 108.402C66.6637 108.374 67.0648 108.336 67.8658 108.227V109.66C67.29 109.746 66.7101 109.801 66.1285 109.826V109.265C65.8424 109.279 65.5559 109.286 65.2694 109.285L65.2806 110.78C65.6169 110.78 65.7856 110.775 66.1241 110.757V110.263C66.3174 110.452 66.4157 110.545 66.6123 110.728C67.267 110.678 67.5966 110.64 68.2513 110.538C68.4971 110.256 68.6188 110.111 68.8646 109.82V107.757C68.6334 107.559 68.5172 107.458 68.287 107.256C67.6243 107.367 66.9559 107.44 66.285 107.475Z" fill="white"/>
<path d="M78.6268 106.855L76.8035 107.395L76.8058 103.674C77.5353 103.461 77.8995 103.355 78.628 103.145L78.6268 106.855ZM76.4114 102.845C76.1623 103.169 76.0371 103.331 75.788 103.659L75.7869 108.008C76.0349 108.19 76.16 108.278 76.4103 108.457C77.4538 108.148 77.9755 107.989 79.0212 107.682L79.6435 106.869L79.6446 102.545C79.3955 102.363 79.2715 102.27 79.0223 102.089C77.9777 102.386 77.456 102.541 76.4114 102.845Z" fill="white"/>
<path d="M83.7079 101.794L84.1671 101.692C84.1671 103.162 84.1671 103.907 84.1648 105.373C83.5202 105.518 83.1973 105.597 82.5516 105.761L82.5527 102.067C82.7348 102.021 82.8264 101.999 83.0108 101.957V101.035C82.362 101.188 81.7158 101.351 81.0724 101.525V102.447C81.2578 102.397 81.3495 102.373 81.5349 102.325L81.5338 106.34L82.1572 106.801C83.118 106.549 83.5984 106.43 84.5592 106.221L85.1826 105.466L85.1837 101.486C85.3681 101.446 85.4608 101.431 85.6463 101.398V100.481C84.9967 100.596 84.3504 100.728 83.7079 100.877V101.794Z" fill="white"/>
<path d="M70.4554 104.494V105.437C70.7493 105.369 70.8956 105.333 71.1883 105.262L71.1872 108.991C70.8945 109.065 70.7482 109.099 70.4554 109.169V110.11C71.9693 109.764 72.7267 109.536 74.2406 109.09V107.59L73.4161 107.829V108.41C72.9312 108.548 72.6899 108.618 72.2061 108.75V107.257C72.834 107.085 73.1491 106.996 73.7769 106.813L73.7781 106.103C73.2558 106.257 72.7318 106.405 72.2061 106.546V104.971C72.691 104.839 72.9323 104.77 73.4161 104.633V105.207L74.2417 104.97L74.2428 103.473L74.2249 103.48C72.7178 103.915 71.9648 104.142 70.4554 104.494Z" fill="white"/>
<path d="M90.3096 104.522C89.8373 104.536 89.3656 104.565 88.8952 104.61L88.8963 100.973C89.1879 100.949 89.332 100.937 89.6225 100.92V99.9906C88.7935 100.035 87.967 100.118 87.1456 100.24V101.17C87.4395 101.13 87.5858 101.11 87.8797 101.075V104.706C87.5858 104.742 87.4395 104.762 87.1456 104.806L87.1445 105.745C88.741 105.509 89.5387 105.431 91.1352 105.431V103.952C90.8045 103.952 90.6403 103.956 90.3096 103.966V104.522Z" fill="white"/>
<path d="M78.4705 38.8253C79.3318 38.6063 80.1887 38.3851 81.0434 38.1729L82.6835 37.7584C88.6506 36.2479 93.802 34.9441 97.3995 35.2737C99.7847 35.4949 100.582 37.0333 100.847 38.1114C101.195 37.5517 101.577 36.7372 101.578 35.8356C101.561 33.9833 100.636 32.9264 99.2507 31.9086L99.0373 31.7511L98.9759 31.493C98.8828 31.1137 98.7503 30.7453 98.5804 30.3937C97.4933 28.157 94.7919 26.7716 91.5285 26.7716C86.6597 26.7716 81.8266 28.2296 77.1533 29.6384C70.1059 31.7645 62.8272 33.9609 55.2178 31.2606C55.3418 32.2784 55.5898 33.7632 56.0792 35.2033C56.2229 35.6256 56.3764 36.0151 56.5395 36.3719L56.7361 36.7987L56.43 37.1551C56.0185 37.6256 55.5891 38.0803 55.143 38.5181C55.0156 38.6398 54.8994 38.7538 54.7821 38.8622L54.762 38.8834C54.4425 39.1828 54.1028 39.4901 53.7554 39.7883L53.7051 39.8308C53.5667 39.9527 53.4263 40.0722 53.2839 40.1894L53.2437 40.2218L53.0068 40.4162C59.4107 43.6986 69.0992 41.2229 78.4705 38.8253Z" fill="#E22531"/>
<path d="M63.693 38.8319C63.2118 38.8748 62.7298 38.9075 62.2473 38.9302L62.2495 35.2848C62.8294 35.2546 63.1176 35.2311 63.6986 35.1775L63.693 38.8319ZM64.6907 39.0442L64.6974 34.7675C64.4527 34.5519 64.3298 34.4413 64.0874 34.2234C62.664 34.3742 61.9524 34.4189 60.5312 34.4189V35.3306C60.8184 35.3306 60.9625 35.3283 61.2507 35.3216L61.2496 38.966C61.0102 38.971 60.7707 38.9732 60.5312 38.9727V39.8955C61.949 39.8955 62.6595 39.8575 64.0773 39.7246C64.3231 39.4553 64.4449 39.3201 64.6907 39.0442Z" fill="white"/>
<path d="M67.3183 34.6826C68.0344 34.5564 68.3919 34.4838 69.1081 34.3352L69.0947 38.0521C68.3808 38.1918 68.0221 38.2555 67.3071 38.375L67.3183 34.6826ZM69.4779 38.9236C69.7225 38.6219 69.8443 38.4745 70.0901 38.1695L70.108 33.8123C69.8644 33.6134 69.7415 33.5151 69.4991 33.3151C68.6487 33.5066 67.7934 33.6753 66.934 33.8212L66.3195 34.5463L66.3094 38.8431C66.553 39.0532 66.6759 39.1627 66.9183 39.3716C67.9428 39.2174 68.4534 39.1258 69.4779 38.9236Z" fill="white"/>
<path d="M72.7357 33.4894C73.4518 33.3095 73.8093 33.2146 74.5266 33.0246L74.5042 36.8176C73.7881 36.9997 73.4317 37.0891 72.7167 37.2589L72.7357 33.4894ZM74.8841 37.6913L75.4986 36.8891L75.5265 32.4426C75.2829 32.2526 75.1623 32.1566 74.9187 31.9644C73.8931 32.2404 73.3792 32.3778 72.3536 32.637L71.7391 33.4268L71.7179 37.8142L72.3257 38.3091C73.3502 38.0745 73.8607 37.9471 74.8841 37.6913Z" fill="white"/>
<path d="M84.186 33.2101L84.6966 31.2214L85.1658 32.9844C84.7748 33.0738 84.5782 33.1174 84.186 33.2101ZM85.6831 34.9373C86.2082 34.8167 86.4707 34.7619 86.997 34.6535L87.0193 33.6927L86.5009 33.7966C86.0786 32.3163 85.6507 30.8349 85.2351 29.3501L85.0843 29.3792L84.2307 29.5568L83.366 29.7523L83.3559 30.7198L83.9291 30.588C83.5738 31.9391 83.2211 33.2913 82.8711 34.6446L82.3236 34.782L82.3147 35.7629C82.8376 35.63 83.099 35.5618 83.6241 35.4322L83.6297 35.43V35.4065L83.9537 34.1586C84.529 34.019 84.815 33.9508 85.3915 33.8223C85.5088 34.2636 85.5669 34.4871 85.6831 34.9362V34.9373Z" fill="white"/>
<path d="M93.0546 29.388V28.4842C92.2111 28.4842 91.7899 28.501 90.9464 28.5579L90.9408 29.4808C91.1699 29.4607 91.286 29.4551 91.5151 29.4428L91.5028 31.8146C90.8738 30.5611 90.5632 29.9444 89.9454 28.6384C89.4385 28.6849 88.9326 28.7423 88.4282 28.8104L88.417 29.7522C88.6595 29.7187 88.7824 29.702 89.0248 29.6729C89.0103 31.1555 89.0036 31.8638 88.9868 33.3463C88.7824 33.3777 88.5783 33.4112 88.3746 33.4469L88.3634 34.3943C89.217 34.2479 89.6426 34.182 90.4973 34.0714L90.504 33.1374C90.2794 33.1653 90.1688 33.1788 89.9443 33.2089L89.9633 30.8047C90.5956 32.0615 90.914 32.6682 91.5575 33.953C92.1552 33.8915 92.4535 33.8692 93.0546 33.8334V32.9207L92.4625 32.9531L92.4692 29.4003C92.7038 29.3936 92.8211 29.3914 93.0546 29.388Z" fill="white"/>
<path d="M78.286 33.4502L78.2961 32.0202C78.9787 31.8359 79.3206 31.7442 80.0032 31.5655L79.9976 32.1386C80.3384 32.0492 80.5093 32.0046 80.8512 31.9174L80.869 30.36C80.8676 30.36 80.8664 30.3608 80.8657 30.3622C80.5216 30.4483 80.3518 30.4941 80.0099 30.5835L80.0066 31.046C79.8256 30.9108 79.7351 30.8415 79.5552 30.7041C78.8983 30.8784 78.572 30.9667 77.9151 31.1454L77.2995 31.9632C77.2928 32.7967 77.2895 33.21 77.285 34.0368C77.514 34.2178 77.6291 34.3049 77.8581 34.4825L79.8546 33.9519L79.8434 35.4221C79.1508 35.6031 78.8033 35.6947 78.1118 35.8791L78.1162 35.2992L77.2571 35.5271V37.0801L78.0983 36.8589C78.0995 36.6477 78.0995 36.546 78.1028 36.3349C78.2961 36.4913 78.3922 36.5717 78.5866 36.7326C79.2401 36.5583 79.5675 36.4723 80.2222 36.3014L80.8378 35.4914L80.8556 33.3787L80.2836 32.9207C79.4837 33.1296 79.0837 33.2368 78.286 33.4502Z" fill="white"/>
<path d="M30.5674 70.0013L32.9996 67.5735L33.1605 65.3034L28.4525 70.0013L32.5404 74.0791L32.6789 72.1106L30.5674 70.0013Z" fill="#E22531"/>
<path d="M77.5029 116.846L75.2226 114.569C74.6707 114.726 74.1162 114.875 73.5591 115.018L77.5029 118.957L84.624 111.848C83.6632 112.093 82.6901 112.367 81.7014 112.655L77.5029 116.846Z" fill="#E22531"/>
<path d="M112.709 81.7031L99.9601 94.4304C100.517 94.56 101.067 94.7147 101.61 94.894L115.43 81.0998C114.528 81.3218 113.62 81.5229 112.709 81.7031Z" fill="#E22531"/>
<path d="M43.1674 82.5778C43.0758 82.592 42.9838 82.6047 42.8915 82.6158L41.2838 82.808L51.0785 92.5825C51.2915 92.1058 51.5253 91.6359 51.7801 91.1726L43.1674 82.5778Z" fill="#E22531"/>
<path d="M73.854 26.7996L77.504 23.1552L79.4803 25.1282C80.0293 24.9718 80.5815 24.8195 81.1372 24.6713L77.504 21.0459L70.9169 27.6196C71.8855 27.3694 72.8653 27.0912 73.854 26.7996Z" fill="#E22531"/>
<path d="M95.4421 38.9505C94.8344 39.0023 94.2282 39.0712 93.6244 39.1572C93.5976 39.1594 93.5704 39.1624 93.5428 39.1661L108.355 53.9536L108.567 53.0576L109.459 52.9414L95.4421 38.9505Z" fill="#E22531"/>
<path d="M53.7586 44.7454L50.6852 47.8111C51.0941 48.109 51.4818 48.4263 51.8482 48.7629L55.4579 45.1588C54.8531 45.0396 54.2867 44.9018 53.7586 44.7454Z" fill="#E22531"/>
<path d="M91.8502 50.7258C92.0714 50.356 92.2691 49.9605 92.4557 49.5874C92.6378 49.1974 92.8065 48.8198 92.954 48.4288C92.7473 48.5048 92.5339 48.5618 92.3228 48.6265C92.1116 48.6913 91.896 48.7416 91.6826 48.7975C91.4974 49.1754 91.298 49.5462 91.0849 49.9091C90.8654 50.2788 90.6317 50.64 90.3844 50.9917C90.6313 50.9627 90.8749 50.918 91.1206 50.8744C91.3653 50.8375 91.6066 50.7772 91.8502 50.7258Z" fill="#E22531"/>
<path d="M92.468 50.5739C92.8401 50.8152 93.2177 51.0253 93.6154 51.2398C94.0109 51.4509 94.4187 51.642 94.841 51.8319L94.0612 52.1056L93.2702 52.3469C92.4602 51.9 91.7095 51.4263 91.0134 50.8923L91.3799 50.8275L91.7441 50.7493C91.9876 50.7001 92.229 50.6387 92.468 50.5739Z" fill="#E22531"/>
<path d="M95.5259 49.5361C95.708 49.1439 95.8644 48.7306 96.013 48.3418C96.1549 47.9329 96.2833 47.5407 96.3906 47.1385C96.1917 47.2324 95.985 47.3128 95.7817 47.4C95.5773 47.4849 95.3672 47.5553 95.1617 47.6346C95.0162 48.0289 94.8559 48.4176 94.6812 48.7998C94.5009 49.1904 94.3056 49.5739 94.0958 49.9495C94.3371 49.8914 94.5766 49.8269 94.8142 49.7562C95.0544 49.6959 95.2901 49.6098 95.5259 49.5361Z" fill="#E22531"/>
<path d="M96.1258 49.3227C96.5191 49.5238 96.9168 49.6948 97.3347 49.8668C97.7554 50.0366 98.1821 50.1912 98.6139 50.3305C98.3651 50.4489 98.1156 50.5662 97.8653 50.6824L97.1034 51.0042C96.2767 50.6591 95.4771 50.2524 94.7114 49.7875L95.0689 49.6858L95.4231 49.5708C95.6599 49.4959 95.8934 49.4099 96.1258 49.3227Z" fill="#E22531"/>
<path d="M87.9746 51.175C88.547 50.5404 89.0748 49.867 89.5543 49.1596C89.3319 49.1857 89.1087 49.205 88.8851 49.2177L88.55 49.2389L88.2114 49.2478C87.6775 49.917 87.1013 50.5514 86.4865 51.1471C86.7345 51.1594 86.9814 51.1639 87.2305 51.1728L87.9746 51.175Z" fill="#E22531"/>
<path d="M88.6114 51.1572C89.2491 51.7827 89.93 52.3625 90.6492 52.8922L90.2403 52.9481L89.8326 52.9894L89.4248 53.0274L89.0181 53.052C88.3299 52.4565 87.7009 51.8231 87.1222 51.1717C87.3713 51.1807 87.6182 51.1751 87.8674 51.1773C88.1154 51.1728 88.3634 51.1661 88.6114 51.1572Z" fill="#E22531"/>
<path d="M84.0788 50.9192C84.7444 50.3756 85.3834 49.8003 85.9937 49.1953C85.5327 49.1618 85.0705 49.1153 84.6073 49.0557C83.9609 49.626 83.2934 50.1719 82.6063 50.6924C83.0956 50.7776 83.5865 50.8532 84.0788 50.9192Z" fill="#E22531"/>
<path d="M84.7112 50.9984C85.2274 51.7033 85.7826 52.3893 86.3893 53.063C85.8545 53.0347 85.3249 52.9926 84.8006 52.9367C84.2499 52.2452 83.7277 51.5315 83.2354 50.7973C83.7258 50.8721 84.2174 50.9425 84.7112 50.9984Z" fill="#E22531"/>
<path d="M80.2334 50.2297C80.9473 49.7303 81.6501 49.2198 82.3316 48.6958C81.8608 48.6072 81.3883 48.5137 80.9138 48.4154C80.2122 48.9166 79.5005 49.4145 78.7788 49.9091C79.2629 50.0186 79.7478 50.1255 80.2334 50.2297Z" fill="#E22531"/>
<path d="M80.8567 50.3594C81.3092 51.1057 81.7796 51.8442 82.2801 52.5815C81.7735 52.4937 81.2681 52.3991 80.764 52.2978C80.2925 51.5492 79.8423 50.8018 79.401 50.0488C79.8848 50.1527 80.3707 50.26 80.8567 50.3594Z" fill="#E22531"/>
<path d="M76.4203 49.374L78.5822 47.8971L77.1253 47.5675C76.3991 48.0591 75.6752 48.5562 74.9646 49.0601C75.4487 49.1621 75.934 49.2668 76.4203 49.374Z" fill="#E22531"/>
<path d="M77.0415 49.5125L78.3565 51.7771L76.9019 51.4475C76.4661 50.6956 76.0327 49.9415 75.588 49.193L77.0415 49.5125Z" fill="#E22531"/>
<path d="M72.5872 48.6165C73.2742 48.0802 73.9881 47.5618 74.711 47.0524C74.2097 46.9533 73.7036 46.8602 73.1927 46.773C72.4815 47.2945 71.7878 47.8393 71.1124 48.4064C71.6055 48.4667 72.0971 48.5368 72.5872 48.6165Z" fill="#E22531"/>
<path d="M73.215 48.7216C73.6887 49.4556 74.1367 50.1929 74.5747 50.937C74.1002 50.8394 73.628 50.7471 73.158 50.6599C72.7082 49.9225 72.2365 49.1986 71.7437 48.4892L72.4799 48.6009L73.215 48.7216Z" fill="#E22531"/>
<path d="M68.7014 48.22C69.3159 47.5954 69.9773 47.0067 70.6688 46.4291L69.8767 46.3598L69.079 46.3129C68.5852 46.7659 68.1093 47.2381 67.6523 47.7284C67.5015 47.8904 67.3552 48.0569 67.2122 48.2177C67.4613 48.211 67.7082 48.2032 67.9573 48.2066L68.3294 48.2088L68.7014 48.22Z" fill="#E22531"/>
<path d="M69.3393 48.2479C69.8946 48.916 70.4052 49.6132 70.8833 50.3103L70.1896 50.2354C69.9583 50.2176 69.727 50.193 69.498 50.1796C68.9852 49.4923 68.435 48.8336 67.8501 48.2066C68.3469 48.2043 68.8433 48.2181 69.3393 48.2479Z" fill="#E22531"/>
<path d="M64.8057 48.4411C65.0507 48.0806 65.3106 47.7238 65.5855 47.3708C65.8603 47.0256 66.1497 46.6692 66.4547 46.3351C66.183 46.3508 65.9118 46.3735 65.6413 46.4033C65.3687 46.4234 65.0995 46.4647 64.828 46.5005C64.5487 46.8569 64.2862 47.2367 64.037 47.5998C63.7912 47.9808 63.5588 48.3472 63.3455 48.7327C63.8288 48.6165 64.3156 48.5193 64.8057 48.4411Z" fill="#E22531"/>
<path d="M65.4369 48.354C65.7687 48.6299 66.0894 48.9304 66.3955 49.2187C66.7027 49.5248 66.9943 49.8186 67.2747 50.1337C66.8258 50.1491 66.3775 50.1804 65.9307 50.2275C65.6302 49.9359 65.3174 49.6578 64.99 49.3818C64.6638 49.1193 64.3208 48.8411 63.9678 48.593C64.4526 48.4914 64.9442 48.4165 65.4369 48.354Z" fill="#E22531"/>
<path d="M61.0396 49.4544C61.3602 48.6388 61.7535 47.8422 62.2138 47.0445C61.9501 47.1227 61.6864 47.1965 61.425 47.2825C61.1647 47.3719 60.9044 47.4557 60.6474 47.5506C60.2643 48.359 59.9387 49.1934 59.6732 50.0476C59.8967 49.9374 60.1223 49.8342 60.3503 49.7381L60.6921 49.5895L61.0396 49.4544Z" fill="#E22531"/>
<path d="M61.6384 49.2345C61.8321 49.3387 62.0212 49.4426 62.2059 49.5462C62.3929 49.6571 62.5765 49.7696 62.7567 49.8836C63.1154 50.1048 63.4639 50.3506 63.7957 50.5952C63.3643 50.7004 62.9372 50.8226 62.5154 50.9617C61.9774 50.6237 61.4192 50.3189 60.8441 50.0489C60.6504 49.9565 60.4534 49.8672 60.2531 49.7808C60.4798 49.6813 60.7078 49.5819 60.9401 49.4936C61.1714 49.4043 61.4027 49.3115 61.6384 49.2345Z" fill="#E22531"/>
<path d="M57.5617 51.2231C57.7196 50.3628 57.9382 49.4988 58.2175 48.6311C57.5427 49.1707 56.6779 50.1271 56.6779 50.1271C56.5718 50.5717 56.6064 50.317 56.5238 50.7516C56.4503 51.1856 56.3851 51.6211 56.3282 52.0576L56.9394 51.6308C57.1427 51.4867 57.355 51.3582 57.5617 51.2231Z" fill="#E22531"/>
<path d="M58.1046 50.8901C58.3146 50.9504 58.5209 51.0141 58.7235 51.0812C58.9302 51.1482 59.1335 51.223 59.3346 51.2934C59.5343 51.3694 59.7313 51.4454 59.9257 51.5213C60.1223 51.6055 60.3152 51.69 60.5044 51.775C60.0989 51.9692 59.7009 52.1786 59.3112 52.4028C58.5269 52.1213 57.7013 51.8822 56.8511 51.6923C57.0522 51.547 57.2644 51.4163 57.4711 51.2811L57.784 51.0789L58.1046 50.8901Z" fill="#E22531"/>
<path d="M68.0926 93.2685C67.5725 94.0093 67.0002 94.7119 66.3799 95.3711L66.7966 95.351L67.2111 95.3186L67.6256 95.2806L68.0356 95.2326C68.6121 94.512 69.1215 93.7645 69.5796 93.0104C69.3338 93.0629 69.0858 93.1043 68.8378 93.1523C68.5909 93.1959 68.3417 93.2294 68.0926 93.2685Z" fill="#E22531"/>
<path d="M72.5681 92.2026C71.7961 91.7747 71.0487 91.3156 70.3448 90.834C70.7962 90.7149 71.2479 90.5838 71.7 90.4408C72.4363 90.8877 73.2038 91.3033 73.9926 91.7077C73.5206 91.8807 73.0457 92.0457 72.5681 92.2026Z" fill="#E22531"/>
<path d="M71.9526 92.397C71.5605 93.2062 71.128 93.9952 70.6566 94.761C71.1839 94.6347 71.7057 94.4996 72.2185 94.3443C72.652 93.5466 73.0318 92.7332 73.386 91.9255C72.9114 92.0924 72.4336 92.2496 71.9526 92.397Z" fill="#E22531"/>
<path d="M76.274 90.8083C75.4707 90.4408 74.6752 90.0609 73.9021 89.6654C74.3549 89.4897 74.8089 89.309 75.264 89.1236C76.0557 89.4975 76.856 89.8647 77.6649 90.2252C77.2024 90.4203 76.7387 90.6147 76.274 90.8083Z" fill="#E22531"/>
<path d="M75.6762 91.0518C75.3602 91.8861 75.0235 92.7123 74.6663 93.5298C75.1578 93.3481 75.6438 93.1611 76.1242 92.9689C76.4572 92.1355 76.7689 91.3076 77.0705 90.4731C76.6072 90.6705 76.1425 90.8634 75.6762 91.0518Z" fill="#E22531"/>
<path d="M79.9161 89.2576L77.4917 88.1828L78.8838 87.5862C79.696 87.9437 80.5082 88.3035 81.3104 88.6766C80.8448 88.8688 80.3801 89.0624 79.9161 89.2576Z" fill="#E22531"/>
<path d="M79.324 89.5113L78.4269 92.0105L79.8167 91.4139C80.1128 90.5838 80.4066 89.7548 80.7138 88.9259L79.324 89.5113Z" fill="#E22531"/>
<path d="M83.5985 87.8008C82.8142 87.3919 82.0098 87.0053 81.1942 86.6288C81.6761 86.4381 82.1636 86.2531 82.6567 86.0736C83.4655 86.4668 84.2654 86.8858 85.0296 87.3193C84.5498 87.4715 84.0727 87.632 83.5985 87.8008Z" fill="#E22531"/>
<path d="M82.9917 88.0209C82.658 88.8334 82.3414 89.6529 82.0421 90.4788C82.4968 90.2944 82.9504 90.1134 83.4029 89.9447C83.7157 89.1303 84.0475 88.3259 84.4151 87.5204L83.7012 87.765L82.9917 88.0209Z" fill="#E22531"/>
<path d="M87.3982 86.6936C86.6709 86.1853 85.9056 85.7172 85.1101 85.2692L85.8855 85.0546L86.6731 84.8602C87.063 85.1116 87.4395 85.3529 87.8093 85.6177C87.9948 85.7473 88.1761 85.878 88.3534 86.0099C88.5329 86.1454 88.7094 86.2817 88.883 86.4188C88.6338 86.4568 88.3836 86.4936 88.1378 86.5428L87.7669 86.6132L87.3982 86.6936Z" fill="#E22531"/>
<path d="M86.7691 86.8389C86.3469 87.6005 85.9592 88.3808 85.6072 89.1772L86.2853 88.975C86.5118 88.911 86.7385 88.8499 86.9657 88.7918C87.3456 88.0276 87.7668 87.2668 88.2449 86.525C87.7496 86.613 87.2574 86.7177 86.7691 86.8389Z" fill="#E22531"/>
<path d="M91.3217 86.2009C91.0119 85.8873 90.6875 85.5794 90.3486 85.277C90.0101 84.9831 89.6571 84.6837 89.2917 84.4067C89.5666 84.3675 89.8414 84.3463 90.1163 84.3217C90.39 84.2949 90.6682 84.2849 90.9441 84.2704C91.6194 84.875 92.2497 85.5281 92.83 86.2244C92.3283 86.1942 91.8245 86.1897 91.3217 86.2009Z" fill="#E22531"/>
<path d="M90.675 86.2289C90.3988 86.5673 90.1331 86.9142 89.8784 87.269C89.6305 87.6189 89.3939 87.9766 89.1689 88.3416C89.6225 88.2712 90.075 88.2231 90.5264 88.1874C91.0277 87.4833 91.5823 86.8189 92.1854 86.1998C91.6812 86.1887 91.1777 86.1984 90.675 86.2289Z" fill="#E22531"/>
<path d="M95.26 86.5204C94.7775 85.7526 94.239 85.0215 93.6489 84.3329C93.9249 84.3642 94.2019 84.3888 94.4779 84.4257C94.7527 84.467 95.0287 84.5039 95.3024 84.5497C95.8443 85.3094 96.3213 86.0747 96.7291 86.8623C96.4871 86.793 96.2431 86.7312 95.9973 86.6768L95.6309 86.5919L95.26 86.5204Z" fill="#E22531"/>
<path d="M94.6242 86.4109C94.4522 86.5467 94.2823 86.6852 94.1148 86.8266C93.9487 86.971 93.7867 87.1159 93.6288 87.2611C93.3154 87.5489 93.0139 87.8493 92.725 88.1616C93.1734 88.1862 93.6202 88.2301 94.0656 88.2935C94.5394 87.8567 95.0398 87.4496 95.5638 87.0746C95.7411 86.948 95.9217 86.8239 96.1057 86.7025C95.8599 86.6422 95.6163 86.583 95.3672 86.5417C95.1203 86.4936 94.8734 86.4422 94.6242 86.4109Z" fill="#E22531"/>
<path d="M99.0495 87.6455C98.7265 86.8016 98.35 85.9792 97.9222 85.1832C98.1837 85.2692 98.4473 85.3497 98.7065 85.4379L99.4796 85.7228C99.6651 86.1474 99.8383 86.5685 99.9991 86.9864C100.155 87.4132 100.299 87.8351 100.432 88.2522L99.7467 87.9405C99.5176 87.8332 99.2819 87.745 99.0495 87.6455Z" fill="#E22531"/>
<path d="M98.4485 87.412C98.2511 87.514 98.0571 87.6153 97.8664 87.7159C97.6731 87.8231 97.4832 87.9348 97.2977 88.0421C97.1123 88.1523 96.9298 88.2644 96.7503 88.3784C96.5693 88.4979 96.3928 88.6141 96.2185 88.737C96.6576 88.8509 97.0911 88.9928 97.5223 89.1448C98.253 88.7158 99.0328 88.327 99.845 87.984C99.6171 87.8745 99.3836 87.784 99.1512 87.6868L98.8015 87.5427L98.4485 87.412Z" fill="#E22531"/>
<path d="M68.6724 91.7379C68.3834 91.9636 68.1034 92.1952 67.8323 92.4328C68.1216 92.6875 68.4199 92.9255 68.7316 93.1702L69.4724 93.0339C69.7204 92.9769 69.965 92.9277 70.2097 92.8708C69.6735 92.5077 69.1584 92.1334 68.6724 91.7379Z" fill="#E22531"/>
</g>
<defs>
<clipPath id="clip0_243_1337">
<rect width="112" height="112" fill="white" transform="translate(21.5 14)"/>
</clipPath>
</defs>
</svg>
