<svg width="155" height="136" viewBox="0 0 155 136" fill="none" xmlns="http://www.w3.org/2000/svg">
<g clip-path="url(#clip0_243_1535)">
<path d="M125.053 76.4162L136.5 57.3289H117.661C119.252 51.8058 121.494 46.6015 124.508 42.0741C107.784 41.5424 89.9639 37.5193 77.5003 24.9775C65.0361 37.5193 47.2166 41.5424 30.4919 42.0741C33.5061 46.6015 35.7477 51.8058 37.3396 57.3289H18.5L29.948 76.4162L22.253 91.4648H39.9016C39.4838 95.2646 38.851 98.8732 38.0381 102.164C38.0381 102.164 60.8984 106.414 77.5003 121.5C94.1016 106.414 116.963 102.164 116.963 102.164C116.15 98.8725 115.516 95.264 115.098 91.4648H132.747L125.053 76.4162Z" fill="#E2E3E4"/>
<path d="M120.554 76.4162L128.076 61.8512H109.957C110.972 56.2383 112.57 51.0171 114.884 46.8007C103.186 46.6758 85.2974 41.5561 77.5003 33.0674C69.7033 41.5561 51.8149 46.6758 40.1167 46.8007C42.4305 51.0171 44.0282 56.2383 45.0431 61.8512H26.9241L34.4463 76.4162L27.8805 88.6808H46.0119C45.6461 92.6186 45.073 96.2565 44.342 99.3476C44.342 99.3476 60.749 103.059 77.5003 117.754C94.2517 103.059 110.659 99.3476 110.659 99.3476C109.927 96.2565 109.354 92.6186 108.989 88.6808H127.119L120.554 76.4162Z" fill="black"/>
<path d="M77.5003 100.122C71.1431 100.126 65.6637 103.877 63.1381 109.287L77.5003 118.931L91.8625 109.287C89.3362 103.877 83.8569 100.126 77.5003 100.122Z" fill="#E2E3E4"/>
<path d="M53.0793 84.7642L45.971 76.5924L52.0741 69.8393H47.6539L42.8151 75.1028V65.1824H37.0388C38.1304 66.1052 39.0576 67.3286 39.0576 68.9777V84.7642H42.8151V78.4471L48.3952 84.7642H53.0793ZM101.764 69.8393V84.7642H98.0072V73.6353C98.0072 71.9869 97.0794 70.7641 95.9872 69.8393H101.764ZM117.541 81.6184L119.339 84.7642H104.563L112.157 72.9845H105.066V69.8393H119.017L110.781 81.6184H117.541ZM60.185 80.4587V72.9845H62.8237L64.6229 69.8393H60.185V65.1824L56.4288 67.3358V69.84H53.6608V72.9852H56.4288V80.6643C56.4287 81.2028 56.5345 81.736 56.7402 82.2335C56.9459 82.731 57.2474 83.183 57.6275 83.5638C58.0076 83.9446 58.4589 84.2467 58.9556 84.4527C59.4523 84.6588 59.9846 84.7649 60.5223 84.7649H63.5014V81.619H61.3429C61.0357 81.6189 60.7412 81.4965 60.5241 81.2789C60.307 81.0614 60.185 80.7663 60.185 80.4587ZM90.2648 69.8393L86.5371 77.7007L82.2052 69.4476L77.8707 77.702L74.1444 69.8393H68.2985C69.626 70.5864 71.1347 71.845 72.0424 73.6906C72.9501 75.5362 77.6888 85.1222 77.6888 85.1222L82.2046 76.4825L86.7197 85.1222L94.3017 69.8393H90.2648Z" fill="white"/>
<path d="M103.721 53.2217C99.3652 51.041 97.4965 48.9644 97.4965 48.9644C92.242 17.746 54.8167 10.1143 38.1005 16.665C48.7285 19.4002 58.2085 23.3303 64.6443 30.3873C55.7394 28.131 43.5 27.6254 36.3325 29.8445C45.3004 31.0146 58.7893 37.1085 66.9847 48.6943C73.3367 57.675 76.8642 61.5068 83.8796 65.4101C88.3415 63.6914 92.1607 59.4529 93.4096 56.3611C97.0618 56.5225 101.539 54.9749 103.721 53.2217Z" fill="#E2E3E4"/>
<path d="M101.363 53.3103C84.0752 49.8078 82.9758 31.5913 54.5945 31.5913C70.4901 40.3364 70.6649 55.4748 84.1038 63.1969C84.1038 63.1969 85.6268 61.5967 87.0894 58.0916L89.5962 58.6864C90.0588 55.5802 89.4877 52.4578 89.4877 52.4578C91.2238 53.1567 96.4069 54.9106 101.363 53.3103Z" fill="#ED1B23"/>
<path d="M69.5629 31.7359C80.3605 35.1049 88.6507 40.7803 93.6513 45.7301C89.5857 25.3713 64.307 12.6987 42.7904 16.5571C42.7904 16.5571 59.5528 18.9494 69.5629 31.7359Z" fill="black"/>
<path d="M81.0305 52.8782C80.6906 50.2439 78.8265 47.2457 76.1722 45.0656C79.0338 46.0743 81.5106 45.5889 82.6289 43.7966C82.9687 46.4316 84.8328 49.4291 87.4871 51.6092C84.6262 50.5998 82.1487 51.0873 81.0305 52.8782Z" fill="white"/>
<path d="M94.3264 89.1012C93.5298 89.1012 92.8787 89.4064 92.4609 89.9349L92.2563 89.2379H90.2635C90.6793 89.5893 91.0315 90.0546 91.0315 90.6833V94.9179H92.4609V91.5039C92.6247 90.9741 93.2868 90.3344 93.9495 90.3344C94.7058 90.3344 95.0769 91.0197 95.0769 91.8371V94.9179H96.5057V91.6737C96.5057 89.8743 95.3647 89.1012 94.3264 89.1012ZM69.6078 92.3017C69.6078 93.2408 69.2108 93.8447 68.3758 93.8447C67.5409 93.8447 67.1432 93.2408 67.1432 92.3017V89.2268H64.9445C65.3597 89.5802 65.7131 90.0455 65.7131 90.6735V92.5471H65.7216C65.7216 94.5215 67.4083 95.0539 68.3758 95.0539C69.342 95.0539 71.0301 94.5222 71.0301 92.5471V89.2268H69.6078V92.3017ZM80.4522 89.2379L79.0344 92.2731L77.3853 89.0439L75.7363 92.2744L74.3178 89.2379H72.0931C72.5986 89.5229 73.1723 90.0012 73.518 90.7041C73.863 91.4056 75.6667 95.1411 75.6667 95.1411L77.3847 91.7212L79.1033 95.1411L81.9888 89.2379H80.4522ZM86.0375 89.0732C84.287 89.0732 82.8985 90.3175 82.8985 92.0772C82.8985 93.8363 84.287 95.0812 86.0375 95.0812C87.7886 95.0812 89.1758 93.8363 89.1758 92.0772C89.1758 90.3175 87.7886 89.0732 86.0375 89.0732ZM86.0375 93.9274C85.1369 93.9274 84.4066 93.1516 84.4066 92.0772C84.4066 91.0054 85.1369 90.2271 86.0375 90.2271C86.938 90.2271 87.6684 91.0047 87.6684 92.0772C87.6684 93.151 86.938 93.9274 86.0375 93.9274ZM60.9153 93.9287C60.0349 93.9287 59.2637 93.3111 59.2143 92.8764L58.4937 94.3634C58.9739 94.7805 59.8595 95.0571 60.9628 95.0571C62.6794 95.0571 63.6989 94.3068 63.6989 93.274C63.6833 92.4286 63.1888 91.9015 61.7756 91.526C60.7802 91.267 60.2058 91.1655 60.2058 90.8023C60.2058 90.3989 60.7035 90.1867 61.3416 90.1867C61.8783 90.1867 62.387 90.3143 62.8471 90.6201L63.4052 89.6205C63.0673 89.34 62.0362 89.0967 61.3572 89.0967C59.6971 89.0967 58.6795 89.9238 58.6795 90.9325C58.664 91.6015 59.1422 92.1703 60.6671 92.5588C61.6314 92.8048 62.1674 92.9219 62.1674 93.3091C62.1681 93.7308 61.6515 93.9287 60.9153 93.9287Z" fill="#E2E3E4"/>
<path d="M85.3864 109.334C85.131 109.105 85.0238 108.512 85.1622 108.045L85.1642 108.041L85.1629 108.041L85.1622 108.043C84.955 108.303 84.5878 108.462 84.3409 108.456C84.1382 108.451 82.8329 108.433 82.8329 108.433C82.7287 108.431 82.6281 108.471 82.5533 108.544C82.4785 108.616 82.4355 108.716 82.4339 108.82C82.4323 108.925 82.4721 109.025 82.5446 109.1C82.6171 109.175 82.7163 109.218 82.8205 109.22C82.8205 109.22 83.9758 109.241 84.1584 109.239C84.3754 109.239 84.6606 109.116 84.8029 108.941L84.8828 108.74C84.8289 108.88 84.7776 109.021 84.7262 109.162C84.6496 109.529 84.7379 109.733 85.0193 109.972C85.3169 110.232 85.7684 110.623 85.7684 110.623C85.8409 110.685 85.9359 110.717 86.0313 110.71C86.1267 110.702 86.2154 110.658 86.2779 110.585C86.3403 110.513 86.3714 110.418 86.3644 110.323C86.3573 110.227 86.3126 110.138 86.2402 110.076C86.2402 110.076 85.5254 109.458 85.3864 109.334ZM86.2999 107.2C86.0725 106.943 86.0322 106.343 86.2226 105.894L86.2252 105.889L86.2233 105.89L86.2226 105.891C85.9874 106.127 85.6047 106.242 85.3604 106.207C85.1603 106.181 83.864 106.015 83.864 106.015C83.8129 106.008 83.7609 106.012 83.7111 106.025C83.6614 106.039 83.6147 106.062 83.5739 106.094C83.5331 106.125 83.4989 106.164 83.4733 106.209C83.4476 106.254 83.431 106.304 83.4245 106.355C83.4179 106.406 83.4215 106.458 83.435 106.508C83.4485 106.558 83.4716 106.604 83.5032 106.645C83.5347 106.686 83.5739 106.72 83.6187 106.746C83.6634 106.772 83.7128 106.788 83.764 106.795C83.764 106.795 84.9088 106.947 85.0908 106.967C85.3058 106.991 85.6041 106.9 85.7639 106.744L85.8666 106.552C85.799 106.682 85.734 106.813 85.669 106.943C85.543 107.289 85.6125 107.521 85.8633 107.792L86.5345 108.523C86.5993 108.594 86.69 108.636 86.7856 108.64C86.8811 108.643 86.9743 108.609 87.0446 108.544C87.1149 108.479 87.1566 108.389 87.1605 108.293C87.1644 108.198 87.1302 108.105 87.0654 108.034C87.0654 108.035 86.424 107.339 86.2999 107.2ZM83.5151 115.016C83.4066 115.331 83.1122 115.603 82.8783 115.681C82.686 115.743 81.4482 116.162 81.4482 116.162C81.3529 116.198 81.2752 116.269 81.2315 116.361C81.1878 116.454 81.1816 116.559 81.2141 116.656C81.2466 116.753 81.3154 116.833 81.4058 116.88C81.4963 116.927 81.6014 116.937 81.699 116.907C81.699 116.907 82.7958 116.542 82.9674 116.481C83.1714 116.408 83.4527 116.182 83.4748 115.985L83.5157 115.02V115.016L83.5151 115.016ZM88.1141 106.099C88.1141 106.099 87.5559 105.336 87.4481 105.184C87.2505 104.903 87.2791 104.302 87.5189 103.877L87.5215 103.872L87.5202 103.873L87.5195 103.874C87.2596 104.082 86.8659 104.153 86.6261 104.092C86.4299 104.042 85.1616 103.73 85.1616 103.73C85.0606 103.706 84.9539 103.722 84.8648 103.776C84.7758 103.83 84.7118 103.917 84.6869 104.018C84.662 104.119 84.6783 104.226 84.7321 104.315C84.7859 104.404 84.8728 104.468 84.9738 104.493C84.9738 104.493 86.0953 104.774 86.2727 104.814C86.4845 104.862 86.7905 104.805 86.9672 104.668L87.09 104.492C87.0095 104.612 86.9309 104.732 86.8529 104.852C86.6956 105.165 86.7301 105.424 86.9478 105.722L87.5319 106.524C87.559 106.564 87.594 106.599 87.6346 106.625C87.6753 106.651 87.7209 106.669 87.7686 106.678C87.8163 106.686 87.8652 106.685 87.9124 106.674C87.9596 106.663 88.004 106.642 88.0432 106.614C88.0823 106.585 88.1153 106.549 88.1401 106.507C88.165 106.466 88.1812 106.419 88.1878 106.371C88.1944 106.323 88.1913 106.274 88.1786 106.227C88.166 106.181 88.144 106.137 88.1141 106.099ZM85.3071 114.374C85.3071 114.374 84.4702 113.932 84.3078 113.842C84.0076 113.677 83.7698 113.124 83.8003 112.637L83.801 112.632L83.8003 112.632V112.633L83.7997 112.634C83.6567 112.935 83.3332 113.172 83.0921 113.221C82.8939 113.262 81.6178 113.538 81.6178 113.538C81.5654 113.546 81.5154 113.566 81.4706 113.594C81.4259 113.623 81.3875 113.661 81.3576 113.705C81.3277 113.749 81.3071 113.798 81.2969 113.85C81.2867 113.903 81.2872 113.956 81.2983 114.008C81.3094 114.06 81.331 114.11 81.3616 114.153C81.3922 114.197 81.4313 114.233 81.4766 114.261C81.5218 114.289 81.5722 114.308 81.6247 114.315C81.6772 114.323 81.7308 114.32 81.7822 114.307V114.308C81.7822 114.308 82.9128 114.068 83.0902 114.026C83.3013 113.977 83.5521 113.792 83.6502 113.591L83.684 113.374C83.6632 113.52 83.6457 113.666 83.6275 113.811C83.6399 114.173 83.7666 114.374 84.0927 114.547L84.9692 115.012C85.0112 115.036 85.0575 115.051 85.1055 115.057C85.1535 115.063 85.2022 115.059 85.2486 115.045C85.2951 115.032 85.3384 115.009 85.3759 114.979C85.4134 114.948 85.4444 114.91 85.4671 114.868C85.4897 114.825 85.5036 114.778 85.5078 114.73C85.512 114.681 85.5065 114.633 85.4915 114.587C85.4766 114.541 85.4526 114.498 85.4209 114.462C85.3892 114.425 85.3505 114.395 85.3071 114.374ZM84.7197 111.558C84.4397 111.359 84.2675 110.783 84.352 110.302L84.3533 110.296L84.352 110.298L84.3513 110.299C84.1746 110.583 83.827 110.78 83.5814 110.802C83.3799 110.821 82.0804 110.952 82.0804 110.952C81.9803 110.966 81.8895 111.018 81.8271 111.098C81.7647 111.178 81.7354 111.279 81.7454 111.379C81.7553 111.48 81.8038 111.573 81.8806 111.639C81.9575 111.705 82.0568 111.739 82.1578 111.733C82.1578 111.733 83.3078 111.624 83.4891 111.603C83.7042 111.578 83.9745 111.422 84.0953 111.234L84.1525 111.024C84.1155 111.168 84.081 111.313 84.0459 111.457C84.0063 111.799 84.122 112.026 84.4267 112.234L85.2454 112.795C85.3243 112.849 85.4215 112.869 85.5155 112.851C85.562 112.843 85.6064 112.825 85.6461 112.799C85.6857 112.773 85.7199 112.74 85.7467 112.7C85.7734 112.661 85.7922 112.617 85.802 112.571C85.8117 112.524 85.8123 112.477 85.8036 112.43C85.7948 112.383 85.777 112.339 85.7512 112.299C85.7253 112.259 85.6919 112.225 85.6528 112.198C85.6528 112.198 84.8711 111.665 84.7197 111.558ZM69.6129 109.334C69.8683 109.105 69.9755 108.512 69.8371 108.045L69.8352 108.041L69.8365 108.041L69.8371 108.043C70.0444 108.303 70.4115 108.462 70.6584 108.456C70.8611 108.451 72.1665 108.433 72.1665 108.433C72.2707 108.431 72.3712 108.471 72.446 108.544C72.5208 108.616 72.5638 108.716 72.5654 108.82C72.5671 108.925 72.5273 109.025 72.4548 109.1C72.3823 109.175 72.283 109.218 72.1788 109.22C72.1788 109.22 71.0236 109.241 70.841 109.239C70.624 109.239 70.3387 109.116 70.1964 108.941L70.1165 108.74C70.1698 108.88 70.2218 109.021 70.2724 109.162C70.3504 109.529 70.2614 109.733 69.9801 109.972C69.6825 110.232 69.2309 110.623 69.2309 110.623H69.2302C69.1578 110.685 69.0635 110.717 68.9681 110.71C68.8726 110.702 68.784 110.658 68.7215 110.585C68.659 110.513 68.6279 110.418 68.635 110.323C68.642 110.227 68.6867 110.138 68.7592 110.076C68.7592 110.076 69.4739 109.458 69.6129 109.334ZM68.6994 107.2C68.9275 106.943 68.9671 106.343 68.7767 105.894L68.7741 105.889L68.7761 105.89V105.891C69.0119 106.127 69.3946 106.242 69.6396 106.207C69.8397 106.181 71.1353 106.015 71.1353 106.015C71.1876 106.006 71.2412 106.007 71.2928 106.02C71.3445 106.032 71.3931 106.054 71.4358 106.086C71.4785 106.117 71.5144 106.157 71.5413 106.203C71.5681 106.249 71.5855 106.3 71.5923 106.353C71.599 106.405 71.595 106.459 71.5806 106.51C71.5661 106.561 71.5415 106.609 71.5081 106.65C71.4748 106.691 71.4334 106.726 71.3866 106.75C71.3397 106.775 71.2883 106.791 71.2354 106.795C71.2354 106.795 70.0905 106.947 69.9079 106.967C69.6935 106.991 69.3953 106.9 69.2354 106.744L69.1328 106.552C69.2004 106.682 69.2653 106.813 69.331 106.943C69.4564 107.289 69.3862 107.521 69.136 107.792L68.4648 108.523C68.4327 108.558 68.3941 108.587 68.3511 108.607C68.3082 108.627 68.2617 108.638 68.2143 108.64C68.167 108.642 68.1197 108.634 68.0753 108.618C68.0308 108.602 67.99 108.577 67.9551 108.545C67.9202 108.512 67.892 108.474 67.8721 108.431C67.8522 108.388 67.8409 108.341 67.839 108.294C67.837 108.246 67.8444 108.199 67.8607 108.154C67.877 108.11 67.9019 108.069 67.934 108.034C67.934 108.035 68.5759 107.339 68.6994 107.2ZM71.4842 115.016C71.5927 115.331 71.8871 115.603 72.121 115.681C72.3133 115.743 73.5511 116.162 73.5511 116.162C73.6465 116.198 73.7242 116.269 73.7678 116.361C73.8115 116.454 73.8177 116.559 73.7852 116.656C73.7527 116.753 73.684 116.833 73.5935 116.88C73.5031 116.927 73.3979 116.937 73.3003 116.907C73.3003 116.907 72.2035 116.542 72.032 116.481C71.828 116.408 71.5466 116.182 71.5245 115.985L71.4836 115.02V115.016L71.4842 115.016ZM66.8853 106.099C66.8853 106.099 67.4434 105.336 67.5506 105.184C67.7481 104.903 67.7202 104.302 67.4805 103.877L67.4779 103.872L67.4785 103.873L67.4798 103.874C67.7397 104.082 68.1328 104.153 68.3732 104.092C68.861 103.97 69.3489 103.85 69.8371 103.73C69.8871 103.718 69.9391 103.716 69.99 103.723C70.0409 103.731 70.0898 103.749 70.1339 103.775C70.178 103.802 70.2165 103.837 70.247 103.879C70.2776 103.92 70.2997 103.967 70.3121 104.017C70.3245 104.068 70.3269 104.12 70.3192 104.171C70.3115 104.222 70.2938 104.271 70.2672 104.315C70.2406 104.359 70.2055 104.397 70.1641 104.428C70.1226 104.459 70.0755 104.481 70.0255 104.493C70.0255 104.493 68.9041 104.774 68.726 104.814C68.5142 104.862 68.2088 104.805 68.0321 104.668L67.9093 104.492C67.9899 104.612 68.0672 104.732 68.1464 104.852C68.303 105.165 68.2686 105.424 68.0516 105.722L67.4668 106.524C67.4389 106.563 67.4038 106.595 67.3634 106.62C67.323 106.644 67.2781 106.661 67.2314 106.668C67.1847 106.675 67.137 106.673 67.091 106.662C67.0451 106.651 67.0018 106.631 66.9636 106.603C66.9254 106.575 66.8931 106.54 66.8685 106.499C66.8439 106.459 66.8275 106.414 66.8202 106.367C66.8129 106.32 66.8149 106.272 66.8261 106.226C66.8373 106.18 66.8574 106.137 66.8853 106.099ZM69.6922 114.374C69.6922 114.374 70.5291 113.932 70.6915 113.842C70.9924 113.677 71.2295 113.124 71.199 112.637L71.1983 112.632L71.199 112.632V112.633L71.2003 112.634C71.3426 112.935 71.6662 113.172 71.9079 113.221C72.1054 113.262 73.3815 113.538 73.3815 113.538C73.4339 113.546 73.484 113.566 73.5287 113.594C73.5734 113.623 73.6119 113.661 73.6417 113.705C73.6716 113.749 73.6922 113.798 73.7024 113.85C73.7126 113.903 73.7121 113.956 73.701 114.008C73.6899 114.06 73.6684 114.11 73.6378 114.153C73.6071 114.197 73.568 114.233 73.5228 114.261C73.4776 114.289 73.4272 114.308 73.3746 114.315C73.3221 114.323 73.2685 114.32 73.2171 114.307V114.308C73.2171 114.308 72.0866 114.068 71.9092 114.026C71.698 113.977 71.4472 113.792 71.3497 113.591L71.3153 113.374C71.3354 113.52 71.3536 113.666 71.3712 113.811C71.3595 114.173 71.2334 114.374 70.9066 114.547C70.5583 114.733 70.0301 115.012 70.0301 115.012C69.9881 115.036 69.9418 115.051 69.8938 115.057C69.8458 115.063 69.7971 115.059 69.7507 115.045C69.7043 115.032 69.661 115.009 69.6235 114.979C69.5859 114.948 69.5549 114.91 69.5323 114.868C69.5096 114.825 69.4958 114.778 69.4916 114.73C69.4874 114.681 69.4929 114.633 69.5078 114.587C69.5227 114.541 69.5467 114.498 69.5784 114.462C69.6101 114.425 69.6488 114.395 69.6922 114.374ZM70.2802 111.558C70.5596 111.359 70.7325 110.783 70.648 110.302L70.6467 110.296L70.648 110.298L70.6487 110.299C70.8247 110.583 71.1724 110.78 71.4186 110.802C71.62 110.821 72.9195 110.952 72.9195 110.952C73.0197 110.966 73.1104 111.018 73.1729 111.098C73.2353 111.178 73.2646 111.279 73.2546 111.379C73.2446 111.48 73.1962 111.573 73.1193 111.639C73.0425 111.705 72.9432 111.739 72.8422 111.733C72.8422 111.733 71.6915 111.624 71.5109 111.603C71.2958 111.578 71.0255 111.422 70.9047 111.234L70.8468 111.024C70.8839 111.168 70.9183 111.313 70.9534 111.457C70.993 111.799 70.8774 112.026 70.5733 112.234L69.7539 112.795C69.7149 112.821 69.6709 112.84 69.6246 112.85C69.5783 112.86 69.5305 112.86 69.4839 112.851C69.4374 112.842 69.3931 112.825 69.3535 112.799C69.3138 112.773 69.2797 112.739 69.253 112.7C69.2263 112.661 69.2075 112.617 69.1978 112.571C69.1881 112.524 69.1876 112.476 69.1963 112.43C69.2051 112.383 69.2229 112.339 69.2488 112.299C69.2747 112.259 69.3081 112.225 69.3472 112.198C69.3472 112.198 70.1282 111.665 70.2802 111.558Z" fill="#ED1B23"/>
</g>
<defs>
<clipPath id="clip0_243_1535">
<rect width="118" height="107" fill="white" transform="translate(18.5 14.5)"/>
</clipPath>
</defs>
</svg>
