<svg width="155" height="126" viewBox="0 0 155 126" fill="none" xmlns="http://www.w3.org/2000/svg">
<g clip-path="url(#clip0_243_2338)">
<path d="M77.8065 14.8394C51.21 14.8394 29.647 36.4009 29.647 63.0003C29.647 89.5968 51.21 111.16 77.8065 111.16C104.404 111.16 125.967 89.5982 125.967 63.0003C125.967 36.4009 104.404 14.8394 77.8065 14.8394Z" fill="#570514"/>
<path d="M77.8065 109.397C52.1819 109.397 31.4089 88.6263 31.4089 62.9989C31.4089 37.3758 52.1819 16.6013 77.8065 16.6013C103.434 16.6013 124.207 37.3758 124.207 62.9989C124.207 88.6277 103.434 109.397 77.8065 109.397Z" fill="#7D0521"/>
<path d="M46.8809 41.8953L42.1988 38.3477L43.0321 37.2497L44.9047 38.6685L44.9145 38.6544L43.6554 36.4262L44.5069 35.3029L45.815 37.8673L49.2352 38.7861L48.3557 39.9486L46.2674 39.3183L46.5559 39.9205L47.71 40.7959L46.8809 41.8953ZM50.7043 37.2259L46.5237 33.1026L47.4901 32.1194L51.6707 36.2441L50.7043 37.2259ZM55.427 30.8505L55.441 30.8421L53.3262 27.2791L54.3752 26.5018L57.0965 31.7959L55.8542 32.7203L53.0447 29.6573L53.0335 29.6671L55.1385 33.2525L53.9116 34.1657L49.6161 30.0438L50.6834 29.2497L53.4803 32.3113V32.2875L51.4719 28.6615L52.5419 27.8632L55.427 30.8505ZM59.8752 25.4948C59.835 25.413 59.7911 25.3331 59.7435 25.2553C59.7005 25.1787 59.6446 25.11 59.5783 25.0522C59.5194 24.9971 59.4452 24.961 59.3654 24.9486C59.2713 24.9351 59.1754 24.9528 59.0923 24.999C59.0111 25.0329 58.9427 25.0917 58.8971 25.167C58.8516 25.2423 58.8311 25.3301 58.8388 25.4178C58.8417 25.506 58.8592 25.593 58.8906 25.6755C58.9242 25.7595 58.9579 25.8478 58.9985 25.9276L60.0657 28.0901C60.1007 28.1629 60.1469 28.2427 60.2015 28.3281C60.2533 28.4122 60.3136 28.4836 60.3808 28.5438C60.4453 28.6031 60.5247 28.6437 60.6105 28.6615C60.7041 28.6802 60.8013 28.6653 60.885 28.6195C60.972 28.5811 61.0424 28.5131 61.0839 28.4276C61.1176 28.3496 61.1306 28.2642 61.1217 28.1797C61.1121 28.086 61.0895 27.994 61.0545 27.9066C61.0196 27.8215 60.9822 27.7374 60.9424 27.6545L59.8752 25.4948ZM62.1259 26.9402C62.273 27.2343 62.3724 27.5116 62.4284 27.7637C62.4844 28.0186 62.483 28.2539 62.4284 28.4682C62.365 28.692 62.2454 28.896 62.0811 29.0606C61.9102 29.2441 61.6665 29.4122 61.3528 29.5662C61.0391 29.7203 60.7576 29.8113 60.5069 29.8393C60.2548 29.8674 60.0264 29.8393 59.8206 29.7581C59.5995 29.6647 59.4044 29.5191 59.252 29.3337C59.064 29.1076 58.9046 28.8593 58.7772 28.5943L57.7211 26.4542C57.469 25.9416 57.4228 25.4808 57.5783 25.0677C57.7366 24.6573 58.0881 24.317 58.6287 24.0494C59.1707 23.7805 59.6511 23.7133 60.0685 23.8394C60.4858 23.971 60.8178 24.2903 61.0685 24.8001L62.1259 26.9402ZM66.0278 23.1307C65.9998 23.0467 65.9718 22.9584 65.9354 22.8716C65.9047 22.7905 65.8612 22.7148 65.8066 22.6475C65.7546 22.5844 65.687 22.5361 65.6105 22.5074C65.5185 22.4794 65.4198 22.4834 65.3304 22.5186C65.2408 22.5418 65.1608 22.5928 65.1021 22.6643C65.0562 22.731 65.0273 22.8079 65.018 22.8884C65.0069 22.976 65.0097 23.0649 65.0264 23.1517C65.0447 23.2455 65.0685 23.3338 65.0923 23.4178L65.8024 25.7217C65.8276 25.8029 65.8612 25.8884 65.9004 25.9808C65.9359 26.0666 65.9835 26.1467 66.0419 26.2189C66.0993 26.2917 66.1693 26.3436 66.2505 26.3758C66.3401 26.4085 66.4383 26.4085 66.5278 26.3758C66.6202 26.3531 66.7012 26.2979 66.7562 26.2203C66.8015 26.1482 66.828 26.0658 66.8332 25.9808C66.8369 25.8863 66.8284 25.7917 66.808 25.6993C66.7886 25.6096 66.7652 25.5208 66.7379 25.4332L66.0278 23.1307ZM68.0194 24.9178C68.1175 25.2301 68.1735 25.52 68.1875 25.7777C68.2015 26.041 68.1623 26.2707 68.074 26.4724C67.977 26.6839 67.8276 26.8671 67.6399 27.0046C67.3966 27.1765 67.1256 27.3053 66.8388 27.3856C66.5561 27.4812 66.259 27.5272 65.9606 27.5214C65.7265 27.513 65.498 27.4471 65.2953 27.3295C65.0919 27.2024 64.9226 27.0274 64.8023 26.8197C64.6524 26.568 64.5347 26.2984 64.4522 26.0172L63.7492 23.7343C63.5811 23.1895 63.6091 22.7287 63.8276 22.3478C64.0503 21.964 64.4494 21.6825 65.0264 21.5046C65.6049 21.3268 66.0909 21.3352 66.4802 21.5284C66.8724 21.7231 67.1497 22.0915 67.3177 22.6349L68.0194 24.9178ZM70.7659 26.1699L70.0825 20.338L72.011 20.1111L73.1231 23.4752L73.1371 23.471L73.4662 19.9416L75.3793 19.7175L76.0628 25.548L74.7561 25.7021L74.3597 21.1125L74.3457 21.1153L73.9158 25.8015L72.8976 25.9206L71.42 21.4584H71.406L72.0642 26.0172L70.7659 26.1699ZM81.9451 25.7861L82.8751 19.9878L84.2365 20.2063L83.8793 22.4318L84.8233 22.5845L85.1791 20.3576L86.5404 20.5747L85.6104 26.373L84.2491 26.1545L84.6356 23.7413L83.6931 23.5915L83.3051 26.0032L81.9451 25.7861ZM87.8205 26.922L89.6272 21.3394L92.63 22.31L92.2659 23.4276L90.5754 22.8786L90.2435 23.908L91.8821 24.4388L91.5194 25.5536L89.8807 25.0228L89.4913 26.2301L91.2701 26.8071L90.9115 27.9248L87.8205 26.922ZM95.7308 26.3688L96.1482 26.5789C96.2244 26.6219 96.3116 26.6414 96.3989 26.6349C96.474 26.6272 96.5459 26.6001 96.6076 26.5564C96.6757 26.5087 96.7346 26.4489 96.7812 26.38C96.8319 26.308 96.8769 26.2321 96.9157 26.1531C96.9833 26.0327 97.0293 25.9014 97.0515 25.7651C97.0673 25.6699 97.0473 25.5721 96.9955 25.4906C96.9367 25.4027 96.8568 25.331 96.763 25.2819C96.6378 25.2102 96.5097 25.1434 96.3793 25.0817L95.7308 26.3688ZM94.2084 29.3814L92.9787 28.7595L95.6258 23.5186L97.4199 24.4234C97.9297 24.6797 98.2518 24.9808 98.3891 25.3282C98.5278 25.6783 98.4633 26.1125 98.2014 26.6335C98.0586 26.9136 97.8933 27.1307 97.7056 27.2847C97.5137 27.4416 97.2631 27.5116 96.9465 27.499L96.9409 27.5144C97.0866 27.628 97.1949 27.7827 97.2518 27.9584C97.3026 28.138 97.2872 28.3298 97.2084 28.499L97.0333 28.9024L96.8177 29.3814L96.6132 29.8478C96.561 29.966 96.517 30.0876 96.4815 30.2119C96.4745 30.2938 96.4845 30.3763 96.5109 30.4542L96.4745 30.5242L95.13 29.8463C95.1412 29.7861 95.1482 29.7287 95.1622 29.6727C95.1757 29.6172 95.1935 29.5629 95.2154 29.5102C95.3218 29.2721 95.4325 29.0508 95.5403 28.8464C95.6482 28.6419 95.7364 28.4542 95.7995 28.2791C95.8578 28.137 95.8863 27.9845 95.8835 27.8309C95.8737 27.7049 95.7995 27.5985 95.6594 27.5172L95.2532 27.3127L94.2084 29.3814ZM102.535 29.59C102.587 29.5158 102.637 29.4416 102.685 29.3604C102.731 29.2865 102.766 29.2056 102.787 29.1209C102.805 29.0422 102.803 28.9602 102.78 28.8828C102.747 28.7924 102.685 28.7152 102.605 28.6629C102.532 28.6055 102.443 28.5726 102.35 28.569C102.268 28.5724 102.188 28.5949 102.116 28.6349C102.042 28.6813 101.974 28.7378 101.916 28.8029C101.851 28.873 101.794 28.943 101.742 29.0144L100.329 30.9696C100.281 31.0368 100.231 31.1153 100.18 31.2021C100.132 31.2831 100.096 31.3709 100.074 31.4626C100.053 31.5474 100.054 31.6362 100.078 31.7203C100.106 31.812 100.166 31.8909 100.246 31.943C100.319 32.0022 100.411 32.033 100.505 32.0298C100.591 32.0225 100.672 31.9935 100.743 31.9458C100.822 31.8947 100.893 31.8319 100.954 31.7595C101.017 31.6825 101.074 31.6125 101.122 31.5424L102.535 29.59ZM102.306 32.2553C102.113 32.5214 101.917 32.7399 101.718 32.9094C101.54 33.0661 101.327 33.178 101.096 33.2357C100.869 33.286 100.633 33.2763 100.41 33.2077C100.127 33.1184 99.8607 32.9805 99.6244 32.8001C99.3784 32.6297 99.1626 32.4196 98.9857 32.1783C98.8507 31.9862 98.7664 31.7632 98.7406 31.5298C98.7168 31.3099 98.7546 31.076 98.8457 30.8323C98.9437 30.5872 99.0894 30.3323 99.2798 30.0662L100.68 28.1307C101.014 27.6685 101.397 27.4122 101.836 27.3604C102.276 27.3071 102.739 27.4584 103.229 27.8127C103.721 28.1671 104.005 28.5592 104.087 28.9864C104.168 29.4136 104.04 29.8604 103.706 30.3211L102.306 32.2553ZM102.927 35.2539L107.05 31.0718L109.297 33.2875L108.473 34.1236L107.207 32.8744L106.448 33.6447L107.676 34.8533L106.85 35.6909L105.624 34.4808L104.732 35.3841L106.064 36.6979L105.242 37.5354L102.927 35.2539ZM108.931 38.8981L108.601 39.1474C108.536 39.1955 108.478 39.2504 108.425 39.3113C108.375 39.3655 108.337 39.43 108.313 39.5004C108.29 39.5714 108.287 39.6475 108.304 39.7203C108.324 39.8111 108.365 39.896 108.424 39.9682C108.522 40.0942 108.638 40.153 108.78 40.139C108.92 40.125 109.05 40.0732 109.169 39.9808C109.261 39.9176 109.335 39.8317 109.383 39.7315C109.427 39.6426 109.454 39.5468 109.465 39.4486C109.475 39.3469 109.473 39.2443 109.458 39.1432C109.447 39.0379 109.437 38.9324 109.43 38.8267C109.398 38.6009 109.377 38.3738 109.365 38.146C109.355 37.9412 109.372 37.7358 109.416 37.5354C109.462 37.3421 109.538 37.1628 109.641 36.9948C109.748 36.8267 109.903 36.6657 110.115 36.5088C110.556 36.1769 110.979 36.0466 111.389 36.1264C111.797 36.2035 112.164 36.4584 112.486 36.8869C112.665 37.125 112.785 37.3631 112.847 37.6012C112.909 37.8393 112.914 38.0662 112.867 38.2847C112.82 38.5046 112.727 38.7105 112.581 38.9065C112.423 39.1107 112.232 39.2868 112.015 39.4276L111.255 38.4135L111.459 38.2385C111.531 38.1816 111.594 38.1146 111.647 38.0396C111.696 37.9722 111.726 37.8929 111.735 37.8099C111.738 37.7151 111.711 37.6218 111.657 37.5438C111.58 37.4234 111.488 37.3519 111.383 37.3309C111.27 37.3101 111.152 37.3336 111.056 37.3967C110.902 37.485 110.806 37.5956 110.773 37.7231C110.737 37.8654 110.723 38.0122 110.731 38.1586C110.753 38.4696 110.787 38.7469 110.82 38.9906C110.857 39.2357 110.862 39.4668 110.84 39.6853C110.815 39.9077 110.744 40.1224 110.631 40.3155C110.515 40.5116 110.313 40.7189 110.028 40.936C109.573 41.2777 109.134 41.4191 108.713 41.3589C108.291 41.2959 107.906 41.0354 107.563 40.5746C107.392 40.3595 107.26 40.1171 107.171 39.8575C107.1 39.6496 107.075 39.429 107.096 39.2105C107.117 39.0191 107.18 38.8348 107.281 38.6713C107.383 38.5102 107.511 38.3715 107.665 38.2553L108.165 37.8771L108.931 38.8981ZM43.4201 82.989C43.752 82.8042 44.0587 82.5927 43.843 82.2187C43.7128 81.9876 43.5349 81.8938 43.287 82.0325C43.0069 82.1921 42.9985 82.4302 42.9859 82.7229C42.9719 83.0311 42.9355 83.6039 42.8557 83.8994C42.7604 84.2649 42.5798 84.4666 42.2632 84.6473C41.5672 85.0436 40.9439 84.7873 40.5616 84.1151C40.0938 83.293 40.3879 82.7369 41.0433 82.3644L41.3122 82.2103L41.7016 82.8966L41.4859 83.0185C41.1217 83.2075 40.9229 83.4624 41.1148 83.8028C41.28 84.0899 41.5097 84.1389 41.787 83.9848C42.0055 83.8588 42.0952 83.6781 42.1176 83.4316C42.1918 82.9134 42.14 82.3546 42.3487 81.8686C42.4487 81.6595 42.6099 81.4856 42.8108 81.37C43.4397 81.0157 43.9817 81.1711 44.3935 81.8966C45.0153 82.989 44.1568 83.44 43.7968 83.6501L43.4201 82.989ZM42.0125 86.3294L45.4929 83.9344L46.7506 85.7593L46.2422 86.1137L45.4299 84.9344L44.5531 85.5366L45.2996 86.6235L44.7898 86.975L44.0433 85.8868L42.9705 86.6277L43.7828 87.8041L43.273 88.1543L42.0125 86.3294ZM45.689 88.8952C45.4187 89.1207 44.9999 89.5058 45.3444 89.9204C45.7044 90.3546 46.1553 89.9904 46.4677 89.7313L47.301 89.038C47.5601 88.8237 48.1484 88.3588 47.7744 87.9078C47.3781 87.4316 46.843 87.9414 46.5909 88.1487L45.689 88.8952ZM45.9383 87.6375C46.7884 86.975 47.4593 86.5296 48.2632 87.5002C49.0713 88.4708 48.5069 89.0478 47.7002 89.7621L47.238 90.1459C46.3697 90.8644 45.682 91.3251 44.857 90.3279C44.0279 89.3321 44.6063 88.7397 45.4733 88.0212L45.9383 87.6375ZM51.1161 90.7215L51.6777 91.2789L49.6049 93.3714C48.9467 94.0366 48.4173 94.1389 47.6834 93.412C46.9411 92.6809 47.0391 92.1529 47.6974 91.4862L49.7702 89.391L50.3332 89.9456L48.3066 91.9904C48.0209 92.2803 47.7548 92.5856 48.1372 92.9652C48.4999 93.3265 48.8066 93.0562 49.0923 92.7691L51.1161 90.7215ZM49.8122 95.2677L52.5069 92.0128L53.1119 92.517L50.815 95.2929L51.9424 96.2271L51.5503 96.7033L49.8122 95.2677ZM54.2548 98.6543L56.4747 95.0604L57.1441 95.4736L56.266 96.8979L57.2058 97.4764L58.0839 96.0534L58.7562 96.4666L56.5363 100.065L55.864 99.6472L56.8794 98.0058L55.941 97.426L54.9242 99.0688L54.2548 98.6543ZM57.815 100.759L59.7029 96.9806L61.6889 97.9722L61.413 98.5282L60.1343 97.8867L59.6553 98.8391L60.836 99.4302L60.5587 99.9848L59.3794 99.3951L58.7982 100.56L60.0783 101.199L59.7996 101.754L57.815 100.759ZM62.6287 100.311L63.2085 100.538C63.455 100.616 63.7057 100.531 63.8584 100.137C64.0307 99.6963 63.8766 99.5506 63.6007 99.4386L63.0545 99.2271L62.6287 100.311ZM62.4046 100.888L61.7435 102.586L61.0083 102.296L62.5447 98.3615L63.9354 98.9078C64.5713 99.1515 64.969 99.5604 64.6847 100.286C64.5167 100.714 64.2295 101.123 63.7099 101L63.7057 101.01C64.1175 101.238 64.1427 101.567 63.9928 101.944C63.9298 102.108 63.5321 103.065 63.6651 103.251L63.6371 103.322L62.8276 103.007C62.8374 102.72 63.0419 102.244 63.1385 101.981C63.2295 101.735 63.3626 101.408 63.1385 101.234C62.9606 101.101 62.7449 101.021 62.5349 100.94L62.4046 100.888ZM66.0783 102.566C65.9816 102.902 65.8542 103.458 66.3752 103.602C66.92 103.755 67.0797 103.199 67.1903 102.808L67.4844 101.766C67.5755 101.443 67.7939 100.724 67.2309 100.569C66.6343 100.398 66.483 101.122 66.3948 101.437L66.0783 102.566ZM65.567 101.387C65.8906 100.357 66.1889 99.6108 67.4046 99.9568C68.6175 100.296 68.483 101.09 68.2225 102.133L68.0601 102.713C67.7561 103.797 67.4508 104.567 66.2043 104.216C64.955 103.866 65.0979 103.051 65.4032 101.965L65.567 101.387ZM68.9466 104.798L69.7141 100.643L71.899 101.046L71.7855 101.654L70.378 101.394L70.1833 102.443L71.4802 102.684L71.3682 103.291L70.0741 103.053L69.8359 104.332L71.2435 104.593L71.1315 105.2L68.9466 104.798ZM74.3345 102.616C74.3765 102.244 74.3793 101.869 73.9466 101.827C73.6847 101.804 73.5054 101.892 73.4774 102.177C73.4466 102.496 73.6356 102.642 73.8681 102.821C74.1104 103.007 74.5544 103.369 74.7533 103.602C74.997 103.892 75.0586 104.15 75.0222 104.518C74.9452 105.314 74.3779 105.677 73.6104 105.604C72.6679 105.511 72.3822 104.953 72.455 104.2L72.4858 103.892L73.2701 103.967L73.2463 104.216C73.1903 104.622 73.2855 104.934 73.6707 104.969C74.0012 105.002 74.1763 104.843 74.2071 104.523C74.2309 104.277 74.1342 104.097 73.9466 103.939C73.5684 103.577 73.081 103.3 72.8009 102.848C72.6904 102.645 72.6417 102.414 72.6609 102.184C72.7309 101.464 73.1735 101.112 74.0026 101.192C75.2533 101.315 75.1259 102.276 75.0908 102.689L74.3345 102.616ZM79.2519 105.062C79.4172 105.056 79.5852 105.065 79.7239 104.997C79.9339 104.895 79.9507 104.618 79.9409 104.401C79.9241 103.946 79.8289 103.756 79.3387 103.777L79.032 103.79L79.0824 105.069L79.2519 105.062ZM79.1539 103.164C79.3457 103.158 79.5922 103.158 79.7113 102.996C79.7813 102.887 79.7855 102.737 79.7771 102.534C79.7659 102.219 79.693 102.066 79.3317 102.07L78.9676 102.084L79.0068 103.17L79.1539 103.164ZM78.3191 105.717L78.1525 101.495L79.4242 101.444C79.7645 101.43 80.0964 101.44 80.3345 101.719C80.5222 101.944 80.5586 102.184 80.5712 102.471C80.5852 102.835 80.5222 103.2 80.0992 103.374V103.387C80.546 103.43 80.7309 103.796 80.7519 104.342C80.7575 104.518 80.7561 104.692 80.7155 104.86C80.5684 105.404 80.2715 105.64 79.7099 105.664L78.3191 105.717ZM82.8051 103.714L83.476 103.628L83.1118 102.465C83.0474 102.275 83.004 102.087 82.9564 101.894C82.9379 101.801 82.9159 101.709 82.8905 101.618L82.8807 101.621C82.8807 101.71 82.8807 101.807 82.8891 101.904C82.8905 102.1 82.8989 102.293 82.8849 102.495L82.8051 103.714ZM81.8541 105.544L82.3121 101.223L83.3667 101.086L84.8611 105.154L84.0208 105.261L83.6776 104.227L82.7617 104.345L82.6944 105.434L81.8541 105.544ZM86.9269 101.717C86.8513 101.348 86.7351 100.993 86.3121 101.086C86.0544 101.143 85.9129 101.284 85.976 101.565C86.0446 101.878 86.2701 101.957 86.546 102.056C86.8331 102.158 87.3723 102.364 87.6328 102.524C87.9535 102.724 88.0922 102.954 88.1706 103.311C88.3443 104.093 87.9185 104.614 87.165 104.782C86.2393 104.988 85.7953 104.544 85.6314 103.807L85.5642 103.502L86.3345 103.334L86.3877 103.576C86.462 103.979 86.6468 104.242 87.0264 104.16C87.3513 104.087 87.4661 103.884 87.3975 103.567C87.3457 103.329 87.1972 103.185 86.9689 103.093C86.4955 102.869 85.9465 102.756 85.539 102.412C85.3715 102.253 85.2542 102.049 85.2014 101.824C85.0474 101.121 85.3555 100.647 86.1678 100.465C87.3947 100.192 87.5726 101.146 87.6692 101.551L86.9269 101.717ZM89.707 104.038L88.4325 100.009L90.5446 99.3391L90.7337 99.9316L89.3695 100.364L89.6903 101.378L90.9479 100.978L91.1356 101.572L89.8779 101.969L90.27 103.21L91.637 102.777L91.8233 103.369L89.707 104.038ZM93.7112 101.979C93.8611 101.915 94.0235 101.867 94.1286 101.755C94.2896 101.586 94.2098 101.317 94.1286 101.122C93.9535 100.699 93.7966 100.559 93.3443 100.745L93.0614 100.862L93.5543 102.042L93.7112 101.979ZM92.9619 100.233C93.1384 100.161 93.3709 100.079 93.4241 99.8825C93.4521 99.7565 93.4073 99.615 93.3289 99.4274C93.2084 99.1332 93.0852 99.017 92.7476 99.1444L92.4101 99.2873L92.8261 100.29L92.9619 100.233ZM93.0614 102.919L91.4423 99.017L92.6188 98.5282C92.9311 98.3965 93.2477 98.2901 93.5656 98.4708C93.8177 98.6164 93.9381 98.8279 94.0501 99.0912C94.1902 99.4302 94.2561 99.7957 93.9213 100.102L93.9255 100.112C94.3611 100 94.6566 100.28 94.8695 100.783C94.9367 100.944 94.9927 101.112 95.0151 101.282C95.0655 101.843 94.8709 102.168 94.3499 102.387L93.0614 102.919ZM96.5684 99.4862L97.1664 99.1697L96.4185 98.2103C96.2924 98.0534 96.1902 97.8881 96.0768 97.7271C96.0278 97.6459 95.9717 97.5646 95.9227 97.4918L95.9115 97.496C95.9423 97.58 95.9787 97.6711 96.0166 97.7579C96.088 97.9428 96.1636 98.122 96.221 98.3125L96.5684 99.4862ZM96.3134 101.53L95.2406 97.3195L96.1832 96.8237L98.9941 100.121L98.2462 100.51L97.5641 99.6612L96.7462 100.094L97.0586 101.136L96.3134 101.53ZM99.9815 99.5184L97.6958 95.9652L98.3596 95.5366L100.306 98.573L101.54 97.7817L101.876 98.3027L99.9815 99.5184ZM102.913 97.5646L100.347 94.2089L100.973 93.7285L103.162 96.5968L104.327 95.7047L104.701 96.1963L102.913 97.5646ZM107.903 91.1697C107.953 91.2313 108.012 91.2929 108.061 91.3518C108.581 91.9232 108.818 92.5282 108.197 93.1473C107.28 94.0674 106.638 93.5464 105.843 92.7495L105.414 92.3237C104.676 91.5394 104.169 90.9148 105.059 90.0212C105.567 89.5282 106.101 89.5058 106.651 89.975C106.736 90.0407 106.816 90.1128 106.89 90.1907L106.34 90.7411C106.126 90.573 105.787 90.1949 105.511 90.4722C105.074 90.9106 105.633 91.3966 105.861 91.6263L106.693 92.454C106.938 92.6991 107.364 93.0814 107.746 92.6977C108.053 92.3896 107.522 91.9358 107.341 91.7313L107.903 91.1697ZM109.865 91.2369L106.629 88.5198L107.136 87.9134L109.897 90.2327L110.839 89.1123L111.315 89.5114L109.865 91.2369ZM109.714 84.5198L110.166 83.8742L112.584 85.5619C113.35 86.0969 113.542 86.5983 112.952 87.4484C112.357 88.3013 111.818 88.2985 111.05 87.7621L108.63 86.0759L109.082 85.4288L111.445 87.0759C111.777 87.3069 112.127 87.517 112.434 87.0773C112.728 86.6571 112.41 86.405 112.077 86.1683L109.714 84.5198ZM114.341 83.9064C114.424 83.7635 114.519 83.6263 114.539 83.4722C114.558 83.2383 114.333 83.0759 114.147 82.9722C113.748 82.7467 113.537 82.7341 113.297 83.1571L113.148 83.4232L114.262 84.0535L114.341 83.9064ZM112.679 82.989C112.776 82.8238 112.906 82.6151 112.829 82.4288C112.771 82.3098 112.65 82.2313 112.474 82.1305C112.2 81.975 112.028 81.9526 111.843 82.2663L111.661 82.5829L112.608 83.1193L112.679 82.989ZM114.411 85.0451L110.734 82.9666L111.361 81.8574C111.526 81.5633 111.711 81.2832 112.071 81.2313C112.362 81.1865 112.587 81.2818 112.834 81.4204C113.157 81.6025 113.43 81.8476 113.354 82.2986L113.365 82.3042C113.637 81.9456 114.045 81.9834 114.519 82.2523C114.673 82.3392 114.82 82.4344 114.944 82.5577C115.326 82.9666 115.375 83.3448 115.095 83.835L114.411 85.0451Z" fill="white"/>
<path d="M77.8065 97.6402C58.6749 97.6402 43.1666 82.1304 43.1666 62.9988C43.1666 43.8672 58.6749 28.3589 77.8065 28.3589C96.9381 28.3589 112.449 43.8686 112.449 62.9988C112.449 82.1304 96.9395 97.6402 77.8065 97.6402Z" fill="#570514"/>
<path d="M90.3849 93.3461C73.6146 100.29 54.392 92.3293 47.4452 75.559C40.5013 58.793 48.4634 39.5676 65.2309 32.6222C81.9984 25.6797 101.225 33.639 108.166 50.4065C115.113 67.1767 107.152 86.4007 90.3849 93.3461Z" fill="white"/>
<path d="M49.5629 49.027C49.6385 48.7497 49.8598 48.4906 50.0531 48.443C50.1903 48.4094 50.2772 48.492 50.2926 48.6391C50.2956 48.7163 50.288 48.7936 50.2701 48.8688C50.046 49.6489 49.5895 52.1069 49.5895 52.1069C49.5895 52.1069 48.2814 53.478 47.6623 54.0998C47.5012 54.2595 47.3276 54.2091 47.2757 53.9892C47.2558 53.8643 47.2637 53.7365 47.2988 53.615C47.3339 53.4934 47.3954 53.3812 47.4789 53.2861C47.9677 52.7889 48.4649 52.2791 48.9775 51.7287C49.1175 50.8141 49.3136 49.9108 49.5629 49.027ZM50.8094 49.6041C50.8584 49.3141 51.0881 49.0172 51.315 48.9416C51.497 48.8828 51.6231 48.971 51.6511 49.1475C51.6581 49.2081 51.6562 49.2695 51.6455 49.3296C51.4985 50.1601 51.3178 52.7119 51.3178 52.7119C51.3178 52.7119 49.9088 54.3519 49.231 55.0872C49.0517 55.2805 48.8304 55.2609 48.7408 55.0396C48.6497 54.8155 48.7184 54.4794 48.8976 54.2833C49.4228 53.7035 49.962 53.0788 50.5153 52.4304C50.5475 51.4822 50.6441 50.5438 50.8094 49.6041ZM52.5713 50.0466C52.5865 49.8921 52.6406 49.7439 52.7285 49.6158C52.8165 49.4877 52.9353 49.384 53.0741 49.3141C53.3038 49.2217 53.483 49.3085 53.5223 49.5158C53.531 49.5572 53.5347 49.5996 53.5335 49.6419C53.4928 50.4682 53.6469 53.048 53.6469 53.048C53.6469 53.048 52.1805 54.922 51.462 55.8029C51.2758 56.0354 51.0069 56.055 50.8598 55.8477C50.7211 55.6419 50.7562 55.2861 50.9438 55.0522C51.5111 54.3449 52.0727 53.6419 52.6385 52.901C52.5483 51.9523 52.5263 50.9984 52.5727 50.0466M54.7477 50.1951C54.7239 49.9038 54.9396 49.5466 55.2337 49.401C55.5054 49.2665 55.7491 49.3548 55.808 49.5971L55.8234 49.6671C55.899 50.5018 56.4452 53.0452 56.4452 53.0452C56.4452 53.0452 54.9634 55.1699 54.2141 56.1657C54.0194 56.4318 53.6987 56.4878 53.5054 56.2973C53.3149 56.1082 53.3192 55.7371 53.5111 55.4738C54.0853 54.6951 54.6623 53.873 55.2351 53.0396C54.997 52.0956 54.8318 51.1489 54.7463 50.1951M57.4368 50.4402C57.3976 50.3099 57.3617 50.1787 57.329 50.0466C57.2519 49.7665 57.4494 49.3842 57.7715 49.2049C58.0937 49.013 58.4214 49.0971 58.497 49.38C58.5321 49.5116 58.5684 49.6391 58.6077 49.7637C58.8079 50.436 59.7141 52.6377 59.7141 52.6377C59.7141 52.6377 58.2659 54.9766 57.525 56.1166C57.329 56.4178 56.9648 56.527 56.7057 56.3673C56.455 56.2049 56.4074 55.8309 56.5993 55.5256C57.1802 54.626 57.7493 53.7188 58.3065 52.8043C57.9564 52.02 57.6679 51.2259 57.4354 50.4402M61.8065 52.1601C61.2183 51.3057 60.7085 50.4346 60.2925 49.5466C60.1623 49.2735 60.3387 48.8828 60.6735 48.6643C61.0222 48.45 61.4018 48.4864 61.5348 48.7567C61.906 49.5256 63.3821 51.8337 63.3821 51.8337C63.3821 51.8337 62.0614 54.3617 61.3402 55.597C61.1469 55.9276 60.7379 56.0858 60.427 55.9514C60.1189 55.8169 60.0208 55.4402 60.2113 55.1082C60.7673 54.1461 61.2981 53.1517 61.8079 52.1601M65.658 51.1111C64.9136 50.3602 64.2211 49.5596 63.5852 48.7147C63.4018 48.4668 63.5292 48.062 63.8766 47.8155C64.2267 47.5663 64.6637 47.5635 64.8513 47.8128C65.3836 48.5102 67.3443 50.6153 67.3443 50.6153C67.3443 50.6153 66.2267 53.2525 65.5922 54.583C65.4158 54.943 64.9844 55.1545 64.6189 55.0592C64.2547 54.9654 64.0979 54.6012 64.2617 54.2469C64.7617 53.1867 65.2281 52.1475 65.658 51.1111ZM68.6258 52.8954C69.032 51.8043 69.3961 50.7329 69.7099 49.6741C68.8045 49.0159 67.9366 48.3075 67.1104 47.5522C66.8696 47.3268 66.9466 46.9248 67.2869 46.6517C67.6231 46.3772 68.1034 46.3352 68.3457 46.5593C69.0348 47.1755 71.4297 48.6965 71.4297 48.6965C71.4297 48.6965 70.623 51.7273 70.1048 53.0998C69.9648 53.4724 69.5208 53.7245 69.1118 53.6713C68.7085 53.6153 68.4872 53.2679 68.6258 52.8954ZM73.7071 51.8562C73.2771 51.8337 73.0054 51.513 73.1048 51.1363C73.3814 50.0778 73.609 49.0071 73.7869 47.9276C72.7406 47.3654 71.7204 46.756 70.7295 46.1013C70.4395 45.9052 70.4578 45.5158 70.7799 45.2329C71.1006 44.9472 71.5922 44.8688 71.8835 45.0635C72.7155 45.6069 75.4577 46.9318 75.4577 46.9318C75.4577 46.9318 75.039 49.845 74.6763 51.2161C74.5726 51.5914 74.144 51.8744 73.7071 51.8562ZM77.483 49.0789C77.6052 48.0409 77.6772 46.9977 77.6986 45.9528C76.551 45.4869 75.417 44.9881 74.2981 44.457C73.9647 44.2946 73.9157 43.9248 74.1917 43.6321C74.4648 43.3394 74.9633 43.2315 75.2995 43.3898C76.2238 43.8226 79.2337 44.9542 79.2337 44.9542C79.2337 44.9542 79.2196 47.6629 79.0754 49.013C79.0334 49.38 78.644 49.6909 78.2071 49.7091C77.7687 49.7301 77.4424 49.4458 77.483 49.0789ZM81.5235 46.7637C81.4969 45.7539 81.3905 44.7707 81.2364 43.831C80.0221 43.4667 78.8172 43.0716 77.623 42.6461C77.2546 42.5172 77.1468 42.1755 77.3779 41.8842C77.6076 41.5985 78.0824 41.4696 78.4451 41.5985C79.4479 41.9556 82.6006 42.88 82.6006 42.88C82.6006 42.88 83.0165 45.352 83.0572 46.6195C83.0628 46.9682 82.7322 47.2805 82.3078 47.3198C81.8835 47.3632 81.5319 47.1125 81.5235 46.7637ZM85.046 44.366C84.8549 43.4507 84.6003 42.5498 84.284 41.6699C83.039 41.3842 81.8078 41.0887 80.6048 40.7806C80.2252 40.6797 80.0446 40.3744 80.2196 40.0943C80.3835 39.8184 80.8261 39.6699 81.2 39.7708C82.228 40.0313 85.4339 40.782 85.4339 40.782C85.4339 40.782 86.2042 42.9598 86.4605 44.1349C86.532 44.457 86.2743 44.7693 85.8863 44.8352C85.4941 44.8968 85.116 44.6909 85.046 44.366ZM87.9199 41.9444C87.5912 41.107 87.1969 40.2968 86.7406 39.5215C85.5389 39.331 84.3317 39.1223 83.1188 38.8982C82.7322 38.8282 82.5081 38.5551 82.616 38.2904C82.7252 38.0313 83.116 37.8758 83.4927 37.9514C84.5291 38.1461 87.6664 38.6951 87.6664 38.6951C87.6664 38.6951 88.2574 39.6839 88.5221 40.2077C88.763 40.6797 88.9843 41.1699 89.1818 41.6741C89.3009 41.9612 89.1118 42.2609 88.7658 42.3352C88.4185 42.4108 88.0376 42.2413 87.9199 41.9444ZM90.1314 39.6111C89.6718 38.8629 89.1617 38.147 88.6048 37.4682C87.4493 37.3437 86.2947 37.2107 85.1412 37.0691C84.7686 37.0201 84.4983 36.789 84.5446 36.5453C84.5866 36.3072 84.9227 36.1531 85.2896 36.1951C86.2854 36.3212 89.2784 36.6783 89.2784 36.6783C89.2784 36.6783 90.6286 38.359 91.2112 39.3002C91.221 39.3114 91.2252 39.3212 91.2308 39.3352C91.3596 39.5817 91.2448 39.8366 90.9647 39.9206C90.811 39.9611 90.6486 39.9531 90.4997 39.8977C90.3507 39.8423 90.2226 39.7422 90.1328 39.6111M91.6622 37.3856C91.1188 36.7274 90.5137 36.1069 89.8807 35.5285C88.8303 35.4725 87.749 35.4024 86.6342 35.3226C86.2813 35.2974 85.9829 35.0957 85.9759 34.8744C85.9619 34.6559 86.242 34.5005 86.5922 34.5313C87.5446 34.6013 90.3316 34.7974 90.3316 34.7974C90.3316 34.7974 91.8863 36.2498 92.5698 37.0705C92.5905 37.0938 92.6087 37.1191 92.6243 37.1461C92.7434 37.3492 92.6804 37.5607 92.4619 37.6377C92.207 37.7217 91.8541 37.6153 91.6636 37.3856M92.6048 35.3324C91.9605 34.7512 91.3106 34.226 90.6244 33.7372C89.6664 33.7274 88.6692 33.7106 87.6552 33.6895C87.3191 33.6853 86.9997 33.5173 86.9381 33.3184C86.8807 33.1237 87.0978 32.9753 87.4283 32.9809C88.298 33.0019 90.8611 33.0579 90.8611 33.0579C90.8611 33.0579 92.5487 34.2904 93.3316 35.0019C93.3695 35.0367 93.4033 35.0757 93.4325 35.1181C93.5389 35.2778 93.5207 35.4416 93.3597 35.5187C93.1566 35.6111 92.819 35.5271 92.6034 35.331M106.053 76.9429C105.976 77.2188 105.756 77.4793 105.561 77.5283C105.425 77.5591 105.339 77.4779 105.323 77.3309C105.321 77.2536 105.329 77.1763 105.347 77.1012C105.568 76.3239 106.026 73.8603 106.026 73.8603C106.026 73.8603 107.334 72.4905 107.953 71.8715C108.112 71.7062 108.288 71.7594 108.34 71.9835C108.36 72.1076 108.352 72.2346 108.317 72.3552C108.282 72.4759 108.221 72.5872 108.137 72.681C107.647 73.181 107.151 73.6908 106.636 74.2412C106.495 75.1516 106.299 76.0592 106.053 76.9429ZM104.806 76.3659C104.757 76.653 104.528 76.9527 104.298 77.0255C104.119 77.0858 103.991 76.9989 103.962 76.8239C103.956 76.7617 103.959 76.699 103.97 76.6376C104.115 75.8085 104.295 73.2566 104.295 73.2566C104.295 73.2566 105.707 71.6166 106.383 70.8813C106.565 70.6852 106.784 70.709 106.874 70.9303C106.963 71.153 106.897 71.4905 106.715 71.6866C106.193 72.265 105.652 72.8911 105.101 73.5382C105.069 74.4865 104.971 75.4314 104.806 76.3659ZM103.044 75.9233C103.029 76.0778 102.975 76.2259 102.887 76.3539C102.799 76.4819 102.68 76.5858 102.542 76.6558C102.312 76.7482 102.133 76.6614 102.094 76.4527C102.082 76.4135 102.081 76.3715 102.082 76.3253C102.124 75.4989 101.969 72.9191 101.969 72.9191C101.969 72.9191 103.435 71.0466 104.154 70.167C104.341 69.9331 104.608 69.9149 104.756 70.1222C104.893 70.3267 104.86 70.6824 104.672 70.9149C104.097 71.6259 103.531 72.3439 102.974 73.069C103.068 74.0241 103.088 74.9877 103.044 75.9233ZM100.868 75.7734C100.89 76.0676 100.676 76.4219 100.381 76.569C100.11 76.7034 99.8652 76.6124 99.8064 76.3757L99.7924 76.3028C99.7154 75.4667 99.1678 72.9233 99.1678 72.9233C99.1678 72.9233 100.652 70.7973 101.399 69.8015C101.595 69.5354 101.917 69.4793 102.108 69.6726C102.301 69.8617 102.295 70.23 102.102 70.4961C101.531 71.2749 100.953 72.0942 100.379 72.9289C100.617 73.8729 100.784 74.8197 100.869 75.772M98.1789 75.5283C98.2182 75.66 98.2532 75.7902 98.2868 75.9233C98.361 76.2034 98.1664 76.5858 97.8442 76.765C97.5207 76.9527 97.1944 76.8715 97.1187 76.5872C97.0823 76.4611 97.0473 76.3309 97.0081 76.2034C96.8064 75.5339 95.9017 73.3295 95.9017 73.3295C95.9017 73.3295 97.3484 70.9933 98.0907 69.8533C98.2868 69.5536 98.6495 69.4415 98.91 69.6026C99.1593 69.7637 99.207 70.139 99.0137 70.4429C98.4311 71.3533 97.8653 72.2454 97.3078 73.1642C97.658 73.9457 97.9479 74.7426 98.1804 75.5283M93.8064 73.8099C94.3975 74.6642 94.9073 75.5339 95.3218 76.4233C95.4507 76.6936 95.2756 77.0858 94.9395 77.3056C94.5921 77.5213 94.2112 77.4793 94.0809 77.2118C93.7084 76.4429 92.2364 74.1348 92.2364 74.1348C92.2364 74.1348 93.5529 71.6082 94.2756 70.3715C94.4689 70.041 94.8765 69.8813 95.1888 70.0186C95.4969 70.1516 95.5949 70.5298 95.4045 70.8589C94.8499 71.8303 94.3161 72.8142 93.8064 73.8099ZM89.9605 74.8561C90.702 75.6094 91.3935 76.4103 92.0305 77.2538C92.2126 77.5031 92.0865 77.9037 91.7378 78.153C91.3877 78.4051 90.9535 78.4079 90.7644 78.1572C90.2322 77.4583 88.2715 75.3547 88.2715 75.3547C88.2715 75.3547 89.3877 72.7202 90.0235 71.3827C90.1972 71.0256 90.6314 70.8127 90.9969 70.9065C91.3611 71.0017 91.5151 71.3687 91.3512 71.7216C90.8526 72.7819 90.3891 73.8225 89.9605 74.8561ZM86.9885 73.0718C86.5824 74.1656 86.2196 75.237 85.9031 76.2944C86.8471 76.9779 87.7238 77.702 88.5053 78.4177C88.7434 78.6418 88.6706 79.0409 88.3289 79.314C87.9927 79.5914 87.5137 79.6334 87.2672 79.4093C86.5796 78.793 84.186 77.2748 84.186 77.2748C84.186 77.2748 84.9899 74.2426 85.5095 72.8687C85.6496 72.4947 86.0922 72.2426 86.5039 72.2987C86.9045 72.3575 87.1272 72.7006 86.9885 73.0718ZM81.9059 74.1166C82.3387 74.1348 82.6104 74.4569 82.5081 74.8309C82.2324 75.8904 82.0053 76.962 81.8275 78.0423C82.9115 78.6334 83.9255 79.2202 84.8849 79.8673C85.1762 80.0619 85.158 80.4513 84.8345 80.737C84.5151 81.0213 84.0222 81.097 83.7308 80.9051C82.8989 80.3617 80.158 79.0395 80.158 79.0395C80.158 79.0395 80.574 76.125 80.9395 74.7524C81.0432 74.3785 81.4717 74.0956 81.9059 74.1166ZM78.1314 76.8897C78.0086 77.9275 77.9371 78.9708 77.9171 80.0157C79.1062 80.4947 80.2504 81.0101 81.3177 81.5143C81.6496 81.674 81.6972 82.0395 81.4241 82.3378C81.151 82.6292 80.6524 82.7384 80.3135 82.5801C79.3919 82.1446 76.3807 81.0157 76.3807 81.0157C76.3807 81.0157 76.3961 78.307 76.5432 76.9541C76.5838 76.5914 76.9689 76.279 77.4073 76.2622C77.8499 76.2384 78.1734 76.5213 78.1314 76.8897ZM74.0922 79.2062C74.1202 80.2146 74.2225 81.1992 74.3779 82.1334C75.6132 82.5087 76.8191 82.9037 77.9913 83.321C78.3583 83.4513 78.4689 83.7972 78.2392 84.0815C78.0081 84.3728 77.5334 84.5017 77.1706 84.3728C76.1678 84.0143 73.0166 83.0899 73.0166 83.0899C73.0166 83.0899 72.5992 80.618 72.5572 79.3477C72.5516 79.0003 72.8835 78.688 73.3065 78.6446C73.7308 78.6068 74.0852 78.8547 74.0922 79.2062ZM70.567 81.6026C70.7715 82.5577 71.0208 83.4485 71.3317 84.3C72.574 84.5871 73.8065 84.8813 75.011 85.188C75.3905 85.2888 75.5712 85.5941 75.3961 85.8743C75.2308 86.1516 74.7925 86.2972 74.4143 86.1992C73.3849 85.9373 70.1791 85.188 70.1791 85.188C70.1791 85.188 69.4115 83.0115 69.1552 81.835C69.081 81.5129 69.3401 81.2006 69.7295 81.1362C70.1216 81.0717 70.4998 81.2776 70.567 81.6026ZM67.6931 84.0255C68.0235 84.8613 68.4177 85.6704 68.8723 86.4457C70.0754 86.639 71.2841 86.8462 72.497 87.0717C72.8821 87.1418 73.1048 87.4135 72.9998 87.6796C72.8905 87.9359 72.4998 88.0927 72.1216 88.0171C70.7319 87.7658 69.3416 87.5174 67.9508 87.272C67.9508 87.272 67.3584 86.286 67.0936 85.7608C66.8528 85.2888 66.6314 84.7986 66.4312 84.2958C66.3149 84.0073 66.5026 83.7076 66.8485 83.632C67.1987 83.5591 67.5768 83.73 67.6931 84.0255ZM65.4844 86.3574C65.9592 87.1263 66.4606 87.8308 67.011 88.5017C68.1661 88.6247 69.3202 88.7573 70.4732 88.8994C70.8457 88.9457 71.116 89.1796 71.0712 89.4219C71.0292 89.6642 70.693 89.8196 70.3247 89.7762C69.3303 89.6487 66.3345 89.2916 66.3345 89.2916C66.3345 89.2916 64.9858 87.6109 64.4018 86.6684C64.3933 86.6583 64.3875 86.6463 64.3849 86.6334C64.2561 86.3883 64.3682 86.1319 64.6483 86.0465C64.8027 86.0064 64.9657 86.0148 65.1153 86.0704C65.2648 86.126 65.3937 86.2262 65.4844 86.3574ZM63.9536 88.5829C64.497 89.2412 65.102 89.863 65.7323 90.4401C66.7841 90.4975 67.8653 90.5661 68.9816 90.6459C69.3359 90.6712 69.6328 90.8714 69.6426 91.0941C69.6524 91.314 69.3723 91.4681 69.0264 91.4387C68.0698 91.3658 65.2827 91.1712 65.2827 91.1712C65.2827 91.1712 63.7281 89.7174 63.046 88.898C63.0251 88.8746 63.0063 88.8493 62.99 88.8224C62.8709 88.6221 62.934 88.4093 63.1539 88.3294C63.4088 88.2468 63.7617 88.3574 63.9522 88.5829M63.011 90.6389C63.6553 91.2188 64.3051 91.7454 64.99 92.2286C65.9466 92.2398 66.9466 92.2566 67.9592 92.2804C68.2953 92.2846 68.6146 92.4527 68.6762 92.6515C68.7337 92.8448 68.518 92.9947 68.1903 92.9877C67.3177 92.9653 64.7547 92.9106 64.7547 92.9106C64.7547 92.9106 63.067 91.6782 62.2841 90.9667C62.2474 90.9319 62.2132 90.8944 62.1819 90.8546C62.0754 90.6908 62.0979 90.5269 62.2561 90.4513C62.4578 90.3602 62.7967 90.4415 63.0124 90.6389" fill="#7D0521"/>
<path d="M129.327 46.6362L129.241 46.6432L125.053 51.2888L124.336 47.0914L113.869 48.0549L113.306 49.2202C112.438 48.695 111.376 48.4191 110.215 48.4191C109.984 48.4191 109.749 48.4331 109.518 48.4513L102.928 49.0563C100.805 49.2524 98.4087 50.3449 96.4745 51.9863C95.3933 50.6194 93.5291 49.9191 91.4255 50.1138L84.8345 50.7174L48.1371 54.0885L52.2197 49.5647L33.8318 51.2566L32.7646 53.4583L22.2296 54.4247L17.5196 64.1081L19.7045 63.9092L12.0014 79.6949L23.9397 78.6025L26.3599 73.6417L29.2759 82.2495L40.4873 81.2201L39.1302 77.2075L43.2758 76.828L48.4621 66.2005L47.9551 76.3952L57.5447 75.5156L57.6469 75.5058L59.1511 73.2845L59.0489 75.3742L68.6343 74.4946L68.7365 74.4862L71.0488 71.0717C71.1188 71.2145 71.1945 71.3518 71.2771 71.4848C72.3149 73.1445 74.2225 73.9778 76.609 73.7607L83.1524 73.1641C85.2981 72.9652 87.7113 71.8686 89.6468 70.2187C90.6118 71.4596 92.137 72.1375 93.9801 72.1375C94.2126 72.1375 94.4549 72.1263 94.7014 72.1025L101.245 71.503C102.549 71.3826 103.92 70.954 105.243 70.2622L104.798 71.1781L116.735 70.0815L117.393 68.7383L118.1 72.8882L120.983 69.6949L131.613 68.7145L143.002 45.3799L129.327 46.6362Z" fill="#570514"/>
<path d="M31.7142 58.7524L33.1036 58.6236L30.1988 61.8421L31.7142 58.7524ZM35.8192 71.8574L34.1386 66.8939L43.0783 56.9849L35.8192 71.8574ZM86.9507 57.8225L83.4354 65.0283L81.0824 65.2454L84.5978 58.0382L86.9507 57.8225ZM105.043 56.1628L101.525 63.3715L99.1748 63.5858L102.689 56.3785L105.043 56.1628ZM130.068 47.7147L129.984 47.7245L124.064 54.2847L123.053 48.3575L114.881 49.1096L113.725 51.4962C113.671 51.3745 113.608 51.2569 113.536 51.1446C112.899 50.1222 111.725 49.5592 110.235 49.5592C110.05 49.5592 109.853 49.569 109.658 49.5872L103.068 50.1922C100.545 50.4219 97.7014 52.104 95.9297 54.3533C95.9001 53.8044 95.7329 53.2717 95.4437 52.8043C94.8064 51.7819 93.6328 51.2217 92.1384 51.2217C91.9535 51.2217 91.7602 51.2315 91.5656 51.2469L84.9746 51.8547C83.7001 51.971 82.2771 52.4822 80.9493 53.2889L81.7197 52.1516L73.1328 52.9415L68.941 59.132L69.2323 53.2959L62.0405 53.9597L57.85 60.146L58.1399 54.3155L44.3388 55.5872L48.4201 51.0648L34.8431 52.3141L33.7716 54.513L23.2353 55.4793L20.1064 61.9177L22.2983 61.7188L14.5952 77.5031L22.9313 76.7384L26.6176 69.1824L30.3459 80.1964L38.3935 79.4555L37.0335 75.4429L42.266 74.9653L48.9285 61.3169L50.2366 61.1936L49.5867 74.2888L56.7758 73.6291L60.9634 67.4457L60.6777 73.2678L67.8654 72.6095L73.8037 63.8407L72.7001 66.1054C71.934 67.6768 71.8933 69.153 72.588 70.2636C73.2267 71.2846 74.3989 71.849 75.8849 71.849C76.074 71.849 76.2687 71.8378 76.4662 71.821L83.011 71.2202C85.5698 70.9863 88.4339 69.2958 90.1958 67.0325C90.228 67.611 90.3919 68.139 90.6818 68.604C91.4003 69.7524 92.7939 70.3224 94.56 70.1614L101.102 69.5605C104.253 69.2706 107.84 66.751 109.267 63.8225L113.378 55.3995L114.05 55.3379L107.39 68.9835L115.727 68.2216L118.107 63.3505L119.086 69.0815L124.459 63.1292L122.269 67.6208L130.605 66.8547L140.407 46.7693L130.068 47.7147Z" fill="#EB008A"/>
<path d="M45.8906 52.3308L35.5139 53.286L33.4383 57.5591L35.6316 57.3602L26.9565 66.9737L31.0615 79.0955L36.9999 78.5493L32.9691 66.6515L45.8906 52.3308ZM130.479 48.7118L123.407 56.5507L122.2 49.4695L115.553 50.0802L113.487 54.3561L115.778 54.139L109.117 67.793L115.056 67.2468L118.588 60.0297L119.745 66.8154L128.589 57.0157L123.995 66.4274L129.934 65.8812L138.68 47.9597L130.479 48.7118Z" fill="white"/>
<path d="M44.4047 56.6136L35.6582 74.5366L41.5951 73.9917L50.343 56.0674L44.4047 56.6136ZM23.9075 56.454L21.8305 60.7257L24.0252 60.5282L16.3221 76.3097L22.2591 75.7676L32.049 55.7061L23.9075 56.454ZM84.1062 66.0016L79.3555 66.4371L83.9269 57.066L88.6762 56.6318L84.1062 66.0016ZM91.6608 52.2733L85.0698 52.877C82.441 53.1193 79.3919 55.1977 77.9886 57.6108L73.6245 66.5576C72.3584 69.1528 73.5894 71.0534 76.3709 70.7957L82.9157 70.1948C85.7015 69.9385 88.9844 67.629 90.2505 65.0324L94.4073 56.5114C95.6748 53.9134 94.4451 52.0184 91.6608 52.2733ZM102.197 64.3405L97.4451 64.7775L102.019 55.4078L106.769 54.9708L102.197 64.3405ZM109.753 50.6109L103.162 51.2173C100.535 51.4582 97.4829 53.5352 96.081 55.9512L91.7168 64.9007C90.4507 67.4932 91.6818 69.3881 94.4647 69.136L101.008 68.5352C103.791 68.2789 107.075 65.968 108.341 63.3727L112.5 54.8503C113.767 52.2537 112.537 50.3574 109.753 50.6109ZM73.7113 53.9204L67.7309 62.7537L68.1455 54.4316L62.6203 54.9386L56.6399 63.7705L57.0531 55.4512L51.1007 56.0016L49.0223 60.2747L51.3248 60.0604L50.6749 73.1542L56.1959 72.6486L62.1721 63.8223L61.7659 72.1388L67.2883 71.629L79.6482 53.3756L73.7113 53.9204Z" fill="white"/>
<path d="M24.0252 60.5284L28.0378 58.118L22.8697 58.59L21.8305 60.7272L24.0252 60.5284ZM35.6316 57.3603L40.8991 54.8435L34.4761 55.4233L33.4383 57.5592L35.6316 57.3603Z" fill="#D1D1D1"/>
<path d="M45.8906 52.3308L40.8991 54.8434L29.9999 66.9246L34.0335 78.8252L31.0615 79.0955L36.9999 78.5493L32.9691 66.6515L45.8906 52.3308ZM117.853 55.7356L113.129 65.3854L109.117 67.793L115.056 67.2468L118.588 60.0297L117.853 55.7356ZM120.872 59.3616L123.407 56.5507L122.2 49.4695L119.515 51.4219L120.872 59.3616ZM134.668 50.3701L128.008 64.0199L123.997 66.4288L129.932 65.8826L138.68 47.9597L134.668 50.3701ZM131.795 50.4443L121.529 61.814L119.745 66.8154L128.589 57.0157L131.795 50.4443Z" fill="#D1D1D1"/>
<path d="M46.3192 58.5059L39.6666 72.1347L35.6596 74.5366L41.5965 73.9918L50.3444 56.0675L46.3192 58.5059ZM28.0378 58.1179L20.3347 73.8966L16.3221 76.3097L22.2591 75.7677L32.049 55.7062L28.0378 58.1179ZM64.5405 67.4638L67.7309 62.7538L68.1455 54.4317L65.0713 56.7608L64.5405 67.4638ZM62.3878 59.3896L54.6973 70.7481L50.6749 73.1543L56.1959 72.6487L62.1721 63.8224L62.3878 59.3896ZM75.2029 55.828L65.7883 69.7327L61.7645 72.1375L67.2883 71.6291L79.6482 53.3757L75.2029 55.828ZM51.3248 60.0605L53.983 57.7776L50.0629 58.1347L49.0223 60.2748L51.3248 60.0605ZM115.778 54.139L119.515 51.4219L114.662 51.8687L113.476 54.356L115.778 54.139Z" fill="#D1D1D1"/>
<path d="M53.448 68.482L56.6413 63.7705L57.0531 55.4513L53.983 57.7776L53.448 68.482ZM84.9675 54.933L80.9563 57.3378L75.3387 68.8546L79.3555 66.44L83.9269 57.0661L88.6762 56.6319L92.6874 54.2244L84.9675 54.933Z" fill="#D1D1D1"/>
<path d="M94.4437 53.1713L92.6874 54.2245L87.0656 65.7454L83.0782 68.146L75.3387 68.8547L73.595 69.9051C74.1245 70.5676 75.0796 70.9149 76.3709 70.7958L82.9157 70.195C83.0516 70.1838 83.1916 70.1614 83.3303 70.139C86.018 69.7076 89.0446 67.5017 90.249 65.0326L94.4073 56.5116C95.0852 55.1222 95.0473 53.9374 94.4437 53.1713ZM103.061 53.2735L99.0501 55.6782L93.4325 67.195L97.4451 64.7777L102.019 55.4079L106.769 54.971L110.781 52.562L103.061 53.2735Z" fill="#D1D1D1"/>
<path d="M112.537 51.5115L110.781 52.5647L105.158 64.0857L101.172 66.4862L93.4325 67.1949L91.6902 68.2453C92.2182 68.9078 93.1748 69.2523 94.4647 69.1361L101.008 68.5352C101.145 68.524 101.284 68.5002 101.423 68.4792C104.109 68.0492 107.137 65.842 108.341 63.3728L112.5 54.8504C113.179 53.4624 113.14 52.2748 112.537 51.5115Z" fill="#D1D1D1"/>
</g>
<defs>
<clipPath id="clip0_243_2338">
<rect width="131" height="96.3215" fill="white" transform="translate(12 14.8394)"/>
</clipPath>
</defs>
</svg>
