<svg width="155" height="128" viewBox="0 0 155 128" fill="none" xmlns="http://www.w3.org/2000/svg">
<g clip-path="url(#clip0_243_1741)">
<path d="M75.1305 14.5C50.5926 14.5 30.3881 32.8476 27.4196 56.5479C26.9517 58.5762 26.6579 60.5779 26.4549 62.5586H24.1172C24.1172 90.6921 46.9531 113.5 75.1305 113.5C103.308 113.5 126.151 90.6921 126.151 62.5586H123.264C123.264 64.6426 123.085 66.682 122.827 68.6961C122.345 66.6348 121.555 64.5814 120.377 62.5586H123.264C123.264 36.0138 101.712 14.5 75.1305 14.5Z" fill="#042445"/>
<path d="M75.1332 110.616C101.715 110.616 123.263 89.1014 123.263 62.5613H120.379C120.379 87.508 100.119 107.732 75.1332 107.732C50.1478 107.732 29.8873 87.508 29.8873 62.5613H27.0034C27.0034 89.1014 48.5519 110.616 75.1332 110.616Z" fill="#D01031"/>
<path d="M75.1333 17.3855C63.1333 17.3855 51.6248 22.1451 43.1396 30.6172C34.6543 39.0893 29.8873 50.5799 29.8873 62.5613H32.7763C32.7763 51.3449 37.2389 40.588 45.1823 32.6568C53.1257 24.7256 63.8994 20.2699 75.1332 20.2698C80.6956 20.2698 86.2036 21.3637 91.3426 23.489C96.4816 25.6143 101.151 28.7295 105.084 32.6566C109.018 36.5837 112.138 41.2459 114.266 46.377C116.395 51.508 117.491 57.0074 117.491 62.5613H120.379C120.379 56.6287 119.209 50.7542 116.935 45.2732C114.661 39.7922 111.329 34.8121 107.127 30.6171C102.926 26.4222 97.9377 23.0945 92.4482 20.8243C86.9587 18.554 81.0751 17.3855 75.1333 17.3855Z" fill="#62B1E3"/>
<path d="M104.012 62.5613C104.012 70.2085 100.97 77.5426 95.5538 82.9501C90.138 88.3575 82.7925 91.3954 75.1333 91.3954C67.4741 91.3954 60.1286 88.3575 54.7128 82.9501C49.2969 77.5426 46.2543 70.2085 46.2543 62.5613C46.2543 54.914 49.2969 47.5799 54.7128 42.1725C60.1286 36.765 67.4741 33.7271 75.1332 33.7271C82.7924 33.7271 90.1379 36.765 95.5537 42.1725C100.97 47.5799 104.012 54.914 104.012 62.5613ZM45.2353 38.9342L49.571 42.7161L52.3109 39.5821L51.4985 38.8719L49.6046 41.0316L46.0862 37.96L45.2353 38.9342ZM54.4594 37.7872C52.9501 39.0447 51.7533 38.5503 50.6189 37.1922C49.4892 35.8388 49.2105 34.5573 50.715 33.3047C52.2532 32.0233 53.4453 32.5609 54.5652 33.8998C55.7092 35.2724 55.9927 36.5107 54.4596 37.7872M51.4216 34.1542C50.4746 34.9412 50.9745 35.5988 51.6187 36.3667C52.3156 37.2065 52.8541 37.7009 53.7528 36.9522C54.5699 36.2659 54.4594 35.7812 53.5799 34.7254C52.7866 33.7751 52.282 33.4343 51.4216 34.1542Z" fill="white"/>
<path d="M57.0407 30.3437L59.3959 34.3559L58.2472 35.0326L55.8919 31.0155L54.421 31.8748L53.8682 30.9291L57.9636 28.5344L58.5163 29.4798L57.0407 30.3437ZM62.4723 27.848L64.145 32.1915L62.9049 32.6713L61.2273 28.328L59.6411 28.9374L59.2422 27.9152L63.6739 26.2115L64.0681 27.2337L62.4723 27.848ZM66.5965 31.3659L65.4236 25.7364L69.5525 24.8821L69.7738 25.9572L66.9234 26.5475L67.1732 27.7472L69.6391 27.2385L69.8602 28.2944L67.3945 28.8079L67.6492 30.0414L70.4995 29.4509L70.7206 30.5116L66.5965 31.3659ZM79.0171 28.6447C78.969 29.7677 77.9116 30.4205 76.5945 30.3629C75.7821 30.3293 75.0179 30.0365 74.6718 29.595C74.2681 29.0766 74.0854 28.2128 74.1382 27.3442C74.1671 26.6291 74.3113 25.8467 74.643 25.4148C75.2149 24.6614 75.8254 24.4886 76.7964 24.5318C77.9645 24.5798 78.9979 25.2468 79.0796 26.5954L77.7674 26.5378C77.7385 26.0195 77.4068 25.6692 76.7579 25.6403C76.2869 25.6212 75.9312 25.7364 75.7918 25.9955C75.558 26.4259 75.4341 26.9073 75.4313 27.3969C75.4025 28.0208 75.5177 28.616 75.7534 28.9183C75.9024 29.1055 76.2484 29.2399 76.633 29.2447C77.2626 29.2639 77.6472 29.0095 77.6664 28.5728L77.6856 28.1504L76.5271 28.1024L76.5703 27.1185L79.0746 27.2194L79.0171 28.6447ZM80.1034 30.6604L81.3917 30.8908L82.3915 25.2275L81.1032 24.9973L80.1034 30.6604ZM86.4147 32.2778L86.3283 31.0156L84.3479 30.382L83.574 31.3708L82.2617 30.9484L86.2079 26.1732L87.2797 26.5187L87.7124 32.6907L86.4147 32.2778ZM86.1552 28.1743L85.0543 29.4989L86.2801 29.8877L86.1552 28.1743ZM91.707 34.8214L91.1542 30.55L89.4862 33.6216L88.3374 32.9976L91.0772 27.944L91.9665 28.424L92.5241 32.7049L94.192 29.6286L95.3504 30.2525L92.6058 35.3062L91.707 34.8214ZM98.6479 34.0583L95.7495 37.701L94.7064 36.8755L97.6049 33.2329L96.2685 32.1722L96.9511 31.3132L100.671 34.2647L99.989 35.119L98.6479 34.0583ZM98.821 40.7725C98.2874 40.1631 98.0615 39.4383 98.1144 38.4545L99.2872 38.4305C99.2151 39.1791 99.3256 39.5919 99.7006 40.0143C100.124 40.5085 100.537 40.6237 100.854 40.355C101.037 40.2014 101.114 39.8462 100.825 39.424L100.465 38.8528C99.9986 38.1329 99.8495 37.1491 100.614 36.4868C101.436 35.7813 102.537 35.9348 103.402 36.9283C103.892 37.5128 104.148 38.2587 104.118 39.0208L102.979 39.0592C103.017 38.2434 102.758 37.9073 102.537 37.6529C102.181 37.2404 101.825 37.1875 101.484 37.4754C101.248 37.6818 101.282 37.9459 101.513 38.3202C101.58 38.4352 101.792 38.7472 101.849 38.8289C102.45 39.7071 102.479 40.739 101.743 41.3677C100.917 42.0875 99.7246 41.8188 98.821 40.7725ZM134.367 61.5583L143.5 52.4396H111.511L113.188 46.2053H103.257L101.585 52.4396H39.1885L45.4371 46.2005H24.2971C22.6793 46.203 21.1073 46.7374 19.8241 47.7211C18.5408 48.7048 17.6178 50.0831 17.1975 51.6429L11.7083 72.1023C11.4674 72.983 11.435 73.9075 11.6135 74.8029C11.792 75.6983 12.1766 76.54 12.7368 77.2615C13.8712 78.7446 15.5968 79.5893 17.4619 79.5893H127.248C128.866 79.5886 130.438 79.0556 131.721 78.0725C133.005 77.0895 133.928 75.7114 134.348 74.1517L137.626 61.9375H133.987L134.367 61.5583Z" fill="white"/>
<path d="M40.693 78.1494L47.206 53.8793H48.1193L41.6062 78.1494H40.693ZM60.3573 75.4714H55.3583C54.9933 75.475 54.6325 75.3939 54.3043 75.2344C53.9761 75.0749 53.6895 74.8414 53.4671 74.5524C53.2448 74.2634 53.0927 73.9267 53.023 73.569C52.9533 73.2112 52.9679 72.8422 53.0655 72.491L56.6802 59.0242C56.8705 58.3166 57.2892 57.6914 57.8714 57.2455C58.4536 56.7995 59.1669 56.5577 59.9007 56.5574H71.2254L65.4285 78.1494H64.515L70.0717 57.4357H59.9007C59.361 57.4366 58.8366 57.6154 58.409 57.9442C57.9814 58.2731 57.6745 58.7336 57.5358 59.2544L53.9211 72.7214C53.86 72.9414 53.851 73.1726 53.8948 73.3968C53.9385 73.6209 54.0339 73.8318 54.1732 74.0128C54.3126 74.1939 54.4922 74.3401 54.6979 74.44C54.9036 74.5398 55.1296 74.5906 55.3583 74.5883H61.2369L60.3573 75.4714ZM76.282 78.1494L81.3532 59.2546C81.4929 58.7338 81.801 58.2737 82.2295 57.9457C82.658 57.6176 83.183 57.44 83.723 57.4404H93.8939L88.3325 78.1494H89.2507L95.0429 56.5574H83.723C82.9887 56.5582 82.2751 56.8002 81.6923 57.246C81.1094 57.6917 80.6896 58.3166 80.4976 59.0242L75.3688 78.1494H76.282ZM110.174 75.4714H103.003C102.639 75.4735 102.28 75.3909 101.953 75.2301C101.627 75.0693 101.343 74.8348 101.123 74.5452C100.899 74.2583 100.745 73.9234 100.674 73.5668C100.602 73.2103 100.614 72.8419 100.71 72.491L107.382 47.645H108.295L105.901 56.5574H116.294L115.409 57.4404H105.666L101.565 72.7214C101.504 72.9414 101.495 73.1727 101.539 73.3968C101.583 73.6209 101.678 73.8318 101.818 74.0129C101.957 74.1939 102.137 74.3402 102.342 74.44C102.548 74.5399 102.774 74.5906 103.003 74.5883H110.41L110.174 75.4714ZM114.313 74.5883H126.931C127.47 74.5876 127.994 74.4095 128.421 74.0816C128.849 73.7537 129.156 73.2942 129.296 72.7742L130.992 66.4535H119.509L121.499 59.0242C121.69 58.3157 122.11 57.6898 122.693 57.2431C123.276 56.7963 123.99 56.5536 124.724 56.5525H137.333L136.448 57.4355H124.724C124.185 57.4368 123.661 57.615 123.233 57.9428C122.804 58.2706 122.496 58.7299 122.355 59.2498L120.658 65.5705H132.146L130.151 72.9997C129.961 73.7078 129.543 74.3336 128.96 74.7804C128.378 75.2272 127.665 75.47 126.931 75.4714H114.077L114.313 74.5883ZM24.6192 50.3231C23.8854 50.3234 23.1721 50.5652 22.5899 51.0112C22.0077 51.4571 21.589 52.0823 21.3986 52.7899L16.1113 72.4911C16.0158 72.8418 16.003 73.2097 16.0739 73.5661C16.1447 73.9225 16.2974 74.2577 16.5198 74.5453C16.7399 74.8343 17.0243 75.0684 17.3504 75.2292C17.6765 75.3899 18.0355 75.4729 18.3992 75.4715H31.4735L35.0017 62.3263H27.2533L26.3688 63.2045H33.8529L30.7958 74.5933H18.3992C18.1713 74.5942 17.9462 74.5422 17.7418 74.4415C17.5374 74.3407 17.3593 74.1939 17.2215 74.0126C17.0806 73.8324 16.9837 73.6219 16.9387 73.3977C16.8936 73.1736 16.9016 72.942 16.962 72.7215L22.2494 53.0204C22.3891 52.4997 22.6972 52.0395 23.1257 51.7115C23.5542 51.3835 24.0792 51.2059 24.6192 51.2063H38.3904L39.2701 50.3232L24.6192 50.3231Z" fill="white"/>
<path d="M68.7595 43.532C66.7215 43.532 65.6735 44.7798 65.6735 46.1908C65.6735 47.5971 66.7744 48.8499 68.7597 48.8499C70.7063 48.8499 71.8502 47.5971 71.8502 46.1908C71.8502 44.7798 70.8025 43.532 68.7595 43.532ZM72.6432 43.7385V44.3238H74.5659V48.6336H76.0706V44.3239H77.9982V43.7385H72.6432ZM78.6711 43.7385V44.3238H80.5938V48.6336H82.0982V44.3239H84.0212V43.7385H78.6711ZM60.6891 43.7434V47.9906C60.6891 48.4321 60.9195 48.6385 61.3235 48.6385H65.0007V48.0483H62.477C62.227 48.0483 62.1791 47.909 62.1791 47.7124V43.7434H60.6891ZM85.6214 43.7434C85.2658 43.7434 84.9246 43.8151 84.9246 44.4535V47.9284C84.9246 48.5763 85.2467 48.6434 85.6698 48.6434H89.5727V48.0532H86.7607C86.4244 48.0532 86.4149 47.9043 86.4149 47.7075V46.3252H89.5248V45.7447L86.4149 45.7444V44.679C86.4149 44.367 86.5301 44.3287 86.7994 44.3287H89.5727V43.7434H85.6214ZM68.7595 44.0793C69.6871 44.0793 70.3938 45.0389 70.3938 46.1908C70.3938 47.3474 69.6872 48.2882 68.7597 48.2882C67.8318 48.2882 67.1252 47.3474 67.1252 46.1908C67.1252 45.0389 67.8317 44.0793 68.7595 44.0793ZM24.302 47.6449C23.001 47.6448 21.7363 48.0732 20.7039 48.8637C19.6715 49.6541 18.9291 50.7625 18.5917 52.0171L13.1024 72.4718C12.9232 73.1401 12.9004 73.8406 13.0357 74.5192C13.171 75.1977 13.4608 75.8361 13.8827 76.3849C14.3046 76.9337 14.8473 77.3783 15.4688 77.6843C16.0902 77.9903 16.7739 78.1495 17.4668 78.1495H33.7665L38.607 60.1138H29.4598L27.2534 62.3213H35.0016L31.4734 75.4714H18.3994C18.0348 75.4743 17.6745 75.3926 17.3469 75.2328C17.0193 75.073 16.7334 74.8395 16.5116 74.5506C16.2897 74.2616 16.1381 73.9253 16.0687 73.5679C15.9992 73.2105 16.0138 72.8419 16.1113 72.4912L21.3987 52.7898C21.5891 52.0822 22.0078 51.457 22.5901 51.0111C23.1724 50.5652 23.8856 50.3234 24.6195 50.3232H39.2701L41.9521 47.6452L24.302 47.6449ZM104.368 47.6452L97.701 72.4767C97.5228 73.1447 97.5007 73.8446 97.6365 74.5225C97.7722 75.2004 98.0622 75.8381 98.484 76.3863C98.9059 76.9345 99.4482 77.3786 100.069 77.6843C100.69 77.9899 101.373 78.149 102.066 78.1492H109.454L110.17 75.4712H102.998C102.635 75.4726 102.276 75.3897 101.949 75.229C101.623 75.0683 101.339 74.8343 101.119 74.5453C100.896 74.2577 100.744 73.9225 100.673 73.5661C100.602 73.2097 100.615 72.8418 100.71 72.4912L107.377 47.6452H104.368ZM108.29 47.6452L105.896 56.5573H116.284L118.966 53.8795H109.626L111.299 47.6452H108.29ZM24.6191 51.2014C24.0791 51.201 23.5542 51.3785 23.1257 51.7065C22.6972 52.0345 22.3891 52.4946 22.2493 53.0153L22.2495 53.0156L16.9622 72.7167C16.9018 72.9371 16.8938 73.1687 16.9388 73.3928C16.9839 73.6169 17.0807 73.8274 17.2215 74.0076C17.3594 74.1889 17.5375 74.3357 17.7419 74.4365C17.9463 74.5373 18.1713 74.5892 18.3992 74.5883H30.7959L33.853 63.1996H26.369L24.1577 65.4072H30.2479L28.503 71.9102H20.1922L25.0326 53.8795H35.7082L38.3905 51.2014H24.6191ZM44.197 53.8746L37.6839 78.1446H40.6977L47.2108 53.8746H44.197ZM48.124 53.8746L41.6109 78.1446H44.6201L51.1332 53.8746H48.124ZM59.5836 53.8795C58.2834 53.8804 57.0197 54.3093 55.9883 55.0996C54.9568 55.89 54.2151 56.9979 53.8779 58.2516L50.0615 72.4718C49.8825 73.1397 49.8596 73.8398 49.9946 74.518C50.1297 75.1961 50.419 75.8342 50.8404 76.383C51.2617 76.9317 51.8038 77.3764 52.4246 77.6827C53.0455 77.989 53.7285 78.1487 54.4211 78.1495H57.6751L60.3573 75.4714H55.3583C54.9933 75.475 54.6324 75.3939 54.3042 75.2344C53.976 75.0749 53.6895 74.8415 53.4671 74.5525C53.2448 74.2635 53.0927 73.9268 53.023 73.5691C52.9533 73.2113 52.9678 72.8423 53.0654 72.4912L56.68 59.0241C56.8703 58.3165 57.289 57.6913 57.8713 57.2453C58.4535 56.7993 59.1668 56.5575 59.9006 56.5573H71.2253L65.4284 78.1492H68.4422L74.9553 53.8795H59.5836ZM83.4009 53.8795C82.1007 53.8804 80.8371 54.3093 79.8056 55.0996C78.7742 55.89 78.0325 56.9979 77.6953 58.2516L72.3549 78.1491H75.3639L80.4977 59.0243V59.024C80.6881 58.3164 81.1067 57.6912 81.6889 57.2453C82.271 56.7993 82.9842 56.5575 83.718 56.5571H95.0429L89.2458 78.1491H92.2596L98.7727 53.8793L83.4009 53.8795ZM124.407 53.8795C123.107 53.8804 121.843 54.3093 120.812 55.0997C119.781 55.8901 119.039 56.9979 118.702 58.2516L115.909 68.6516H127.397L126.522 71.9151H115.034L114.318 74.5932H126.931C127.472 74.5932 127.997 74.4148 128.426 74.0858C128.854 73.7568 129.162 73.2956 129.3 72.774L130.997 66.4584H119.509L121.504 59.0291C121.694 58.3209 122.113 57.6951 122.695 57.2483C123.277 56.8015 123.99 56.5586 124.725 56.5573H137.337L140.02 53.8795H124.407ZM83.718 57.4356C83.1789 57.4362 82.655 57.6144 82.2274 57.9423C81.7999 58.2703 81.4926 58.7299 81.3531 59.2498L76.2819 78.1444H79.2911L84.1316 60.1138H90.1641L85.3236 78.1446H88.3326L93.8892 57.4357L83.718 57.4356ZM59.9009 57.4404C59.3613 57.4416 58.8371 57.6198 58.409 57.9476C57.9808 58.2753 57.6723 58.7345 57.5311 59.2545C56.6322 62.6235 53.9163 72.7215 53.9163 72.7215C53.8564 72.9418 53.8482 73.1729 53.8924 73.3968C53.9365 73.6207 54.0319 73.8314 54.171 74.0126C54.3101 74.1937 54.4892 74.3403 54.6943 74.441C54.8994 74.5417 55.125 74.5938 55.3536 74.5932H61.2371L62.9049 72.9277L61.5014 78.1495H64.5152L70.0719 57.4406L59.9009 57.4404ZM105.666 57.4404L101.566 72.7215C101.505 72.9419 101.496 73.1733 101.539 73.3976C101.583 73.622 101.679 73.8331 101.818 74.0145C101.957 74.1959 102.137 74.3425 102.342 74.4429C102.548 74.5433 102.774 74.5948 103.003 74.5932H110.41L111.131 71.9151H104.796L107.959 60.1186H112.727L115.409 57.4406L105.666 57.4404ZM124.725 57.4404C124.186 57.4411 123.662 57.6192 123.234 57.9471C122.807 58.275 122.499 58.7345 122.36 59.2545L120.663 65.5753H132.146L130.151 73.0044C129.961 73.712 129.542 74.3372 128.96 74.7832C128.378 75.2292 127.665 75.4711 126.931 75.4714H114.078L113.361 78.1492H127.248C128.549 78.1493 129.814 77.721 130.846 76.9305C131.878 76.1401 132.621 75.0317 132.958 73.7772L135.746 63.3773H124.263L125.138 60.1186H133.771L136.453 57.4406L124.725 57.4404ZM60.3139 60.1185H66.3418L63.1741 71.9153H57.1465L60.3139 60.1185Z" fill="#D01031"/>
<path d="M42.8513 86.8841L47.2686 83.1982L49.97 86.4283L49.1288 87.1289L47.2637 84.8972L46.3168 85.6843L47.9319 87.6136L47.1003 88.3095L45.4901 86.3802L44.5191 87.1914L46.3842 89.4182L45.5526 90.1141L42.8513 86.8841ZM47.8646 92.4562C47.2732 91.9042 46.9753 91.2035 46.932 90.2196L48.1002 90.0804C48.1002 90.8292 48.254 91.2323 48.6673 91.6115C49.1335 92.0674 49.5566 92.1393 49.8498 91.8419C50.0132 91.6691 50.0517 91.3092 49.7296 90.9155L49.3115 90.3828C48.773 89.7158 48.5327 88.7512 49.2249 88.0168C49.97 87.2297 51.0851 87.2777 52.0417 88.18C52.588 88.7131 52.9168 89.4296 52.9646 90.1909L51.8301 90.3444C51.7917 89.5286 51.4986 89.2167 51.2533 88.9863C50.8544 88.6071 50.4987 88.5927 50.1862 88.9143C49.9748 89.1398 50.0324 89.3989 50.2968 89.7494C50.4227 89.9109 50.5525 90.0694 50.6862 90.2245C51.3687 91.0403 51.5033 92.0626 50.8351 92.7585C50.0805 93.5552 48.8693 93.4064 47.8646 92.4562ZM55.7573 92.5474L53.1569 96.4059L52.0512 95.6621L54.6516 91.8034L53.2386 90.8532L53.8537 89.9461L57.7906 92.5952L57.1753 93.5024L55.7573 92.5474ZM54.6565 97.8697L56.0217 98.6233L56.7426 97.3082L55.3775 96.5547L54.6565 97.8697ZM61.2659 95.3117L60.7755 96.6075L62.2127 96.2811L60.7082 100.269L61.9052 100.721L63.9624 95.2733L62.9866 94.9085L61.2659 95.3117ZM66.9378 96.0891C68.1827 96.3916 68.7932 97.4426 68.5528 98.4216C68.4001 98.9231 68.1392 99.3851 67.7885 99.7752L65.914 101.863L64.491 101.517L66.1879 99.6983C65.9119 99.7015 65.6389 99.6422 65.3891 99.5249C65.1394 99.4076 64.9196 99.2353 64.7461 99.021C64.5727 98.8067 64.4501 98.5559 64.3876 98.2875C64.3252 98.0191 64.3244 97.7401 64.3854 97.4714C64.6353 96.4539 65.6207 95.7675 66.9378 96.0891ZM66.2792 98.6711C66.8897 98.82 67.1782 98.5368 67.279 98.1145C67.38 97.7066 67.1782 97.2987 66.6734 97.1739C66.1351 97.0442 65.7745 97.3035 65.664 97.7642C65.5534 98.2105 65.7794 98.5512 66.2792 98.6711ZM70.8745 102.818C69.4421 102.669 68.7788 101.776 68.8845 100.754C68.9165 100.489 69.0195 100.237 69.1827 100.025C69.346 99.8127 69.5634 99.6485 69.8122 99.5495C69.6195 99.4135 69.4672 99.2279 69.3715 99.0124C69.2759 98.7969 69.2405 98.5596 69.269 98.3257C69.3748 97.3131 70.2497 96.7371 71.4754 96.8667C72.7973 97.0011 73.4653 97.7833 73.3692 98.7384C73.3537 98.9756 73.2728 99.2038 73.1353 99.3978C72.9978 99.5918 72.8092 99.744 72.5904 99.8375C72.806 99.9886 72.9793 100.192 73.0938 100.429C73.2082 100.666 73.26 100.928 73.2442 101.191C73.1434 102.165 72.3358 102.971 70.8745 102.818ZM71.1197 100.274C70.6438 100.221 70.2593 100.543 70.2208 100.893C70.1823 101.263 70.3938 101.623 70.9803 101.68C71.5908 101.748 71.8647 101.436 71.9032 101.066C71.9416 100.711 71.6436 100.327 71.1197 100.274ZM71.3599 97.9465C70.8889 97.8985 70.6054 98.1242 70.5669 98.4841C70.5333 98.8152 70.812 99.108 71.235 99.156C71.7061 99.204 72.0186 98.964 72.0617 98.6233C72.105 98.273 71.8503 97.9993 71.36 97.9465M74.2632 102.923L74.2345 101.988L76.5033 99.5494C76.7628 99.2568 76.9022 98.964 76.8974 98.7288C76.8877 98.4072 76.6474 98.1433 76.1763 98.1578C75.6236 98.1721 75.3833 98.5897 75.3544 99.084L74.0806 99.1224C74.0662 97.8505 75.0805 97.0827 76.1379 97.0538C77.229 97.0251 78.1905 97.6105 78.2193 98.7C78.2337 99.18 78.0654 99.6647 77.5751 100.197L76.1042 101.762L78.3538 101.7L78.3873 102.808L74.2632 102.923ZM85.1025 101.642L82.5646 102.256L81.2042 96.6699L83.598 96.0892C84.8429 95.7869 85.7658 96.2619 86.011 97.265C86.0683 97.6707 85.9852 98.0839 85.7755 98.4361C86.1456 98.6616 86.5349 99.0215 86.6453 99.4776C86.905 100.533 86.3041 101.349 85.1025 101.642ZM83.9778 97.1258L82.7231 97.4329L83.0068 98.5944L84.3046 98.2777C84.6891 98.1865 84.8045 97.8217 84.742 97.5626C84.7215 97.4833 84.6852 97.4089 84.6354 97.3438C84.5856 97.2786 84.5233 97.2241 84.4521 97.1834C84.3808 97.1427 84.3022 97.1167 84.2207 97.1068C84.1393 97.0969 84.0567 97.1034 83.9778 97.1258ZM84.5641 99.3143L83.2568 99.6311L83.5692 100.903L84.9103 100.576C85.3092 100.481 85.4246 100.125 85.3477 99.8086C85.2708 99.487 84.9872 99.2134 84.5641 99.3143ZM92.3463 97.0587C92.8462 98.2441 92.0915 99.2376 90.8225 99.7703C89.5872 100.294 88.3231 100.149 87.823 98.964L86.309 95.3837L87.5348 94.8701L89.0633 98.484C89.2748 98.9736 89.8227 98.9976 90.3947 98.7528C90.9764 98.5081 91.3416 98.1002 91.1349 97.6105L89.6064 93.9967L90.8321 93.4784L92.3463 97.0587ZM96.1917 97.0971C95.4947 97.5099 94.74 97.5962 93.7787 97.3659L93.9709 96.2044C94.6968 96.4156 95.1246 96.382 95.6052 96.094C96.1724 95.7724 96.3647 95.3836 96.158 95.0238C96.0379 94.8125 95.7013 94.6782 95.2351 94.8798L94.6055 95.1294C93.8123 95.4557 92.8125 95.4174 92.303 94.5487C91.7598 93.6128 92.1155 92.5617 93.25 91.8946C93.9152 91.5193 94.6965 91.4047 95.4418 91.573L95.2735 92.7009C94.4756 92.5138 94.0959 92.7057 93.8075 92.8736C93.3317 93.1521 93.2114 93.488 93.4374 93.8768C93.5959 94.1455 93.8603 94.1646 94.2737 94.0064C94.4629 93.9305 94.6504 93.8504 94.8361 93.7664C95.8119 93.3392 96.831 93.5024 97.3163 94.3374C97.874 95.2782 97.3885 96.4012 96.1917 97.0971ZM102.277 92.4466L101.162 91.8466L99.5708 93.1857L99.9938 94.3663L98.9411 95.2541L96.9896 89.3749L97.85 88.6503L103.32 91.573L102.277 92.4466ZM98.6576 90.4836L99.1959 92.1154L100.181 91.2851L98.6576 90.4836ZM106.709 87.7288L102.412 87.3689L105.065 89.6437L104.214 90.6324L99.8448 86.8938L100.498 86.1307L104.81 86.4859L102.147 84.211L103.003 83.2127L107.377 86.9514L106.709 87.7288Z" fill="white"/>
</g>
<defs>
<clipPath id="clip0_243_1741">
<rect width="132" height="99" fill="white" transform="translate(11.5 14.5)"/>
</clipPath>
</defs>
</svg>
