<svg width="35" height="36" viewBox="0 0 35 36" fill="none" xmlns="http://www.w3.org/2000/svg">
<path d="M34.5862 18.2418C33.7894 15.2537 30.6916 12.4933 28.3215 11.107C28.0247 10.9322 27.7483 10.7859 27.484 10.6639C25.9229 9.92808 24.5651 9.49308 23.3861 9.28982C22.7275 9.18005 21.7762 9.07435 21.1746 9.32234C20.2233 9.71668 20.5729 10.9932 20.8046 11.8307C20.9225 12.2575 21.0363 12.5706 21.3738 13.1438C21.7112 13.717 22.5771 14.4 24.1057 15.0464C23.7886 15.2212 23.0487 15.4407 22.5365 15.5749C23.1219 16.4611 23.8049 17.2742 24.5691 17.9409C26.1262 19.3028 26.7075 19.3394 26.7075 19.3394C26.7075 19.3394 26.9027 18.4247 26.8173 17.5019C26.7807 17.0994 26.6018 16.7782 26.3823 16.5994C25.6709 16.0099 25.1505 15.3919 24.6464 14.6236C23.6422 13.0869 22.4267 10.5013 24.5488 10.1923C26.7848 11.9892 28.0898 15.148 28.1426 17.4653C28.2483 21.8803 25.5123 25.7424 22.9267 27.6328C14.8448 33.5519 6.99049 30.4013 6.99049 30.4013C6.99049 30.4013 9.61672 34.1699 14.4423 35.422C19.9753 36.8571 27.3743 35.0968 29.1224 28.9418C29.5655 29.7346 29.2281 31.8811 29.2281 31.8811C29.2281 31.8811 32.4478 29.4581 33.9927 25.9456C34.9968 23.6528 35.3505 21.0916 34.5903 18.2296" fill="#26272B"/>
<path d="M7.58024 11.0664C7.41356 12.4445 7.33225 14.2089 7.85668 16.5424C8.0071 15.2456 8.53967 13.7007 9.34868 12.4608C11.1781 9.64755 14.5117 7.68397 17.7803 7.26524C22.0692 6.71642 26.4598 7.74089 29.9642 10.2736C32.3627 12.0095 34.0986 14.5666 34.0986 14.5666C34.0986 14.5666 34.5458 11.9933 33.3222 9.25727C31.6513 5.5212 28.09 2.39899 24.4027 2.25671C23.236 2.21199 21.8781 2.4925 21.248 2.62259C21.2765 2.02091 23.6628 0.939526 23.6628 0.939526C23.6628 0.939526 17.5485 -1.44278 12.7107 1.85423C10.9342 3.06571 8.38112 5.50087 7.62902 10.6964C7.6087 10.8143 7.58837 10.9322 7.57211 11.0623" fill="#26272B"/>
<path d="M19.6376 25.6082C21.0401 23.2544 21.0808 20.5997 20.2677 17.9287C19.6945 16.1806 18.6944 15.8391 16.7837 15.0952C17.1659 14.8634 17.9911 14.5992 18.5237 14.4488C17.0154 12.7373 14.7673 11.4892 12.6411 11.8388C11.8158 11.973 11.0312 12.2169 10.4051 13.2698C11.6776 13.0665 13.5843 13.6926 14.6006 14.5057C18.4505 17.5872 18.1659 23.1649 14.5599 25.783C13.5883 26.4904 11.9662 27.1165 10.7588 27.1531C8.98227 27.2018 7.50247 26.9335 6.26254 26.4579C6.47393 26.4945 9.01885 26.9091 11.7264 26.0635C10.4092 25.0594 9.36847 23.608 8.93755 22.9739C7.67728 21.1038 3.47776 14.0991 8.29928 4.66343C6.62842 5.04151 5.01447 5.74888 3.555 7.45227C1.63615 9.69229 1.11984 12.412 1.27433 14.2048C1.44101 16.1196 2.12806 17.449 2.26628 17.7702C1.40849 17.5994 0.229529 15.6806 0.229529 15.6806C0.229529 15.6806 0.0140648 17.0791 0.0140648 17.7051C0.0140648 17.7051 -0.709571 26.9091 8.31555 29.4744C12.5395 30.6737 17.4545 29.2467 19.6295 25.6041" fill="#26272B"/>
</svg>
