<svg width="155" height="124" viewBox="0 0 155 124" fill="none" xmlns="http://www.w3.org/2000/svg">
<g clip-path="url(#clip0_243_1775)">
<mask id="mask0_243_1775" style="mask-type:luminance" maskUnits="userSpaceOnUse" x="22" y="14" width="112" height="97">
<path d="M22 14.5H133.071V110.115H22V14.5Z" fill="white"/>
</mask>
<g mask="url(#mask0_243_1775)">
<path d="M77.4988 15.6035C51.9597 15.6035 31.254 36.3764 31.254 62.0013C31.254 87.624 51.9597 108.396 77.4988 108.396C103.041 108.396 123.744 87.624 123.744 62.0013C123.744 36.3764 103.041 15.6035 77.4988 15.6035Z" fill="#FC4E00"/>
</g>
<mask id="mask1_243_1775" style="mask-type:luminance" maskUnits="userSpaceOnUse" x="22" y="14" width="112" height="97">
<path d="M22 14.5H133.071V110.115H22V14.5Z" fill="white"/>
</mask>
<g mask="url(#mask1_243_1775)">
<path d="M77.4988 16.7071C52.6061 16.7071 32.3539 37.0249 32.3539 62.0013C32.3539 86.9748 52.6061 107.293 77.4988 107.293C102.391 107.293 122.644 86.9748 122.644 62.0013C122.644 37.0249 102.392 16.7071 77.4988 16.7071ZM77.4988 109.5C51.3943 109.5 30.154 88.1941 30.154 62.0013C30.154 35.8085 51.3943 14.5 77.4988 14.5C103.607 14.5 124.846 35.8092 124.846 62.0013C124.846 88.1934 103.607 109.5 77.4988 109.5Z" fill="white"/>
</g>
<mask id="mask2_243_1775" style="mask-type:luminance" maskUnits="userSpaceOnUse" x="22" y="14" width="112" height="97">
<path d="M22 14.5H133.071V110.115H22V14.5Z" fill="white"/>
</mask>
<g mask="url(#mask2_243_1775)">
<path d="M77.4988 15.6035C51.9597 15.6035 31.254 36.3764 31.254 62.0013C31.254 87.624 51.9597 108.396 77.4988 108.396C103.041 108.396 123.744 87.624 123.744 62.0013C123.744 36.3764 103.041 15.6035 77.4988 15.6035Z" fill="#FC4E00"/>
</g>
<mask id="mask3_243_1775" style="mask-type:luminance" maskUnits="userSpaceOnUse" x="22" y="14" width="112" height="97">
<path d="M22 14.5H133.071V110.115H22V14.5Z" fill="white"/>
</mask>
<g mask="url(#mask3_243_1775)">
<path d="M57.8686 94.128C58.333 94.4285 58.6805 94.4084 58.907 94.0604L59.1391 93.7067C59.3684 93.3535 59.2509 93.0259 58.7866 92.724L56.7737 91.4177L55.8557 92.8218L57.8686 94.128ZM57.4544 94.7599L55.4444 93.4508L54.5372 94.8383L56.5473 96.1438C57.0145 96.4472 57.3591 96.4249 57.5884 96.0799L57.807 95.7427C58.0363 95.389 57.9217 95.0626 57.4544 94.7599ZM58.6999 95.1244C58.8365 95.4868 58.7899 95.8436 58.5601 96.1949L58.2993 96.5932C58.0815 96.9275 57.7791 97.1244 57.4007 97.1805C57.0391 97.2313 56.6287 97.1067 56.1696 96.8067L53.3842 94.9986L56.4577 90.3005L59.2402 92.1115C59.7017 92.412 59.979 92.7348 60.0743 93.0885C60.1775 93.4594 60.1158 93.8131 59.8951 94.1532L59.6207 94.5687C59.3914 94.9224 59.0861 95.105 58.6999 95.1244Z" fill="#F3F3F4"/>
</g>
<mask id="mask4_243_1775" style="mask-type:luminance" maskUnits="userSpaceOnUse" x="22" y="14" width="112" height="97">
<path d="M22 14.5H133.071V110.115H22V14.5Z" fill="white"/>
</mask>
<g mask="url(#mask4_243_1775)">
<path d="M62.2155 97.7081L60.9528 97.1272C60.5472 96.9388 60.262 97.0201 60.1051 97.3659L60.0435 97.4917C59.8866 97.8317 60.0127 98.0985 60.4183 98.2839L61.6809 98.8655C62.0984 99.0587 62.3858 98.9837 62.5429 98.6405L62.5988 98.514C62.7613 98.1684 62.6335 97.8998 62.2155 97.7081ZM59.9116 98.8821C59.5395 98.71 59.2932 98.4704 59.1728 98.1632C59.0467 97.8511 59.0582 97.5341 59.2123 97.2056L59.3355 96.9331C59.4917 96.5988 59.7246 96.3803 60.0435 96.2731C60.3574 96.1591 60.7006 96.1881 61.0732 96.3601L63.1535 97.3177L63.1613 97.2983C63.352 96.8907 63.2201 96.5823 62.7722 96.3774L60.4634 95.3127L60.7737 94.6333L63.0718 95.6923C63.5509 95.9132 63.8607 96.2032 64.0012 96.5621C64.1502 96.9168 64.1213 97.3175 63.9145 97.7642L63.2903 99.115C63.1303 99.461 62.8876 99.6791 62.5623 99.7692C62.2656 99.854 61.9245 99.8059 61.5383 99.6319L59.9116 98.8821Z" fill="#F3F3F4"/>
</g>
<mask id="mask5_243_1775" style="mask-type:luminance" maskUnits="userSpaceOnUse" x="22" y="14" width="112" height="97">
<path d="M22 14.5H133.071V110.115H22V14.5Z" fill="white"/>
</mask>
<g mask="url(#mask5_243_1775)">
<path d="M67.4329 99.1152C67.8867 99.2556 68.1965 99.4279 68.3623 99.6321C68.5744 99.8899 68.6229 100.208 68.5078 100.587L68.4132 100.887C68.3 101.261 68.0833 101.496 67.7632 101.593C67.5146 101.662 67.1592 101.628 66.7027 101.488L64.032 100.671L64.2534 99.9412L66.9234 100.761C67.2922 100.873 67.5153 100.804 67.5927 100.553L67.6429 100.391C67.7188 100.135 67.5762 99.9491 67.2065 99.837L65.8234 99.4099C65.3756 99.2726 65.0682 99.1073 64.8998 98.9074C64.6924 98.6472 64.6459 98.3309 64.76 97.9585L64.8525 97.6522C64.97 97.2676 65.1857 97.0318 65.4988 96.9362C65.7511 96.86 66.1036 96.8909 66.5486 97.0289L69.1097 97.8125L68.8861 98.5422L66.3415 97.7615C65.9775 97.6493 65.7563 97.7224 65.678 97.9807L65.6278 98.1468C65.549 98.402 65.6923 98.5818 66.0506 98.691L67.4329 99.1152Z" fill="#F3F3F4"/>
</g>
<mask id="mask6_243_1775" style="mask-type:luminance" maskUnits="userSpaceOnUse" x="22" y="14" width="112" height="97">
<path d="M22 14.5H133.071V110.115H22V14.5Z" fill="white"/>
</mask>
<g mask="url(#mask6_243_1775)">
<path d="M71.1305 100.272L72.5078 100.5C72.9549 100.573 73.2088 100.424 73.2695 100.053L73.2917 99.9152C73.3538 99.5394 73.1608 99.3149 72.7127 99.2416L71.3354 99.0144C70.8902 98.9411 70.6382 99.0925 70.5794 99.4688L70.5572 99.6068C70.4965 99.9773 70.6876 100.199 71.1305 100.272ZM74.1681 99.9857L74.1201 100.275C74.0637 100.633 73.8939 100.904 73.6106 101.089C73.3392 101.278 73.0015 101.339 72.5973 101.272L70.3472 100.902L70.3415 100.93C70.2713 101.37 70.4784 101.629 70.9628 101.707L73.6192 102.145L73.4988 102.889L70.851 102.454C70.3365 102.37 69.9605 102.174 69.7231 101.867C69.49 101.567 69.4123 101.176 69.4902 100.694L69.726 99.256C69.7847 98.8936 69.9526 98.6183 70.2297 98.4299C70.502 98.2392 70.8424 98.1774 71.2509 98.2445L73.0316 98.537C73.4405 98.6041 73.7446 98.7726 73.9438 99.0424C74.153 99.3089 74.2278 99.6233 74.1681 99.9857Z" fill="#F3F3F4"/>
</g>
<mask id="mask7_243_1775" style="mask-type:luminance" maskUnits="userSpaceOnUse" x="22" y="14" width="112" height="97">
<path d="M22 14.5H133.071V110.115H22V14.5Z" fill="white"/>
</mask>
<g mask="url(#mask7_243_1775)">
<path d="M75.8363 101.3C75.8301 101.612 75.8841 101.851 75.9983 102.016C76.1416 102.211 76.3656 102.311 76.6704 102.316L77.703 102.342C78.0078 102.351 78.2383 102.26 78.3945 102.072C78.5139 101.915 78.5775 101.68 78.5851 101.368L78.5987 100.68C78.6045 100.36 78.5514 100.121 78.4368 99.9549C78.2882 99.7564 78.0615 99.6536 77.7567 99.6465L75.8729 99.6012L75.8363 101.3ZM74.9599 101.323L75.0387 97.4106L75.9115 97.4301L75.8865 98.837L77.8377 98.8851C78.3527 98.9072 78.7557 99.0708 79.0466 99.3761C79.3433 99.6766 79.4866 100.101 79.4751 100.654L79.4615 101.432C79.45 101.98 79.2905 102.396 78.9828 102.682C78.6776 102.971 78.2662 103.114 77.7453 103.106L76.5973 103.081C76.0766 103.061 75.6708 102.899 75.3798 102.595C75.0889 102.294 74.9489 101.87 74.9599 101.323Z" fill="#F3F3F4"/>
</g>
<mask id="mask8_243_1775" style="mask-type:luminance" maskUnits="userSpaceOnUse" x="22" y="14" width="112" height="97">
<path d="M22 14.5H133.071V110.115H22V14.5Z" fill="white"/>
</mask>
<g mask="url(#mask8_243_1775)">
<path d="M83.3153 100.733L81.9359 100.896C81.4906 100.948 81.2919 101.164 81.3397 101.541L81.3562 101.682C81.4034 102.052 81.6471 102.216 82.0921 102.162L83.4694 102.002C83.9256 101.949 84.1301 101.735 84.0828 101.359L84.0656 101.221C84.0211 100.843 83.7689 100.679 83.3153 100.733ZM81.9746 102.937C81.5685 102.985 81.2327 102.909 80.967 102.71C80.6981 102.51 80.5414 102.23 80.497 101.87L80.4604 101.572C80.416 101.207 80.4998 100.899 80.7127 100.64C80.9226 100.379 81.2272 100.224 81.6335 100.177L83.9036 99.913L83.9007 99.89C83.8477 99.4443 83.5761 99.2497 83.086 99.3062L80.5615 99.6039L80.4719 98.8598L82.9799 98.5651C83.5026 98.5037 83.9177 98.5897 84.2254 98.8231C84.5378 99.0484 84.7243 99.4059 84.785 99.8958L84.967 101.376C85.0122 101.752 84.9226 102.067 84.6954 102.313C84.4862 102.541 84.1719 102.679 83.7524 102.73L81.9746 102.937Z" fill="#F3F3F4"/>
</g>
<mask id="mask9_243_1775" style="mask-type:luminance" maskUnits="userSpaceOnUse" x="22" y="14" width="112" height="97">
<path d="M22 14.5H133.071V110.115H22V14.5Z" fill="white"/>
</mask>
<g mask="url(#mask9_243_1775)">
<path d="M86.2991 102.288L85.0759 96.7843L85.9437 96.5959L87.1669 102.101L86.2991 102.288Z" fill="#F3F3F4"/>
</g>
<mask id="mask10_243_1775" style="mask-type:luminance" maskUnits="userSpaceOnUse" x="22" y="14" width="112" height="97">
<path d="M22 14.5H133.071V110.115H22V14.5Z" fill="white"/>
</mask>
<g mask="url(#mask10_243_1775)">
<path d="M88.2619 101.833L86.7614 96.3968L87.6234 96.1667L89.1211 101.603L88.2619 101.833Z" fill="#F3F3F4"/>
</g>
<mask id="mask11_243_1775" style="mask-type:luminance" maskUnits="userSpaceOnUse" x="22" y="14" width="112" height="97">
<path d="M22 14.5H133.071V110.115H22V14.5Z" fill="white"/>
</mask>
<g mask="url(#mask11_243_1775)">
<path d="M91.6714 98.6571L91.0752 97.3602C90.8115 96.793 90.7728 96.2423 90.9655 95.7175C91.1339 95.2258 91.5281 94.8411 92.1472 94.5572L94.8702 93.325L95.1898 94.018L92.5026 95.2373C92.1247 95.4084 91.8811 95.6696 91.7717 96.0209C91.6793 96.335 91.7215 96.6722 91.8921 97.0317L92.4546 98.2502C92.617 98.6087 92.8475 98.8577 93.1461 98.9972C93.4853 99.1438 93.8436 99.1316 94.221 98.9605L96.9082 97.7448L97.2271 98.4357L94.5069 99.6715C93.8878 99.9524 93.3362 99.9972 92.8523 99.8059C92.3244 99.5999 91.9308 99.2169 91.6714 98.6571Z" fill="#F3F3F4"/>
</g>
<mask id="mask12_243_1775" style="mask-type:luminance" maskUnits="userSpaceOnUse" x="22" y="14" width="112" height="97">
<path d="M22 14.5H133.071V110.115H22V14.5Z" fill="white"/>
</mask>
<g mask="url(#mask12_243_1775)">
<path d="M98.3019 97.7478L95.4721 92.8585L96.2418 92.4207L99.0723 97.3071L98.3019 97.7478Z" fill="#F3F3F4"/>
</g>
<mask id="mask13_243_1775" style="mask-type:luminance" maskUnits="userSpaceOnUse" x="22" y="14" width="112" height="97">
<path d="M22 14.5H133.071V110.115H22V14.5Z" fill="white"/>
</mask>
<g mask="url(#mask13_243_1775)">
<path d="M101.482 95.7342C101.043 96.0462 100.606 96.1669 100.164 96.0907C99.728 96.0184 99.3436 95.7536 99.0107 95.2963L97.5717 93.3222L98.2797 92.8111L99.6907 94.7457C99.8978 95.0296 100.099 95.2036 100.298 95.2597C100.561 95.3239 100.819 95.2659 101.071 95.0857L101.676 94.65C101.935 94.465 102.073 94.2395 102.09 93.9735C102.103 93.7629 102.008 93.5127 101.798 93.2295L100.391 91.297L101.102 90.7859L102.541 92.76C102.87 93.218 103.005 93.6644 102.938 94.1001C102.873 94.5372 102.619 94.9144 102.177 95.2316L101.482 95.7342Z" fill="#F3F3F4"/>
</g>
<mask id="mask14_243_1775" style="mask-type:luminance" maskUnits="userSpaceOnUse" x="22" y="14" width="112" height="97">
<path d="M22 14.5H133.071V110.115H22V14.5Z" fill="white"/>
</mask>
<g mask="url(#mask14_243_1775)">
<path d="M103.974 91.5327C104.191 91.758 104.399 91.889 104.598 91.9259C104.833 91.9624 105.062 91.8754 105.284 91.665L106.025 90.9547C106.244 90.7405 106.341 90.5138 106.316 90.2746C106.289 90.0757 106.165 89.8644 105.944 89.6405L105.463 89.143C105.241 88.913 105.032 88.78 104.836 88.7441C104.59 88.7091 104.356 88.7973 104.136 89.0086L102.781 90.3055L103.974 91.5327ZM103.375 92.1675L100.637 89.3451L101.266 88.7419L102.249 89.7584L103.651 88.4126C104.03 88.0652 104.429 87.8957 104.849 87.9044C105.272 87.9077 105.677 88.109 106.064 88.5082L106.607 89.0676C106.989 89.463 107.175 89.8701 107.165 90.289C107.159 90.7074 106.971 91.1006 106.599 91.463L105.776 92.2516C105.399 92.6087 104.998 92.7819 104.575 92.7714C104.158 92.7656 103.755 92.5636 103.375 92.1675Z" fill="#F3F3F4"/>
</g>
<mask id="mask15_243_1775" style="mask-type:luminance" maskUnits="userSpaceOnUse" x="22" y="14" width="112" height="97">
<path d="M22 14.5H133.071V110.115H22V14.5Z" fill="white"/>
</mask>
<g mask="url(#mask15_243_1775)">
<path d="M61.4652 23.4556L63.9424 28.516L63.1506 28.9063L61.8436 26.2356L58.8568 27.7101L60.161 30.378L59.3713 30.7683L56.8941 25.705L57.6838 25.3175L58.515 27.0135L61.5075 25.5418L60.6762 23.8459L61.4652 23.4556Z" fill="#F3F3F4"/>
</g>
<mask id="mask16_243_1775" style="mask-type:luminance" maskUnits="userSpaceOnUse" x="22" y="14" width="112" height="97">
<path d="M22 14.5H133.071V110.115H22V14.5Z" fill="white"/>
</mask>
<g mask="url(#mask16_243_1775)">
<path d="M66.6296 25.4972L65.3003 25.9213C64.8718 26.0584 64.7151 26.3093 64.8303 26.674L64.8747 26.8056C64.9865 27.1679 65.2581 27.2772 65.6894 27.1428L67.0158 26.7157C67.4553 26.5777 67.6178 26.3287 67.5031 25.9688L67.4608 25.8344C67.3433 25.4691 67.0696 25.357 66.6296 25.4972ZM65.7145 27.9293C65.3228 28.0553 64.9776 28.044 64.6791 27.8955C64.3767 27.7495 64.1724 27.5051 64.0599 27.1593L63.9704 26.8703C63.8595 26.5204 63.8858 26.1984 64.0492 25.9041C64.2054 25.6069 64.4796 25.3953 64.8718 25.2693L67.061 24.5734L67.0524 24.5504C66.9158 24.1209 66.6126 23.9815 66.143 24.132L63.7102 24.9077L63.4809 24.1909L65.9023 23.4188C66.4063 23.2583 66.8307 23.265 67.1756 23.4389C67.5253 23.5985 67.7776 23.9163 67.9259 24.3879L68.3766 25.8113C68.4913 26.1766 68.4605 26.5022 68.2785 26.7919C68.116 27.0555 67.8325 27.252 67.4279 27.3814L65.7145 27.9293Z" fill="#F3F3F4"/>
</g>
<mask id="mask17_243_1775" style="mask-type:luminance" maskUnits="userSpaceOnUse" x="22" y="14" width="112" height="97">
<path d="M22 14.5H133.071V110.115H22V14.5Z" fill="white"/>
</mask>
<g mask="url(#mask17_243_1775)">
<path d="M70.3609 22.3434L71.215 22.1975C71.7549 22.1045 72.2063 22.1888 72.5694 22.4505C72.9301 22.7132 73.1587 23.1248 73.2552 23.6856L73.6615 26.081L72.7937 26.2269L72.3931 23.8768C72.3348 23.5294 72.2247 23.2868 72.0628 23.1493C71.8557 22.9724 71.5984 22.9077 71.2795 22.9638L70.54 23.0875C70.2319 23.1416 70.009 23.2868 69.8714 23.5231C69.7735 23.7052 69.7539 23.97 69.8127 24.3175L70.2097 26.6684L69.3419 26.8172L68.9363 24.4246C68.8412 23.8634 68.9215 23.399 69.1771 23.0314C69.4317 22.6628 69.8263 22.4335 70.3609 22.3434Z" fill="#F3F3F4"/>
</g>
<mask id="mask18_243_1775" style="mask-type:luminance" maskUnits="userSpaceOnUse" x="22" y="14" width="112" height="97">
<path d="M22 14.5H133.071V110.115H22V14.5Z" fill="white"/>
</mask>
<g mask="url(#mask18_243_1775)">
<path d="M77.4343 25.3708C77.1209 25.7489 76.7318 25.9389 76.267 25.9408H75.7245C75.2372 25.9432 74.8481 25.7896 74.5572 25.48C74.2835 25.1905 74.1454 24.7815 74.143 24.2528L74.1373 21.7057L75.0108 21.7036L75.0158 24.2586C75.0158 24.5668 75.0832 24.7925 75.2179 24.9358C75.3693 25.0964 75.5671 25.1769 75.8112 25.1774L76.1946 25.1745C76.443 25.1745 76.6427 25.093 76.7936 24.9301C76.9303 24.7887 76.9983 24.5629 76.9979 24.2528L76.9921 21.7007L77.8571 21.6978L77.8628 24.25C77.8657 24.5591 77.9301 24.787 78.0613 24.9272C78.2156 25.0877 78.4143 25.1683 78.6575 25.1687H79.0387C79.2902 25.1659 79.4894 25.0875 79.6406 24.9243C79.7773 24.782 79.8453 24.5555 79.8449 24.2449L79.8391 21.6921L80.7126 21.6892L80.7177 24.2363C80.7177 24.7669 80.5779 25.1774 80.2927 25.4664C80.0061 25.7779 79.616 25.9332 79.1225 25.9322L78.588 25.9351C78.1322 25.9351 77.7477 25.747 77.4343 25.3708Z" fill="#F3F3F4"/>
</g>
<mask id="mask19_243_1775" style="mask-type:luminance" maskUnits="userSpaceOnUse" x="22" y="14" width="112" height="97">
<path d="M22 14.5H133.071V110.115H22V14.5Z" fill="white"/>
</mask>
<g mask="url(#mask19_243_1775)">
<path d="M83.5897 22.9357C83.2802 22.883 83.0208 22.9467 82.8115 23.1269C82.661 23.2649 82.5567 23.5084 82.4984 23.8573L82.1064 26.2103L81.2386 26.0644L82.168 20.4871L83.0358 20.6359L82.7614 22.2815C83.044 22.1546 83.3582 22.1165 83.6628 22.1722L84.5163 22.3153C85.0561 22.4063 85.4545 22.6347 85.7115 23.0004C85.9676 23.368 86.0498 23.8324 85.958 24.3936L85.5575 26.7862L84.6897 26.6431L85.0817 24.2894C85.1404 23.9414 85.1125 23.6776 85.0064 23.495C84.8717 23.2587 84.645 23.1135 84.3264 23.0593L83.5897 22.9357Z" fill="#F3F3F4"/>
</g>
<mask id="mask20_243_1775" style="mask-type:luminance" maskUnits="userSpaceOnUse" x="22" y="14" width="112" height="97">
<path d="M22 14.5H133.071V110.115H22V14.5Z" fill="white"/>
</mask>
<g mask="url(#mask20_243_1775)">
<path d="M89.4629 25.8394L88.1329 25.421C87.7029 25.2839 87.4304 25.3982 87.3153 25.7639L87.2737 25.8983C87.1619 26.2578 87.3181 26.5051 87.7495 26.6431L89.0788 27.0615C89.5164 27.2015 89.7918 27.09 89.905 26.7272L89.9466 26.5949C90.0641 26.2297 89.8993 25.9774 89.4629 25.8394ZM87.3181 27.3002C86.9269 27.1765 86.6517 26.9688 86.4926 26.6769C86.3278 26.3814 86.2992 26.0644 86.4088 25.7164L86.4984 25.4296C86.6073 25.0788 86.8172 24.8286 87.1168 24.6826C87.4173 24.5312 87.7624 24.517 88.1522 24.6402L90.3443 25.3311L90.35 25.3117C90.4871 24.8799 90.3192 24.5897 89.8463 24.4411L87.4106 23.6747L87.6377 22.9558L90.0591 23.7193C90.5626 23.8794 90.9068 24.1303 91.0917 24.472C91.2852 24.8056 91.3076 25.2091 91.159 25.6826L90.7112 27.1061C90.5965 27.4713 90.3808 27.7215 90.0698 27.853C89.7846 27.9743 89.4395 27.9707 89.0344 27.8422L87.3181 27.3002Z" fill="#F3F3F4"/>
</g>
<mask id="mask21_243_1775" style="mask-type:luminance" maskUnits="userSpaceOnUse" x="22" y="14" width="112" height="97">
<path d="M22 14.5H133.071V110.115H22V14.5Z" fill="white"/>
</mask>
<g mask="url(#mask21_243_1775)">
<path d="M108.808 62.0014C108.808 79.348 94.7921 93.4121 77.4988 93.4121C60.2083 93.4121 46.1933 79.348 46.1933 62.0014C46.1933 44.652 60.2083 30.5886 77.4988 30.5886C94.7921 30.5886 108.808 44.652 108.808 62.0014Z" fill="white"/>
</g>
<mask id="mask22_243_1775" style="mask-type:luminance" maskUnits="userSpaceOnUse" x="22" y="14" width="112" height="97">
<path d="M22 14.5H133.071V110.115H22V14.5Z" fill="white"/>
</mask>
<g mask="url(#mask22_243_1775)">
<path d="M107.587 65.7979C107.558 65.7604 107.522 65.7291 107.481 65.7058C107.448 65.6882 107.412 65.6793 107.375 65.68C107.159 65.6972 107.103 65.9891 107.058 66.1523C106.777 67.1816 106.475 68.2049 106.151 69.2213L106.134 69.2774L106.156 69.3284C106.366 69.8784 106.523 70.4485 106.621 71.0272C106.641 71.1509 106.725 71.3249 106.882 71.2882C106.921 71.277 106.957 71.2556 106.986 71.2264C107.206 71.0301 107.282 70.6563 107.246 70.3759C107.183 69.8813 107.07 69.3947 106.907 68.9237C107.162 68.1207 107.403 67.3004 107.618 66.5002C107.654 66.3629 107.688 66.2364 107.674 66.0933C107.663 65.9891 107.643 65.8798 107.587 65.7979Z" fill="#EBBC95"/>
</g>
<mask id="mask23_243_1775" style="mask-type:luminance" maskUnits="userSpaceOnUse" x="22" y="14" width="112" height="97">
<path d="M22 14.5H133.071V110.115H22V14.5Z" fill="white"/>
</mask>
<g mask="url(#mask23_243_1775)">
<path d="M105.507 67.0251C105.177 66.8174 104.995 67.3091 104.925 67.5392C104.587 68.6251 104.234 69.7065 103.867 70.7829L103.842 70.8613L103.889 70.9288C104.247 71.4342 104.578 71.9734 104.861 72.5241C104.975 72.7462 105.194 72.8073 105.359 72.5917C105.516 72.3868 105.658 71.9935 105.544 71.7405C105.338 71.2765 105.097 70.8287 104.824 70.4012C105.109 69.5557 105.39 68.6794 105.65 67.8174C105.711 67.6182 105.745 67.4464 105.673 67.2444C105.641 67.1561 105.583 67.0796 105.507 67.0251Z" fill="#EBBC95"/>
</g>
<mask id="mask24_243_1775" style="mask-type:luminance" maskUnits="userSpaceOnUse" x="22" y="14" width="112" height="97">
<path d="M22 14.5H133.071V110.115H22V14.5Z" fill="white"/>
</mask>
<g mask="url(#mask24_243_1775)">
<path d="M102.078 72.2177C102.378 71.319 102.675 70.4175 102.955 69.5361C103.052 69.2356 103.072 68.91 102.736 68.7583C102.679 68.7312 102.617 68.7196 102.554 68.7245C102.28 68.7583 102.134 69.112 102.067 69.3363C101.726 70.4727 101.361 71.6019 100.973 72.7231L100.936 72.8273L101.018 72.897C101.524 73.3356 102.011 73.8129 102.459 74.3126C102.51 74.3748 102.577 74.4224 102.652 74.4506C102.652 74.4506 102.786 74.4671 102.814 74.4585C103.195 74.3521 103.419 73.7231 103.168 73.406C102.834 72.984 102.47 72.5869 102.078 72.2177Z" fill="#EBBC95"/>
</g>
<mask id="mask25_243_1775" style="mask-type:luminance" maskUnits="userSpaceOnUse" x="22" y="14" width="112" height="97">
<path d="M22 14.5H133.071V110.115H22V14.5Z" fill="white"/>
</mask>
<g mask="url(#mask25_243_1775)">
<path d="M100.259 75.3631C99.7927 75.0047 99.3068 74.6728 98.8036 74.3688C99.0773 73.4594 99.3575 72.5521 99.6348 71.6621C99.6936 71.4766 99.7408 71.2775 99.6291 71.0978C99.528 70.9346 99.3209 70.867 99.1389 70.9065C98.8064 70.977 98.6911 71.2574 98.6043 71.5492C98.2713 72.6899 97.9335 73.8291 97.5911 74.9669L97.5553 75.0906L97.6671 75.1524C98.3213 75.5264 98.961 75.9254 99.5846 76.3487C99.7831 76.4838 100.021 76.4838 100.194 76.3099C100.432 76.0712 100.564 75.5989 100.259 75.3631Z" fill="#EBBC95"/>
</g>
<mask id="mask26_243_1775" style="mask-type:luminance" maskUnits="userSpaceOnUse" x="22" y="14" width="112" height="97">
<path d="M22 14.5H133.071V110.115H22V14.5Z" fill="white"/>
</mask>
<g mask="url(#mask26_243_1775)">
<path d="M96.9505 77.5903C96.3672 77.3041 95.7714 77.0445 95.1647 76.8124C95.4105 75.9166 95.6434 75.0036 95.8555 74.1194C95.8949 73.959 95.9401 73.7764 95.8419 73.6276C95.7953 73.5613 95.7348 73.5061 95.6646 73.4658C95.5944 73.4256 95.5162 73.4013 95.4356 73.3947C95.0329 73.3667 94.8064 73.7678 94.719 74.1021C94.4252 75.2361 94.1445 76.3735 93.877 77.5141L93.8462 77.6521L93.9774 77.6995C94.7592 77.9916 95.5348 78.3006 96.3034 78.6262C96.3978 78.6737 96.504 78.6926 96.609 78.6806C96.714 78.6686 96.8132 78.6262 96.8946 78.5586C97.0061 78.4613 97.0908 78.3368 97.1404 78.197C97.2299 77.972 97.1991 77.6967 96.9505 77.5903Z" fill="#EBBC95"/>
</g>
<mask id="mask27_243_1775" style="mask-type:luminance" maskUnits="userSpaceOnUse" x="22" y="14" width="112" height="97">
<path d="M22 14.5H133.071V110.115H22V14.5Z" fill="white"/>
</mask>
<g mask="url(#mask27_243_1775)">
<path d="M93.642 80.148C93.5829 80.0792 93.5049 80.0294 93.4177 80.0049C92.7405 79.7749 92.0433 79.5808 91.3439 79.432C91.4865 78.5894 91.6484 77.7303 91.8226 76.877C91.9064 76.5455 91.7244 76.2307 91.3604 76.2249C90.9182 76.2199 90.6832 76.5592 90.6044 76.9467C90.4768 77.5779 90.3555 78.2137 90.2404 78.854C90.1652 79.3071 90.0945 79.761 90.0282 80.2156L90.0082 80.3673L90.1536 80.3953C91.058 80.575 91.9709 80.7914 92.8609 81.0359C92.9412 81.0613 93.0176 81.0742 93.0902 81.0747C93.3396 81.0747 93.5746 80.9007 93.6807 80.6793C93.7702 80.4967 93.7566 80.2889 93.642 80.148Z" fill="#EBBC95"/>
</g>
<mask id="mask28_243_1775" style="mask-type:luminance" maskUnits="userSpaceOnUse" x="22" y="14" width="112" height="97">
<path d="M22 14.5H133.071V110.115H22V14.5Z" fill="white"/>
</mask>
<g mask="url(#mask28_243_1775)">
<path d="M90.0533 82.6534L90.0197 82.6253C89.9418 82.5742 89.8537 82.5406 89.7617 82.5269C88.9983 82.379 88.2302 82.2572 87.4586 82.1616C87.5197 81.3763 87.601 80.5927 87.7022 79.8115C87.7631 79.337 87.3353 79.1063 86.9097 79.2608C86.613 79.3701 86.4367 79.6541 86.4281 79.9654C86.3056 80.9687 86.2301 81.9772 86.2017 82.9877L86.1988 83.1365L86.3443 83.1501C87.3325 83.24 88.3206 83.3752 89.278 83.5463C89.3477 83.5654 89.4149 83.5748 89.4793 83.5743C89.6078 83.5719 89.7332 83.535 89.8425 83.4673C89.9518 83.3997 90.0409 83.3038 90.1006 83.1897C90.1425 83.1045 90.1603 83.0095 90.152 82.9149C90.1436 82.8203 90.1095 82.7298 90.0533 82.6534Z" fill="#EBBC95"/>
</g>
<mask id="mask29_243_1775" style="mask-type:luminance" maskUnits="userSpaceOnUse" x="22" y="14" width="112" height="97">
<path d="M22 14.5H133.071V110.115H22V14.5Z" fill="white"/>
</mask>
<g mask="url(#mask29_243_1775)">
<path d="M86.5965 85.223C86.5177 85.0993 86.3636 85.0289 86.2046 85.0289C85.389 84.9402 84.5714 84.8718 83.7524 84.824C83.7333 84.1156 83.7183 83.4118 83.7073 82.7125C83.7044 82.5414 83.6657 82.3725 83.503 82.2826C83.3965 82.2297 83.2775 82.2073 83.1591 82.2179C82.742 82.2431 82.4339 82.5299 82.4425 82.9598C82.4504 83.8441 82.4898 84.737 82.56 85.6162L82.5708 85.7535L82.7084 85.7621C83.7495 85.8326 84.7907 85.9081 85.8183 85.9843C85.8661 85.992 85.9127 85.9956 85.9581 85.9951C86.2691 85.9951 86.6102 85.7931 86.6467 85.4559C86.6581 85.3747 86.6403 85.2922 86.5965 85.223Z" fill="#EBBC95"/>
</g>
<mask id="mask30_243_1775" style="mask-type:luminance" maskUnits="userSpaceOnUse" x="22" y="14" width="112" height="97">
<path d="M22 14.5H133.071V110.115H22V14.5Z" fill="white"/>
</mask>
<g mask="url(#mask30_243_1775)">
<path d="M83.2121 87.45C83.1111 87.3795 82.9771 87.3573 82.8567 87.3573C82.0254 87.34 81.1799 87.3177 80.3486 87.2868C80.2225 86.6829 80.1215 86.079 80.0434 85.4953C80.0126 85.2818 79.895 85.1272 79.6851 85.0769C79.4649 85.0285 79.2346 85.0666 79.0416 85.1833C78.8338 85.3098 78.7643 85.5319 78.7951 85.7649C78.9222 86.5366 79.0884 87.3013 79.2931 88.056L79.3239 88.1718L79.4414 88.1739C80.4884 88.1883 81.5324 88.2027 82.5629 88.2135C82.5987 88.2192 82.641 88.2221 82.6775 88.2221C82.9097 88.2221 83.1813 88.1409 83.3074 87.9274C83.3377 87.8783 83.3563 87.8228 83.3616 87.7653C83.367 87.7078 83.359 87.6498 83.3382 87.5959C83.3102 87.5367 83.2666 87.4862 83.2121 87.45Z" fill="#EBBC95"/>
</g>
<mask id="mask31_243_1775" style="mask-type:luminance" maskUnits="userSpaceOnUse" x="22" y="14" width="112" height="97">
<path d="M22 14.5H133.071V110.115H22V14.5Z" fill="white"/>
</mask>
<g mask="url(#mask31_243_1775)">
<path d="M80.234 89.4939C80.1243 89.4213 79.9703 89.4156 79.8449 89.4127L77.3476 89.3624C77.1439 88.8862 76.96 88.4017 76.7965 87.9102C76.7741 87.8333 76.7322 87.7636 76.6747 87.708C76.6173 87.6524 76.5464 87.6128 76.469 87.5931C76.3728 87.5705 76.2734 87.5646 76.1752 87.5759C76.0348 87.5845 75.8922 87.6125 75.7775 87.6916C75.6041 87.8124 75.5762 88.0252 75.6485 88.2164C75.8614 88.8426 76.1215 89.4608 76.4267 90.0475L76.469 90.1287L76.5615 90.1316C77.23 90.1568 77.9022 90.1711 78.5679 90.1711C78.9319 90.1711 79.296 90.1654 79.6514 90.1596C79.8219 90.1539 80.0211 90.1539 80.1752 90.064C80.2218 90.038 80.2627 90.0027 80.2954 89.9603C80.328 89.9179 80.3517 89.8693 80.3651 89.8174C80.3773 89.7565 80.3714 89.6934 80.3481 89.6359C80.3247 89.5783 80.2851 89.529 80.234 89.4939Z" fill="#EBBC95"/>
</g>
<mask id="mask32_243_1775" style="mask-type:luminance" maskUnits="userSpaceOnUse" x="22" y="14" width="112" height="97">
<path d="M22 14.5H133.071V110.115H22V14.5Z" fill="white"/>
</mask>
<g mask="url(#mask32_243_1775)">
<path d="M77.7173 91.1763C77.6056 91.0476 77.3562 91.0195 77.2136 91.0167C76.4103 90.9937 75.6041 90.9714 74.8008 90.9433C74.5173 90.5898 74.2634 90.2132 74.042 89.8175C73.913 89.5839 73.5798 89.5616 73.3562 89.5839C73.26 89.5888 73.1666 89.618 73.0846 89.6687C72.922 89.7751 72.8969 89.9858 73.0123 90.1432C73.3225 90.6313 73.678 91.1037 74.0642 91.5357L74.1093 91.5868L74.176 91.5889C75.1319 91.626 76.0885 91.6449 77.0452 91.6457H77.0875C77.121 91.6498 77.1548 91.6515 77.1885 91.6508C77.3619 91.6508 77.5497 91.6227 77.6837 91.5077C77.7284 91.4729 77.7591 91.4231 77.7704 91.3675C77.7763 91.3337 77.7747 91.2989 77.7655 91.2659C77.7563 91.2328 77.7399 91.2022 77.7173 91.1763Z" fill="#EBBC95"/>
</g>
<mask id="mask33_243_1775" style="mask-type:luminance" maskUnits="userSpaceOnUse" x="22" y="14" width="112" height="97">
<path d="M22 14.5H133.071V110.115H22V14.5Z" fill="white"/>
</mask>
<g mask="url(#mask33_243_1775)">
<path d="M75.4415 92.1675C75.3125 92.0892 75.1004 92.0748 74.985 92.0806C74.2404 92.0481 73.4966 91.9985 72.7543 91.9317C72.4321 91.6812 72.1176 91.4208 71.8112 91.151C71.6264 90.9857 71.3884 90.9432 71.1505 90.949C71.0639 90.948 70.979 90.9733 70.9069 91.0216C70.77 91.1287 70.7951 91.348 70.9435 91.4321C71.3213 91.775 71.732 92.0796 72.1695 92.3415L72.2312 92.3616C73.1298 92.468 74.0448 92.5414 74.9492 92.5831C74.9998 92.5888 75.0519 92.5917 75.1054 92.5917C75.2566 92.5917 75.5224 92.5752 75.5482 92.3782C75.559 92.2797 75.5145 92.2128 75.4415 92.1675Z" fill="#EBBC95"/>
</g>
<mask id="mask34_243_1775" style="mask-type:luminance" maskUnits="userSpaceOnUse" x="22" y="14" width="112" height="97">
<path d="M22 14.5H133.071V110.115H22V14.5Z" fill="white"/>
</mask>
<g mask="url(#mask34_243_1775)">
<path d="M57.5354 48.6425C57.0682 48.1565 56.343 48.9603 56.7737 49.4038C57.1657 49.8639 57.5856 50.3104 58.0249 50.7374C57.6663 51.4786 57.3063 52.219 56.945 52.9588C56.8102 53.2342 56.8131 53.5455 57.1012 53.7202C57.4545 53.9251 57.7483 53.6468 57.8937 53.3377C58.3469 52.3844 58.791 51.4268 59.2258 50.4649L59.2767 50.3614L59.1893 50.2823C58.6241 49.7501 58.0726 49.2033 57.5354 48.6425Z" fill="#EBBC95"/>
</g>
<mask id="mask35_243_1775" style="mask-type:luminance" maskUnits="userSpaceOnUse" x="22" y="14" width="112" height="97">
<path d="M22 14.5H133.071V110.115H22V14.5Z" fill="white"/>
</mask>
<g mask="url(#mask35_243_1775)">
<path d="M60.7207 47.3369C60.3624 47.0701 59.9088 47.2269 59.8084 47.6791C59.7382 47.9824 59.9288 48.1456 60.1388 48.3139L60.6282 48.7042C60.7149 48.7718 61.6164 49.4008 61.6028 49.4375C61.2892 50.2336 60.9588 51.0229 60.6117 51.8049C60.4799 52.0968 60.5723 52.4591 60.8862 52.5827C61.2753 52.7316 61.544 52.4282 61.6837 52.0996C62.1132 51.0943 62.5219 50.0802 62.9098 49.0579L62.9514 48.9429L62.8511 48.8724C62.1345 48.3699 61.415 47.8538 60.7207 47.3369Z" fill="#EBBC95"/>
</g>
<mask id="mask36_243_1775" style="mask-type:luminance" maskUnits="userSpaceOnUse" x="22" y="14" width="112" height="97">
<path d="M22 14.5H133.071V110.115H22V14.5Z" fill="white"/>
</mask>
<g mask="url(#mask36_243_1775)">
<path d="M64.2197 45.815C63.9567 45.6683 63.6457 45.6741 63.4387 45.9077C63.223 46.1485 63.2151 46.5648 63.5282 46.7244C64.1745 47.1123 64.8287 47.487 65.4902 47.848C65.2273 48.6734 64.9614 49.5023 64.6984 50.3189C64.6571 50.4223 64.6381 50.5333 64.6425 50.6446C64.6482 50.9372 64.9506 51.0774 65.2079 51.086C65.5662 51.0997 65.7762 50.8416 65.8822 50.521C66.2269 49.4879 66.5486 48.4239 66.8396 47.3592L66.8732 47.2355L66.7615 47.1737C65.911 46.7269 65.0637 46.274 64.2197 45.815Z" fill="#EBBC95"/>
</g>
<mask id="mask37_243_1775" style="mask-type:luminance" maskUnits="userSpaceOnUse" x="22" y="14" width="112" height="97">
<path d="M22 14.5H133.071V110.115H22V14.5Z" fill="white"/>
</mask>
<g mask="url(#mask37_243_1775)">
<path d="M70.9155 45.1888L70.7951 45.1406C69.8272 44.7628 68.8605 44.3818 67.8951 43.9976C67.5175 43.8487 67.0101 43.9918 66.9571 44.4584C66.9069 44.9444 67.6207 45.1097 67.9567 45.2556C68.4803 45.4891 69.0111 45.7071 69.549 45.9099C69.3893 46.7482 69.2139 47.5835 69.023 48.4153C69.0031 48.4932 68.9995 48.5745 69.0123 48.654C69.0251 48.7334 69.0541 48.8094 69.0975 48.8771C69.1408 48.9448 69.1976 49.0029 69.2644 49.0476C69.3311 49.0923 69.4063 49.1228 69.4852 49.137C69.8908 49.2125 70.2068 48.8955 70.2799 48.5159C70.4956 47.6036 70.6805 46.6654 70.8259 45.733L70.9155 45.1888Z" fill="#EBBC95"/>
</g>
<mask id="mask38_243_1775" style="mask-type:luminance" maskUnits="userSpaceOnUse" x="22" y="14" width="112" height="97">
<path d="M22 14.5H133.071V110.115H22V14.5Z" fill="white"/>
</mask>
<g mask="url(#mask38_243_1775)">
<path d="M70.7442 42.8438C70.8087 42.9056 70.8926 42.9502 70.9879 42.9754C71.7969 43.2759 72.6253 43.5455 73.4572 43.7791C73.4268 44.5914 73.3678 45.4024 73.2802 46.2105C73.2444 46.5476 73.4766 46.8172 73.8041 46.8625C74.224 46.9215 74.5321 46.6238 74.5708 46.2133C74.6718 45.1831 74.7163 44.1328 74.7055 43.0933L74.7027 42.9725L74.5851 42.9416C74.3828 42.8882 74.1812 42.8321 73.9803 42.7734C73.1512 42.5244 72.3207 42.2802 71.4888 42.0408C71.1534 41.9452 70.6912 41.9675 70.6016 42.3974C70.5841 42.4778 70.5881 42.5614 70.6131 42.6398C70.6381 42.7182 70.6834 42.7886 70.7442 42.8438Z" fill="#EBBC95"/>
</g>
<mask id="mask39_243_1775" style="mask-type:luminance" maskUnits="userSpaceOnUse" x="22" y="14" width="112" height="97">
<path d="M22 14.5H133.071V110.115H22V14.5Z" fill="white"/>
</mask>
<g mask="url(#mask39_243_1775)">
<path d="M74.4705 40.9005C75.3325 41.0802 76.2082 41.2765 77.0788 41.4785C77.1767 42.2439 77.2422 43.0131 77.2752 43.784C77.2917 44.2082 77.6672 44.4555 78.0785 44.3656C78.2286 44.3308 78.3601 44.2401 78.4462 44.1119C78.5324 43.9837 78.5669 43.8275 78.5428 43.6748C78.49 42.6835 78.3667 41.6973 78.1738 40.7236L78.1509 40.6194L78.0505 40.5971C76.9788 40.3757 75.9058 40.1602 74.8316 39.9508C74.4812 39.884 73.9775 39.9285 73.9803 40.4059C73.9832 40.6841 74.2125 40.8638 74.4705 40.9005Z" fill="#EBBC95"/>
</g>
<mask id="mask40_243_1775" style="mask-type:luminance" maskUnits="userSpaceOnUse" x="22" y="14" width="112" height="97">
<path d="M22 14.5H133.071V110.115H22V14.5Z" fill="white"/>
</mask>
<g mask="url(#mask40_243_1775)">
<path d="M77.0731 38.4684C77.0947 38.5079 77.1222 38.5438 77.1548 38.5748C77.3311 38.7517 77.5884 38.7603 77.8205 38.7998C78.0842 38.8444 78.3443 38.8868 78.6102 38.9285C78.8732 38.9738 79.1333 39.0133 79.3999 39.0522C79.478 39.0665 80.1387 39.1111 80.1552 39.1622C80.3902 39.8667 80.5923 40.5856 80.7542 41.288C80.8467 41.6697 81.2136 41.8351 81.5855 41.7567C81.9158 41.6863 82.0584 41.3635 81.9581 41.055C81.7419 40.1474 81.4556 39.2581 81.1018 38.3951L81.0681 38.311L80.9785 38.2973C79.9037 38.1333 78.8269 37.9835 77.7481 37.848C77.5547 37.825 77.3003 37.8142 77.1405 37.9486C76.9836 38.078 76.9814 38.2995 77.0731 38.4684Z" fill="#EBBC95"/>
</g>
<mask id="mask41_243_1775" style="mask-type:luminance" maskUnits="userSpaceOnUse" x="22" y="14" width="112" height="97">
<path d="M22 14.5H133.071V110.115H22V14.5Z" fill="white"/>
</mask>
<g mask="url(#mask41_243_1775)">
<path d="M79.6041 36.4742C79.7273 36.6151 79.9172 36.6712 80.0964 36.6935C80.9197 36.792 81.7761 36.8818 82.6438 36.9602C83.0112 37.5583 83.3349 38.1845 83.6148 38.8387C83.7631 39.1845 84.2282 39.3168 84.5557 39.1673C84.8187 39.0472 84.8244 38.7575 84.704 38.5274C84.3259 37.7117 83.8803 36.9292 83.3719 36.1881L83.3296 36.1234L83.2537 36.1176C82.2282 36.0255 81.202 35.9414 80.1752 35.8653C80.0068 35.8509 79.789 35.8344 79.6406 35.93C79.4472 36.0508 79.4586 36.306 79.6041 36.4742Z" fill="#EBBC95"/>
</g>
<mask id="mask42_243_1775" style="mask-type:luminance" maskUnits="userSpaceOnUse" x="22" y="14" width="112" height="97">
<path d="M22 14.5H133.071V110.115H22V14.5Z" fill="white"/>
</mask>
<g mask="url(#mask42_243_1775)">
<path d="M81.4457 34.5397C81.5689 34.7589 81.8291 34.8373 82.0641 34.8517C82.8509 34.902 83.6406 34.9552 84.4267 35.0142C84.8838 35.5127 85.3146 36.0348 85.7173 36.5785C85.8907 36.8308 86.2153 36.9718 86.5205 36.8876C86.8509 36.7978 86.8287 36.4354 86.6295 36.2191C86.1233 35.5432 85.5627 34.9101 84.9534 34.3262L84.9111 34.2866L84.8552 34.2845C83.895 34.214 82.9319 34.1493 81.9831 34.0961C81.7309 34.0789 81.2472 34.1493 81.4457 34.5397Z" fill="#EBBC95"/>
</g>
<mask id="mask43_243_1775" style="mask-type:luminance" maskUnits="userSpaceOnUse" x="22" y="14" width="112" height="97">
<path d="M22 14.5H133.071V110.115H22V14.5Z" fill="white"/>
</mask>
<g mask="url(#mask43_243_1775)">
<path d="M82.747 33.0795C82.7681 33.1015 82.7906 33.1222 82.8144 33.1413C82.977 33.265 83.1755 33.3124 83.374 33.3239C84.077 33.3628 84.7936 33.416 85.5044 33.4807C86.0361 33.8516 86.5485 34.2643 87.0272 34.6999C87.2314 34.8876 87.6513 35.0953 87.9114 34.8797C88.1078 34.7165 87.9258 34.4721 87.7746 34.3599C87.1593 33.805 86.4941 33.3086 85.7875 32.8768L85.7173 32.8574C84.8717 32.7876 84.0211 32.7308 83.2035 32.6892C83.0243 32.6582 82.6324 32.6611 82.6775 32.9365C82.6861 32.9897 82.7141 33.0371 82.747 33.0795Z" fill="#EBBC95"/>
</g>
<mask id="mask44_243_1775" style="mask-type:luminance" maskUnits="userSpaceOnUse" x="22" y="14" width="112" height="97">
<path d="M22 14.5H133.071V110.115H22V14.5Z" fill="white"/>
</mask>
<g mask="url(#mask44_243_1775)">
<path d="M83.4163 32.035C83.579 32.209 83.8477 32.2427 84.0684 32.2593C84.6732 32.3074 85.2859 32.3772 85.8964 32.467C86.4869 32.7201 87.0609 33.0206 87.5983 33.3599C87.7689 33.467 88.3343 33.7338 88.4439 33.4304C88.5105 33.2449 88.2676 33.1018 88.1358 33.0285C87.4482 32.6363 86.7356 32.2903 86.0025 31.9926L85.9695 31.9839C85.2736 31.8785 84.5743 31.7969 83.8728 31.7395C83.7438 31.7258 83.3769 31.6583 83.3432 31.8495C83.3325 31.9085 83.3576 31.9674 83.4163 32.035Z" fill="#EBBC95"/>
</g>
<mask id="mask45_243_1775" style="mask-type:luminance" maskUnits="userSpaceOnUse" x="22" y="14" width="112" height="97">
<path d="M22 14.5H133.071V110.115H22V14.5Z" fill="white"/>
</mask>
<g mask="url(#mask45_243_1775)">
<path d="M132.838 48.9798C132.088 45.0847 130.196 41.7763 128.368 38.5779L127.246 36.6124L124.799 37.3651C123.959 37.626 123.131 37.8841 122.294 38.112C121.263 38.3873 120.547 39.0581 120.166 40.1055C119.621 41.6083 119.021 43.0903 118.366 44.5484C118.263 44.2851 118.138 44.0305 117.994 43.7871C117.068 42.1976 115.41 41.1925 113.448 41.038C111.195 40.8554 109.068 41.3723 107.147 42.5772C104.956 43.9503 103.162 45.6944 101.77 47.7972L106.513 31.094L103.08 32.0401C102.935 32.0796 102.817 32.1105 102.705 32.1443L101.457 32.5347C100.452 32.8438 99.4499 33.158 98.4395 33.4527C97.4793 33.7367 96.8243 34.4024 96.547 35.3794C95.4435 39.2606 94.3397 43.1415 93.2357 47.0222L89.642 48.1207C88.5105 48.4658 87.4357 48.7943 86.3608 49.1372C85.5747 49.3924 85.1325 50.0107 84.9419 50.3443C84.9247 50.3723 84.9111 50.4011 84.8946 50.4262C81.7789 49.7519 78.8288 50.437 76.2956 52.4313C74.9154 53.5148 73.7155 54.8113 72.7407 56.2724L73.3533 53.1473L69.4315 54.3464C68.3315 54.6807 67.2681 55.0064 66.2126 55.3457C65.3591 55.6182 64.9421 56.3457 64.8102 56.5758C64.8028 56.592 64.7934 56.6072 64.7823 56.6211C62.3724 55.9697 60.0069 56.3012 57.7203 57.6153L55.3742 46.1487L48.7372 48.1236C45.3141 49.171 41.8938 50.2213 38.47 51.2602C35.542 52.1473 32.116 53.3357 28.9086 55.4076C26.0365 57.2667 24.1863 59.2746 23.0864 61.7261C21.2978 65.7196 21.7198 69.2466 24.3454 72.2092C25.3855 73.3977 26.6816 74.3331 28.1354 74.9447L30.781 76.0173C29.7198 79.3624 27.9985 81.8362 25.5299 83.5687C24.2952 84.4307 23.5729 85.5263 23.3157 86.916C23.2512 87.256 23.1501 87.5874 23.0498 87.9246C22.9887 88.1283 22.9289 88.3351 22.8707 88.545L22.2967 91.0785L25.2669 90.9124L30.5345 89.292C35.0103 87.916 39.489 86.54 43.9597 85.136C47.1951 84.1223 49.524 82.4961 51.0804 80.1762C51.3685 79.747 51.6294 79.3085 51.873 78.8706C52.3284 79.1939 52.8255 79.4537 53.3506 79.6428C55.0976 80.2718 57.1241 80.1481 58.7694 79.3034C60.2112 78.5673 61.4458 77.4724 62.5372 75.9583C63.7325 76.995 65.496 77.3372 67.3827 76.8462C68.4058 76.5778 69.3639 76.1038 70.1989 75.4529L70.2634 75.6916C70.4504 76.366 70.669 77.1352 71.1283 77.8627C72.7177 80.3847 75.6736 81.55 78.8481 80.8929C81.3676 80.3732 83.4665 78.8735 85.0874 76.4357C86.2404 74.706 87.0802 72.6894 87.7273 70.1064C88.7542 69.5392 89.8126 68.949 90.7864 68.1603C91.1418 67.8735 91.4586 67.5593 91.7466 67.2444C93.5854 68.4328 95.9845 68.463 98.269 67.1998C99.8949 66.2983 100.961 64.9892 101.723 63.7232C102.675 64.2962 103.906 64.6635 105.547 64.6103C106.747 64.5668 107.938 64.3839 109.096 64.0654C112.267 63.1869 115.03 61.3026 117.79 58.1373C118.208 57.6564 118.611 57.163 118.999 56.6577C119.091 56.7613 119.184 56.8655 119.285 56.9662C120.956 58.6599 123.137 59.3141 125.779 58.918C128.128 58.5643 130.154 57.3256 131.486 55.4334C132.802 53.5657 133.283 51.2738 132.838 48.9798Z" fill="white"/>
</g>
<mask id="mask46_243_1775" style="mask-type:luminance" maskUnits="userSpaceOnUse" x="22" y="14" width="112" height="97">
<path d="M22 14.5H133.071V110.115H22V14.5Z" fill="white"/>
</mask>
<g mask="url(#mask46_243_1775)">
<path d="M106.417 52.6613C108.732 52.0265 110.689 51.0775 112.119 49.2522C112.592 48.6483 112.936 47.974 112.956 47.1796C112.975 46.3485 112.413 45.7979 111.615 45.9948C111.072 46.1293 110.504 46.3737 110.081 46.7303C108.256 48.2608 107.318 50.3673 106.417 52.6613ZM84.7714 55.4413C83.321 54.6412 81.7761 54.8827 80.4884 56.1042C78.4475 58.0474 77.3676 60.5075 76.7793 63.2092C76.5249 64.3688 76.4103 65.5514 76.7406 66.7225C77.0932 67.9719 78.0448 68.3256 79.0774 67.5363C79.5984 67.138 80.0627 66.624 80.4489 66.0906C81.5826 64.5205 82.35 62.7541 82.9849 60.9374C83.6263 59.115 84.1831 57.2638 84.7714 55.4413ZM64.449 61.6081C64.3652 61.5183 64.3487 61.4845 64.3208 61.468C64.2596 61.4324 64.1959 61.4014 64.1302 61.3752C62.6132 60.7771 61.3312 61.2408 60.2169 62.3048C58.3359 64.0992 57.2638 66.3659 56.5666 68.8282C56.2026 70.1035 55.9203 71.4062 56.1187 72.7462C56.3402 74.2229 57.362 74.6945 58.5881 73.8246C59.2036 73.3861 59.7411 72.7851 60.1861 72.1618C61.3226 70.5722 62.042 68.7613 62.6913 66.9302C63.3183 65.1553 63.8758 63.3551 64.449 61.6081ZM103.774 33.8208C103.391 35.1831 103.033 36.4664 102.666 37.7525C100.496 45.3481 98.3288 52.9444 96.1637 60.5413C96.0655 60.8813 95.9788 61.2293 95.9594 61.5772C95.9257 62.1445 96.2396 62.386 96.7935 62.2652C97.7229 62.0661 98.241 61.3644 98.6939 60.6196C99.839 58.744 100.376 56.6433 100.902 54.5319C101.997 50.1616 104.293 46.6066 108.153 44.1861C109.714 43.2062 111.438 42.782 113.294 42.9308C116.209 43.1638 117.686 45.905 116.394 48.7159C115.511 50.6397 113.997 51.9589 112.225 53.0208C110.361 54.1358 108.334 54.8267 106.204 55.2113C105.787 55.2868 105.622 55.4615 105.65 55.8655C105.686 56.4442 105.633 57.0423 105.762 57.5981C105.955 58.432 106.652 58.918 107.511 58.946C108.975 58.9913 110.215 58.3759 111.366 57.5564C113.466 56.0567 115.055 54.0768 116.469 51.9481C118.786 48.4629 120.516 44.6828 121.944 40.7569C122.103 40.3219 122.313 40.0717 122.784 39.9459C123.971 39.6282 125.138 39.2435 126.353 38.8726C128.262 42.2227 130.241 45.506 130.98 49.3421C131.699 53.0632 129.244 56.4722 125.496 57.0395C123.646 57.3177 121.986 56.9999 120.631 55.6268C120.066 55.0567 119.665 54.3881 119.542 53.5513C120.102 53.7454 120.617 53.9561 121.152 54.102C122.062 54.3551 122.971 54.2875 123.85 53.9561C125.325 53.3996 126.053 52.1674 125.84 50.4456C125.563 48.1904 124.62 46.1573 123.61 44.0344C123.377 44.6102 123.19 45.0904 122.996 45.5649C121.317 49.6534 119.285 53.5348 116.366 56.8849C114.232 59.3306 111.783 61.3501 108.592 62.2343C107.574 62.5129 106.528 62.673 105.474 62.7117C103.73 62.7764 102.196 62.2573 101.199 60.5161C101.029 60.9094 100.9 61.2235 100.751 61.5298C99.9623 63.156 98.9856 64.6326 97.3532 65.537C95.4385 66.5959 93.0401 66.5844 91.6148 64.4953C90.9548 65.2279 90.3607 66.0625 89.5997 66.6801C88.7176 67.3932 87.7044 67.9497 86.7083 68.4996C86.3106 68.7189 86.0641 68.9209 85.9523 69.3875C85.4428 71.5047 84.732 73.5521 83.5145 75.3832C82.2856 77.225 80.6954 78.5701 78.4676 79.0309C76.0878 79.522 73.9101 78.7218 72.7292 76.8491C72.4132 76.3458 72.2476 75.7506 72.08 75.1582C72.861 75.6442 73.6443 75.9526 74.5264 76.0345C75.9008 76.1632 77.0538 75.706 78.0448 74.7793C79.0946 73.7987 79.8363 72.5967 80.3852 71.2854C81.0002 69.8094 81.552 68.3076 82.039 66.7843C81.44 67.6348 80.8775 68.5111 80.239 69.3314C79.4973 70.2804 78.6324 71.1229 77.4851 71.583C75.5647 72.3559 73.4622 71.6477 72.3737 69.8871L72.1136 69.4601C71.741 70.2042 71.43 70.9288 71.0273 71.5974C70.0585 73.2178 68.8044 74.5068 66.9012 75.0065C65.4286 75.3911 64.0435 75.0769 63.3634 74.046C63.0051 73.504 62.8396 72.8361 62.6017 72.2631C62.1653 72.982 61.7117 73.816 61.18 74.5938C60.3229 75.8433 59.2904 76.908 57.9131 77.6125C55.8393 78.6744 52.7014 78.202 51.5735 75.5852C51.5448 75.5234 51.4889 75.4752 51.5168 75.509C50.8619 76.7002 50.2743 77.9691 49.5075 79.1179C48.0378 81.3113 45.8429 82.5522 43.3915 83.3214C37.2496 85.251 31.0892 87.1295 24.9337 89.0281C24.8857 89.0425 24.8327 89.0367 24.6958 89.0504C24.8663 88.4329 25.0677 87.857 25.1773 87.2646C25.3508 86.3293 25.818 85.6838 26.6134 85.1244C29.8265 82.8721 31.7104 79.688 32.7767 75.9583C34.5596 69.7383 36.3596 63.5233 38.1511 57.3033C38.1848 57.1883 38.2041 57.0675 38.255 56.8454C37.4625 57.0955 36.7265 57.3033 36.0071 57.5671C33.0648 58.6455 30.5489 60.3084 28.9724 63.1049C27.1644 66.3177 27.0469 69.6089 28.7517 72.9231C28.7796 72.9792 28.8047 73.0381 28.8778 73.1955C27.6826 72.6939 26.617 71.9256 25.7621 70.949C23.4697 68.3594 23.4776 65.4895 24.8162 62.5068C25.8939 60.1035 27.7692 58.4068 29.9355 57.0057C32.743 55.189 35.8387 54.043 39.0189 53.0768C43.8838 51.6023 48.7429 50.1056 53.6078 48.6174C53.6895 48.5923 53.7734 48.5729 53.9303 48.5276L55.6823 57.1121C55.6372 57.166 55.6207 57.2048 55.5928 57.2134C54.7135 57.5477 54.7193 57.5449 54.199 56.7476C53.8715 56.2443 53.5297 55.7533 53.1829 55.2645C52.1216 53.7677 50.6777 53.2623 48.9192 53.6836C47.7777 53.9589 46.6469 54.2954 45.5154 54.6326C45.3671 54.675 45.1908 54.8576 45.1493 55.0093C44.0464 58.8562 42.9601 62.7095 41.8709 66.5622C41.8544 66.624 41.8687 66.6944 41.8687 66.8454C44.2951 66.1013 46.6828 65.3688 49.1657 64.6046C48.8605 65.6491 48.6003 66.596 48.2901 67.5255C48.242 67.6686 47.9819 67.7778 47.7971 67.8346C45.6781 68.4888 43.5563 69.1373 41.4316 69.7635C41.0483 69.8756 40.8777 70.0726 40.7631 70.4543C40.1977 72.3472 39.6796 74.2567 38.9766 76.0992C38.0501 78.5306 36.4607 80.4968 34.3167 81.9936C34.21 82.0631 34.1263 82.1626 34.0759 82.2797C35.1672 81.9512 36.2586 81.6255 37.3478 81.2941C39.2683 80.7103 41.1744 80.0813 43.1056 79.5421C46.6663 78.545 49.0704 76.3099 50.3194 72.8469C50.8511 71.3724 51.2152 69.8397 51.7132 68.3537C52.8017 65.1215 54.5795 62.3386 57.2753 60.2099C59.7998 58.2134 62.5573 57.542 65.6672 58.9575C65.9302 58.4773 66.1789 57.9971 66.4505 57.5283C66.5322 57.3845 66.6468 57.1998 66.7865 57.1574C68.1244 56.7246 69.4709 56.3206 70.8847 55.8878C70.8424 56.1013 70.8231 56.253 70.7837 56.396C69.5516 60.721 68.321 65.0457 67.0918 69.3702C66.9908 69.7268 66.8876 70.0891 66.851 70.4543C66.7951 71.064 67.1477 71.3472 67.741 71.1927C68.6511 70.9511 69.1656 70.2495 69.6106 69.4996C70.7335 67.6096 71.3297 65.5262 71.7998 63.4025C72.6425 59.6117 74.3752 56.3572 77.4651 53.9251C79.8305 52.0632 82.4704 51.6253 85.3368 52.5039C85.4908 52.552 85.6392 52.5995 85.7925 52.6448C85.804 52.6469 85.8233 52.6304 85.8936 52.5995C86.1064 52.1897 86.3328 51.7317 86.5851 51.2911C86.6632 51.1501 86.7979 50.9934 86.9405 50.9453C88.2647 50.524 89.5911 50.1228 91.0272 49.6843C89.675 54.9223 88.3457 60.0833 86.9906 65.3321C88.2676 64.7311 89.1354 63.8238 89.852 62.7627C91.2314 60.7153 91.9652 58.396 92.6338 56.0481C94.5427 49.3306 96.4632 42.616 98.3664 35.8992C98.4646 35.5563 98.6244 35.3794 98.9741 35.2752C100.407 34.8568 101.835 34.4024 103.262 33.961C103.405 33.9164 103.551 33.8798 103.774 33.8208Z" fill="#07111F"/>
</g>
</g>
<defs>
<clipPath id="clip0_243_1775">
<rect width="111" height="95" fill="white" transform="translate(22 14.5)"/>
</clipPath>
</defs>
</svg>
