<svg width="155" height="120" viewBox="0 0 155 120" fill="none" xmlns="http://www.w3.org/2000/svg">
<g clip-path="url(#clip0_243_1210)">
<path d="M79.4805 104.788C60.6184 105.033 44.2649 93.7167 37.2941 77.4814C37.599 77.3592 37.8905 77.2005 38.1699 77.0162C44.9541 92.9481 60.9573 104.039 79.4672 103.797C99.5077 103.528 116.251 90.0846 121.42 71.8913C121.731 72.0074 122.054 72.0886 122.382 72.1334C117.091 90.7298 99.9453 104.513 79.4805 104.788ZM33.7081 60.5935C33.3864 35.9116 53.3885 15.5535 78.2963 15.2125C102.749 14.9106 122.98 34.0067 124.026 58.0477C123.7 57.9667 123.364 57.9224 123.02 57.9178C121.909 34.4444 102.204 15.9085 78.3088 16.2033C53.904 16.5373 34.393 36.3969 34.7088 60.5811C34.7225 61.6053 34.7745 62.6202 34.8583 63.6262C34.5217 63.6842 34.1929 63.7797 33.878 63.911C33.78 62.8076 33.7234 61.701 33.7081 60.5935ZM128.533 65.0415C128.533 61.9107 126.951 59.2574 124.754 58.2995C123.838 33.7453 103.222 14.196 78.2869 14.5041C52.9851 14.8505 32.6667 35.5303 32.9931 60.6028C33.0099 61.8373 33.0784 63.0602 33.1935 64.2687C31.3283 65.4228 30.0396 67.8565 30.0396 70.6812C30.0396 74.6182 32.5376 77.81 35.6191 77.81C35.9568 77.81 36.286 77.7654 36.6077 77.6913C43.672 94.2195 60.303 105.746 79.4903 105.496C100.339 105.217 117.798 91.1344 123.118 72.1597C126.123 72.0476 128.533 68.9075 128.533 65.0415Z" fill="#BEC0C2"/>
<path d="M49.2726 51.469C54.0319 35.3191 71.1043 26.0453 87.4066 30.7672C103.703 35.4844 113.053 52.406 108.294 68.5613C103.532 84.7124 86.4591 93.9804 70.1592 89.264C53.8655 84.5433 44.511 67.6256 49.2726 51.469Z" fill="white"/>
<path d="M95.2458 39.4017L96.1522 36.3128L96.994 35.9492L93.8804 34.3299C93.5959 34.1778 93.3709 34.2729 93.2938 34.4215L93.201 34.617C93.1188 34.7757 93.2116 35.0232 93.4648 35.1539L95.8841 36.4191L95.058 36.7806L94.3825 39.1406C94.2984 39.4141 94.4099 39.6484 94.5841 39.7062L94.7829 39.7664C94.9406 39.8129 95.1613 39.7109 95.2458 39.4017Z" fill="#BEC0C2"/>
<path d="M92.0645 40.4868L93.1771 37.4759L94.0381 37.1752L91.0458 35.334C90.7707 35.1637 90.5414 35.2416 90.4533 35.3844L90.3476 35.5656C90.2564 35.725 90.3288 35.9749 90.5734 36.1239L92.9004 37.5577L92.0547 37.8592L91.211 40.1621C91.1123 40.4337 91.2063 40.6762 91.3722 40.7433L91.5702 40.817C91.7264 40.876 91.9534 40.7879 92.0645 40.4868Z" fill="#BEC0C2"/>
<path d="M88.8092 41.3387L90.1242 38.4186L91.0094 38.1769L88.1467 36.128C87.886 35.9407 87.6504 35.9973 87.5538 36.135L87.4317 36.3147C87.3334 36.4617 87.3886 36.7162 87.6215 36.8826L89.8436 38.4799L88.981 38.7208L87.9811 40.9574C87.8641 41.2204 87.9432 41.4679 88.1024 41.5486L88.295 41.6355C88.4484 41.7061 88.6816 41.6343 88.8092 41.3387Z" fill="#BEC0C2"/>
<path d="M85.5031 41.9617L87.0172 39.1386L87.9138 38.9609L85.199 36.715C84.9564 36.5039 84.7161 36.5505 84.6081 36.6836L84.4754 36.8481C84.3627 36.9866 84.4042 37.248 84.6257 37.428L86.7355 39.1797L85.8541 39.3609L84.7035 41.5214C84.5689 41.7689 84.6292 42.0254 84.7865 42.1103L84.972 42.2197C85.118 42.2965 85.3544 42.2473 85.5031 41.9617Z" fill="#BEC0C2"/>
<path d="M82.1621 42.3413L83.8695 39.6349L84.7763 39.5255L82.2161 37.0868C81.9875 36.8614 81.7492 36.8878 81.6322 37.0116L81.4885 37.1679C81.3676 37.3021 81.3923 37.5609 81.5961 37.758L83.5823 39.6567L82.6916 39.7738L81.3989 41.8409C81.2455 42.088 81.2885 42.3464 81.4326 42.4438L81.6153 42.5582C81.7543 42.6505 81.993 42.6129 82.1621 42.3413Z" fill="#BEC0C2"/>
<path d="M78.8063 42.4775L80.6883 39.9026L81.6076 39.8615L79.2207 37.2463C79.0078 37.0069 78.7589 37.0127 78.6403 37.1271L78.483 37.2734C78.3574 37.3975 78.3605 37.6606 78.5527 37.8682L80.4034 39.9088L79.5095 39.9592L78.0729 41.9308C77.9046 42.1594 77.9308 42.4189 78.0729 42.5295L78.2412 42.6594C78.3738 42.7576 78.6169 42.7417 78.8063 42.4775Z" fill="#BEC0C2"/>
<path d="M75.4429 42.3788L77.5011 39.9452L78.4184 39.9642L76.2186 37.1872C76.0206 36.9311 75.7748 36.9238 75.6468 37.0281L75.4836 37.1639C75.3459 37.2776 75.3318 37.5402 75.5102 37.7617L77.213 39.9285L76.3149 39.9137L74.7541 41.7779C74.5682 41.9928 74.5745 42.2547 74.7064 42.3761L74.868 42.5166C74.9905 42.6271 75.2347 42.6256 75.4429 42.3788Z" fill="#BEC0C2"/>
<path d="M72.0948 42.036L74.3158 39.7572L75.23 39.8406L73.2239 36.9142C73.0466 36.6469 72.8051 36.6205 72.6709 36.714L72.4952 36.8378C72.3473 36.9391 72.3148 37.2036 72.4815 37.4368L74.0297 39.7161L73.1394 39.6404L71.4479 41.3839C71.2476 41.588 71.2378 41.8529 71.363 41.9848L71.5121 42.1288C71.6319 42.2498 71.8722 42.2688 72.0948 42.036Z" fill="#BEC0C2"/>
<path d="M68.7766 41.454L71.1489 39.3439L72.0557 39.4921L70.2578 36.428C70.0974 36.1475 69.8571 36.1033 69.715 36.1898L69.5303 36.2957C69.3808 36.3927 69.3342 36.6499 69.4794 36.8951L70.8695 39.2814L69.9819 39.1394L68.1758 40.7627C67.9649 40.9473 67.9363 41.208 68.0522 41.3434L68.1915 41.5083C68.3003 41.6348 68.5425 41.6705 68.7766 41.454Z" fill="#BEC0C2"/>
<path d="M65.5087 40.6358L68.0208 38.6991L68.9116 38.9125L67.327 35.7308C67.1919 35.4348 66.9517 35.3766 66.8041 35.4507L66.6159 35.5473C66.4597 35.6311 66.3944 35.8813 66.5219 36.1393L67.7469 38.6207L66.8699 38.4116L64.9569 39.9002C64.7307 40.0728 64.6877 40.332 64.7918 40.4748L64.9197 40.647C65.0191 40.7847 65.2614 40.836 65.5087 40.6358Z" fill="#BEC0C2"/>
<path d="M62.3047 39.5884L64.9432 37.8348L65.8198 38.1153L64.4575 34.8215C64.337 34.524 64.1053 34.446 63.9519 34.51L63.7574 34.5907C63.5969 34.6621 63.5085 34.9088 63.6236 35.1758L64.6724 37.7332L63.8192 37.4682L61.8038 38.8148C61.5662 38.9684 61.4989 39.2225 61.5987 39.3781L61.7145 39.5539C61.8038 39.6955 62.0413 39.7657 62.3047 39.5884Z" fill="#BEC0C2"/>
<path d="M59.1758 38.3093L61.9314 36.7478L62.7837 37.0927L61.6512 33.7151C61.5533 33.4043 61.3291 33.3081 61.1671 33.3624L60.9702 33.4311C60.8039 33.4924 60.6998 33.7326 60.7945 34.0018L61.6668 36.6329L60.8277 36.3024L58.7324 37.5027C58.4851 37.6389 58.4049 37.8884 58.4859 38.0435L58.5896 38.2317C58.6714 38.3849 58.9015 38.468 59.1758 38.3093ZM60.5272 81.2932L60.0599 84.2448L59.3054 84.6952L62.4562 85.7725C62.7426 85.875 62.945 85.7597 62.997 85.6104L63.0643 85.4226C63.1191 85.2662 63.0049 85.0552 62.7473 84.9633L60.2979 84.1163L61.0312 83.6745L61.3827 81.4216C61.4242 81.157 61.2892 80.9549 61.1213 80.9281L60.9229 80.8963C60.7651 80.8742 60.5675 80.9987 60.5272 81.2932Z" fill="#BEC0C2"/>
<path d="M63.4084 79.8806L62.7278 82.7961L61.9482 83.1871L65.0129 84.4837C65.2931 84.6067 65.5021 84.5054 65.5671 84.3607L65.6446 84.1757C65.7135 84.0228 65.6105 83.8013 65.3616 83.6954L62.9771 82.6797L63.745 82.2921L64.2478 80.0672C64.3128 79.8088 64.1927 79.5977 64.0212 79.5555L63.8287 79.5139C63.6761 79.479 63.4718 79.5892 63.4084 79.8806Z" fill="#BEC0C2"/>
<path d="M66.3788 78.672L65.4959 81.5297L64.692 81.8626L67.6585 83.3733C67.9293 83.5149 68.143 83.4276 68.2193 83.2899L68.3085 83.1153C68.3868 82.9621 68.3027 82.7351 68.0616 82.6141L65.7553 81.4358L66.5451 81.1026L67.2108 78.918C67.2898 78.6604 67.1849 78.4423 67.0233 78.3919L66.8308 78.3364C66.6774 78.2903 66.4637 78.3865 66.3788 78.672Z" fill="#BEC0C2"/>
<path d="M69.4314 77.6753L68.3532 80.4616L67.522 80.7433L70.3761 82.4538C70.6344 82.6101 70.8547 82.5426 70.9381 82.4107L71.0445 82.2358C71.1306 82.093 71.0614 81.8618 70.8305 81.7217L68.6158 80.3867L69.4236 80.1078L70.2423 77.9756C70.3397 77.7246 70.2497 77.5003 70.094 77.4355L69.9034 77.3688C69.755 77.3129 69.5355 77.3936 69.4314 77.6753Z" fill="#BEC0C2"/>
<path d="M72.5469 76.8878L71.273 79.5954L70.4281 79.8177L73.1496 81.7198C73.3953 81.901 73.6219 81.844 73.7159 81.7133L73.8321 81.553C73.9307 81.418 73.8763 81.1783 73.6544 81.0258L71.5368 79.5403L72.3665 79.3176L73.3351 77.2424C73.4474 77.0065 73.377 76.7718 73.2224 76.7032L73.038 76.6151C72.8948 76.5519 72.6713 76.6143 72.5469 76.8878Z" fill="#BEC0C2"/>
<path d="M75.7102 76.3213L74.2445 78.9342L73.3871 79.0948L75.9708 81.1859C76.2041 81.3799 76.4302 81.3426 76.5336 81.2169L76.6608 81.0641C76.7688 80.9329 76.7304 80.6959 76.5226 80.524L74.5169 78.8938L75.3591 78.732L76.4686 76.7356C76.5993 76.4986 76.543 76.2619 76.3997 76.1808L76.2197 76.0873C76.0804 76.0097 75.8553 76.059 75.7102 76.3213Z" fill="#BEC0C2"/>
<path d="M78.904 75.9788L77.2619 78.4831L76.3872 78.5816L78.8195 80.8465C79.0367 81.0556 79.2731 81.0335 79.3811 80.9206L79.5208 80.7759C79.6335 80.6533 79.6155 80.4074 79.4194 80.2289L77.5339 78.4598L78.3808 78.3554L79.6339 76.4416C79.7806 76.2186 79.7407 75.9776 79.5991 75.8869L79.4312 75.7759C79.2965 75.6933 79.068 75.7259 78.904 75.9788Z" fill="#BEC0C2"/>
<path d="M82.1159 75.8557L80.2992 78.2398L79.4207 78.2832L81.687 80.7076C81.8909 80.933 82.1237 80.9252 82.2404 80.8197L82.3887 80.6827C82.5123 80.5702 82.5088 80.3262 82.3265 80.1318L80.5736 78.2378L81.431 78.192L82.8102 76.369C82.973 76.1595 82.9503 75.9155 82.8196 75.8111L82.656 75.6932C82.5319 75.597 82.3002 75.6144 82.1159 75.8557Z" fill="#BEC0C2"/>
<path d="M85.3294 75.9591L83.3479 78.2096L82.4694 78.1922L84.558 80.7721C84.7435 81.006 84.9764 81.0161 85.0977 80.9207L85.2597 80.7938C85.3936 80.6922 85.408 80.4443 85.2358 80.239L83.6219 78.2279L84.4766 78.2434L85.9857 76.5212C86.1637 76.3207 86.1575 76.0731 86.0311 75.9599L85.8792 75.8357C85.7583 75.7321 85.527 75.7298 85.3294 75.9591Z" fill="#BEC0C2"/>
<path d="M88.5267 76.2829L86.3931 78.3884L85.5208 78.31L87.4149 81.03C87.5855 81.2787 87.816 81.3039 87.9483 81.2139L88.1178 81.1045C88.2555 81.0063 88.2837 80.7669 88.1307 80.5481L86.6612 78.4279L87.5159 78.5032L89.1423 76.887C89.3314 76.7011 89.3435 76.4591 89.2265 76.3403L89.0821 76.1983C88.9721 76.0855 88.7393 76.0692 88.5267 76.2829Z" fill="#BEC0C2"/>
<path d="M91.6931 76.8334L89.4127 78.7868L88.5505 78.6433L90.2514 81.4882C90.3985 81.7516 90.6314 81.7908 90.7683 81.7116L90.9409 81.6111C91.0857 81.5242 91.1335 81.2884 90.9961 81.0579L89.6804 78.8419L90.5284 78.9773L92.2637 77.4782C92.4692 77.3056 92.4954 77.0627 92.3866 76.9351L92.2551 76.7842C92.1529 76.6635 91.9178 76.6325 91.6931 76.8334Z" fill="#BEC0C2"/>
<path d="M94.8118 77.5979L92.398 79.3891L91.5464 79.1842L93.0441 82.1436C93.176 82.412 93.4037 82.4714 93.5442 82.4016L93.7251 82.3131C93.8738 82.2359 93.9426 82.0035 93.8194 81.7649L92.6641 79.4647L93.4938 79.6537L95.3343 78.2791C95.5535 78.1232 95.6004 77.8834 95.4975 77.7472L95.3766 77.5901C95.2834 77.464 95.0521 77.4155 94.8118 77.5979Z" fill="#BEC0C2"/>
<path d="M97.8695 78.5802L95.3371 80.2003L94.5023 79.9357L95.7852 82.9889C95.8979 83.2706 96.1163 83.3428 96.2681 83.283L96.4501 83.2074C96.6066 83.1395 96.6916 82.9129 96.5847 82.6685L95.5966 80.2903L96.4164 80.5409L98.3431 79.2967C98.5693 79.1551 98.6327 78.9185 98.5446 78.78L98.435 78.6128C98.3482 78.4766 98.122 78.4157 97.8695 78.5802Z" fill="#BEC0C2"/>
<path d="M100.852 79.7738L98.2103 81.2069L97.3955 80.89L98.4576 84.0243C98.5512 84.3114 98.7633 84.4018 98.914 84.3529L99.1077 84.2877C99.267 84.2357 99.3652 84.0119 99.2791 83.7613L98.462 81.3214L99.258 81.6287L101.274 80.5179C101.509 80.3926 101.59 80.1633 101.508 80.0171L101.413 79.8413C101.333 79.704 101.113 79.6241 100.852 79.7738Z" fill="#BEC0C2"/>
<path d="M57.7271 39.6481C54.5744 40.2021 51.9597 42.8173 51.7742 45.6025C51.7672 45.7093 51.7638 45.8163 51.7641 45.9233C51.7641 47.1679 52.2572 48.286 53.1729 49.1007C54.3157 50.1152 55.9891 50.5198 57.7623 50.2079C60.9135 49.6578 63.5297 47.043 63.7172 44.2543C63.8072 42.8794 63.3125 41.6379 62.3189 40.7553C61.175 39.7393 59.5023 39.3362 57.7271 39.6481ZM27.2848 47.557L25.885 52.943C25.885 52.943 26.9557 52.6583 27.7075 52.4573C26.7776 56.5658 21.9922 77.7452 21.9608 77.8876C21.7131 78.6903 20.6522 79.2804 19.7336 79.5682L18.9533 79.8127L16.4999 87.8628L19.5243 86.6174C29.4263 82.5427 44.234 78.6096 44.3831 78.5708L45.165 78.3636L48.5976 68.9661L44.8954 69.8313C44.3929 69.9473 44.079 70.1599 43.8751 70.4012C43.4114 70.9645 41.9137 72.507 40.5052 72.9648L33.9856 74.7448L33.9543 74.7521C33.9856 74.6136 41.3845 42.6292 41.3845 42.6292L27.2848 47.557Z" fill="#A1A1A4"/>
<path d="M49.8801 52.5474L48.5322 57.7751C48.5322 57.7751 49.3447 57.5652 50.0836 57.372C49.214 60.6669 47.3096 67.8934 47.3096 67.8934C47.094 68.7664 46.9895 69.6129 46.9895 70.4113C46.9895 72.1719 47.5014 73.6996 48.4911 74.7867C49.4226 75.8097 51.2204 76.9371 54.498 76.4902C57.0403 76.1465 59.4013 74.9271 61.5189 72.8632L62.9478 71.4708L58.5529 68.8556L57.697 69.6645C57.6347 69.7246 57.5709 69.7754 57.5107 69.8259C57.5349 69.6377 57.5733 69.4158 57.6347 69.1594C57.6304 69.1718 62.1717 50.7337 62.1717 50.7337L62.8531 47.9652L49.8801 52.5474Z" fill="#A1A1A4"/>
<path d="M77.5993 49.1817C77.7824 49.1612 77.9793 49.1589 78.164 49.1689L74.1894 65.0958C74.0372 65.6789 73.1386 66.1833 72.1027 66.2558C72.0585 66.2589 72.0135 66.2477 71.9665 66.2364C72.1743 65.419 76.0773 49.9666 76.0976 49.8843C76.244 49.6617 76.9868 49.25 77.5993 49.1817ZM78.5632 43.2056C71.0719 44.1204 65.4254 48.5529 63.8334 54.7707L61.6026 63.7182L61.6112 63.6805C60.8207 66.5375 61.1275 68.7934 62.5255 70.3864C64.1402 72.2242 66.9603 72.8961 70.9094 72.3852C78.4375 71.4098 84.0108 67.3467 85.4588 61.7795C85.4596 61.7733 87.9811 51.8796 87.9811 51.8796C88.6891 48.9975 88.3322 46.75 86.9284 45.1834C85.3136 43.3899 82.5006 42.7226 78.5632 43.2056ZM109.439 36.8346C107.886 37.0833 106.078 37.7114 104.443 38.5133C104.584 37.9566 104.737 37.3595 104.737 37.3595L91.6418 42.1869L90.3876 47.3801L91.9432 46.9145L86.7151 68.1409L97.7728 65.4582L102.248 47.0992C102.502 46.0137 103.047 45.3336 103.993 44.9235L101.341 55.9889C101.345 55.9741 101.195 56.5545 101.195 56.5545C100.605 58.7954 99.7996 61.866 101.499 63.7616C102.437 64.8095 103.894 65.2087 105.826 64.9464C109.246 64.4809 112.254 62.7141 114.77 59.6912L115.889 58.3484C115.889 58.3484 112.124 55.9811 111.768 55.7592C112.606 52.2916 114.674 43.7298 114.674 43.7298C114.884 42.8805 114.991 42.1 114.991 41.3881C114.991 40.0275 114.602 38.9226 113.831 38.0916C112.822 37.0068 111.222 36.5506 109.439 36.8346ZM25.0032 93.6934L24.3156 91.733L26.6469 90.684C39.0919 85.4175 56.2552 79.4964 73.7362 74.4363C91.6685 69.247 107.599 65.6704 117.445 64.6248L119.196 64.4378L119.097 69.3971L117.865 69.6341C109.371 71.2585 79.3267 78.1161 49.3642 98.1627L48.5287 98.7209L47.6739 98.1902C41.1743 94.1589 32.0969 93.6057 27.2648 93.6337C26.549 93.6228 25.0032 93.6934 25.0032 93.6934Z" fill="#A1A1A4"/>
<path d="M125.839 33.9524C119.503 35.2707 115.945 39.7734 116.082 46.312C116.163 50.225 118.615 53.4524 120.987 56.5735C123.022 59.2501 124.944 61.7795 125.008 64.3218C125.125 69.046 123.024 69.711 122.327 69.8673C121.099 70.1404 120.191 69.4037 119.935 69.0945C122.068 68.1083 124.21 66.231 124.21 63.5374C124.21 63.3616 124.201 63.1832 124.183 63.0008C124.005 61.2632 123.157 60.3119 122.478 59.8172C120.966 58.7213 119.174 58.9831 118.661 59.0891C114.93 59.8595 112.559 63.5122 113.261 67.4053C114.398 73.7089 120.342 75.6526 125.384 74.7874C129.033 74.1612 132.082 72.3421 133.968 69.6625C135.833 67.0077 136.464 63.6883 135.79 60.0644C135.093 56.3109 133.068 53.3519 131.111 50.4876C129.08 47.5174 127.158 44.7098 127.017 41.3396C126.971 40.2645 127.286 39.4607 127.616 39.1418C127.745 39.018 127.828 39.011 127.907 39.0161C128.025 39.0242 128.302 39.044 128.598 39.489C129.257 40.4837 129.348 42.5426 128.802 44.0797L128.621 44.5922L129.559 47.223L138.499 43.0788L138.374 41.984C138.082 39.3489 136.755 37.0662 134.644 35.5481C132.257 33.8357 129.13 33.2692 125.839 33.9524Z" fill="#A1A1A4"/>
<path d="M57.9209 40.7351C55.296 41.1952 53.0364 43.4124 52.8865 45.6765C52.8804 45.757 52.8777 45.8376 52.8783 45.9182C52.8783 46.847 53.2414 47.6772 53.9161 48.277C54.8025 49.065 56.1331 49.3726 57.5682 49.1201C60.1938 48.6615 62.4535 46.4455 62.6058 44.1798C62.6739 43.1533 62.3076 42.2288 61.5745 41.5781C60.6889 40.789 59.3575 40.4825 57.9209 40.7351ZM28.2159 48.4023L27.4406 51.3834C27.4406 51.3834 28.6992 51.0486 29.197 50.9144C28.8976 52.2424 23.0449 78.1417 23.0347 78.184C22.5921 79.6842 20.813 80.3891 20.069 80.6211L19.8487 80.6906L18.2477 85.9466L19.0981 85.5971C29.0694 81.4944 43.9456 77.5427 44.0943 77.5039L44.3154 77.4437L46.8479 70.5098L45.5224 70.8178C44.9525 70.9509 44.7416 71.0017 44.6751 71.174C44.3299 71.5743 42.6537 73.4377 40.8359 74.0196L34.2447 75.8186C33.5872 75.9757 33.1051 75.9517 32.9035 75.7495C32.7223 75.5656 32.7028 75.1529 32.8487 74.5833C32.8522 74.5725 39.8458 44.3389 39.8458 44.3389L28.2159 48.4023ZM50.8115 53.3884L50.0793 56.2313C50.0793 56.2313 51.2228 55.9349 51.6427 55.8255C51.3054 57.1015 48.3937 68.1479 48.3937 68.1479C48.1973 68.942 48.1022 69.7048 48.1022 70.4182C48.1022 71.9006 48.5162 73.165 49.3197 74.0476C50.0695 74.8712 51.5535 75.7755 54.3466 75.3965C56.6443 75.0846 58.7959 73.9673 60.7386 72.0752L61.1413 71.6845L58.7067 70.2355L58.4684 70.4636C57.9483 70.9536 57.4289 71.2364 56.9217 71.3039C56.6861 71.3373 56.6094 71.2539 56.5754 71.2182C56.3641 70.9889 56.2322 70.2483 56.5507 68.9067L61.2803 49.6927L50.8115 53.3884ZM75.0274 49.5709C75.2176 48.8101 76.6014 48.1831 77.4725 48.0838C78.2059 48.002 79.2125 48.1133 79.4563 48.3888C79.4806 48.4147 79.4939 48.4369 79.4786 48.502L75.2704 65.3612C74.9921 66.4269 73.7222 67.2486 72.1806 67.3576C71.7149 67.3898 71.207 67.2028 70.9381 66.9029C70.8238 66.7737 70.7694 66.6414 70.7694 66.5002C70.7694 66.4641 70.7737 66.4265 70.7816 66.3873C70.7886 66.3559 75.0274 49.5709 75.0274 49.5709ZM78.701 44.3008C71.6735 45.1602 66.3898 49.2749 64.9128 55.0434L62.6844 63.9831C61.9996 66.4517 62.2285 68.3636 63.3654 69.6601C64.7011 71.1805 67.259 71.7435 70.7659 71.2903C77.8326 70.3736 83.0493 66.6267 84.3792 61.5037L86.9026 51.6084C87.5143 49.1092 87.2443 47.1962 86.0953 45.9198C84.7408 44.4102 82.251 43.8663 78.701 44.3008ZM109.618 37.9244C107.427 38.2758 104.604 39.4773 102.707 40.7983L103.135 39.1297L92.5871 43.0167L91.9221 45.7677C91.9221 45.7677 93.0704 45.4255 93.488 45.2998L88.2324 66.6356L96.8505 64.5465L101.167 46.8381C101.531 45.2704 102.448 44.2601 103.969 43.7453C104.559 43.5474 105.013 43.6308 105.202 43.8039C105.245 43.8423 105.375 43.9618 105.292 44.2795L102.425 56.2438C102.428 56.2403 102.273 56.8323 102.273 56.8323C101.748 58.8342 101.029 61.5743 102.33 63.028C103.008 63.7853 104.132 64.0607 105.676 63.8512C108.808 63.426 111.58 61.79 113.912 58.9882L114.226 58.6111L111.731 57.0422L111.493 57.377C110.93 58.1622 110.297 58.5141 110.039 58.4792C110.024 58.4345 110.018 58.3876 110.019 58.3407C110.019 58.2685 110.029 58.177 110.062 58.0753L110.067 58.0606L113.589 43.4729C113.78 42.7071 113.874 42.0115 113.874 41.3915C113.874 40.3138 113.588 39.4595 113.013 38.8403C112.262 38.0345 111.025 37.6997 109.618 37.9244ZM117.563 65.7231C107.78 66.7613 91.921 70.3243 74.0482 75.497C56.6094 80.5439 39.4908 86.4506 27.0849 91.6993L26.6195 91.8991L26.8003 92.5186L27.2578 92.5291C32.2116 92.4985 41.5262 93.0746 48.2654 97.2556L48.5068 97.4058L48.7401 97.2479C78.8783 77.0829 109.106 70.1835 117.653 68.5498L118 68.4831L118.056 65.6704L117.563 65.7231Z" fill="white"/>
<path d="M126.068 35.0344C120.221 36.2495 117.07 40.2462 117.196 46.2895C117.269 49.8463 119.612 52.9282 121.877 55.9081C124.024 58.7305 126.05 61.3985 126.12 64.2962C126.213 68.0124 125.03 70.2121 122.605 70.8337C121.68 71.0691 120.498 70.8337 119.594 70.2277C118.94 69.7908 118.508 69.1969 118.322 68.5338C120.368 67.9081 123.095 66.1525 123.095 63.5144C123.095 63.3814 123.089 63.2491 123.075 63.1133C122.965 62.0429 122.542 61.2336 121.82 60.7083C120.914 60.0519 119.712 59.9995 118.889 60.1702C115.701 60.829 113.752 63.8551 114.358 67.2086C115.362 72.7715 120.678 74.4719 125.193 73.6995C128.548 73.1249 131.338 71.4672 133.052 69.0304C134.746 66.6224 135.314 63.5932 134.694 60.2637C134.039 56.7395 132.082 53.8771 130.188 51.106C128.064 48.0023 126.056 45.0713 125.903 41.3864C125.849 40.1221 126.209 38.9586 126.838 38.351C127.169 38.0325 127.555 37.8867 127.984 37.9154C128.612 37.9596 129.131 38.2835 129.528 38.8822C130.382 40.1721 130.522 42.5631 129.852 44.4467L129.802 44.5902L130.2 45.7063L137.303 42.413L137.268 42.1049C137.009 39.7838 135.844 37.7745 133.989 36.4435C131.861 34.9153 129.048 34.4144 126.068 35.0344Z" fill="white"/>
<path d="M62.1702 44.1531C62.0293 46.2329 59.9359 48.2689 57.4931 48.6938C55.0483 49.1244 53.1807 47.784 53.3205 45.7045C53.459 43.6212 55.5539 41.5879 57.9979 41.1612C60.4412 40.7309 62.3083 42.0713 62.1702 44.1531ZM45.0824 71.3653L46.1642 71.1123L43.9823 77.0869C43.9823 77.0869 29.0463 81.0355 18.9302 85.1968L20.2005 81.0355C21.582 80.6026 23.0414 79.7103 23.4554 78.3004L29.7809 50.3108L28.0499 50.7748L28.5782 48.7326L39.2438 45.0054L32.4272 74.4767C32.028 76.0247 32.7133 76.6264 34.3617 76.2353L40.9709 74.4305C43.1515 73.7314 45.0824 71.3653 45.0824 71.3653ZM58.7677 70.7752C58.2081 71.3059 57.6097 71.6489 56.9785 71.7331C55.8748 71.8875 55.7296 70.4846 56.1261 68.8079L60.6658 50.3686L51.177 53.7201L50.6866 55.6285L52.254 55.2196L48.8156 68.257C47.8932 72.0085 49.1412 75.6674 54.2863 74.9679C56.6321 74.6486 58.6797 73.4727 60.4329 71.7668L58.7677 70.7752ZM86.4795 51.503C87.8606 45.8663 84.4398 44.034 78.7534 44.7292C72.1971 45.5327 66.8347 49.299 65.3354 55.1486L63.1082 64.0872C61.5553 69.6866 65.029 71.5957 70.7087 70.8617C77.2213 70.0179 82.5965 66.6349 83.9573 61.3967L86.4795 51.503ZM72.2119 67.7902C71.2645 67.855 70.1679 67.2048 70.3534 66.2993L74.6047 49.4666C74.852 48.4711 76.4429 47.7646 77.4236 47.6548C78.2795 47.5582 80.1243 47.6715 79.9021 48.6007L75.6942 65.4656C75.3412 66.8184 73.8169 67.6766 72.2119 67.7902ZM92.958 43.343L92.5232 45.1354L94.0918 44.6675L88.8261 66.0471L96.4892 64.1892L100.742 46.7369C101.184 44.8514 102.342 43.8385 103.828 43.3345C104.983 42.9454 105.967 43.4063 105.715 44.3859L102.849 56.3435C102.196 58.9444 100.451 64.1252 105.616 63.4234C109.472 62.9 112.035 60.5626 113.575 58.7124L111.848 57.6277C111.217 58.5087 110.392 59.0449 109.877 58.887C109.571 58.7908 109.522 58.3407 109.647 57.9462L113.164 43.3714C114.266 38.9479 111.812 38.0105 109.687 38.3523C107.051 38.7729 103.593 40.4302 101.968 41.9363L102.51 39.8212L92.958 43.343Z" fill="#0066B3"/>
<path d="M125.468 41.4021C125.379 39.2687 126.373 37.372 128.015 37.4845C130.628 37.6649 131.259 41.7901 130.266 44.5903L130.45 45.1125L136.835 42.1547C136.299 37.3739 131.798 34.2858 126.156 35.457C120.08 36.7191 117.522 40.9695 117.631 46.2795C117.772 52.9768 126.403 58.0839 126.557 64.2839C126.672 68.9118 124.808 70.7151 122.714 71.2528C120.836 71.7331 118.101 70.5168 117.798 68.229C119.976 67.7061 122.919 65.8629 122.64 63.1565C122.366 60.4776 120.012 60.3787 118.979 60.5921C116.357 61.1333 114.467 63.5572 114.706 66.5073C92.8958 69.5101 51.6095 81.7921 27.2555 92.0978C34.0928 92.0559 42.46 93.1433 48.4959 96.8891C72.6965 80.698 98.531 72.1067 115.192 68.6065C116.7 72.5912 120.997 73.979 125.12 73.274C131.308 72.2141 135.571 67.3724 134.265 60.3442C132.909 53.0381 125.771 48.5921 125.468 41.4021ZM57.8461 34.0103C56.2948 35.199 55.2988 34.5158 54.5642 33.4373L55.8169 32.4775C56.2596 33.0447 56.6564 33.5036 57.3456 32.976C57.7682 32.6517 57.7643 32.2211 57.4501 31.8184C56.6165 30.7488 54.0425 32.6141 52.6646 30.8457C51.9398 29.9158 51.811 28.8322 53.3377 27.6629C54.5583 26.7291 55.5868 26.8083 56.4725 28.1137L55.2518 29.0483C54.9055 28.6037 54.4789 28.2084 53.9721 28.5964C53.5659 28.9071 53.4986 29.3141 53.8183 29.7253C54.6973 30.8523 57.1429 28.8225 58.5979 30.6898C59.7966 32.2288 58.8006 33.2802 57.8461 34.0103ZM60.7695 24.9038L60.7508 24.9123L61.5577 28.1366L62.9099 27.4709L60.7695 24.9038ZM60.7558 31.6764L59.266 24.0297L61.1355 23.1102L66.3436 28.9254L64.8502 29.6605L63.729 28.3562L61.7941 29.3083L62.1561 30.9874L60.7558 31.6764ZM67.5134 28.4385L65.8505 21.1157L68.3372 20.5625L70.6235 25.2836L70.6434 25.2789L70.7416 20.0256L73.1457 19.4894L74.8082 26.8121L73.3042 27.1473L72.0218 21.4979L72.001 21.5025L71.8609 27.469L70.3882 27.7972L67.7552 22.4499L67.7349 22.4538L69.0173 28.1029L67.5134 28.4385ZM78.7077 26.9188C76.7462 26.9068 76.3869 25.7608 76.4781 24.4615L78.0619 24.4724C78.0576 25.1893 78.0858 25.7918 78.9554 25.7984C79.4904 25.8011 79.7541 25.4601 79.7581 24.9499C79.7659 23.5995 76.5791 23.4955 76.5932 21.2608C76.6002 20.0861 77.1728 19.1542 79.1018 19.1663C80.6433 19.1756 81.4045 19.8673 81.2902 21.4358L79.7491 21.4253C79.7526 20.8647 79.6614 20.2917 79.0219 20.2886C78.5073 20.2855 78.202 20.5637 78.1989 21.0835C78.1895 22.5077 81.3787 22.403 81.3638 24.7626C81.3517 26.707 79.9134 26.9266 78.7077 26.9188ZM89.5513 20.6448L88.4688 25.8578C88.2399 26.9572 87.3723 27.9904 85.4828 27.6047C83.7773 27.2563 83.1378 26.2127 83.4254 24.8285L84.5079 19.6155L86.0585 19.9321L84.9975 25.0427C84.8085 25.9493 85.1251 26.3854 85.6902 26.5006C86.368 26.6387 86.7692 26.2539 86.9386 25.4391L88 20.3282L89.5513 20.6448ZM89.7916 28.5308L92.8594 21.6694L94.815 22.5283L94.5317 28.0881L94.5509 28.0971L96.6755 23.3457L98.0269 23.9397L94.9594 30.8011L93.0512 29.9627L93.4066 24.1154L93.387 24.1069L91.1437 29.1248L89.7916 28.5308ZM102.442 29.5666C102.864 29.0099 103.135 28.4466 102.457 27.957C101.659 27.3824 100.876 28.4501 100.011 29.6264C98.617 31.5254 98.5564 31.9968 99.2867 32.5229C99.4984 32.6757 99.7641 32.7902 100.008 32.8643L100.996 31.5192L100.3 31.0176L100.985 30.0842L102.961 31.5099L100.703 34.5864C100.305 34.4022 99.3336 33.9067 98.8245 33.5401C96.6708 31.986 97.0724 30.9257 98.7642 28.6239C99.8874 27.0934 101.105 25.5936 103.199 27.1047C104.454 28.0101 104.722 29.2714 103.713 30.4849L102.442 29.5666ZM66.8453 94.9283L67.5987 95.1658C67.8452 95.2438 68.2401 95.1894 68.406 94.6715C68.5321 94.2797 68.3556 93.9061 67.9756 93.7866L67.2817 93.5682L66.8453 94.9283ZM66.0959 97.265L66.7224 97.4625C66.9612 97.5378 67.5008 97.6999 67.7399 96.9531C67.8918 96.4798 67.8053 96.1345 67.2386 95.956L66.5819 95.7489L66.0959 97.265ZM64.7058 97.7306L66.4187 92.3923L68.4178 93.0223C69.2752 93.2923 69.9057 93.7602 69.5406 94.8989C69.3437 95.513 68.8956 95.8594 68.246 95.7853L68.2413 95.8001C69.004 96.1628 69.049 96.7386 68.8142 97.471C68.3802 98.8238 67.1752 98.5088 66.6978 98.3583L64.7058 97.7306ZM72.2139 95.0579L72.1987 95.0548L71.23 97.3411L72.3392 97.5409L72.2139 95.0579ZM69.1563 99.1043L71.7079 93.8708L73.2401 94.147L73.7383 99.9307L72.5137 99.7095L72.4303 98.4328L70.8438 98.1465L70.3041 99.3111L69.1563 99.1043ZM76.1349 100.174C74.674 100.091 74.4501 99.223 74.5687 98.2582L75.7486 98.3257C75.7177 98.8603 75.715 99.3107 76.3634 99.3484C76.7622 99.3709 76.9724 99.1261 76.9947 98.7466C77.053 97.7399 74.6814 97.5416 74.7785 95.8765C74.8286 95.0009 75.2915 94.3282 76.7294 94.4104C77.878 94.476 78.4188 95.0199 78.2725 96.1849L77.1238 96.1194C77.1481 95.7012 77.1027 95.2717 76.6261 95.2441C76.2433 95.222 76.0042 95.4183 75.9819 95.8055C75.92 96.8666 78.301 96.9096 78.1985 98.6683C78.1144 100.117 77.0338 100.226 76.1349 100.174ZM79.272 100.177L78.973 94.5834L82.0526 94.4217L82.0991 95.2822L80.1995 95.3815L80.2731 96.7611L82.0236 96.6691L82.0698 97.5288L80.3189 97.6208L80.4061 99.2556L82.368 99.1528L82.4138 100.013L79.272 100.177ZM84.5252 98.8607L85.1736 98.7525C85.4206 98.7113 85.9751 98.6108 85.8436 97.838C85.7603 97.3484 85.5247 97.0811 84.938 97.1789L84.2586 97.2926L84.5252 98.8607ZM84.1142 96.4429L84.8938 96.313C85.149 96.2703 85.4754 96.0422 85.3842 95.5072C85.3153 95.1018 84.987 94.8496 84.5933 94.9155L83.8751 95.035L84.1142 96.4429ZM83.5037 99.9043L82.5653 94.3802L84.6336 94.0349C85.5215 93.8871 86.2976 94.017 86.498 95.1956C86.6056 95.8303 86.3673 96.3425 85.7552 96.5702L85.7579 96.5857C86.6032 96.5628 86.9093 97.0544 87.0376 97.8124C87.276 99.2126 86.0589 99.4787 85.5646 99.5606L83.5037 99.9043ZM88.9518 94.128L88.9369 94.1323L89.1263 96.6043L90.2053 96.2815L88.9518 94.128ZM88.0912 99.1109L87.9554 93.2997L89.4468 92.8532L92.5495 97.776L91.3582 98.1329L90.696 97.0346L89.1525 97.4966L89.2077 98.7769L88.0912 99.1109ZM93.3541 97.4221L91.13 92.2724L92.2164 91.8115L94.0711 96.1054L95.6979 95.4152L96.067 96.2711L93.3541 97.4221ZM96.809 95.8889L94.1024 90.9716L95.1399 90.4106L97.3968 94.5109L98.9497 93.6714L99.3998 94.488L96.809 95.8889ZM100.054 90.7333C99.1411 89.559 98.2723 88.4405 99.8158 87.2611C100.771 86.5321 101.561 86.761 102.264 87.7422L101.347 88.4428C100.888 87.8528 100.611 87.7123 100.332 87.9253C99.8048 88.3276 100.119 88.8715 101.002 90.0083C101.886 91.1457 102.337 91.5853 102.864 91.183C103.298 90.8513 102.849 90.3124 102.589 89.9528L103.513 89.2467C104.435 90.4327 104.254 91.1787 103.38 91.8468C101.836 93.0262 100.957 91.8949 100.054 90.7333ZM105.459 90.0257L101.561 85.9696L102.417 85.1619L105.667 88.5437L106.948 87.3337L107.596 88.0083L105.459 90.0257ZM106.311 80.9064L109.377 83.4634C110.024 84.0034 110.4 84.9349 109.472 86.0274C108.636 87.0128 107.718 87.0582 106.903 86.3789L103.837 83.8215L104.598 82.9253L107.604 85.4327C108.138 85.8769 108.538 85.8264 108.816 85.4994C109.148 85.1083 109.036 84.7095 108.557 84.3103L105.55 81.8025L106.311 80.9064Z" fill="#0066B3"/>
<path d="M111.312 82.0306L111.669 81.4832C111.804 81.2748 112.104 80.8011 111.44 80.3755C111.019 80.1063 110.661 80.0985 110.338 80.5944L109.964 81.1674L111.312 82.0306ZM109.234 80.7003L109.663 80.0423C109.803 79.8266 109.854 79.4347 109.394 79.1399C109.045 78.9168 108.636 78.9867 108.419 79.3195L108.024 79.9255L109.234 80.7003ZM111.401 83.4819L106.653 80.4419L107.791 78.6957C108.28 77.9465 108.9 77.4655 109.913 78.1145C110.458 78.4641 110.679 78.9836 110.436 79.5853L110.449 79.5938C111.002 78.9595 111.574 79.0677 112.226 79.484C113.429 80.2545 112.806 81.3249 112.534 81.7419L111.401 83.4819Z" fill="#0066B3"/>
</g>
<defs>
<clipPath id="clip0_243_1210">
<rect width="122" height="91" fill="white" transform="translate(16.5 14.5)"/>
</clipPath>
</defs>
</svg>
