<svg width="93" height="90" viewBox="0 0 93 90" fill="none" xmlns="http://www.w3.org/2000/svg">
<circle cx="46.1842" cy="33.5254" r="20.6538" fill="white"/>
<path d="M54.6148 16.4573C55.144 16.4691 55.6741 16.5262 56.1441 16.594L56.5924 16.6643L56.9791 16.7336C58.9254 17.1052 61.1162 17.838 63.5953 19.0012H63.5963L63.9664 19.1809C64.3336 19.3645 64.6947 19.5604 65.0484 19.7688H65.0474C67.0746 20.9513 69.4036 22.7135 71.4 24.8196C73.3915 26.9205 75.0943 29.4091 75.7984 32.0461L75.9166 32.5061C76.9996 36.9401 76.5231 40.9568 75.0836 44.5842L74.772 45.3293C73.4411 48.3513 71.3983 50.8852 69.7056 52.6536C68.8571 53.5401 68.0902 54.2407 67.5338 54.7209C67.2555 54.9612 67.0294 55.1474 66.8717 55.2737C66.7929 55.3368 66.7308 55.3851 66.6881 55.4182C66.6667 55.4348 66.6499 55.4475 66.6383 55.4563C66.6325 55.4607 66.6279 55.4646 66.6246 55.467C66.623 55.4682 66.6216 55.4693 66.6207 55.47L66.6197 55.4709H66.6187L65.2633 56.4885L65.525 54.8137V54.8127C65.5252 54.8115 65.5255 54.8096 65.526 54.8069L65.5455 54.6702C65.5587 54.5746 65.5775 54.4355 65.5972 54.2639C65.6368 53.9196 65.6818 53.4487 65.7047 52.9407C65.7071 52.8869 65.7077 52.8328 65.7095 52.7786C63.7853 56.7067 60.3556 59.3272 56.4058 60.7991C51.8141 62.5101 46.4811 62.6918 41.8492 61.5862L41.4029 61.4749C37.2529 60.4001 34.0579 58.2475 31.9058 56.3733C30.8287 55.4352 30.0079 54.5626 29.4547 53.9221C29.1779 53.6017 28.9672 53.3383 28.8248 53.1536C28.7537 53.0614 28.6998 52.9885 28.6627 52.9377C28.6441 52.9124 28.6298 52.8922 28.6197 52.8782C28.6147 52.8711 28.6099 52.8656 28.607 52.8616C28.6057 52.8597 28.6049 52.8579 28.6041 52.8567L28.6031 52.8547H28.6021L29.1666 52.4602L28.6021 52.8538L27.2838 50.9651L29.4273 51.8225C29.4319 51.8243 29.4394 51.8273 29.4498 51.8313C29.4714 51.8396 29.5056 51.8528 29.5513 51.8694C29.6431 51.9027 29.7826 51.9516 29.9664 52.011C30.3342 52.1297 30.8801 52.2904 31.5787 52.4543C32.9764 52.7823 34.9828 53.1218 37.4019 53.1604C42.2349 53.2375 48.7174 52.1158 55.3062 47.2991L55.6988 47.0042C59.6254 43.958 63.615 38.1859 63.7183 31.6223L63.7154 30.9641C63.6297 27.3775 61.6293 22.4676 58.2262 19.5901C57.6991 19.7186 57.4505 19.9517 57.3219 20.1877C57.1509 20.5016 57.1014 20.9805 57.2252 21.6399C57.4729 22.9588 58.3334 24.5785 59.1578 25.8401V25.8411L59.4605 26.2913C60.1723 27.3151 60.9238 28.1579 61.9078 28.9719H61.9088L62.0953 29.1448C62.5138 29.5775 62.8127 30.21 62.8785 30.9426L62.901 31.2522C62.9408 31.9708 62.894 32.6589 62.8355 33.1819C62.8018 33.483 62.7641 33.7349 62.734 33.9124C62.7189 34.0008 62.7054 34.0711 62.6959 34.1204C62.6911 34.145 62.687 34.1652 62.6842 34.179C62.6828 34.1854 62.682 34.1907 62.6812 34.1946C62.6808 34.1964 62.6805 34.1982 62.6803 34.1995L62.6793 34.2014V34.2024L62.5553 34.7844L61.9605 34.7454L62.0064 34.0588L61.9595 34.7454H61.9547C61.9527 34.7452 61.9508 34.7446 61.9488 34.7444C61.9445 34.744 61.9398 34.7439 61.9351 34.7434C61.9259 34.7425 61.9158 34.7409 61.9049 34.7395C61.8827 34.7366 61.8568 34.7325 61.8277 34.7268C61.7692 34.7154 61.6956 34.698 61.607 34.6702C61.4302 34.6145 61.1898 34.5176 60.8756 34.3518C60.327 34.0623 59.5422 33.5545 58.4674 32.6575L57.9888 32.2483C56.6598 31.0879 55.484 29.6868 54.481 28.1741L53.9478 27.3713L54.8804 27.1282C55.1877 27.0481 55.5419 26.947 55.8922 26.842C54.1796 25.9476 53.0627 25.0071 52.5289 24.1038V24.1028C51.9348 23.0991 51.7233 22.5195 51.5133 21.7551V21.7542C51.3254 21.0772 51.0536 20.1051 51.0592 19.2063C51.062 18.7479 51.1356 18.2589 51.3648 17.8167C51.6024 17.3585 51.9872 16.9898 52.5318 16.7639V16.7649C53.1632 16.5018 53.9233 16.4418 54.6148 16.4573Z" fill="#002461" stroke="white" stroke-width="1.37692"/>
<path d="M38.7193 4.15381C42.8255 1.52813 47.3836 1.17843 50.9097 1.48096C52.7341 1.6375 54.2989 1.96981 55.4087 2.26318C55.9641 2.41 56.4072 2.54734 56.7134 2.64893C56.8665 2.69972 56.9859 2.74136 57.0679 2.771C57.1088 2.78578 57.1406 2.79787 57.1626 2.80615C57.1734 2.81021 57.1819 2.81357 57.188 2.81592C57.1911 2.8171 57.194 2.81813 57.1958 2.81885L57.1978 2.81982H57.1987C57.1991 2.81994 57.1991 2.82014 56.9497 3.46143L57.1997 2.81982L58.728 3.41455L57.2329 4.08936L57.231 4.09033C57.2295 4.09101 57.2271 4.09189 57.2241 4.09326C57.2173 4.09635 57.2066 4.1016 57.1929 4.10791C57.1652 4.12061 57.1235 4.13983 57.0708 4.16455C56.9653 4.21401 56.8135 4.28582 56.6314 4.37549C56.2657 4.5555 55.7814 4.80438 55.2984 5.08154C55.2575 5.10501 55.2168 5.12916 55.1763 5.15283C56.1317 5.01756 57.2042 4.9192 58.2056 4.9585L58.5093 4.97412C64.885 5.37987 70.8576 10.7418 73.6607 17.0054V17.0063L73.8511 17.4497C74.7627 19.6639 75.0618 21.7825 75.1284 23.3755C75.164 24.2262 75.133 24.9313 75.0933 25.4272C75.0734 25.6754 75.0514 25.872 75.0337 26.0083C75.0249 26.0762 75.0169 26.1292 75.0112 26.1665C75.0084 26.185 75.0061 26.1999 75.0044 26.2104C75.0036 26.2156 75.003 26.22 75.0025 26.2231C75.0022 26.2248 75.0017 26.2269 75.0015 26.228V26.23L74.7105 27.9087L73.7534 26.4995L73.7525 26.4976C73.7514 26.496 73.75 26.4933 73.7476 26.4897C73.7427 26.4826 73.7345 26.4714 73.7241 26.4565C73.7034 26.4267 73.6722 26.3815 73.6304 26.3228C73.5467 26.2051 73.4212 26.0328 73.2583 25.8159C72.9323 25.3816 72.4557 24.7709 71.856 24.0718C70.7281 22.757 69.1792 21.1453 67.3941 19.7974L67.0347 19.5308C61.5208 15.5531 54.6547 13.8697 47.8814 14.5757L47.2271 14.6519C41.9671 15.3223 36.6007 18.4852 33.6743 22.9829H33.6734C32.4662 24.8339 31.6419 27.1166 31.3472 29.0835L31.2954 29.4731L29.94 29.5454C29.0431 25.5743 29.187 22.5571 29.4683 20.2104V20.2085L29.5152 19.8726C29.532 19.7643 29.5498 19.6591 29.5689 19.5562C30.8567 10.7157 35.2389 6.51384 38.3228 4.41455L38.7193 4.15381Z" fill="#002461" stroke="white" stroke-width="1.37692"/>
<path d="M67.4973 66.7322C70.6611 66.7322 73.2371 67.2497 74.8274 68.9988C76.3242 70.6452 76.7817 73.1956 76.3577 76.8201L76.261 77.5593C75.6716 81.6596 74.4445 84.446 72.4397 86.1902C70.4316 87.9371 67.7677 88.53 64.5618 88.53C61.3708 88.53 58.8003 87.9494 57.2268 86.1199C55.6571 84.2946 55.26 81.4352 55.845 77.363L55.9612 76.6199C56.5819 72.9818 57.7633 70.5039 59.6389 68.9343C61.6371 67.2622 64.2924 66.7322 67.4973 66.7322ZM25.6838 67.1648L25.5706 67.9509L24.5061 75.3494C24.9873 74.8759 25.5604 74.2826 26.2073 73.572C27.6193 72.0208 29.3611 69.9469 31.2581 67.4382L31.4651 67.1648H50.6262C52.6331 67.1648 54.081 67.5756 54.9055 68.6248C55.7156 69.6555 55.7469 71.0879 55.5237 72.6384C55.3213 74.0466 54.9457 75.2995 54.3538 76.2195C54.1268 76.5722 53.8609 76.8824 53.5579 77.1335C53.8666 77.4319 54.1004 77.8039 54.2678 78.2214C54.6832 79.2571 54.7356 80.652 54.51 82.2302V82.2312C54.2106 84.3051 53.4666 85.8058 52.2776 86.7751C51.0951 87.7392 49.5746 88.0935 47.8958 88.0935H29.0051L28.8313 87.6619C27.5384 84.4465 26.328 82.0114 25.3293 80.3347C24.8464 79.5239 24.4174 78.9013 24.0598 78.4558L22.759 87.5037L22.675 88.0935H16.7629L16.8762 87.3074L19.3245 70.2693C19.3565 70.0087 19.3265 69.8458 19.2854 69.7351C19.2426 69.6199 19.1696 69.5126 19.0471 69.3845C18.9006 69.2312 18.7755 69.1347 18.553 68.9265C18.3576 68.7437 18.1344 68.5125 17.9514 68.2078L17.3245 67.1648H25.6838ZM37.4426 68.6531C34.1421 72.8104 31.5589 75.6327 30.2512 76.8787C30.385 77.046 30.5285 77.2366 30.678 77.449C31.0563 77.9865 31.5091 78.7003 32.0149 79.5916C33.0268 81.3748 34.2632 83.8854 35.5647 87.1501L35.9221 88.0476L36.0295 87.3074L38.4836 70.28C38.5175 70.0132 38.4873 69.8473 38.4456 69.7351C38.4027 69.62 38.3297 69.5125 38.2073 69.3845C38.0616 69.2323 37.935 69.1342 37.7131 68.9275C37.6263 68.8466 37.5347 68.7549 37.4426 68.6531ZM66.9026 72.2556C64.8848 72.2556 63.9908 72.4384 63.4241 73.0232C63.132 73.3246 62.876 73.7873 62.6458 74.5417C62.4729 75.1081 62.3232 75.8093 62.179 76.6833L62.0354 77.6169C61.8406 78.964 61.7391 79.9848 61.7483 80.7634C61.7576 81.5493 61.8805 82.0028 62.0559 82.28C62.2128 82.528 62.4636 82.7155 62.9514 82.8435C63.4628 82.9776 64.1693 83.0281 65.1526 83.0281C67.1507 83.0281 68.055 82.8102 68.634 82.1814C68.9371 81.8522 69.2006 81.3568 69.4358 80.573C69.671 79.7889 69.8644 78.766 70.0579 77.4207L70.1829 76.4871C70.2903 75.6131 70.3421 74.9143 70.3323 74.3523C70.319 73.596 70.194 73.1794 70.0256 72.9324C69.8745 72.7107 69.6264 72.5351 69.1243 72.4177C68.6031 72.2959 67.8903 72.2556 66.9026 72.2556ZM42.5823 82.8757H47.2688C47.5701 82.8757 47.7477 82.786 47.8899 82.614C48.0619 82.4057 48.2324 82.0119 48.3323 81.3064L48.3333 81.3044L48.3655 81.0378C48.4228 80.4524 48.3539 80.1276 48.2678 79.9675C48.211 79.8619 48.1211 79.7664 47.804 79.7664H43.0295L42.5823 82.8757ZM43.7581 74.7117H48.303C48.5899 74.7117 48.7109 74.6375 48.7991 74.5339C48.9224 74.3889 49.0639 74.083 49.1536 73.4539C49.2445 72.8042 49.1776 72.5391 49.1301 72.4539C49.1189 72.4336 49.1134 72.4293 49.0969 72.4216C49.0676 72.4081 48.9924 72.3845 48.8381 72.3845H44.092L43.7581 74.7117ZM31.967 9.96655C24.1068 25.3212 30.9451 36.6806 32.9895 39.7107L33.2991 40.158C34.1233 41.3252 35.643 43.2864 37.4797 44.6833L38.5432 45.4929L37.2668 45.8894C36.6695 46.0748 36.077 46.2239 35.4973 46.3445C37.3404 46.2713 39.8663 45.2972 41.3733 44.2048L41.6331 44.0095C46.9299 39.9143 47.3669 31.5868 41.6917 26.7761L41.4124 26.5466C40.6525 25.9394 39.5205 25.3762 38.3108 25.0076C37.0962 24.6375 35.8841 24.4882 34.9641 24.6335L33.5149 24.8621L34.2649 23.6013C34.8424 22.6303 35.5157 22.0017 36.26 21.5896C36.9928 21.184 37.7564 21.0103 38.47 20.8933L38.8333 20.8425C42.584 20.4033 46.3849 22.6107 48.8977 25.4568L49.6165 26.2712L48.5735 26.574C48.2061 26.6804 47.7569 26.8208 47.3147 26.9714C48.1939 27.3324 48.9656 27.6965 49.6184 28.158C50.6217 28.8672 51.331 29.7892 51.843 31.198L51.9426 31.4861L51.9456 31.4939L51.9475 31.5017C53.2926 35.9243 53.293 40.4076 51.051 44.4333L50.8264 44.821C47.1254 51.0093 38.9929 53.4732 31.884 51.7478L31.1995 51.5681C23.4286 49.3634 19.8256 44.2799 18.1877 39.7576C17.3726 37.5069 17.0439 35.3981 16.9182 33.8533C16.8553 33.0798 16.8433 32.4443 16.8469 31.9998C16.8488 31.7774 16.8541 31.6023 16.8596 31.4812C16.8624 31.4207 16.8654 31.3734 16.8674 31.3406C16.8684 31.3244 16.8687 31.3116 16.8694 31.3025C16.8697 31.2981 16.8702 31.2945 16.8704 31.2917V31.2878C16.8758 30.7178 16.9668 29.8671 17.053 29.1814C17.0983 28.821 17.1431 28.4936 17.177 28.2566C17.194 28.138 17.209 28.0411 17.219 27.9744C17.2239 27.9412 17.2271 27.9149 17.2297 27.8972C17.2311 27.8885 17.2329 27.8813 17.2336 27.8767C17.234 27.8747 17.2335 27.873 17.2336 27.8718L17.2346 27.8699L17.5198 26.0144L18.5012 27.614L18.5022 27.615C18.5029 27.6161 18.5045 27.6183 18.5061 27.6208C18.5093 27.6259 18.5142 27.6338 18.5208 27.6443C18.5342 27.6658 18.5546 27.6984 18.5813 27.74C18.6349 27.8236 18.7134 27.9451 18.8127 28.0916C19.0119 28.3853 19.2912 28.7773 19.6106 29.1755C19.6441 29.2173 19.679 29.2581 19.7131 29.2996C19.4407 28.4394 19.1794 27.3874 19.0305 26.1873L18.967 25.5789C18.693 22.4379 19.5956 17.7211 22.928 13.8416L22.929 13.8406L23.1692 13.5671C25.6602 10.7929 28.406 9.61493 31.2014 8.9812L32.6379 8.65601L31.967 9.96655Z" fill="#002461" stroke="white" stroke-width="1.37692"/>
</svg>
