<svg width="155" height="122" viewBox="0 0 155 122" fill="none" xmlns="http://www.w3.org/2000/svg">
<g clip-path="url(#clip0_243_2022)">
<mask id="mask0_243_2022" style="mask-type:luminance" maskUnits="userSpaceOnUse" x="8" y="13" width="139" height="96">
<path d="M8.49957 13.6011H146.362V108.335H8.49957V13.6011Z" fill="white"/>
</mask>
<g mask="url(#mask0_243_2022)">
<path d="M112.804 60.968C112.804 78.7523 98.3786 93.1699 80.5838 93.1699C62.7887 93.1699 48.3618 78.7523 48.3618 60.968C48.3618 43.1828 62.7887 28.7652 80.5838 28.7652C98.3786 28.7652 112.804 43.1828 112.804 60.968Z" fill="white"/>
<path d="M95.6929 48.0779C95.6929 48.0779 97.4494 47.4947 98.241 47.6869L98.4795 47.0623C97.7993 46.7317 96.0929 47.1294 96.0929 47.1294C96.0929 47.1294 95.281 45.6482 94.6981 45.5181L94.4118 46.2248C95.2242 46.6911 95.6929 48.0779 95.6929 48.0779Z" fill="#C7A079"/>
<path d="M89.0497 89.6623C89.0497 89.6623 88.3339 88.6739 87.885 88.582L87.6743 89.1039C88.304 89.4974 88.7051 90.3225 88.7051 90.3225C88.7051 90.3225 90.2844 89.9961 90.9115 90.1809L91.1366 89.6705C90.6018 89.3822 89.0497 89.6623 89.0497 89.6623Z" fill="#C7A079"/>
<path d="M92.2569 81.8191C92.2569 81.8191 90.8784 80.4687 90.3027 80.4985L90.224 81.22C91.1203 81.4944 92.0537 82.7634 92.0537 82.7634C92.0537 82.7634 93.6898 81.6178 94.5009 81.631L94.6194 80.9151C93.8807 80.7454 92.2569 81.8191 92.2569 81.8191Z" fill="#C7A079"/>
<path d="M96.8907 45.7791C96.8907 45.7791 98.6399 45.5032 99.444 45.61L99.8069 44.8852C99.0961 44.6292 97.2829 44.915 97.2829 44.915C97.2829 44.915 96.5087 43.4983 95.9188 43.4295L95.6315 44.1314C96.4846 44.5132 96.8907 45.7791 96.8907 45.7791Z" fill="#C7A079"/>
<path d="M98.3021 43.5074C98.3021 43.5074 99.6824 43.4386 100.472 43.5935L100.883 42.8878C100.197 42.5879 98.7721 42.6318 98.7721 42.6318C98.7721 42.6318 97.8528 41.4844 97.3165 41.2681L96.9875 41.8977C97.8088 42.3244 98.3021 43.5074 98.3021 43.5074Z" fill="#C7A079"/>
<path d="M99.5589 41.4431C99.5589 41.4431 100.879 41.304 101.652 41.5127L102.123 40.7821C101.463 40.4441 100.087 40.5998 100.087 40.5998C100.087 40.5998 99.3537 39.3431 98.7838 39.2013L98.4401 39.7771C99.2251 40.2569 99.5589 41.4431 99.5589 41.4431Z" fill="#C7A079"/>
<path d="M100.874 39.5026C100.874 39.5026 102.038 39.5978 102.791 39.8547L103.216 39.2904C102.581 38.9045 101.308 38.8381 101.308 38.8381C101.308 38.8381 100.654 37.6196 100.096 37.4398L99.7384 37.9666C100.488 38.4918 100.874 39.5026 100.874 39.5026Z" fill="#C7A079"/>
<path d="M88.1957 91.19C88.1957 91.19 87.4704 90.2166 87.0552 90.1237L86.8615 90.6431C87.4444 91.0376 87.8767 91.8535 87.8767 91.8535C87.8767 91.8535 89.2846 91.5354 89.8683 91.7218L90.0743 91.2098C89.5818 90.9223 88.1957 91.19 88.1957 91.19Z" fill="#C7A079"/>
<path d="M89.8986 87.974C89.8986 87.974 88.9108 86.7246 88.3886 86.6517L88.1957 87.308C88.9548 87.7296 89.5662 88.8115 89.5662 88.8115C89.5662 88.8115 91.2681 88.1959 92.0025 88.3666L92.2143 87.7195C91.5764 87.4213 89.8986 87.974 89.8986 87.974Z" fill="#C7A079"/>
<path d="M90.8108 86.2215C90.8108 86.2215 89.5818 84.7824 89.0083 84.766L88.8747 85.4825C89.7381 85.8455 90.5435 87.1536 90.5435 87.1536C90.5435 87.1536 92.2748 86.1154 93.0822 86.2058L93.2426 85.4966C92.5251 85.2555 90.8108 86.2215 90.8108 86.2215Z" fill="#C7A079"/>
<path d="M91.5973 83.965C91.5973 83.965 90.2995 82.5608 89.7264 82.5649L89.6161 83.2831C90.4936 83.6054 91.3615 84.8994 91.3615 84.8994C91.3615 84.8994 93.0514 83.8141 93.8608 83.8705L94.0005 83.1547C93.2743 82.9468 91.5973 83.965 91.5973 83.965Z" fill="#C7A079"/>
<path d="M66.3511 37.7612L66.947 37.2526C66.4477 36.9676 65.9189 35.3172 65.9189 35.3172C65.9189 35.3172 64.7636 35.2825 64.236 35.1209L63.4755 35.666L65.2963 35.8789C65.2963 35.8789 65.7202 37.4431 66.3511 37.7612Z" fill="#C7A079"/>
<path d="M68.4075 36.3049L69.033 35.8311C68.3993 35.512 67.9723 33.9331 67.9723 33.9331C67.9723 33.9331 66.7853 33.8163 66.3426 33.5578L65.7283 34.0301C66.1316 34.3441 67.3722 34.4723 67.3722 34.4723C67.3722 34.4723 67.7523 36.0291 68.4075 36.3049Z" fill="#C7A079"/>
<path d="M64.3823 39.4133C64.5579 39.2372 64.7393 39.067 64.9264 38.903C64.349 38.1823 64.1476 36.8194 64.1476 36.8194C64.1476 36.8194 62.799 36.7614 62.1519 36.7225C61.9534 36.9005 61.6729 37.2477 61.6729 37.2477L63.4476 37.4556C63.4476 37.4556 63.8036 38.7581 64.3823 39.4133Z" fill="#C7A079"/>
<path d="M62.7418 41.2417C62.903 41.0786 63.0908 40.8698 63.2818 40.7049C62.7028 39.9808 62.4194 38.5078 62.4194 38.5078C62.4194 38.5078 61.1229 38.4516 60.482 38.4093C60.2774 38.5891 60.1033 38.7365 60.0009 38.9378L61.7404 39.1292C61.7404 39.1292 62.1598 40.5897 62.7418 41.2417Z" fill="#C7A079"/>
<path d="M70.3992 34.8425L71.0666 34.4034C70.2873 34.2435 69.8952 32.5394 69.8952 32.5394C69.8952 32.5394 68.8495 32.527 68.5002 32.2967C68.2315 32.4416 67.9496 32.5419 67.6799 32.7166C68.0765 32.9073 69.2467 32.9975 69.2467 32.9975C69.2467 32.9975 69.8024 34.5774 70.3992 34.8425Z" fill="#C7A079"/>
<path d="M61.4822 42.612C60.9371 42.0179 60.4568 40.4978 60.4568 40.4978C60.4568 40.4978 59.232 40.5583 58.5845 40.5425L58.0155 41.1456C58.6579 41.2517 59.828 41.1946 59.828 41.1946C59.828 41.1946 60.2271 42.5142 60.9711 43.2773L61.4822 42.612Z" fill="#C7A079"/>
<path d="M72.3093 33.2793C72.4796 33.1542 72.9264 32.9132 72.9264 32.9132C72.2123 32.6364 72.1637 31.3955 72.1637 31.3955C72.1637 31.3955 70.5953 31.3697 70.2298 31.1983C70.0065 31.3457 69.7673 31.4252 69.5535 31.6067C69.8526 31.8602 71.4409 31.9314 71.4409 31.9314C71.4409 31.9314 71.6062 33.131 72.3093 33.2793Z" fill="#C7A079"/>
<path d="M57.0845 42.6705C56.9009 42.9199 56.7625 43.078 56.5863 43.3258L58.2525 43.4061C58.2525 43.4061 58.6057 44.9372 59.1676 45.4814L59.6361 44.7888C59.1599 44.2288 58.8552 42.6639 58.8552 42.6639C58.8552 42.6639 57.6445 42.7145 57.0845 42.6705Z" fill="#C7A079"/>
<path d="M57.0651 44.9944C57.0651 44.9944 56.0053 45.141 55.4528 45.0077L54.9802 45.5909C55.4171 45.7492 56.5809 45.7515 56.5809 45.7515C56.5809 45.7515 57.1853 47.7556 57.6611 48.0017L58.0934 47.2503C57.4824 46.7474 57.0651 44.9944 57.0651 44.9944Z" fill="#C7A079"/>
<path d="M54.019 47.5139L53.5854 48.1948L55.146 48.1933C55.146 48.1933 55.5223 49.8335 56.2008 50.3538L56.6099 49.6297C56.1593 49.15 55.691 47.4749 55.691 47.4749L54.019 47.5139Z" fill="#C7A079"/>
<path d="M52.6421 50.1633L52.3192 50.8891L53.8437 50.8078C53.8437 50.8078 54.45 52.309 55.0145 52.8342C55.1659 52.5849 55.2409 52.2444 55.3768 52C54.71 51.3538 54.2847 50.0863 54.2847 50.0863L52.6421 50.1633Z" fill="#C7A079"/>
<path d="M73.3276 30.7633C73.4008 31.4078 74.0582 32.073 74.0582 32.073L74.6177 31.6977C74.113 31.2736 73.9091 30.3781 73.9091 30.3781L72.894 30.2645C72.3846 30.2364 71.304 30.6124 71.304 30.6124C71.8105 30.5951 73.3276 30.7633 73.3276 30.7633Z" fill="#C7A079"/>
<path d="M131.549 63.8112L131.477 64.2038C131.422 64.4905 128.242 65.0564 125.063 65.7158C125.164 64.7598 125.23 63.7938 125.27 62.8221C128.529 63.3347 131.549 63.8112 131.549 63.8112ZM104.614 57.4611L103.445 67.0554C103.35 67.6436 103.144 68.3777 102.643 68.5218L99.4664 68.8564L100.634 59.2646C100.723 58.6665 100.937 57.9366 101.433 57.7933L104.614 57.4611ZM80.5823 93.9229C70.6746 93.9221 61.7939 89.5503 55.7491 82.6362C56.1114 82.5996 56.3816 82.5697 56.5218 82.5557C56.5993 82.5491 56.6427 82.4912 56.6556 82.3876C56.9354 80.0953 60.1795 53.521 60.1857 53.4687C60.187 53.4124 60.1203 53.3909 60.0705 53.4001C60.0224 53.4076 58.3056 53.7189 56.7009 54.0222C55.7893 54.1979 54.8895 54.5185 54.0248 54.9525C54.034 54.9153 54.0426 54.8787 54.051 54.8506C53.382 54.2136 53.2598 52.7803 53.2598 52.7803L51.4224 53.0445L51.2024 53.7521L52.6649 53.5401C52.6649 53.5401 52.7521 54.5317 53.3303 55.3329C50.8508 56.7917 48.7403 59.2 47.6319 61.9191C47.6228 61.6016 47.6079 61.2861 47.6079 60.9663C47.6079 42.7644 62.3713 28.0137 80.5823 28.0104C94.1643 28.0104 105.824 36.218 110.877 47.9397C105.742 48.4806 99.5579 49.1342 99.5579 49.1342C98.7816 49.2155 98.0216 49.392 97.2813 49.633L97.3695 49.3747C96.6762 49.0913 94.9937 49.6065 94.9937 49.6065C94.9937 49.6065 94.0513 48.1534 93.4669 48.0632L93.2077 48.7723C94.0405 49.184 94.6364 50.5543 94.6364 50.5543C94.6364 50.5543 95.3358 50.2818 96.0481 50.1194C95.2178 50.4999 94.4311 50.969 93.7018 51.5186C93.3391 51.1126 92.8475 50.6355 92.5132 50.6065L92.2864 51.3231C92.5889 51.4499 92.8745 51.705 93.1185 51.9794C90.7105 54.0147 88.9958 56.9276 88.6117 60.0873C88.6117 60.0873 86.3436 78.7109 86.3307 78.846C86.315 78.981 86.307 79.0953 86.4944 79.0845C86.5508 79.0804 88.3551 78.8907 90.8005 78.633L90.7906 78.8302C91.701 79.0432 92.7307 80.266 92.7307 80.266C92.7307 80.266 94.2899 79.0397 95.0993 78.9943L95.1811 78.2784C94.4346 78.1559 92.877 79.3157 92.877 79.3157C92.877 79.3157 92.3644 78.875 91.8258 78.5246C97.1412 77.9652 104.516 77.1841 104.516 77.1841C106.721 76.953 108.815 76.0225 110.578 74.6382C110.462 74.8743 110.354 75.1141 110.254 75.3574C104.907 86.3476 93.631 93.9221 80.5823 93.9229ZM146.225 43.9995C140.381 44.6157 134.537 45.2313 128.692 45.8462C126.784 46.0466 124.96 46.7731 123.359 47.8594C117.753 29.5647 100.725 16.2596 80.5801 16.2596C60.7954 16.2596 44.0222 29.1015 38.1209 46.8967C33.2814 47.3863 21.0297 48.667 21.0297 48.667C12.1135 49.6065 9.58798 56.5348 8.87937 60.5861C8.26712 64.0581 8.57097 66.5077 8.60751 67.1946C8.61192 67.3114 8.65673 67.4539 8.73338 67.478C8.83912 67.511 8.98167 67.4563 9.1653 67.246C9.36258 67.0199 12.6871 62.9057 13.1783 62.3622C13.6683 61.8196 15.7925 59.2813 19.9381 58.8472L33.9852 57.3666C33.9566 57.6641 32.1413 73.5248 32.1413 73.5248C31.8265 75.6142 30.4476 76.9098 27.8744 77.3704C27.8744 77.3704 30.0804 58.1711 30.0824 58.1395C30.0915 58.1073 30.0824 58.0675 30.0299 58.0774C29.9739 58.0881 26.8496 58.6209 26.8496 58.6209C21.9255 59.6806 17.7508 64.2651 17.1424 69.2774L16.071 78.5998C13.11 78.9014 11.1705 78.6289 9.95484 78.5362C9.54373 78.5072 9.15785 78.4557 8.82836 78.4168C8.6916 78.4003 8.5867 78.5287 8.66293 78.6422C9.16365 79.42 10.3607 81.5342 11.9083 83.1671C13.9982 85.3825 17.0488 86.4818 20.8342 86.4818L30.2491 85.6317C35.8744 85.0386 39.2416 83.8806 41.3021 82.3744C48.8928 96.2584 63.6353 105.677 80.5801 105.677C100.376 105.677 117.155 92.8227 123.05 75.0159C128.743 74.4178 134.152 73.847 134.152 73.847C142.827 72.9333 143.158 68.8465 143.337 66.652C143.355 66.4457 143.764 62.8741 143.817 61.8718C143.988 59.2141 142.039 56.824 139.196 56.196C138.043 55.9401 133.358 55.1256 130.353 54.6104C130.408 54.5687 130.469 54.5383 130.535 54.5209L138.983 53.6204C141.922 53.3114 144.209 51.1549 145.266 47.7019L146.36 44.128C146.36 44.128 146.383 43.9797 146.225 43.9995Z" fill="#C7A079"/>
<path d="M88.8038 50.4689C88.6694 50.4821 70.7909 52.3628 70.7909 52.3628C65.3273 52.9434 60.5192 57.7551 59.8379 63.3231C59.8379 63.3231 57.5425 82.1829 57.5359 82.226C57.5313 82.269 57.5749 82.3129 57.6354 82.3047C57.6844 82.2997 68.2265 81.2085 69.4845 81.0817C69.5624 81.0736 69.6089 80.9883 69.6209 80.9351C69.6287 80.8804 71.9001 62.1807 71.9001 62.1807C72.0066 61.7342 72.215 61.166 72.6122 61.0399L75.8447 60.7003C75.8447 60.7003 73.481 80.1176 73.4437 80.4017C73.4226 80.559 73.5021 80.6552 73.66 80.6411C75.3667 80.4605 85.2754 79.4166 85.3252 79.4101C85.376 79.4068 85.4934 79.3504 85.4991 79.2609C85.7578 77.1741 88.9726 50.8052 88.9807 50.6578C89.0019 50.5044 88.9522 50.4515 88.8038 50.4689Z" fill="#C7A079"/>
<path d="M44.4079 49.6138C43.1057 48.2709 41.2812 47.6447 39.1751 47.869L21.0752 49.7811C14.7599 50.4423 11.3126 54.8066 10.2773 58.3432C9.63401 60.5552 9.51049 61.9056 9.43536 62.8061C9.43536 62.8061 9.31031 64.8707 9.33899 65.5144C9.33899 65.6047 9.3343 65.6451 9.38655 65.6709C9.41647 65.6841 9.46031 65.6742 9.5229 65.6071C9.85942 65.2326 10.7066 64.0579 10.9098 63.8003C11.6028 62.9419 12.8778 61.3183 13.7194 60.5925C14.7702 59.6887 16.9617 58.1237 19.9023 57.8155L34.5177 56.2779C34.778 56.2448 34.9463 56.2961 34.9648 56.3276C35.1895 56.5578 35.061 56.9946 35.061 56.9946L33.1992 73.6165C32.796 76.3471 30.7222 77.9817 26.8079 78.4846L28.9326 59.436C28.9391 59.344 28.8883 59.2927 28.7895 59.3134C28.6885 59.3316 27.0077 59.6803 27.0077 59.6803C22.5404 60.6397 18.7591 64.7902 18.2021 69.3285L17.2721 77.458L17.0034 79.5111L16.4729 79.5707C15.4006 79.6825 14.0408 79.7621 11.325 79.5707C10.8534 79.5375 10.6163 79.483 10.5616 79.5534C10.5223 79.6229 10.5446 79.7082 10.6801 79.936C10.7353 80.033 11.8063 82.0568 14.1286 83.761C15.5731 84.8165 17.8601 85.408 20.7511 85.408C22.339 85.408 24.0206 85.2554 25.6093 85.0858L28.0376 84.8297C39.3397 83.6375 42.7828 82.1379 43.7731 74.4774L46.071 55.0667C46.335 52.9176 45.7451 50.9832 44.4079 49.6138Z" fill="#071D3D"/>
<path d="M39.2308 48.9248L21.128 50.8344C11.8938 51.8053 10.7598 60.5197 10.7001 60.8719C10.6342 61.2239 10.4846 62.6323 10.4751 62.7376C10.4555 62.8377 10.4966 62.8792 10.5762 62.7765C10.659 62.6654 11.713 61.2811 11.713 61.2811C11.7367 61.2431 14.7231 57.3766 19.8448 56.8382L34.4663 55.298C35.0231 55.2391 35.4487 55.3477 35.7214 55.6377C36.2669 56.2127 36.094 57.3485 35.9242 58.5506C35.8798 58.8422 34.2103 73.7493 34.2103 73.7493C33.5086 78.6288 28.1096 79.1997 26.3306 79.3846L25.819 79.4399C25.819 79.4399 27.8725 60.5786 27.8762 60.4966C27.8806 60.4137 27.8016 60.3822 27.7219 60.3996C27.6474 60.4171 27.1446 60.5239 27.1446 60.5239C23.0392 61.4103 19.5622 65.2171 19.0569 69.3801L17.6867 80.294C16.6811 80.3885 15.5723 80.478 14.6227 80.478C14.0474 80.478 12.2502 80.3537 12.1135 80.3405C11.9851 80.3281 11.9498 80.3985 12.0294 80.4905C12.1085 80.5857 12.678 81.3006 12.678 81.3006C14.5456 83.5151 17.3103 84.6617 20.5706 84.5001C23.8279 84.3436 26.21 84.0106 28.5418 83.8067C35.3231 83.2053 41.7202 82.5234 42.7755 74.4584L45.068 55.0297C45.2926 53.1937 44.7915 51.541 43.6694 50.3894C42.5868 49.2735 40.9753 48.7375 39.2308 48.9248Z" fill="#1D467D"/>
<path d="M130.399 53.4961L138.946 52.5898C141.091 52.3629 143.055 50.5726 143.859 48.5627C144.167 47.7848 144.733 45.7759 144.862 45.3127C144.877 45.249 144.829 45.2233 144.754 45.2266C144.679 45.2424 128.735 46.9572 128.735 46.9572C123.867 47.4708 119.409 51.9271 118.809 56.8888C118.809 56.8888 118.392 60.5513 118.387 60.5887C118.387 60.6234 118.401 60.6434 118.426 60.6465C118.443 60.65 132.74 63.074 132.74 63.074C132.74 63.074 132.634 63.6738 132.498 64.5941C132.353 65.5095 126.177 66.2469 123.68 66.9619C119.906 68.0397 116.114 68.9775 112.596 73.1686C112.061 73.8131 111.651 74.7179 111.432 75.0625C111.387 75.137 111.415 75.2289 111.524 75.2207C111.642 75.2116 134.481 72.7784 134.481 72.7784C139.17 72.2856 141.75 70.5059 142.144 67.493L142.19 67.126C142.362 65.8667 142.672 63.5171 142.759 61.9182C142.89 59.7982 141.234 57.805 138.907 57.2848C137.501 56.9774 130.805 55.8275 128.793 55.4862C129.046 54.3628 129.598 53.6917 130.399 53.4961Z" fill="#071D3D"/>
<path d="M130.302 52.5309L138.894 51.618C141.643 51.3247 142.822 48.7706 143.286 47.2784C143.286 47.2784 143.481 46.6175 143.491 46.5544C143.504 46.4906 143.458 46.4708 143.369 46.4782C143.284 46.4858 128.793 48.015 128.793 48.015C124.386 48.4766 120.366 52.5143 119.816 57.0186C119.816 57.0186 119.484 59.837 119.482 59.8702C119.482 59.9025 119.497 59.9258 119.526 59.9324C119.557 59.9339 133.834 62.4649 133.834 62.4649C133.826 62.559 133.816 62.6529 133.804 62.7466L133.635 64.1318C133.317 66.0811 131.926 66.3445 126.139 67.4231C124.775 67.6775 116.762 69.4893 113.975 73.0301C113.677 73.4196 113.466 73.7185 113.353 73.9025C113.276 74.0268 113.307 74.0848 113.435 74.0748C114.922 73.9074 130.886 72.19 133.049 71.9615C138.091 71.4313 140.589 70.5754 141.146 67.1233C141.463 65.1325 141.667 63.3911 141.75 61.9504C141.85 60.2976 140.516 58.746 138.642 58.3277C137.032 57.9714 128.003 56.4329 127.916 56.4222C127.838 56.4106 127.659 56.3169 127.674 56.138C127.958 53.5797 129.251 52.762 130.302 52.5309Z" fill="#1D467D"/>
<path d="M129.499 49.2486L142.467 47.8792C142.578 47.6025 142.672 47.3381 142.741 47.1129L128.859 48.5776C124.696 49.0132 120.892 52.8316 120.381 57.0808L120.105 59.4576L120.813 59.5852L121.025 57.7485C121.579 53.2583 125.341 49.686 129.499 49.2486Z" fill="white"/>
<path d="M128.467 57.654C129.405 57.8089 137.671 59.2197 139.168 59.5519C139.743 59.678 140.26 59.9297 140.679 60.2637C140.203 59.5975 139.444 59.0574 138.523 58.8768C136.947 58.5744 128.758 57.1412 127.818 56.9771C127.801 56.9771 127.783 56.9697 127.774 56.9672C127.833 57.3326 128.14 57.596 128.467 57.654Z" fill="white"/>
<path d="M134.839 64.893L134.998 63.6114C135.053 63.1806 135.162 62.6919 134.744 62.6114L134.396 62.5478C134.387 62.677 134.193 64.2204 134.193 64.2204C133.78 66.7397 132.744 66.8043 126.24 67.9775C123.748 68.4321 116.088 70.8198 114.459 73.335C114.927 73.2844 115.389 73.2413 115.839 73.1933C118.344 70.9879 124.663 69.052 126.887 68.6509C133.398 67.4812 134.429 67.4065 134.839 64.893Z" fill="white"/>
<path d="M55.8453 55.3901C52.0039 56.5226 48.4339 60.7327 47.9258 64.9016C47.9258 64.9016 45.8049 82.3131 45.7921 82.4598C45.7859 82.6081 45.884 82.642 45.9765 82.6379C46.0606 82.6246 54.8095 81.7051 55.6331 81.6182C55.6707 81.6098 55.6965 81.585 55.7027 81.5418C55.8934 80.0075 58.9622 54.7588 58.9651 54.6983C58.9672 54.652 58.9141 54.5931 58.8407 54.6147C58.7732 54.6287 57.3709 54.9394 55.8453 55.3901Z" fill="#071D3D"/>
<path d="M57.0178 56.1545C52.9179 57.0385 49.4457 60.8436 48.9367 65.0124C48.9367 65.0124 46.958 81.3004 46.9468 81.3958C46.9239 81.4969 46.9551 81.5508 47.1051 81.5382C47.2412 81.5184 54.0477 80.801 54.7345 80.7313C54.7739 80.7248 54.7895 80.7032 54.795 80.666C54.9613 79.3171 57.7806 56.1404 57.7843 56.0907C57.7953 56.041 57.7556 55.9947 57.6922 56.0079C57.6284 56.0236 57.0178 56.1545 57.0178 56.1545Z" fill="#1D467D"/>
<path d="M57.0372 57.5805L57.145 56.7039C53.301 57.54 49.982 61.1486 49.504 65.0804L47.5738 80.918L48.3128 80.8401L50.1465 65.7474C50.5835 61.7824 53.5249 58.6856 57.0372 57.5805Z" fill="white"/>
<path d="M70.8308 53.4772C65.9561 53.9916 61.5 58.4512 60.8924 63.4211C60.8924 63.4211 58.7503 81.0166 58.7458 81.0688C58.7375 81.1293 58.7623 81.1731 58.8311 81.1657C58.8987 81.1582 67.5008 80.2552 68.5552 80.1359C68.6262 80.1351 68.6676 80.0622 68.6758 80.0075C68.6804 79.9594 70.8539 62.108 70.8539 62.108C71.1208 60.9158 71.6796 60.2124 72.4705 60.0169L77.0607 59.5299C77.0607 59.5299 74.6938 79.0797 74.6544 79.247C74.6195 79.4069 74.7007 79.4972 74.8471 79.4805C76.3007 79.3274 84.3867 78.4699 84.4416 78.4658C84.4708 78.465 84.4987 78.4532 84.5196 78.4328C84.5405 78.4123 84.5529 78.3848 84.5542 78.3556C84.775 76.5836 87.7706 52.0804 87.7706 51.923C87.7805 51.7565 87.6392 51.7042 87.5355 51.7158C87.4289 51.7317 70.8308 53.4772 70.8308 53.4772Z" fill="#071D3D"/>
<path d="M70.8826 54.5324C66.4829 54.9988 62.4537 59.035 61.9096 63.5319C61.9096 63.5319 59.9168 79.8839 59.9088 79.9643C59.9013 80.0396 59.9137 80.0728 59.9788 80.0654C60.0444 80.0579 66.7258 79.3521 67.65 79.2551C67.7246 79.2468 67.7652 79.1946 67.7777 79.1284C67.7806 79.0885 69.8529 62.0217 69.8529 62.0217C70.3317 59.8271 71.6248 59.2156 72.3705 59.0475L77.917 58.4577C77.9723 58.4577 78.0473 58.4577 78.1206 58.524C78.1749 58.5787 78.1931 58.6524 78.1778 58.7368C78.1778 58.7368 75.8174 78.0224 75.8174 78.1674C75.8066 78.3082 75.8696 78.3911 76.0264 78.3729C77.3314 78.2369 83.4524 77.5883 83.5117 77.5866C83.6158 77.58 83.6555 77.4814 83.6627 77.4251C83.848 75.8983 86.6212 53.0594 86.644 52.9882C86.6453 52.917 86.5885 52.8796 86.5275 52.8846C86.4576 52.893 70.8826 54.5324 70.8826 54.5324Z" fill="#1D467D"/>
<path d="M71.5922 55.7668L85.9149 54.2616L85.9995 53.5143L70.9452 55.0974C66.7791 55.5373 62.9859 59.3466 62.4674 63.6007L60.544 79.439L61.2812 79.3595L63.1205 64.2735C63.6324 60.0217 67.4336 56.2051 71.5922 55.7668Z" fill="white"/>
<path d="M79.17 58.8031C79.0611 58.6821 78.9038 58.6059 78.7399 58.5801C78.7499 58.6551 78.7513 58.731 78.744 58.8064L76.43 77.7629L77.1698 77.6843L79.389 59.4833C79.422 59.223 79.3388 58.9796 79.17 58.8031Z" fill="white"/>
<path d="M18.8409 81.4829L20.2633 70.1223C20.7161 66.4366 23.6531 63.0432 27.1844 61.9446C27.2462 61.3548 27.2656 61.078 27.2656 61.078C23.4185 61.9057 20.0997 65.5186 19.6144 69.4487L18.1961 80.8111C16.2823 81.0048 14.2684 81.0396 13.11 80.9352C13.3482 81.2186 13.7196 81.5698 13.7553 81.608C14.9664 81.8217 16.9338 81.6718 18.8409 81.4829Z" fill="white"/>
<path d="M21.8347 52.0663L39.94 50.16C41.3604 50.0101 42.6382 50.3664 43.5919 51.1633C43.4909 51.0296 43.3814 50.9026 43.2641 50.783C42.2889 49.783 40.8776 49.3217 39.298 49.4873L21.1865 51.3986C12.2979 52.3356 11.263 60.9365 11.263 60.9365C11.263 60.9365 11.6385 60.4419 12.3564 59.7726C13.2118 57.1836 15.5731 52.7265 21.8347 52.0663Z" fill="white"/>
<path d="M27.0401 80.6196C28.8786 80.425 34.6475 79.8211 35.4167 74.5024C35.4167 74.5024 37.0833 59.591 37.1315 59.3109C37.3287 57.9665 37.5086 56.6907 36.7803 55.9209C36.6674 55.8047 36.5382 55.7054 36.3969 55.6261C36.8084 56.4064 36.6502 57.4909 36.4882 58.6342C36.4372 58.9225 34.7697 73.8322 34.7697 73.8322C34.0038 79.1533 28.2382 79.7556 26.3902 79.9469L25.8348 79.9959L25.7457 80.748L27.0401 80.6196Z" fill="white"/>
<path d="M102.802 69.6168L98.2621 70.0956L99.5816 59.2321C99.729 58.2628 100.145 57.0475 101.281 56.7791L105.827 56.3003L104.496 67.1546C104.355 68.1305 103.934 69.3476 102.802 69.6168ZM99.5994 50.2426C94.7305 50.7546 90.2714 55.2141 89.6673 60.1856C89.6673 60.1856 87.537 77.7033 87.5322 77.7803C87.5227 77.8566 87.5521 77.9402 87.6581 77.9262C87.7627 77.9163 104.49 76.1541 104.49 76.1541C109.349 75.6388 113.809 71.1784 114.417 66.2094C114.417 66.2094 116.543 48.724 116.556 48.6229C116.563 48.5137 116.459 48.4631 116.372 48.4765C116.274 48.4829 99.5994 50.2426 99.5994 50.2426Z" fill="#071D3D"/>
<path d="M105.519 67.2169L105.503 67.3038C105.16 69.6798 103.914 70.4494 102.923 70.6715L97.4121 71.2523C97.354 71.2597 97.2841 71.2572 97.2096 71.1819C97.1561 71.1313 97.1369 71.0567 97.1477 70.9697L98.581 59.1825C98.9321 56.7826 100.19 56.022 101.168 55.8107L101.243 55.8016L106.671 55.2266C106.755 55.22 106.826 55.2448 106.879 55.2937C106.93 55.3476 106.952 55.4238 106.94 55.5125L105.519 67.2169ZM115.292 49.6512C115.235 49.6578 99.6541 51.298 99.6541 51.298C95.2561 51.7629 91.219 55.8032 90.6826 60.2993C90.6826 60.2993 88.6935 76.5858 88.6878 76.6712C88.677 76.7614 88.7707 76.8294 88.8481 76.8211C88.9228 76.8161 104.428 75.1824 104.428 75.1824C108.831 74.716 112.865 70.6806 113.417 66.1787C113.417 66.1787 115.391 49.8201 115.408 49.7464C115.416 49.6718 115.35 49.6429 115.292 49.6512Z" fill="#1D467D"/>
<path d="M107.506 55.5754L106.068 67.3834C105.648 70.2482 103.971 71.0228 103.008 71.2291L97.4656 71.8164C97.3879 71.8243 97.3094 71.8184 97.2338 71.7991C97.2611 71.9698 97.3313 72.1279 97.4504 72.2514C97.6203 72.427 97.8681 72.514 98.121 72.4882L103.658 71.9043C104.618 71.7004 106.291 70.9209 106.713 68.0569L108.151 56.2449C108.191 55.9947 108.106 55.747 107.928 55.5697C107.815 55.452 107.665 55.3758 107.501 55.3452C107.506 55.4222 107.515 55.5009 107.506 55.5754Z" fill="white"/>
<path d="M100.361 52.5358L114.678 51.0273L114.769 50.2808L99.7147 51.8624C95.5541 52.298 91.7549 56.1131 91.2418 60.3689L89.3145 76.2039L90.053 76.1252L91.8871 61.0366C92.4015 56.7874 96.2072 52.9716 100.361 52.5358Z" fill="white"/>
<path d="M127.03 63.0987C126.463 63.01 125.87 62.9165 125.27 62.8221V62.8229C125.254 63.1849 125.234 63.5467 125.21 63.9082C125.188 64.2495 125.162 64.5905 125.132 64.9312C125.109 65.1923 125.091 65.4549 125.063 65.7158C125.674 65.5882 126.284 65.4656 126.873 65.3471C126.943 64.6006 126.996 63.8509 127.03 63.0987Z" fill="#071D3D"/>
<path d="M38.1208 46.8967C38.8501 44.6986 39.7501 42.5607 40.8124 40.5026C40.8216 40.4852 40.8307 40.467 40.8398 40.4497C41.0999 39.9481 41.3691 39.4512 41.6471 38.9593C41.6533 38.9484 41.6597 38.9385 41.6649 38.9278C42.7724 36.9796 44.0246 35.1173 45.411 33.3565C45.4654 33.2877 45.5184 33.219 45.5728 33.1502C45.8863 32.7572 46.2061 32.3691 46.5319 31.9861C46.5976 31.9091 46.6649 31.8329 46.7312 31.7567C47.7731 30.5507 48.8783 29.4009 50.0421 28.312C50.0926 28.2649 50.1419 28.2167 50.1925 28.1687C50.5179 27.8671 50.8507 27.5746 51.1847 27.2831C51.3348 27.1514 51.4844 27.0213 51.6358 26.8921C51.9513 26.6238 52.2708 26.36 52.5939 26.1009C52.7702 25.9593 52.9482 25.8199 53.1279 25.6825C53.447 25.4331 53.7666 25.1838 54.0924 24.9443C54.2659 24.8167 54.4442 24.6933 54.6204 24.569C55.1955 24.1588 55.7802 23.7622 56.374 23.3794C56.6195 23.2203 56.8627 23.0605 57.111 22.9071C57.4008 22.7281 57.695 22.5576 57.9889 22.3844C58.5454 22.0564 59.1093 21.7413 59.6803 21.4392C59.9886 21.2765 60.299 21.1177 60.6113 20.9628C60.8807 20.8285 61.1488 20.691 61.4217 20.5627C61.8643 20.3506 62.3131 20.1517 62.7642 19.9554C63.0385 19.836 63.3141 19.7192 63.5913 19.6057C64.0487 19.4168 64.5091 19.2353 64.9724 19.0615C65.217 18.9704 65.4645 18.8858 65.711 18.7989C66.1015 18.6612 66.4944 18.527 66.8902 18.4003C67.1451 18.3193 67.3996 18.2389 67.6558 18.1618C68.0728 18.0358 68.4922 17.919 68.9136 17.8048C69.1437 17.7425 69.3722 17.6787 69.6034 17.6199C70.2325 17.4605 70.865 17.3146 71.5005 17.1826C71.5627 17.1694 71.6247 17.1576 71.6874 17.1461C72.3115 17.0212 72.938 16.9091 73.5666 16.8098C73.7872 16.7757 74.0085 16.7476 74.2299 16.7162C74.6974 16.649 75.1671 16.5885 75.6387 16.5371C75.882 16.5106 76.1262 16.485 76.3706 16.4619C76.8515 16.417 77.3338 16.3822 77.8179 16.3525C78.0368 16.3391 78.2544 16.3226 78.4741 16.3135C79.1721 16.2804 79.8738 16.2596 80.5799 16.2596C81.2909 16.2596 81.9969 16.2804 82.6989 16.3135C82.9211 16.3234 83.1416 16.3399 83.363 16.3541C83.8452 16.3822 84.3268 16.4186 84.8078 16.4634C85.5187 16.5314 86.2279 16.6157 86.935 16.7162C87.1711 16.7501 87.4083 16.7815 87.6432 16.8189C88.1702 16.9031 88.6958 16.9968 89.2195 17.0996C89.3699 17.1295 89.5229 17.1543 89.6733 17.1851C90.3365 17.322 90.9964 17.4745 91.6525 17.6424C91.834 17.6888 92.0127 17.74 92.193 17.7889C92.6689 17.9175 93.1421 18.0492 93.611 18.1915C93.847 18.2641 94.0825 18.3386 94.3172 18.4153C94.7311 18.5491 95.1431 18.6886 95.5532 18.8337C95.7928 18.9177 96.0316 19.0041 96.2695 19.0929C96.6913 19.2517 97.1106 19.4168 97.5273 19.5883C97.7325 19.6729 97.9405 19.7532 98.145 19.8403C98.7456 20.0961 99.3407 20.3649 99.9297 20.6463C100.057 20.7068 100.18 20.7756 100.306 20.8369C100.774 21.0672 101.237 21.3016 101.695 21.5468C101.922 21.6686 102.144 21.7962 102.368 21.9205C102.722 22.1188 103.075 22.3212 103.425 22.5277C103.662 22.6698 103.899 22.8137 104.134 22.9593C104.469 23.1672 104.801 23.3799 105.13 23.5972C105.357 23.7465 105.585 23.8937 105.809 24.0471C106.178 24.3006 106.541 24.5607 106.902 24.8233C107.073 24.9484 107.248 25.0677 107.417 25.1953C107.915 25.5693 108.404 25.9538 108.886 26.3485C109.102 26.5259 109.312 26.709 109.525 26.8903C109.81 27.1322 110.093 27.3733 110.371 27.6227C110.601 27.8265 110.827 28.036 111.051 28.2449C111.305 28.4817 111.556 28.7211 111.805 28.9631C112.031 29.1817 112.254 29.4023 112.475 29.6252C112.72 29.8744 112.959 30.1296 113.198 30.3839C113.408 30.6068 113.62 30.828 113.825 31.0558C114.186 31.4569 114.54 31.8646 114.886 32.2786C115.125 32.5682 115.362 32.8604 115.595 33.1552C115.803 33.4169 116.013 33.6779 116.215 33.9456C116.421 34.2155 116.62 34.4898 116.82 34.7657C117.003 35.0168 117.183 35.27 117.36 35.5254C117.558 35.8102 117.753 36.0974 117.944 36.3869C118.111 36.6409 118.276 36.8966 118.437 37.1542C118.624 37.4515 118.813 37.7473 118.993 38.0488C119.148 38.3089 119.296 38.5731 119.446 38.8367C119.767 39.3984 120.076 39.9674 120.372 40.5432C120.507 40.8027 120.645 41.061 120.773 41.3261C120.933 41.6525 121.084 41.9848 121.237 42.3153C121.359 42.5804 121.481 42.8456 121.598 43.114C121.744 43.4501 121.886 43.7878 122.024 44.1271C122.133 44.3972 122.24 44.6684 122.345 44.9407C122.477 45.2845 122.607 45.6297 122.732 45.9762C122.829 46.2505 122.919 46.5272 123.012 46.8038C123.129 47.155 123.25 47.5039 123.358 47.8584C123.859 47.5216 124.382 47.2199 124.924 46.9555C124.488 45.5794 123.993 44.2191 123.426 42.8795C121.083 37.3437 117.733 32.3738 113.463 28.1082C109.191 23.8417 104.22 20.4865 98.6829 18.1494C92.9477 15.7261 86.8541 14.5001 80.5799 14.5001C74.3057 14.5001 68.2174 15.7261 62.4822 18.1494C56.9468 20.4865 51.9727 23.8417 47.7019 28.1082C43.4331 32.3738 40.0809 37.3437 37.7374 42.8795C37.1553 44.2586 36.6403 45.665 36.1943 47.0939C36.9131 47.0202 37.5671 46.9539 38.1208 46.8967Z" fill="#071D3D"/>
<path d="M123.05 75.016C122.323 77.2114 121.426 79.3468 120.366 81.4026C120.353 81.4274 120.34 81.4526 120.328 81.4779C120.07 81.9764 119.802 82.4699 119.526 82.9583C119.519 82.9699 119.512 82.9825 119.505 82.994C118.4 84.9406 117.15 86.8015 115.766 88.5612C115.71 88.6333 115.653 88.7062 115.595 88.7784C115.283 89.1704 114.965 89.5571 114.641 89.9382C114.574 90.016 114.506 90.094 114.438 90.1725C113.406 91.367 112.311 92.5066 111.159 93.5867C111.097 93.6455 111.036 93.706 110.973 93.7638C110.651 94.0621 110.321 94.353 109.991 94.642C109.837 94.7755 109.685 94.9096 109.53 95.0405C109.216 95.3074 108.899 95.5698 108.577 95.8276C108.399 95.9712 108.218 96.1129 108.037 96.2525C107.719 96.4996 107.402 96.7471 107.078 96.9858C106.9 97.1175 106.716 97.2418 106.536 97.371C105.969 97.7749 105.393 98.1661 104.809 98.5442C104.557 98.7057 104.308 98.8706 104.053 99.0279C103.765 99.2039 103.475 99.3765 103.183 99.5457C102.905 99.7096 102.626 99.87 102.345 100.027C102.061 100.186 101.776 100.341 101.488 100.493C101.178 100.657 100.865 100.817 100.551 100.972C100.283 101.107 100.017 101.242 99.7465 101.372C99.2904 101.587 98.8304 101.795 98.3668 101.994C98.1034 102.109 97.8388 102.22 97.573 102.329C97.1162 102.517 96.6566 102.701 96.1916 102.874C95.9473 102.964 95.7 103.048 95.4546 103.135C95.0634 103.275 94.6697 103.408 94.2738 103.535C94.02 103.617 93.7652 103.696 93.5095 103.772C93.0903 103.898 92.6692 104.017 92.2464 104.13C92.0181 104.193 91.791 104.257 91.5609 104.315C90.928 104.476 90.2916 104.623 89.6522 104.756C89.5883 104.769 89.5246 104.779 89.461 104.792C88.8417 104.916 88.2199 105.027 87.596 105.125C87.375 105.16 87.1529 105.189 86.9317 105.22C86.4634 105.287 85.994 105.347 85.5237 105.399C85.2795 105.425 85.0352 105.45 84.7908 105.474C84.3092 105.518 83.827 105.554 83.3442 105.583C83.1254 105.596 82.9065 105.612 82.687 105.623C81.9885 105.655 81.2872 105.677 80.5799 105.677C79.8934 105.677 79.2107 105.655 78.5309 105.625C78.3518 105.616 78.1732 105.607 77.9946 105.598C77.3931 105.563 76.7947 105.518 76.2003 105.461C76.1182 105.453 76.0353 105.448 75.9537 105.439C75.294 105.37 74.6359 105.287 73.9799 105.188C73.8091 105.163 73.6385 105.135 73.4676 105.108C72.9235 105.021 72.381 104.924 71.8403 104.818C71.7144 104.792 71.588 104.771 71.4629 104.744C70.829 104.613 70.1981 104.467 69.5707 104.308C69.4116 104.269 69.2548 104.225 69.0969 104.183C68.5875 104.048 68.0819 103.904 67.58 103.752C67.4302 103.707 67.2794 103.663 67.1315 103.617C66.5249 103.427 65.9226 103.223 65.3251 103.006C65.185 102.955 65.0474 102.9 64.9082 102.849C64.425 102.668 63.9451 102.48 63.4686 102.282C63.3058 102.215 63.1422 102.148 62.9809 102.078C62.4053 101.833 61.8349 101.575 61.2703 101.305C61.1548 101.25 61.0423 101.192 60.9271 101.134C60.4608 100.906 59.9987 100.67 59.5412 100.425C59.3719 100.334 59.2025 100.245 59.035 100.151C58.4928 99.8547 57.9568 99.547 57.4274 99.2284C57.3498 99.1813 57.2744 99.1315 57.1969 99.0841C56.5611 98.6913 55.9346 98.2836 55.318 97.8614C54.8861 97.566 54.4595 97.263 54.0385 96.9526C53.9476 96.8848 53.8552 96.8225 53.7658 96.7546C53.2832 96.3926 52.8119 96.0188 52.3448 95.6387C52.1807 95.505 52.0178 95.3697 51.8562 95.2328C51.496 94.9308 51.1406 94.6231 50.7901 94.3099C50.6647 94.1981 50.537 94.0887 50.4127 93.9744C49.9758 93.5749 49.5471 93.1666 49.1268 92.7498C48.9744 92.5992 48.8252 92.4459 48.6742 92.2926C48.364 91.9774 48.0588 91.6573 47.7587 91.3323C47.6215 91.1841 47.4821 91.0385 47.3472 90.8875C46.9546 90.4539 46.5714 90.012 46.1977 89.562C46.0613 89.3988 45.9291 89.2315 45.7953 89.0666C45.5247 88.7324 45.259 88.3944 44.9983 88.0525C44.8628 87.8745 44.7268 87.6997 44.5938 87.5199C44.2473 87.0518 43.9095 86.5773 43.5808 86.0966C43.4671 85.9284 43.3581 85.7577 43.2472 85.5896C43.0075 85.228 42.7733 84.8629 42.5445 84.4944C42.4205 84.2946 42.2966 84.095 42.1764 83.8939C41.8751 83.3931 41.5836 82.8865 41.3019 82.3744C40.8626 82.6959 40.3589 83.0006 39.7907 83.2882C41.9053 87.1462 44.5519 90.6797 47.7019 93.8302C51.9727 98.0975 56.9468 101.447 62.4822 103.786C68.2174 106.21 74.3057 107.437 80.5799 107.437C86.8541 107.437 92.9477 106.21 98.6829 103.786C104.22 101.448 109.191 98.0975 113.463 93.8302C117.733 89.5604 121.083 84.5913 123.426 79.0581C124.017 77.6638 124.532 76.2462 124.981 74.8131C124.345 74.8793 123.7 74.9473 123.05 75.016Z" fill="#071D3D"/>
<path d="M54.0584 31.6409L53.794 31.3525C53.6182 31.1645 53.4561 31.0468 53.3061 31.003C53.1532 30.9574 53.0239 30.9838 52.9194 31.0783C52.7653 31.2249 52.6926 31.3575 52.7035 31.4875C52.7176 31.6184 52.7951 31.7635 52.9423 31.9258L54.9903 34.156C55.1107 34.2861 55.2351 34.3631 55.357 34.3722C55.4801 34.3879 55.6082 34.3316 55.7391 34.2099C55.8246 34.1345 55.8755 34.0524 55.8934 33.9597C55.9093 33.8721 55.901 33.7819 55.8693 33.6987C55.8383 33.6086 55.7932 33.5238 55.7358 33.4477C55.6765 33.369 55.611 33.2853 55.534 33.2066L55.1543 32.7923L56.2138 31.8214L56.7228 32.3724C57.0986 32.7807 57.2694 33.219 57.2392 33.6796C57.2076 34.1436 56.9296 34.6174 56.4098 35.0939C55.9347 35.5288 55.4801 35.7226 55.0433 35.6778C54.6059 35.6323 54.1687 35.3747 53.7317 34.9025L52.0301 33.0516C51.5782 32.5637 51.3639 32.0973 51.3767 31.6508C51.3941 31.2051 51.642 30.7553 52.1245 30.3127C52.5887 29.8828 53.0454 29.6616 53.4856 29.6417C53.9287 29.6252 54.3561 29.8389 54.7676 30.2905L55.1178 30.6657L54.0584 31.6409Z" fill="#071D3D"/>
<path d="M59.9121 31.9944L56.646 26.8149L57.8608 26.0486L59.1163 28.0377L59.9618 27.5075L58.7043 25.5191L59.9232 24.7504L63.1873 29.9349L61.972 30.6962L60.6097 28.5422L59.7675 29.0709L61.1282 31.2281L59.9121 31.9944Z" fill="#071D3D"/>
<path d="M65.4857 23.3621L65.4708 23.3687L66.0963 26.0728L66.8734 25.7629L65.4857 23.3621ZM65.2901 28.8374L64.2692 22.6521L65.879 22.0151L69.3838 27.2094L68.0306 27.7447L67.4014 26.7156L66.3531 27.1324L66.6345 28.3021L65.2901 28.8374Z" fill="#071D3D"/>
<path d="M72.2397 22.9527L72.2272 22.9709L73.0164 26.2938L71.6797 26.5574L70.4951 20.5493L71.9444 20.2652L73.6953 23.4067L73.7219 23.4034L72.9239 20.0722L74.2581 19.8071L75.4443 25.815L74.0014 26.1009L72.2397 22.9527Z" fill="#071D3D"/>
<path d="M80.9494 25.5153L80.8827 24.9734H80.8635C80.7173 25.2294 80.556 25.4092 80.375 25.5127C80.1942 25.6146 79.9447 25.666 79.6306 25.6702C79.3386 25.671 79.0851 25.6313 78.8771 25.5376C78.6766 25.4497 78.5025 25.3109 78.3722 25.135C78.2409 24.9594 78.1479 24.7572 78.0874 24.5227C78.0314 24.2858 78.0025 24.0299 77.9978 23.7374L77.968 21.2246C77.9618 20.5603 78.1093 20.0699 78.4202 19.7458C78.7307 19.4237 79.214 19.2596 79.8733 19.2514C80.5063 19.2413 80.9897 19.3814 81.3295 19.6614C81.6681 19.9431 81.8397 20.3904 81.8493 20.9993L81.8541 21.4558L80.4134 21.474L80.4085 21.1352C80.4085 20.8561 80.375 20.653 80.314 20.5313C80.2517 20.417 80.132 20.3581 79.9527 20.3507C79.7396 20.3581 79.5936 20.4087 79.5169 20.5122C79.4411 20.6158 79.4014 20.7789 79.4068 20.996L79.4411 24.024C79.4431 24.2038 79.4875 24.3372 79.5725 24.4292C79.6637 24.5236 79.7976 24.5692 79.9769 24.5659C80.091 24.5624 80.1831 24.5409 80.2568 24.4971C80.3249 24.4532 80.375 24.3927 80.4085 24.3264C80.438 24.2501 80.4599 24.1722 80.4665 24.0904C80.4723 24.0033 80.476 23.8997 80.476 23.7746L80.4715 23.2917L79.9559 23.2991L79.9397 22.1965L81.8932 22.175L81.9313 25.5045L80.9494 25.5153Z" fill="#071D3D"/>
<path d="M88.9784 24.6384L88.9975 24.6425L90.269 20.521L91.6037 20.7836L89.4215 26.5928L87.8336 26.278L88.2332 21.9674L88.2186 21.9626L86.9184 26.1006L85.357 25.7916L85.5289 19.5882L86.8935 19.855L86.4861 24.1596L86.5053 24.1431L87.9028 20.0514L89.2647 20.3206L88.9784 24.6384Z" fill="#071D3D"/>
<path d="M96.6321 24.5773C96.6798 24.4689 96.7191 24.3719 96.7428 24.2832C96.767 24.2009 96.779 24.1155 96.7785 24.0298C96.7785 23.946 96.7581 23.8682 96.7151 23.7936C96.669 23.7231 96.5977 23.6694 96.4908 23.6229C96.39 23.5775 96.3013 23.5674 96.2143 23.5841C96.1301 23.6039 96.0598 23.638 95.9979 23.6983C95.9347 23.7616 95.8793 23.8322 95.833 23.9087C95.7807 23.9955 95.7339 24.0854 95.6929 24.178L94.7064 26.4911C94.6675 26.5835 94.6329 26.6778 94.6027 26.7735C94.5791 26.8671 94.5652 26.9629 94.5612 27.0594C94.5612 27.1538 94.5829 27.2375 94.6269 27.317C94.6707 27.3965 94.7429 27.4554 94.8394 27.4985C94.9413 27.5398 95.0351 27.5514 95.1218 27.5307C95.2066 27.5094 95.2829 27.4626 95.3402 27.3965C95.4034 27.3289 95.4584 27.2542 95.5042 27.1737C95.5515 27.0909 95.598 26.9973 95.6439 26.892L96.6321 24.5773ZM97.0134 27.3443C96.7308 28.0039 96.3876 28.4321 95.9838 28.6285C95.58 28.8307 95.0546 28.7882 94.4067 28.5125C93.7597 28.2316 93.3589 27.8779 93.2205 27.4438C93.0821 27.0121 93.1517 26.4661 93.431 25.811L94.4096 23.5244C94.6409 22.9809 94.977 22.6363 95.4139 22.4788C95.8508 22.3197 96.3543 22.3645 96.9314 22.6139C97.5086 22.8566 97.8884 23.1905 98.0662 23.613C98.2482 24.0321 98.2233 24.5135 97.9946 25.0554L97.0134 27.3443Z" fill="#071D3D"/>
<path d="M101.507 28.2357L101.485 28.2398L99.7017 31.1511L98.5649 30.3988L101.962 25.3029L103.191 26.119L102.219 29.5819L102.238 29.5978L104.021 26.6733L105.158 27.4312L101.759 32.5254L100.537 31.7078L101.507 28.2357Z" fill="#071D3D"/>
<path d="M50.0126 35.0739L50.507 36.5072L51.7736 35.6788L51.2303 37.0913L52.7354 37.2711L51.4073 38.005L52.446 39.1085L50.9583 38.8186L51.0417 40.3314L50.0884 39.1516L49.1795 40.3628L49.2089 38.8477L47.7337 39.198L48.7277 38.0539L47.3741 37.3687L48.8728 37.1336L48.2772 35.7426L49.5761 36.5238L50.0126 35.0739Z" fill="#071D3D"/>
<path d="M107.118 30.5952L107.609 32.0284L108.879 31.2009L108.334 32.6126L109.839 32.7922L108.512 33.528L109.55 34.6298L108.061 34.3407L108.146 35.8525L107.191 34.6729L106.285 35.8857L106.313 34.3721L104.838 34.7185L105.832 33.5751L104.481 32.8917L105.979 32.6531L105.381 31.2629L106.678 32.0449L107.118 30.5952Z" fill="#071D3D"/>
<path d="M60.2399 93.8583L61.57 93.1227L60.0614 92.9411L60.6068 91.5278L59.3401 92.3597L58.8486 90.9281L58.4083 92.3729L57.1106 91.5926L57.7078 92.9867L56.2101 93.2237L57.5611 93.9054L56.5673 95.0496L58.042 94.7025L58.0145 96.2178L58.9207 95.0041L59.8751 96.1821L59.7914 94.6703L61.2794 94.9593L60.2399 93.8583Z" fill="#071D3D"/>
<path d="M109.13 87.8975L109.679 86.4875L108.408 87.3159L107.913 85.8826L107.477 87.3325L106.181 86.5479L106.777 87.9431L105.279 88.1809L106.629 88.8626L105.634 90.0026L107.109 89.657L107.083 91.1716L107.991 89.9596L108.943 91.1376L108.86 89.6248L110.346 89.9156L109.31 88.812L110.637 88.0781L109.13 87.8975Z" fill="#071D3D"/>
<path d="M64.7134 93.1907L67.9662 94.5799L67.4677 95.7472L65.6448 94.9702L65.2444 95.9071L66.9521 96.6363L66.4721 97.7579L64.7644 97.0289L64.299 98.1208L66.1902 98.9285L65.6917 100.097L62.3696 98.6774L64.7134 93.1907Z" fill="#071D3D"/>
<path d="M71.6211 97.424L71.6556 97.2847C71.7409 96.9451 71.6738 96.627 71.3821 96.5533C71.057 96.4721 70.8481 96.6874 70.7831 96.9467C70.4971 98.0909 73.1041 98.148 72.574 100.266C72.2648 101.499 71.4044 101.869 70.0733 101.536C68.8238 101.223 68.2332 100.619 68.5336 99.4181L68.5847 99.2159L70.0452 99.5813L70.0109 99.7179C69.887 100.213 70.0452 100.444 70.3373 100.517C70.6459 100.594 70.8854 100.395 70.9645 100.078C71.251 98.9342 68.7384 98.9094 69.2528 96.8573C69.5453 95.6892 70.3309 95.2037 71.605 95.5227C72.9201 95.8524 73.3441 96.5349 73.0332 97.7769L71.6211 97.424Z" fill="#071D3D"/>
<path d="M76.0834 97.8035L74.9174 97.6949L75.0394 96.3801L78.9205 96.7381L78.7994 98.0537L77.6327 97.946L77.2045 102.574L75.6548 102.432L76.0834 97.8035Z" fill="#071D3D"/>
<path d="M79.9099 101.036L81.3161 101.013L81.3436 102.669L79.9372 102.691L79.9099 101.036Z" fill="#071D3D"/>
<path d="M85.1424 98.5191C85.0419 97.9177 85.0274 97.4198 85.2455 97.023C85.4634 96.6269 85.904 96.3436 86.6954 96.2011C88.2251 95.9253 88.6993 96.5789 88.8568 97.4504C88.9995 98.24 88.8026 98.7934 88.4453 99.3079L87.6983 100.351C87.5901 100.507 87.4323 100.713 87.4061 100.896L89.4139 100.534L89.6219 101.686L85.7867 102.376C85.6421 101.571 85.7142 100.793 86.2567 99.9914L87.0904 98.7701C87.3329 98.4214 87.4091 98.1785 87.329 97.7429C87.2399 97.2499 87.0559 97.1215 86.8175 97.1646C86.6037 97.2028 86.4101 97.356 86.5288 98.0146L86.5739 98.2606L85.1424 98.5191Z" fill="#071D3D"/>
<path d="M93.027 98.6915C93.3063 99.4886 93.5069 99.6566 93.8146 99.549C94.1237 99.4421 94.1743 99.1845 93.8954 98.3874L93.2482 96.5418C92.9694 95.7447 92.7683 95.5758 92.4609 95.6834C92.1525 95.7911 92.101 96.048 92.38 96.845L93.027 98.6915ZM92.1404 94.768C93.4498 94.3091 94.2489 94.6943 95.0402 96.9501C95.8305 99.2076 95.4463 100.006 94.1353 100.465C92.8256 100.923 92.0264 100.538 91.2356 98.2823C90.4448 96.0256 90.8297 95.2269 92.1404 94.768Z" fill="#071D3D"/>
<path d="M99.521 98.0188L97.6069 94.4713L96.6205 95.0041L96.1599 94.149C96.9956 93.6893 97.258 93.3297 97.0931 92.6015L98.0795 92.0705L100.891 97.2814L99.521 98.0188Z" fill="#071D3D"/>
<path d="M104.339 95.0894L101.966 91.8319L101.06 92.4913L100.488 91.7076C101.254 91.1401 101.466 90.7474 101.205 90.049L102.111 89.3888L105.598 94.1731L104.339 95.0894Z" fill="#071D3D"/>
<path d="M110.578 74.6381C110.184 74.9457 109.772 75.2309 109.346 75.4923C108.042 78.065 106.399 80.4514 104.461 82.5879C104.105 82.9802 103.74 83.3641 103.366 83.7394C103.033 84.0696 102.693 84.3931 102.347 84.7097C102.314 84.7411 102.282 84.7726 102.247 84.8032C102.141 84.9019 102.027 84.9921 101.919 85.0883C96.2352 90.1136 88.7679 93.1698 80.5835 93.1698H80.5827C71.6821 93.1698 63.6317 89.5651 57.7971 83.7394C57.3921 83.3344 57.0017 82.9161 56.6191 82.4902C56.5959 82.5267 56.566 82.5515 56.5218 82.5556C56.3816 82.5697 56.1114 82.5996 55.75 82.636C55.7504 82.6376 55.7521 82.6394 55.7529 82.6409C58.3894 85.6549 61.5656 88.1859 65.1308 90.0822C65.1748 90.1045 65.22 90.1268 65.264 90.1493C65.7108 90.3846 66.163 90.6097 66.6202 90.8244C66.7278 90.8749 66.8377 90.9214 66.9454 90.9703C67.3431 91.152 67.7444 91.3257 68.1491 91.4913C68.2975 91.5518 68.4475 91.609 68.5968 91.6678C68.9687 91.8132 69.3431 91.9518 69.72 92.0837C69.8952 92.145 70.0715 92.2038 70.2486 92.2626C70.6071 92.3803 70.9676 92.4919 71.33 92.5973C71.5252 92.6545 71.7204 92.7116 71.9175 92.7646C72.2681 92.8599 72.6219 92.9478 72.9766 93.0314C73.1867 93.0812 73.3957 93.1309 73.6066 93.1764C73.9572 93.2526 74.3112 93.3188 74.6657 93.3835C74.8828 93.4224 75.0991 93.4647 75.3175 93.4995C75.679 93.5566 76.0429 93.6039 76.4077 93.6495C76.6228 93.6776 76.8358 93.709 77.0514 93.7322C77.4455 93.7738 77.8438 93.8035 78.2417 93.83C78.4307 93.8442 78.6172 93.8632 78.807 93.8739C79.3949 93.9054 79.9867 93.9229 80.5823 93.9229C81.0909 93.9229 81.5956 93.9063 82.0989 93.8839C82.2406 93.8781 82.3815 93.8698 82.5224 93.8615C82.9204 93.8376 83.3167 93.8077 83.71 93.7705C83.8247 93.7604 83.9399 93.7521 84.0541 93.7397C84.5435 93.6884 85.0301 93.6262 85.5131 93.5542C85.6235 93.5375 85.7334 93.5176 85.8437 93.5003C86.2291 93.4383 86.6121 93.3694 86.9926 93.2957C87.1335 93.2668 87.2732 93.2393 87.4129 93.2104C87.8564 93.1179 88.2979 93.0162 88.7371 92.9055C88.7712 92.8972 88.806 92.8898 88.8395 92.8799C89.3039 92.7614 89.7617 92.628 90.2184 92.4895C90.7037 92.3397 91.1858 92.1798 91.6643 92.0099C91.7873 91.9652 91.9114 91.9237 92.033 91.8782C92.4693 91.7175 92.9019 91.5467 93.3304 91.3662C93.4432 91.3206 93.5535 91.2693 93.6658 91.2213C93.9944 91.0789 94.3208 90.9314 94.6448 90.7789C94.7877 90.711 94.9307 90.6431 95.0724 90.5743C95.4225 90.4028 95.7694 90.2249 96.1129 90.0407C96.1883 90.0009 96.2651 89.9637 96.3397 89.923C96.7358 89.7061 97.1274 89.4811 97.5142 89.2479C97.6551 89.1633 97.7944 89.0764 97.9336 88.9911C98.2075 88.8203 98.4791 88.6461 98.7485 88.4684C98.8811 88.3796 99.0146 88.2952 99.1452 88.2058C99.5097 87.9574 99.8694 87.7019 100.224 87.4394C100.344 87.3507 100.461 87.257 100.58 87.166C100.833 86.9731 101.083 86.7764 101.33 86.5761C101.473 86.4618 101.615 86.3458 101.756 86.2264C102.006 86.0163 102.253 85.8022 102.497 85.5844C102.615 85.4801 102.735 85.3765 102.852 85.2697C103.155 84.9918 103.452 84.7081 103.744 84.4188C103.879 84.2854 104.012 84.1496 104.146 84.0137C104.343 83.8114 104.538 83.607 104.732 83.4006C104.86 83.2598 104.991 83.1223 105.119 82.9807C105.401 82.6667 105.678 82.3469 105.949 82.022C106.062 81.8855 106.171 81.7462 106.283 81.6072C106.462 81.3855 106.638 81.1615 106.811 80.9352C106.936 80.7709 107.06 80.6055 107.182 80.439C107.351 80.2086 107.516 79.9764 107.679 79.7422C107.801 79.5665 107.923 79.3925 108.042 79.2145C108.254 78.8957 108.461 78.5734 108.662 78.2477C108.771 78.0704 108.877 77.8906 108.983 77.7118C109.116 77.4856 109.247 77.258 109.376 77.0291C109.478 76.846 109.581 76.6637 109.679 76.4798C109.866 76.1304 110.047 75.7776 110.221 75.4218C110.232 75.4003 110.243 75.3795 110.254 75.3573C110.354 75.1141 110.462 74.8742 110.578 74.6381Z" fill="#071D3D"/>
<path d="M49.1898 53.7282C50.5651 47.7442 53.5978 42.395 57.797 38.1972C60.714 35.2818 64.1862 32.9258 68.0408 31.297C71.8959 29.6665 76.1343 28.7652 80.5834 28.7652C93.7696 28.7652 105.099 36.686 110.085 48.0226C110.351 47.9944 110.616 47.9671 110.877 47.9397C110.61 47.3209 110.322 46.7154 110.02 46.1172C109.935 45.9523 109.852 45.7866 109.766 45.6226C109.638 45.3801 109.507 45.1393 109.372 44.9002C109.282 44.7381 109.189 44.5771 109.095 44.4171C108.793 43.8979 108.477 43.3869 108.148 42.8845C108.112 42.8298 108.077 42.7726 108.04 42.7181C107.893 42.4951 107.738 42.2781 107.584 42.0585C107.472 41.8978 107.359 41.7382 107.244 41.5797C107.089 41.3679 106.932 41.1577 106.773 40.9493C106.648 40.7877 106.522 40.6276 106.394 40.4688C106.173 40.19 105.948 39.9149 105.717 39.6436C105.523 39.415 105.327 39.1854 105.127 38.9618C104.964 38.782 104.797 38.6055 104.631 38.4284C104.478 38.2648 104.323 38.103 104.167 37.9428C103.999 37.7706 103.83 37.6002 103.658 37.4317C103.485 37.2626 103.309 37.0958 103.132 36.9313C102.965 36.7731 102.798 36.6148 102.628 36.4607C102.324 36.1888 102.016 35.9219 101.704 35.6604C101.539 35.5245 101.372 35.392 101.206 35.2586C101.003 35.0959 100.798 34.9351 100.592 34.7764C100.422 34.6464 100.253 34.5188 100.08 34.392C99.8427 34.2178 99.6027 34.0471 99.3602 33.88C99.2185 33.7815 99.0795 33.6812 98.9363 33.5844C98.572 33.3406 98.2029 33.1042 97.8292 32.8751C97.6725 32.7792 97.5128 32.6872 97.354 32.5926C97.0981 32.4406 96.84 32.2923 96.5798 32.1478C96.4159 32.0562 96.2514 31.9659 96.0861 31.8769C95.7759 31.7123 95.4632 31.5524 95.1482 31.3971C95.0379 31.3426 94.9306 31.2862 94.8199 31.2332C94.4059 31.0352 93.9878 30.846 93.5659 30.6657C93.417 30.6027 93.2666 30.5422 93.1173 30.4801C92.8112 30.3547 92.5034 30.2337 92.1939 30.1173C92.0381 30.0585 91.883 29.9997 91.7258 29.9433C91.3416 29.8054 90.9548 29.6747 90.5657 29.5515C90.4953 29.529 90.4248 29.5042 90.3548 29.4811C89.8971 29.3409 89.4365 29.2104 88.9733 29.0899C88.8299 29.0519 88.6857 29.018 88.5409 28.9823C88.1957 28.8962 87.8489 28.8159 87.499 28.7412C87.3486 28.709 87.1994 28.6774 87.0484 28.6468C86.5984 28.5573 86.1457 28.4753 85.6898 28.4049C85.6557 28.3991 85.6233 28.3925 85.5894 28.3875C85.1017 28.3128 84.6088 28.2533 84.1139 28.2003C83.9678 28.1837 83.8214 28.173 83.6755 28.158C83.3044 28.1233 82.9319 28.095 82.5567 28.0743C82.4076 28.0643 82.2574 28.0553 82.1077 28.0478C81.6018 28.0254 81.0936 28.0106 80.5821 28.0106C62.3712 28.0139 47.6077 42.7645 47.6077 60.9663C47.6077 61.2861 47.6228 61.6017 47.6319 61.9192C47.8424 61.4021 48.0998 60.901 48.3788 60.4104C48.4189 58.1172 48.6949 55.8814 49.1898 53.7282Z" fill="#071D3D"/>
<path d="M84.1633 39.7428L90.1265 39.0911C90.2794 39.0743 90.4188 38.9343 90.4378 38.7782L90.8514 35.3833C90.8703 35.2272 90.7619 35.1143 90.6089 35.1309L82.8088 35.9834C82.6877 35.9967 82.5657 36.0601 82.4714 36.1588L80.0093 38.7323L78.1165 36.6346C78.0438 36.5542 77.9342 36.5163 77.8132 36.5294L70.5961 37.3182C70.4748 37.3314 70.3525 37.3949 70.2582 37.494L67.9347 39.9289C67.8466 40.0214 67.7895 40.1374 67.7753 40.253L66.6149 49.7777C66.596 49.9338 66.7044 50.0469 66.8574 50.0301L70.1825 49.6666C70.3353 49.65 70.4748 49.51 70.4938 49.3537L71.4325 41.6478C71.464 41.3903 71.6938 41.1593 71.9461 41.1317L75.4884 40.7445C75.7406 40.717 75.9197 40.9034 75.8884 41.1609L74.9494 48.8668C74.9304 49.0229 75.0389 49.1359 75.1919 49.1192L78.5168 48.7558C78.6697 48.7391 78.8091 48.599 78.8281 48.4429L79.0946 46.255L80.9864 48.3478C81.0589 48.4281 81.1685 48.466 81.2895 48.4528L89.0898 47.6004C89.2427 47.5837 89.382 47.4436 89.4011 47.2875L89.8146 43.8926C89.8337 43.7365 89.7252 43.6236 89.5721 43.6402L83.6091 44.2919C83.3569 44.3195 83.1778 44.1331 83.2091 43.8755L83.6497 40.259C83.6812 40.0014 83.9111 39.7703 84.1633 39.7428Z" fill="#071D3D"/>
</g>
</g>
<defs>
<clipPath id="clip0_243_2022">
<rect width="138" height="93" fill="white" transform="translate(8.5 14.5)"/>
</clipPath>
</defs>
</svg>
